<svg width="117" height="112" viewBox="0 0 117 112" fill="none" xmlns="http://www.w3.org/2000/svg">
<path d="M35.7034 99.3679C22.4469 96.9115 20.0962 103.376 18.1917 109.111C18.0172 94.8765 5.64034 88.0626 1.00017 85.7647C11.8666 89.7498 24.3186 86.9183 27.3713 80.3531C27.018 93.0743 29.9185 94.2128 35.7034 99.3679Z" stroke="url(#paint0_linear_335_915)" stroke-width="0.5"/>
<path d="M86.7034 21.3679C73.4469 18.9115 71.0962 25.3757 69.1917 31.1107C69.0172 16.8765 56.6403 10.0626 52.0002 7.76473C62.8666 11.7498 75.3186 8.9183 78.3713 2.3531C78.018 15.0743 80.9185 16.2128 86.7034 21.3679Z" stroke="url(#paint1_linear_335_915)" stroke-width="0.5"/>
<path d="M95.4768 83.7034C97.9333 70.4469 91.4691 68.0962 85.734 66.1917C99.9682 66.0172 106.782 53.6403 109.08 49.0002C105.095 59.8666 107.926 72.3186 114.492 75.3713C101.77 75.018 100.632 77.9185 95.4768 83.7034Z" stroke="url(#paint2_linear_335_915)" stroke-width="0.5"/>
<defs>
<linearGradient id="paint0_linear_335_915" x1="4.49422" y1="98.8047" x2="33.472" y2="91.0402" gradientUnits="userSpaceOnUse">
<stop stop-color="#0085FF" stop-opacity="0"/>
<stop offset="1" stop-color="#0085FF"/>
</linearGradient>
<linearGradient id="paint1_linear_335_915" x1="55.4942" y1="20.8047" x2="84.472" y2="13.0402" gradientUnits="userSpaceOnUse">
<stop stop-color="#0085FF" stop-opacity="0"/>
<stop offset="1" stop-color="#0085FF"/>
</linearGradient>
<linearGradient id="paint2_linear_335_915" x1="96.04" y1="52.4942" x2="103.805" y2="81.472" gradientUnits="userSpaceOnUse">
<stop stop-color="#0085FF" stop-opacity="0"/>
<stop offset="1" stop-color="#0085FF"/>
</linearGradient>
</defs>
</svg>
