<svg width="28" height="41" viewBox="0 0 28 41" fill="none" xmlns="http://www.w3.org/2000/svg">
<path d="M13.7 29C17.1 26.2667 19.6667 23.625 21.4 21.075C23.1333 18.525 24 16.1667 24 14C24 12.0667 23.65 10.4333 22.95 9.1C22.25 7.76667 21.3833 6.675 20.35 5.825C19.3167 4.975 18.2 4.35833 17 3.975C15.8 3.59167 14.7 3.4 13.7 3.4C12.7 3.4 11.6 3.59167 10.4 3.975C9.2 4.35833 8.08333 4.975 7.05 5.825C6.01667 6.675 5.15 7.76667 4.45 9.1C3.75 10.4333 3.4 12.0667 3.4 14C3.4 16.1667 4.26667 18.525 6 21.075C7.73333 23.625 10.3 26.2667 13.7 29ZM13.7 32.7C13.4333 32.7 13.1833 32.6667 12.95 32.6C12.7167 32.5333 12.5 32.4167 12.3 32.25C8.13333 29.0167 5.04167 25.9 3.025 22.9C1.00833 19.9 0 16.9333 0 14C0 11.7 0.416667 9.675 1.25 7.925C2.08333 6.175 3.15833 4.70833 4.475 3.525C5.79167 2.34167 7.25833 1.45833 8.875 0.875C10.4917 0.291667 12.1 0 13.7 0C15.3 0 16.9083 0.291667 18.525 0.875C20.1417 1.45833 21.6083 2.34167 22.925 3.525C24.2417 4.70833 25.3167 6.175 26.15 7.925C26.9833 9.675 27.4 11.7 27.4 14C27.4 16.9333 26.3917 19.9 24.375 22.9C22.3583 25.9 19.2667 29.0167 15.1 32.25C14.9333 32.4167 14.725 32.5333 14.475 32.6C14.225 32.6667 13.9667 32.7 13.7 32.7ZM13.7 17.4C14.7333 17.4 15.6083 17.0333 16.325 16.3C17.0417 15.5667 17.4 14.7 17.4 13.7C17.4 12.6667 17.0417 11.7917 16.325 11.075C15.6083 10.3583 14.7333 10 13.7 10C12.7 10 11.8333 10.3583 11.1 11.075C10.3667 11.7917 10 12.6667 10 13.7C10 14.7 10.3667 15.5667 11.1 16.3C11.8333 17.0333 12.7 17.4 13.7 17.4ZM1.7 40.8C1.23333 40.8 0.833333 40.6333 0.5 40.3C0.166667 39.9667 0 39.5667 0 39.1C0 38.6 0.166667 38.1917 0.5 37.875C0.833333 37.5583 1.23333 37.4 1.7 37.4H25.7C26.1667 37.4 26.5667 37.5667 26.9 37.9C27.2333 38.2333 27.4 38.6333 27.4 39.1C27.4 39.6 27.2333 40.0083 26.9 40.325C26.5667 40.6417 26.1667 40.8 25.7 40.8H1.7Z" fill="black"/>
</svg>
