<svg width="546" height="472" viewBox="0 0 546 472" fill="none" xmlns="http://www.w3.org/2000/svg">
<path d="M459.38 344.098C459.38 344.098 525.34 172.036 491.168 145.796C456.996 119.556 313.678 130.152 305.826 139.527C297.974 148.901 251.743 356.016 251.743 356.016L459.38 344.098Z" fill="#231F20"/>
<path d="M251.644 357.058C251.5 357.057 251.358 357.026 251.227 356.967C251.096 356.909 250.979 356.824 250.882 356.717C250.783 356.6 250.712 356.461 250.677 356.311C250.642 356.161 250.644 356.005 250.682 355.856C252.565 347.383 297.133 148.38 305.065 138.926C309.412 133.738 347.67 128.91 388.612 128.37C412.649 128.049 470.918 129.031 491.789 145.035C506.312 156.172 505.39 193.108 489.065 255.043C477.047 300.852 460.482 344.018 460.321 344.439C460.254 344.621 460.135 344.779 459.978 344.893C459.821 345.007 459.634 345.072 459.44 345.08L251.704 357.098L251.644 357.058ZM396.184 130.313H388.652C346.588 130.873 310.033 136.061 306.527 140.168C300.518 147.399 268.95 283.045 252.845 354.955L458.619 343.097C462.845 331.9 522.717 171.275 490.507 146.577C476.947 136.181 442.755 130.313 396.184 130.313Z" fill="#231F20"/>
<path d="M191.552 195.432L161.827 295.204C161.827 295.204 223.14 303.116 223.14 300.852C223.14 298.589 235.159 191.065 235.159 191.065L191.552 195.432Z" fill="white"/>
<path d="M220.055 302.155C209.699 302.155 180.314 298.589 161.706 296.145C161.563 296.125 161.425 296.074 161.302 295.996C161.18 295.919 161.075 295.816 160.996 295.695C160.916 295.573 160.863 295.436 160.841 295.293C160.818 295.15 160.826 295.003 160.865 294.863L190.59 195.091C190.645 194.899 190.757 194.727 190.91 194.599C191.064 194.47 191.252 194.391 191.451 194.37L235.078 190.004C235.226 189.99 235.374 190.01 235.513 190.062C235.652 190.114 235.777 190.197 235.879 190.304C235.987 190.405 236.068 190.531 236.117 190.671C236.166 190.81 236.18 190.959 236.16 191.105C232.013 228.162 224.141 298.769 224.141 300.792C224.123 301.12 223.98 301.429 223.741 301.654C222.566 302.098 221.306 302.27 220.055 302.155ZM163.048 294.363C184.361 297.087 217.451 300.873 222.098 300.212C222.859 291.558 232.614 204.225 233.956 192.187L192.253 196.373L163.048 294.363Z" fill="#231F20"/>
<path d="M135.206 170.654C135.466 170.934 146.023 168.11 151.471 174.66C156.919 181.21 149.848 187.059 132.642 183.674C115.436 180.289 135.206 170.654 135.206 170.654Z" fill="white"/>
<path d="M141.716 185.657C138.6 185.626 135.495 185.297 132.442 184.675C127.474 183.694 124.91 182.092 124.61 179.748C124.029 175.221 132.963 170.634 134.765 169.733C134.973 169.663 135.198 169.663 135.406 169.733H136.067C138.872 169.392 147.405 168.311 152.252 174.119C154.415 176.683 154.876 179.307 153.594 181.511C151.931 184.135 147.625 185.657 141.716 185.657ZM135.426 171.636C131.52 173.639 126.373 177.164 126.653 179.387C126.653 180.129 127.695 181.531 132.842 182.552C144.48 184.836 150.329 182.712 151.811 180.209C152.165 179.359 152.246 178.42 152.041 177.522C151.836 176.625 151.357 175.813 150.67 175.201C146.543 170.274 139.112 171.195 136.328 171.555C135.947 171.636 135.667 171.636 135.426 171.636Z" fill="#231F20"/>
<path d="M108.746 149.722C108.746 149.722 106.582 147.238 107.945 145.496C108.251 145.142 108.637 144.866 109.071 144.691C109.506 144.517 109.975 144.448 110.441 144.491C110.907 144.534 111.356 144.688 111.751 144.939C112.146 145.191 112.475 145.532 112.712 145.936C112.712 145.936 109.307 147.158 108.746 149.722Z" fill="white"/>
<path d="M108.746 150.743C108.599 150.745 108.453 150.715 108.319 150.657C108.184 150.598 108.063 150.512 107.965 150.403C106.963 149.241 105.641 146.757 107.143 144.875C107.479 144.433 107.912 144.075 108.409 143.829C108.906 143.582 109.453 143.453 110.008 143.452C110.69 143.464 111.361 143.635 111.966 143.951C112.571 144.268 113.094 144.721 113.493 145.275C113.603 145.403 113.679 145.556 113.714 145.72C113.749 145.885 113.742 146.055 113.693 146.217C113.651 146.377 113.571 146.524 113.459 146.646C113.348 146.768 113.208 146.861 113.052 146.918C112.251 147.198 110.108 148.32 109.747 149.942C109.709 150.129 109.619 150.3 109.488 150.438C109.357 150.576 109.19 150.675 109.006 150.723L108.746 150.743ZM110.048 145.516C109.805 145.519 109.565 145.577 109.347 145.684C109.129 145.791 108.937 145.946 108.786 146.136C108.672 146.356 108.612 146.6 108.612 146.848C108.612 147.095 108.672 147.339 108.786 147.559C109.389 146.818 110.122 146.194 110.949 145.716C110.672 145.594 110.367 145.553 110.068 145.596L110.048 145.516Z" fill="#231F20"/>
<path d="M113.473 145.836C112.281 145.933 111.155 146.422 110.271 147.227C109.387 148.031 108.794 149.106 108.585 150.283L151.551 206.188C151.816 203.509 152.973 200.997 154.836 199.054C156.699 197.111 159.161 195.849 161.827 195.472L113.473 145.836Z" fill="white"/>
<path d="M151.531 207.21C151.376 207.208 151.223 207.171 151.084 207.102C150.945 207.033 150.824 206.932 150.73 206.809L107.764 150.904C107.667 150.778 107.601 150.631 107.57 150.474C107.538 150.318 107.543 150.157 107.584 150.003C107.867 148.613 108.595 147.353 109.657 146.413C110.72 145.474 112.059 144.905 113.473 144.795C113.612 144.796 113.749 144.825 113.876 144.88C114.003 144.935 114.118 145.015 114.214 145.115L162.568 194.751C162.702 194.884 162.796 195.053 162.839 195.237C162.881 195.421 162.871 195.614 162.808 195.792C162.752 195.972 162.648 196.132 162.506 196.256C162.365 196.379 162.192 196.462 162.007 196.493C159.566 196.827 157.307 197.973 155.596 199.746C153.885 201.519 152.82 203.817 152.573 206.268C152.556 206.476 152.476 206.674 152.344 206.835C152.211 206.996 152.032 207.113 151.832 207.17L151.531 207.21ZM109.727 150.083L151.01 203.785C151.592 201.671 152.705 199.742 154.245 198.181C155.784 196.621 157.698 195.481 159.804 194.871L113.093 146.918C112.294 147.082 111.556 147.465 110.962 148.024C110.368 148.583 109.941 149.295 109.727 150.083Z" fill="#231F20"/>
<path d="M151.551 206.188L166.213 213.8L168.036 212.097L161.826 195.472C161.826 195.472 150.409 194.33 151.551 206.188Z" fill="white"/>
<path d="M166.213 214.821C166.045 214.824 165.879 214.782 165.732 214.701L151.07 207.089C150.914 207.012 150.781 206.895 150.683 206.752C150.585 206.608 150.525 206.441 150.509 206.268C150.23 204.674 150.318 203.038 150.766 201.483C151.213 199.928 152.009 198.496 153.093 197.294C154.302 196.255 155.705 195.466 157.222 194.975C158.738 194.483 160.338 194.298 161.926 194.43C162.123 194.449 162.31 194.522 162.466 194.643C162.622 194.764 162.74 194.926 162.808 195.111L168.997 211.737C169.072 211.928 169.087 212.137 169.04 212.338C168.994 212.538 168.888 212.719 168.737 212.858L166.914 214.561C166.72 214.73 166.47 214.822 166.213 214.821ZM152.532 205.527L166.033 212.538L166.834 211.817L161.105 196.473C158.71 196.405 156.372 197.217 154.535 198.757C153.731 199.673 153.135 200.753 152.789 201.922C152.443 203.091 152.355 204.321 152.532 205.527Z" fill="#231F20"/>
<path d="M166.213 213.8L169.017 216.804L170.339 215.302L168.036 212.097L166.213 213.8Z" fill="white"/>
<path d="M169.017 217.846C168.876 217.847 168.737 217.817 168.609 217.758C168.481 217.699 168.367 217.613 168.276 217.505L165.452 214.501C165.27 214.297 165.17 214.033 165.171 213.759C165.187 213.484 165.309 213.225 165.512 213.038L167.335 211.336C167.443 211.238 167.571 211.163 167.71 211.118C167.849 211.072 167.996 211.057 168.142 211.072C168.287 211.087 168.428 211.132 168.555 211.206C168.681 211.279 168.791 211.378 168.877 211.496L171.181 214.701C171.327 214.883 171.407 215.109 171.407 215.342C171.407 215.575 171.327 215.801 171.181 215.983L169.859 217.485C169.766 217.598 169.65 217.689 169.519 217.751C169.387 217.814 169.243 217.846 169.097 217.846H169.017ZM167.675 213.84L168.997 215.262L167.855 213.679L167.675 213.84Z" fill="#231F20"/>
<path d="M137.93 210.575C140.294 205.788 146.223 195.632 147.585 191.225C151.35 179.207 129.297 167.95 122.166 167.95C115.035 167.95 100.132 192.868 100.132 206.188C100.132 219.509 149.508 321.504 149.508 321.504L196.88 299.831L137.93 210.575Z" fill="white"/>
<path d="M149.568 322.545C149.375 322.545 149.186 322.491 149.023 322.388C148.86 322.285 148.729 322.138 148.646 321.964C146.643 317.798 99.1509 219.568 99.1509 206.188C99.1509 192.808 114.214 166.908 122.166 166.908C127.654 166.908 140.414 172.757 146.203 180.529C147.484 182.023 148.379 183.809 148.808 185.73C149.238 187.651 149.189 189.648 148.666 191.546C146.757 196.269 144.521 200.853 141.976 205.267C140.915 207.27 139.973 209.072 139.212 210.495L197.881 299.23C197.963 299.356 198.018 299.497 198.042 299.646C198.066 299.794 198.059 299.946 198.022 300.091C197.978 300.231 197.906 300.361 197.81 300.472C197.713 300.582 197.594 300.671 197.461 300.732L150.068 322.445C149.918 322.535 149.741 322.571 149.568 322.545ZM122.166 168.971C115.896 168.971 101.234 193.008 101.234 206.188C101.234 218.447 145.161 309.966 150.048 320.162L195.418 299.37L137.069 211.236C136.981 211.076 136.935 210.897 136.935 210.715C136.935 210.533 136.981 210.354 137.069 210.194C137.83 208.672 138.931 206.609 140.133 204.365C142.611 200.065 144.792 195.601 146.663 191.005C147.086 189.417 147.111 187.75 146.738 186.15C146.364 184.55 145.602 183.067 144.52 181.831C138.931 174.239 126.773 168.971 122.166 168.971Z" fill="#231F20"/>
<path d="M389.974 230.766L448.363 215.883C446.36 213.059 422.804 138.285 397.966 126.046C376.233 111.624 324.695 102.01 279.165 105.274C279.165 105.274 267.147 104.834 246.075 113.187C194.757 133.578 184.862 204.586 184.862 204.586L224.923 218.427C224.923 218.427 217.271 310.267 210.04 358.28C210.04 358.28 298.615 375.606 427.571 354.274C427.672 354.234 390.214 244.346 389.974 230.766Z" fill="white"/>
<path d="M385.167 128.109C377.435 136.122 371.406 145.736 362.873 153.288C344.485 169.552 320.428 182.432 295.21 180.87C265.485 179.027 239.786 158.716 233.336 129.131C229.33 110.583 233.496 93.3564 247.838 80.2564C257.753 71.2026 270.452 65.6742 283.432 62.229C317.905 52.9949 356.584 57.9024 386.008 78.1332C390.816 81.0925 394.875 85.1235 397.866 89.9111C405.218 103.231 396.765 116.932 387.23 126.086C386.589 126.707 385.908 127.408 385.167 128.109Z" fill="white"/>
<path d="M283.753 149.101C283.452 149.101 277.924 155.831 277.643 155.931C280.788 167.79 284.113 183.233 297.534 184.755C324.755 187.86 328.881 151.565 334.009 134.439C315.16 139.727 301.86 141.85 283.753 149.101Z" fill="#231F20"/>
<path d="M300.718 185.957C299.62 185.949 298.524 185.882 297.433 185.757C284.033 184.235 280.247 169.733 277.182 158.135L276.661 156.132C276.613 155.935 276.625 155.728 276.697 155.539C276.768 155.349 276.896 155.186 277.062 155.07C277.382 154.77 278.845 153.067 279.906 151.825C283.011 148.26 283.051 148.24 283.372 148.1C294.459 143.813 305.838 140.326 317.423 137.664C322.531 136.382 327.799 135.06 333.648 133.417C333.82 133.369 334.002 133.368 334.174 133.414C334.347 133.46 334.504 133.551 334.63 133.678C334.75 133.807 334.835 133.966 334.877 134.137C334.919 134.309 334.917 134.489 334.87 134.659C334.109 137.203 333.368 140.208 332.567 143.392C328.42 160.539 322.071 185.937 300.718 185.957ZM278.684 156.252L279.045 157.634C282.11 169.252 285.555 182.412 297.593 183.674C319.887 186.218 326.117 161.16 330.684 142.852C331.305 140.348 331.906 137.944 332.506 135.781C327.319 137.203 322.491 138.405 317.944 139.567C306.465 142.173 295.191 145.614 284.213 149.862C283.812 150.263 282.41 151.865 281.369 153.087C279.966 154.89 279.185 155.771 278.745 156.252H278.684Z" fill="#231F20"/>
<path d="M310.112 9.38816C306.106 9.22792 303.542 10.9706 300.097 12.2125C293.387 14.5761 290.262 8.96752 284.493 5.98297C275.411 1.2611 264.974 -0.17175 254.955 1.92771C244.936 4.02718 235.952 9.52954 229.53 17.5005C225.533 22.2342 222.944 27.9942 222.058 34.1258C221.217 41.0564 223.16 48.1472 221.958 54.9977C221.224 58.932 219.499 62.6145 216.948 65.6983C214.397 68.7821 211.103 71.1657 207.376 72.6245C213.789 73.1195 220.239 72.5097 226.445 70.8218C224.661 72.942 222.444 74.6558 219.942 75.8478C217.441 77.0397 214.713 77.6823 211.943 77.7323C218.331 82.644 226.179 85.2744 234.237 85.2037L220.115 88.5087C232.134 96.2205 246.776 98.524 260.938 97.883C289.141 96.4208 336.372 84.8832 335.551 48.3475C335.091 34.3462 327.399 10.1894 310.112 9.38816Z" fill="white"/>
<path d="M256.09 99.0649C245.294 99.0649 231.473 97.0618 219.494 89.4101C219.33 89.3007 219.201 89.1459 219.123 88.9646C219.045 88.7833 219.021 88.5833 219.054 88.3886C219.095 88.198 219.188 88.0225 219.322 87.8811C219.456 87.7398 219.627 87.6382 219.815 87.5874L227.667 85.7646C221.69 84.7464 216.052 82.2849 211.242 78.5937C211.074 78.4676 210.949 78.2917 210.887 78.0911C210.824 77.8904 210.826 77.6751 210.893 77.4757C210.959 77.2763 211.087 77.1029 211.257 76.98C211.428 76.8571 211.633 76.7909 211.843 76.7909C215.956 76.7235 219.927 75.2775 223.12 72.6847C217.893 73.7687 212.538 74.1059 207.216 73.6862C206.99 73.6656 206.778 73.5693 206.615 73.4129C206.451 73.2565 206.345 73.0492 206.314 72.8249C206.278 72.5981 206.322 72.3656 206.439 72.168C206.556 71.9703 206.739 71.82 206.955 71.7432C210.536 70.3656 213.704 68.0942 216.159 65.1455C218.613 62.1967 220.272 58.6688 220.977 54.8976C221.458 51.2971 221.499 47.6513 221.097 44.041C220.784 40.71 220.784 37.3569 221.097 34.0258C222.008 27.7039 224.673 21.7639 228.789 16.8797C235.357 8.72872 244.545 3.10354 254.791 0.960083C265.037 -1.18337 275.709 0.287151 284.994 5.12174C286.701 6.05361 288.323 7.13268 289.842 8.34665C293.087 10.8104 295.65 12.7534 299.857 11.2911C300.758 10.9707 301.6 10.6101 302.421 10.2696C304.865 9.02803 307.571 8.3893 310.313 8.40674C327.659 9.1679 336.352 32.6837 336.633 48.3476C336.993 64.9529 327.92 78.0328 309.652 87.1868C291.384 96.3407 269.591 98.464 261.078 98.9046C259.395 99.0248 257.773 99.0649 256.09 99.0649ZM222.639 89.0496C235.579 96.561 250.422 97.5626 260.817 97.0618C269.15 96.6211 290.463 94.6381 308.59 85.5443C326.117 76.7709 334.81 64.3319 334.47 48.5479C334.129 33.6452 326.137 11.2711 310.072 10.4899C307.629 10.507 305.222 11.0897 303.042 12.1925C302.18 12.5531 301.299 12.9336 300.358 13.2541C295.17 15.0769 291.925 12.6132 288.5 10.0092C287.076 8.8688 285.555 7.85664 283.953 6.98457C275.08 2.35569 264.877 0.945639 255.082 2.99457C245.286 5.0435 236.504 10.4247 230.231 18.2217C226.366 22.7841 223.848 28.333 222.96 34.2461C222.659 37.4373 222.659 40.6496 222.96 43.8407C223.367 47.6123 223.313 51.4194 222.799 55.178C222.167 58.6093 220.808 61.8658 218.815 64.7295C216.822 67.5933 214.24 69.9982 211.242 71.7833C216.237 71.7768 221.208 71.1032 226.024 69.7803C226.232 69.7201 226.453 69.7286 226.655 69.8044C226.857 69.8802 227.029 70.0192 227.146 70.2009C227.269 70.3736 227.334 70.5801 227.334 70.7918C227.334 71.0035 227.269 71.21 227.146 71.3827C223.976 75.1544 219.553 77.6575 214.687 78.4334C220.48 82.2107 227.261 84.19 234.177 84.1221C234.424 84.1158 234.665 84.203 234.85 84.3665C235.036 84.5299 235.153 84.7574 235.178 85.0034C235.21 85.2486 235.149 85.4968 235.009 85.7002C234.868 85.9036 234.658 86.0478 234.417 86.1051L222.639 89.0496Z" fill="#231F20"/>
<path d="M275.64 121.439L277.643 155.932C277.643 155.932 293.407 173.959 313.698 162.882C333.989 151.805 333.208 134.239 333.208 134.239L319.887 69.48C319.887 69.48 301.479 65.2335 296.792 28.9783C281.089 41.4117 262.322 49.3767 242.469 52.0334C242.469 52.0334 242.83 92.5952 249.981 108.72C257.132 124.844 275.64 121.439 275.64 121.439Z" fill="white"/>
<path d="M300.378 167.469C286.597 167.469 277.002 156.753 276.882 156.593C276.733 156.427 276.648 156.214 276.642 155.992L274.639 122.561C270.412 122.981 255.349 123.382 249 109.06C241.849 93.0357 241.428 53.6357 241.408 51.9731C241.41 51.7313 241.497 51.4978 241.655 51.3144C241.813 51.131 242.03 51.0096 242.269 50.9716C261.911 48.2935 280.484 40.4249 296.071 28.1769C296.209 28.0565 296.377 27.976 296.557 27.9442C296.737 27.9124 296.922 27.9306 297.093 27.9966C297.261 28.0618 297.409 28.1702 297.521 28.3109C297.634 28.4516 297.707 28.6196 297.734 28.7978C300.097 47.1458 306.066 56.9407 310.653 61.9484C313.132 64.9396 316.391 67.1859 320.068 68.4382C320.252 68.4865 320.419 68.5852 320.55 68.7233C320.681 68.8613 320.77 69.0331 320.809 69.2194L334.149 134.038C334.149 134.379 334.75 152.506 314.119 163.763C309.926 166.143 305.198 167.418 300.378 167.469ZM278.605 155.451C280.608 157.634 294.95 171.936 313.237 161.941C332.707 151.284 332.226 134.359 332.226 134.198L319.026 70.1008C315.701 68.9991 300.638 62.349 296.051 30.7007C280.653 42.3317 262.58 49.908 243.491 52.7343C243.491 58.7435 244.493 93.7167 250.882 108.159C257.633 123.342 274.739 120.478 275.46 120.357C275.599 120.33 275.741 120.332 275.879 120.363C276.017 120.394 276.147 120.454 276.261 120.538C276.37 120.63 276.46 120.743 276.526 120.87C276.591 120.997 276.63 121.136 276.642 121.279L278.605 155.451Z" fill="#231F20"/>
<path d="M312.376 87.6272C317.082 88.336 321.877 87.1552 325.716 84.3422C328.308 82.2895 330.329 79.6049 331.585 76.5463C332.841 73.4876 333.289 70.1575 332.887 66.8756C332.764 64.4227 332.079 62.0309 330.884 59.8849C330.299 58.8117 329.491 57.8769 328.512 57.1442C327.534 56.4114 326.41 55.8979 325.215 55.6385C322.258 55.4545 319.32 56.2347 316.843 57.8619C312.957 59.8649 312.837 62.0883 310.713 65.3733C310.954 65.0728 311.134 64.2316 311.374 63.9311" fill="white"/>
<path d="M315.06 88.8495C314.108 88.8458 313.157 88.7722 312.216 88.6291C311.951 88.5848 311.714 88.4381 311.557 88.2207C311.4 88.0033 311.334 87.7327 311.374 87.4674C311.394 87.3377 311.439 87.2133 311.507 87.1013C311.576 86.9894 311.666 86.8924 311.772 86.8158C311.878 86.7393 311.999 86.6848 312.127 86.6557C312.255 86.6265 312.387 86.6233 312.516 86.6461C316.954 87.2992 321.469 86.1685 325.075 83.5013C327.53 81.5488 329.44 78.9973 330.622 76.0925C331.804 73.1877 332.219 70.0275 331.826 66.9161C331.746 64.6179 331.135 62.3694 330.043 60.346C329.526 59.4084 328.816 58.5913 327.96 57.949C327.103 57.3067 326.12 56.8538 325.075 56.6204C322.592 56.1797 320.108 57.3214 317.344 58.7436C315.444 59.6676 313.958 61.2678 313.177 63.2304C312.757 63.9916 312.296 64.8529 311.675 65.7944C311.633 65.8757 311.579 65.95 311.515 66.0147C311.354 66.2139 311.121 66.3422 310.866 66.3722C310.612 66.4021 310.356 66.3313 310.153 66.1749C309.941 66.0256 309.797 65.7986 309.752 65.5434C309.707 65.2883 309.764 65.0256 309.912 64.8128C309.912 64.8128 309.912 64.5525 310.052 64.4122C310.17 64.0496 310.339 63.7056 310.553 63.3907C310.657 63.2693 310.787 63.1733 310.934 63.1103L311.314 62.3892C312.304 60.0655 314.095 58.1747 316.362 57.061C318.726 55.8392 321.991 54.1566 325.336 54.7375C326.696 55.0074 327.981 55.57 329.101 56.3863C330.222 57.2026 331.152 58.2531 331.826 59.4647C333.054 61.7557 333.739 64.2982 333.829 66.896C334.252 70.3444 333.777 73.8436 332.451 77.0547C331.124 80.2657 328.991 83.0797 326.257 85.2239C323.005 87.5916 319.083 88.8615 315.06 88.8495Z" fill="#231F20"/>
<path d="M276.681 139.587C280.626 139.303 284.442 138.06 287.797 135.965C291.152 133.871 293.944 130.988 295.931 127.568C303.002 115.771 300.177 108.219 300.177 108.219C300.177 108.219 290.643 120.378 275.64 121.359L276.681 139.587Z" fill="#231F20"/>
<path d="M276.682 140.568C276.428 140.568 276.184 140.47 276.001 140.295C275.819 140.119 275.711 139.88 275.7 139.626L274.639 121.599C274.63 121.467 274.648 121.336 274.691 121.211C274.734 121.086 274.801 120.971 274.889 120.873C274.976 120.774 275.082 120.694 275.201 120.636C275.32 120.579 275.448 120.545 275.58 120.537C289.942 119.616 299.296 107.918 299.396 107.798C299.505 107.656 299.65 107.546 299.815 107.479C299.981 107.413 300.161 107.391 300.338 107.417C300.512 107.447 300.676 107.522 300.813 107.634C300.95 107.747 301.055 107.893 301.119 108.058C301.239 108.379 304.023 116.191 296.772 128.269C294.708 131.822 291.801 134.811 288.308 136.974C284.814 139.136 280.842 140.405 276.742 140.668L276.682 140.568ZM276.682 122.34L277.623 138.505C281.201 138.064 284.63 136.809 287.647 134.837C290.665 132.865 293.19 130.227 295.03 127.127C299.817 119.115 299.937 113.266 299.577 110.462C293.579 116.99 285.473 121.196 276.682 122.34Z" fill="#231F20"/>
<path d="M272.996 66.6155C272.996 66.6155 265.484 86.4056 268.889 88.7692C272.295 91.1328 279.486 87.3671 279.486 87.3671" fill="white"/>
<path d="M271.854 90.5519C270.601 90.6094 269.361 90.2732 268.309 89.5905C264.543 86.9865 270.312 71.0823 272.034 66.2549C272.129 66.009 272.316 65.8101 272.556 65.7013C272.796 65.5926 273.069 65.5828 273.316 65.674C273.441 65.7207 273.554 65.7915 273.651 65.8824C273.747 65.9733 273.825 66.0825 273.879 66.2036C273.933 66.3247 273.962 66.4554 273.966 66.588C273.969 66.7206 273.945 66.8525 273.897 66.976C270.412 76.17 267.888 86.8062 269.45 87.9279C271.834 89.5704 277.162 87.4472 279.005 86.4857C279.242 86.3645 279.517 86.3406 279.772 86.4192C280.026 86.4978 280.24 86.6726 280.367 86.9064C280.486 87.1429 280.506 87.4169 280.424 87.6683C280.341 87.9198 280.162 88.1284 279.926 88.2484C277.431 89.5847 274.679 90.3702 271.854 90.5519Z" fill="#231F20"/>
<path d="M287.771 66.1147C289.297 65.6214 289.969 63.4722 289.272 61.3143C288.574 59.1564 286.771 57.8069 285.245 58.3002C283.719 58.7935 283.047 60.9427 283.744 63.1006C284.442 65.2586 286.244 66.608 287.771 66.1147Z" fill="#231F20"/>
<path d="M259.748 72.6673C261.352 72.6455 262.627 70.7895 262.596 68.5219C262.565 66.2543 261.24 64.4337 259.636 64.4556C258.032 64.4774 256.757 66.3334 256.788 68.601C256.818 70.8686 258.144 72.6892 259.748 72.6673Z" fill="#231F20"/>
<path d="M275.38 114.188C273.456 114.238 271.565 113.685 269.972 112.605C263.662 107.998 263.201 97.8228 263.181 97.3821C263.176 97.1454 263.252 96.914 263.399 96.7277C263.545 96.5413 263.751 96.4116 263.982 96.3605C289.902 90.6919 290.182 90.8922 290.643 91.2327C290.757 91.3191 290.853 91.4273 290.926 91.5511C290.998 91.6749 291.045 91.8118 291.064 91.9538C291.465 95.9923 290.909 100.068 289.441 103.852C288.559 106.171 287.161 108.26 285.353 109.96C283.545 111.661 281.375 112.928 279.005 113.667C277.827 114.008 276.607 114.183 275.38 114.188ZM265.264 98.1633C265.505 100.587 266.586 107.678 271.113 110.963C272.191 111.624 273.402 112.039 274.659 112.178C275.916 112.316 277.188 112.175 278.384 111.764C280.472 111.114 282.386 110 283.982 108.504C285.578 107.009 286.814 105.172 287.598 103.131C288.838 99.9456 289.358 96.5254 289.121 93.1156C285.675 93.7366 273.517 96.3405 265.264 98.1433V98.1633Z" fill="#231F20"/>
<path d="M288.52 103.531C284.674 112.826 275.039 115.049 270.492 111.824C271.514 108.279 273.377 104.593 276.842 103.251C280.644 101.954 284.784 102.053 288.52 103.531Z" fill="#231F20"/>
<path d="M275.38 114.168C273.459 114.221 271.568 113.675 269.972 112.605C269.806 112.485 269.683 112.316 269.618 112.122C269.554 111.928 269.551 111.719 269.611 111.524C270.973 106.636 273.317 103.511 276.542 102.29C280.551 100.927 284.912 101.019 288.86 102.55C288.988 102.597 289.106 102.669 289.206 102.762C289.305 102.854 289.386 102.966 289.441 103.091C289.541 103.342 289.541 103.621 289.441 103.872C288.554 106.186 287.154 108.27 285.346 109.966C283.539 111.662 281.371 112.927 279.005 113.667C277.826 114 276.606 114.169 275.38 114.168ZM271.734 111.343C273.817 112.327 276.199 112.471 278.384 111.744C280.303 111.157 282.076 110.173 283.587 108.854C285.099 107.536 286.316 105.913 287.158 104.092C283.946 103.025 280.475 103.025 277.263 104.092C274.799 105.094 272.996 107.538 271.734 111.343Z" fill="#231F20"/>
<path d="M241.528 82.6C240.157 82.5996 238.828 82.1306 237.761 81.2707C236.693 80.4109 235.952 79.212 235.659 77.8728L233.556 68.3183C233.217 66.7618 233.509 65.1342 234.369 63.7932C235.229 62.4523 236.587 61.5078 238.143 61.1674L260.477 56.2599C261.249 56.0889 262.047 56.0719 262.826 56.21C263.605 56.3481 264.349 56.6386 265.015 57.0647C265.681 57.4909 266.256 58.0443 266.708 58.6933C267.16 59.3424 267.48 60.0742 267.648 60.8469L269.651 70.4014C269.975 71.9379 269.685 73.5402 268.843 74.8654C268 76.1906 266.673 77.1335 265.144 77.4923L242.81 82.3797C242.393 82.5028 241.963 82.5767 241.528 82.6ZM261.779 58.2029C261.493 58.1732 261.204 58.1732 260.918 58.2029L238.604 63.0903C237.585 63.3252 236.699 63.9489 236.133 64.8284C235.568 65.7078 235.369 66.7734 235.579 67.7975L237.682 77.4923C237.922 78.503 238.544 79.3813 239.419 79.9418C240.293 80.5024 241.351 80.7014 242.369 80.4968L264.703 75.4892C265.714 75.2499 266.592 74.6273 267.153 73.7529C267.714 72.8784 267.913 71.8204 267.708 70.8021L265.705 61.2475C265.503 60.3745 265.015 59.5942 264.318 59.0313C263.621 58.4685 262.755 58.1557 261.859 58.1428L261.779 58.2029Z" fill="#231F20"/>
<path d="M281.329 73.8867C280.177 73.8837 279.051 73.55 278.084 72.9252C276.745 72.0666 275.802 70.7124 275.46 69.1595L273.457 59.6049C273.113 58.0494 273.401 56.4211 274.258 55.078C274.683 54.4094 275.237 53.8316 275.887 53.3778C276.536 52.9241 277.269 52.6033 278.044 52.434L300.358 47.5465C301.13 47.3755 301.928 47.3585 302.707 47.4966C303.485 47.6347 304.229 47.9252 304.895 48.3513C305.561 48.7775 306.137 49.3309 306.589 49.98C307.041 50.629 307.36 51.3608 307.529 52.1335L309.532 61.6881C309.88 63.2334 309.604 64.8538 308.764 66.1967C307.923 67.5396 306.587 68.4965 305.045 68.859L282.731 73.7464C282.269 73.8377 281.799 73.8847 281.329 73.8867ZM301.579 49.4494C301.29 49.4531 301.001 49.4866 300.718 49.5496L278.404 54.4571C277.896 54.5637 277.414 54.7711 276.988 55.067C276.561 55.3628 276.198 55.7412 275.92 56.1797C275.356 57.0652 275.162 58.1369 275.38 59.1642L277.483 68.7188C277.722 69.7295 278.345 70.6078 279.219 71.1684C280.094 71.7289 281.152 71.9279 282.17 71.7234L304.504 66.8359C305.525 66.6081 306.416 65.9898 306.988 65.1133C307.545 64.225 307.732 63.1534 307.508 62.1287L305.505 52.5742C305.305 51.6841 304.806 50.8892 304.092 50.321C303.378 49.7528 302.492 49.4453 301.579 49.4494Z" fill="#231F20"/>
<path d="M266.626 62.1088C266.443 62.1127 266.262 62.0641 266.105 61.9686C265.872 61.8305 265.701 61.6067 265.63 61.3448C265.559 61.083 265.593 60.8037 265.725 60.5664C266.666 58.944 269.731 56.4001 274.758 58.4232C275.024 58.5241 275.239 58.7264 275.355 58.9856C275.472 59.2448 275.48 59.5397 275.379 59.8053C275.278 60.0709 275.076 60.2856 274.817 60.402C274.558 60.5185 274.263 60.5272 273.997 60.4262C269.51 58.6235 267.708 61.3677 267.527 61.6882C267.423 61.8266 267.286 61.9373 267.129 62.0106C266.972 62.0839 266.799 62.1176 266.626 62.1088Z" fill="#231F20"/>
<path d="M67.0821 328.755H478.91L544.99 449.438H1.00146L67.0821 328.755Z" fill="white"/>
<path d="M544.991 450.44H1.00179C0.829314 450.439 0.659879 450.395 0.509272 450.311C0.358664 450.227 0.231787 450.106 0.140477 449.959C0.0563195 449.806 0.012207 449.634 0.012207 449.459C0.012207 449.284 0.0563195 449.111 0.140477 448.958L66.2412 328.274C66.326 328.115 66.4531 327.982 66.6086 327.89C66.7641 327.798 66.9419 327.751 67.1225 327.753H478.89C479.07 327.751 479.248 327.798 479.404 327.89C479.559 327.982 479.686 328.115 479.771 328.274L545.872 448.958C545.956 449.111 546 449.284 546 449.459C546 449.634 545.956 449.806 545.872 449.959C545.779 450.109 545.649 450.231 545.494 450.316C545.34 450.4 545.166 450.443 544.991 450.44ZM2.70438 448.437H543.288L478.309 329.756H67.6834L2.70438 448.437Z" fill="#D1D3D4"/>
<path d="M73.4719 250.896L74.3533 247.091C76.3563 243.285 78.5797 240.721 83.7476 240.721H279.786C282.156 240.725 284.461 241.496 286.357 242.918C288.252 244.341 289.636 246.339 290.302 248.613L322.171 358.1C322.993 360.447 322.89 363.02 321.881 365.294C320.872 367.568 319.035 369.372 316.743 370.338L313.277 371.16L73.4719 250.896Z" fill="white"/>
<path d="M313.278 372.161C313.126 372.157 312.976 372.123 312.837 372.061L73.0315 251.758C72.8292 251.659 72.667 251.494 72.5722 251.289C72.4774 251.085 72.4557 250.854 72.5107 250.636L73.3921 246.83C73.3834 246.744 73.3834 246.657 73.3921 246.57C75.3951 242.944 77.6986 239.679 83.6677 239.679H279.706C282.291 239.69 284.804 240.533 286.872 242.085C288.939 243.637 290.451 245.813 291.184 248.293L323.072 357.92C323.968 360.507 323.845 363.338 322.729 365.838C321.613 368.338 319.587 370.32 317.063 371.38L313.478 372.241L313.278 372.161ZM74.694 250.356L313.478 370.098L316.583 369.377C321.41 367.494 322.411 362.346 321.27 358.38L289.401 248.893C288.79 246.83 287.531 245.019 285.81 243.728C284.089 242.436 281.998 241.733 279.847 241.723H83.7478C79.3211 241.723 77.4182 243.726 75.295 247.451L74.694 250.356Z" fill="#231F20"/>
<path d="M313.277 371.159H113.232C111.873 371.144 110.555 370.692 109.473 369.87C108.39 369.047 107.602 367.898 107.223 366.592L73.552 250.896C73.425 250.452 73.4026 249.985 73.4867 249.531C73.5708 249.077 73.7591 248.649 74.0367 248.28C74.3143 247.911 74.6737 247.612 75.0866 247.405C75.4995 247.199 75.9547 247.091 76.4163 247.09H281.809L316.602 366.733C316.756 367.249 316.786 367.793 316.691 368.323C316.596 368.853 316.378 369.353 316.055 369.783C315.731 370.214 315.312 370.562 314.829 370.801C314.347 371.04 313.815 371.163 313.277 371.159Z" fill="#231F20"/>
<path d="M313.277 372.161H113.232C111.645 372.154 110.103 371.635 108.833 370.683C107.563 369.731 106.633 368.395 106.182 366.873L72.5105 251.177C72.3478 250.585 72.3233 249.964 72.4387 249.362C72.5541 248.759 72.8063 248.191 73.176 247.701C73.5457 247.212 74.0229 246.813 74.5708 246.537C75.1188 246.261 75.7228 246.115 76.3363 246.109H281.809C282.022 246.106 282.229 246.172 282.399 246.299C282.57 246.426 282.693 246.606 282.751 246.81L317.564 366.452C317.756 367.117 317.792 367.818 317.667 368.499C317.542 369.18 317.261 369.823 316.845 370.376C316.429 370.93 315.891 371.379 315.271 371.689C314.652 371.999 313.97 372.16 313.277 372.161ZM76.3363 248.092C76.0315 248.097 75.7318 248.171 75.46 248.309C75.1883 248.447 74.9516 248.646 74.7681 248.889C74.5846 249.132 74.459 249.414 74.401 249.714C74.343 250.013 74.3541 250.322 74.4334 250.616L108.085 366.312C108.416 367.421 109.095 368.394 110.023 369.086C110.95 369.779 112.075 370.155 113.232 370.158H313.277C313.664 370.16 314.047 370.073 314.394 369.903C314.742 369.732 315.045 369.484 315.28 369.177C315.507 368.87 315.659 368.515 315.725 368.14C315.791 367.764 315.769 367.379 315.661 367.013L281.008 248.092H76.3363Z" fill="#231F20"/>
<path d="M279.726 321.864L267.567 373.563C266.924 376.33 265.362 378.797 263.135 380.562C260.909 382.326 258.15 383.284 255.309 383.278H128.776C126.877 383.277 125.002 382.847 123.293 382.019C121.583 381.192 120.083 379.988 118.904 378.499C117.725 377.01 116.898 375.274 116.485 373.42C116.071 371.566 116.082 369.643 116.517 367.794L127.234 321.864H116.758L106.502 365.431C105.728 368.785 105.72 372.271 106.48 375.63C107.239 378.988 108.747 382.131 110.889 384.826C113.032 387.521 115.754 389.698 118.855 391.195C121.955 392.693 125.353 393.471 128.796 393.473H255.409C260.539 393.47 265.519 391.739 269.546 388.559C273.572 385.379 276.41 380.937 277.603 375.947L290.302 321.864H279.726Z" fill="white"/>
<path d="M255.309 394.615H128.776C125.174 394.614 121.618 393.799 118.375 392.23C115.133 390.661 112.286 388.379 110.05 385.555C107.813 382.731 106.244 379.438 105.46 375.921C104.676 372.405 104.696 368.758 105.521 365.251L115.756 321.664C115.81 321.445 115.937 321.251 116.115 321.113C116.293 320.975 116.513 320.901 116.738 320.903H127.314C127.464 320.905 127.612 320.94 127.747 321.006C127.882 321.072 128.001 321.167 128.095 321.284C128.187 321.401 128.251 321.538 128.282 321.684C128.314 321.829 128.311 321.98 128.275 322.125L117.479 368.055C117.081 369.758 117.073 371.529 117.455 373.236C117.837 374.943 118.599 376.542 119.685 377.913C120.771 379.284 122.153 380.392 123.727 381.155C125.301 381.917 127.027 382.314 128.776 382.317H255.389C258.007 382.321 260.549 381.439 262.601 379.813C264.653 378.186 266.093 375.913 266.686 373.363L278.845 321.664C278.895 321.447 279.017 321.253 279.192 321.115C279.367 320.977 279.583 320.902 279.806 320.903H290.382C290.532 320.906 290.679 320.942 290.813 321.008C290.947 321.074 291.065 321.168 291.159 321.285C291.252 321.401 291.319 321.537 291.355 321.682C291.39 321.827 291.393 321.978 291.364 322.125L278.645 376.207C277.422 381.469 274.445 386.157 270.204 389.503C265.963 392.848 260.71 394.651 255.309 394.615ZM117.439 322.906L107.424 365.711C106.664 368.928 106.643 372.276 107.363 375.502C108.083 378.728 109.524 381.749 111.579 384.338C113.634 386.927 116.249 389.016 119.228 390.45C122.206 391.883 125.471 392.622 128.776 392.612H255.389C260.329 392.627 265.127 390.964 268.998 387.897C272.87 384.829 275.586 380.538 276.702 375.727L289.121 322.906H280.608L268.589 373.824C267.902 376.817 266.217 379.487 263.811 381.395C261.404 383.302 258.42 384.334 255.349 384.32H128.776C126.724 384.32 124.699 383.856 122.851 382.963C121.004 382.069 119.383 380.77 118.109 379.161C116.835 377.552 115.942 375.675 115.497 373.672C115.051 371.669 115.065 369.591 115.536 367.594L126.032 322.906H117.439Z" fill="#231F20"/>
<path d="M442.895 216.444C442.895 216.444 460.802 295.965 446.139 316.276C431.477 336.587 329.081 333.382 329.081 333.382C329.081 333.382 312.476 353.312 298.054 351.99C283.632 350.668 292.045 323.387 309.011 312.029L306.667 302.555L396.944 288.073L384.926 230.926" fill="white"/>
<path d="M299.376 353.052C298.882 353.052 298.381 353.052 297.874 353.052C296.007 352.959 294.224 352.25 292.804 351.036C291.383 349.822 290.405 348.171 290.022 346.342C287.758 337.468 295.01 320.542 307.769 311.649L305.606 302.856C305.57 302.724 305.563 302.587 305.584 302.452C305.604 302.318 305.653 302.189 305.726 302.074C305.801 301.957 305.901 301.856 306.019 301.78C306.136 301.704 306.269 301.654 306.407 301.634L395.643 287.312L383.825 231.226C383.799 231.098 383.798 230.965 383.823 230.836C383.848 230.706 383.898 230.583 383.971 230.474C384.043 230.364 384.137 230.27 384.246 230.196C384.355 230.122 384.477 230.071 384.606 230.045C384.734 230.015 384.866 230.012 384.995 230.034C385.124 230.057 385.247 230.105 385.357 230.176C385.468 230.247 385.562 230.339 385.636 230.447C385.71 230.556 385.762 230.677 385.788 230.806L397.806 287.953C397.836 288.087 397.837 288.226 397.809 288.36C397.781 288.495 397.726 288.622 397.646 288.734C397.571 288.846 397.473 288.941 397.359 289.013C397.245 289.086 397.118 289.134 396.985 289.155L307.789 303.476L309.792 311.889C309.843 312.086 309.832 312.294 309.761 312.484C309.689 312.674 309.56 312.837 309.391 312.951C297.133 321.163 289.782 337.689 291.885 345.901C292.155 347.317 292.895 348.6 293.986 349.542C295.077 350.483 296.454 351.029 297.894 351.089C311.615 352.371 327.94 333.062 328.06 332.841C328.157 332.724 328.28 332.631 328.419 332.568C328.558 332.506 328.709 332.476 328.861 332.481C329.883 332.481 431.017 335.425 445.158 315.775C459.3 296.125 441.953 217.626 441.773 216.764C441.744 216.633 441.741 216.497 441.765 216.364C441.789 216.232 441.838 216.105 441.911 215.992C441.983 215.878 442.077 215.78 442.188 215.703C442.298 215.626 442.423 215.571 442.554 215.542C442.686 215.514 442.822 215.511 442.954 215.534C443.087 215.558 443.214 215.607 443.327 215.68C443.441 215.753 443.539 215.847 443.616 215.957C443.693 216.068 443.747 216.192 443.776 216.324C444.517 219.589 461.603 296.446 446.841 316.957C432.419 336.988 337.895 334.744 329.342 334.484C327.078 337.128 312.797 353.052 299.376 353.052Z" fill="#231F20"/>
<path d="M335.471 177.064C335.316 177.061 335.165 177.02 335.03 176.944C334.908 176.888 334.797 176.808 334.706 176.708C334.615 176.609 334.545 176.492 334.5 176.365C334.455 176.238 334.436 176.103 334.445 175.968C334.453 175.833 334.489 175.702 334.55 175.581C349.092 145.536 386.429 125.325 386.809 125.125C386.927 125.059 387.057 125.017 387.191 125.003C387.325 124.988 387.461 125.001 387.59 125.04C387.719 125.08 387.839 125.145 387.942 125.231C388.046 125.318 388.13 125.425 388.191 125.545C388.258 125.665 388.299 125.796 388.314 125.932C388.329 126.067 388.316 126.204 388.277 126.335C388.238 126.466 388.173 126.587 388.086 126.692C387.999 126.798 387.892 126.884 387.771 126.947C387.41 127.148 350.654 146.978 336.413 176.483C336.324 176.657 336.19 176.803 336.023 176.906C335.857 177.008 335.666 177.063 335.471 177.064Z" fill="#231F20"/>
<path d="M273.737 175.641C273.592 175.672 273.442 175.672 273.296 175.641C238.403 159.617 234.177 124.403 234.137 124.063C234.109 123.79 234.19 123.516 234.362 123.302C234.535 123.088 234.785 122.951 235.058 122.921C235.192 122.904 235.329 122.915 235.459 122.951C235.59 122.987 235.711 123.049 235.818 123.133C235.924 123.217 236.012 123.321 236.078 123.439C236.144 123.558 236.185 123.688 236.2 123.823C236.2 124.163 240.366 158.235 274.258 173.578C274.506 173.692 274.699 173.898 274.796 174.153C274.894 174.408 274.887 174.69 274.779 174.94C274.702 175.153 274.56 175.335 274.373 175.461C274.185 175.588 273.963 175.651 273.737 175.641Z" fill="#231F20"/>
<path d="M114.755 221.051C114.537 220.989 114.346 220.857 114.21 220.677C114.073 220.496 114 220.276 114 220.049C114 219.823 114.073 219.603 114.21 219.422C114.346 219.241 114.537 219.11 114.755 219.048C129.858 218.587 137.189 210.054 137.269 209.974C137.355 209.87 137.46 209.783 137.578 209.72C137.697 209.656 137.827 209.617 137.961 209.604C138.095 209.591 138.231 209.604 138.359 209.644C138.488 209.683 138.608 209.748 138.712 209.834C138.923 210.01 139.057 210.262 139.083 210.536C139.11 210.81 139.026 211.083 138.852 211.296C138.531 211.677 130.84 220.63 114.815 221.111L114.755 221.051Z" fill="#231F20"/>
<path d="M384.806 231.947C384.576 231.949 384.351 231.873 384.169 231.731C383.987 231.59 383.859 231.39 383.805 231.166C383.805 230.806 374.37 193.889 373.068 171.756C373.06 171.621 373.079 171.487 373.123 171.36C373.166 171.233 373.235 171.116 373.324 171.015C373.414 170.915 373.522 170.833 373.643 170.774C373.764 170.716 373.896 170.682 374.03 170.674C374.303 170.657 374.571 170.749 374.778 170.929C374.984 171.109 375.111 171.363 375.131 171.636C376.433 193.569 385.728 230.285 385.808 230.665C385.875 230.931 385.835 231.212 385.696 231.448C385.557 231.685 385.331 231.857 385.067 231.927L384.806 231.947Z" fill="#231F20"/>
<path d="M223.36 238.537C223.224 238.529 223.091 238.495 222.969 238.435C222.846 238.375 222.737 238.291 222.648 238.189C222.558 238.086 222.49 237.967 222.447 237.837C222.404 237.708 222.388 237.571 222.399 237.435L227.367 159.617C227.374 159.481 227.409 159.348 227.469 159.225C227.529 159.103 227.612 158.994 227.715 158.904C227.818 158.814 227.937 158.746 228.066 158.704C228.196 158.661 228.332 158.644 228.468 158.655C228.603 158.66 228.736 158.693 228.858 158.75C228.981 158.808 229.09 158.89 229.18 158.991C229.27 159.092 229.338 159.21 229.381 159.338C229.424 159.467 229.441 159.602 229.43 159.737L224.382 237.556C224.372 237.82 224.259 238.069 224.069 238.252C223.879 238.435 223.625 238.537 223.36 238.537Z" fill="#231F20"/>
<path d="M400.711 195.011C400.525 195.013 400.342 194.964 400.183 194.868C400.024 194.773 399.895 194.635 399.809 194.47L390.114 176.443C390.006 176.179 390.006 175.884 390.114 175.621C390.208 175.352 390.401 175.13 390.655 175L420.701 160.799C420.823 160.738 420.956 160.702 421.092 160.693C421.228 160.684 421.365 160.703 421.493 160.748C421.622 160.792 421.741 160.863 421.842 160.954C421.943 161.045 422.025 161.156 422.083 161.28C422.201 161.527 422.216 161.811 422.126 162.069C422.036 162.328 421.848 162.541 421.602 162.662L392.478 176.403L401.251 192.667L430.756 183.654C430.888 183.614 431.026 183.601 431.162 183.615C431.299 183.629 431.432 183.669 431.553 183.734C431.673 183.8 431.78 183.888 431.867 183.994C431.954 184.101 432.019 184.223 432.058 184.355C432.098 184.486 432.111 184.624 432.097 184.761C432.083 184.897 432.043 185.03 431.977 185.151C431.912 185.272 431.824 185.379 431.718 185.465C431.611 185.552 431.489 185.617 431.357 185.657L401.011 195.031L400.711 195.011Z" fill="#231F20"/>
<path d="M426.73 423.58C454.044 423.58 476.186 416.916 476.186 408.697C476.186 400.477 454.044 393.814 426.73 393.814C399.417 393.814 377.275 400.477 377.275 408.697C377.275 416.916 399.417 423.58 426.73 423.58Z" fill="white"/>
<path d="M426.73 424.581C398.447 424.581 376.273 417.61 376.273 408.697C376.273 399.783 398.447 392.812 426.73 392.812C455.013 392.812 477.187 399.783 477.187 408.697C477.187 417.61 455.013 424.581 426.73 424.581ZM426.73 394.816C397.746 394.816 378.276 401.986 378.276 408.697C378.276 415.407 397.746 422.578 426.73 422.578C455.714 422.578 475.184 415.407 475.184 408.697C475.184 401.986 455.714 394.816 426.73 394.816Z" fill="#D1D3D4"/>
<path d="M389.453 366.192L388.271 366.412C384.697 366.945 381.445 368.778 379.138 371.56C377.844 373.536 377.13 375.835 377.077 378.197C377.024 380.558 377.634 382.888 378.837 384.92C384.085 394.374 396.865 396.938 406.72 397.92C408.114 398.147 409.543 398.037 410.886 397.599C411.549 397.373 412.126 396.947 412.538 396.381C412.95 395.815 413.178 395.135 413.189 394.435C413.105 393.859 412.877 393.313 412.527 392.848C412.177 392.382 411.716 392.012 411.186 391.771C410.154 391.292 409.052 390.981 407.921 390.849C401.792 389.848 395.342 389.106 389.734 386.282C386.469 384.62 381.902 380.834 384.285 376.748C385.12 375.454 386.319 374.436 387.731 373.823C393.359 371.139 398.707 373.182 404.256 374.825C404.659 374.973 405.089 375.034 405.518 375.005C406.048 374.859 406.506 374.523 406.806 374.062C407.105 373.6 407.224 373.045 407.14 372.501C406.96 370.077 404.536 368.495 402.253 367.594C398.175 366.045 393.77 365.563 389.453 366.192Z" fill="white"/>
<path d="M408.383 399.022C407.8 399.02 407.219 398.986 406.64 398.922C391.597 397.5 382.223 393.093 377.956 385.401C376.657 383.201 376.003 380.68 376.07 378.126C376.138 375.571 376.923 373.088 378.337 370.959C380.794 367.985 384.258 366.017 388.072 365.431L389.314 365.211C393.825 364.537 398.434 365.041 402.694 366.673C404.697 367.414 407.962 369.157 408.222 372.422C408.323 373.22 408.125 374.028 407.667 374.69C407.209 375.352 406.522 375.821 405.738 376.007C405.169 376.045 404.597 375.97 404.056 375.787L402.614 375.346C397.686 373.844 393.039 372.442 388.252 374.725C387.011 375.25 385.957 376.137 385.227 377.269C384.966 377.682 384.798 378.146 384.732 378.63C384.666 379.114 384.705 379.606 384.847 380.073C385.946 382.44 387.868 384.327 390.255 385.381C395.229 387.546 400.504 388.937 405.899 389.508L408.162 389.868C409.406 390.005 410.618 390.35 411.748 390.89C412.552 391.192 413.238 391.746 413.705 392.468C414.171 393.19 414.392 394.043 414.336 394.901C414.28 395.759 413.949 396.576 413.393 397.232C412.837 397.887 412.084 398.346 411.247 398.541C410.329 398.875 409.359 399.038 408.383 399.022ZM389.614 367.194L388.472 367.394C385.146 367.889 382.114 369.576 379.939 372.141C378.757 373.966 378.11 376.085 378.071 378.259C378.032 380.433 378.603 382.574 379.719 384.44C383.625 391.491 392.498 395.577 406.82 396.919C408.051 397.122 409.312 397.04 410.506 396.679C410.97 396.521 411.378 396.23 411.678 395.842C411.977 395.453 412.155 394.985 412.188 394.495C412.124 394.097 411.962 393.72 411.717 393.399C411.473 393.077 411.153 392.821 410.786 392.652C409.855 392.227 408.86 391.956 407.842 391.851L405.578 391.491C399.979 390.895 394.506 389.435 389.354 387.164C386.469 385.878 384.174 383.554 382.924 380.654C382.704 379.92 382.642 379.148 382.742 378.389C382.843 377.629 383.102 376.899 383.505 376.247C384.432 374.77 385.788 373.611 387.391 372.922C392.879 370.298 398.127 371.881 403.195 373.423L404.637 373.864C404.906 373.963 405.191 374.01 405.478 374.004C405.959 374.004 406.259 373.183 406.219 372.582C406.059 370.338 403.195 369.016 401.973 368.576C398.037 367.072 393.78 366.61 389.614 367.234V367.194Z" fill="#231F20"/>
<path d="M394.081 356.056C394.081 356.056 403.335 402.247 404.096 405.031C404.857 407.815 426.73 419.253 444.157 408.016L459.4 360.804L394.081 356.056Z" fill="white"/>
<path d="M427.111 413.884C421.875 413.841 416.691 412.85 411.808 410.96C407.962 409.477 403.595 407.074 403.115 405.291C402.373 402.507 393.48 358.159 393.099 356.256C393.063 356.106 393.063 355.949 393.1 355.799C393.137 355.649 393.21 355.51 393.312 355.394C393.415 355.278 393.543 355.189 393.688 355.133C393.832 355.077 393.987 355.057 394.141 355.075L459.46 359.922C459.613 359.929 459.762 359.972 459.895 360.046C460.028 360.121 460.142 360.226 460.227 360.352C460.313 360.479 460.368 360.623 460.388 360.775C460.407 360.926 460.392 361.08 460.342 361.224L445.099 408.436C445.024 408.653 444.875 408.838 444.678 408.957C439.429 412.278 433.322 413.991 427.111 413.884ZM395.323 357.158C396.825 364.669 404.396 402.307 405.058 404.77C405.338 405.431 408.943 408.115 415.333 410.058C421.342 411.881 432.84 413.944 443.376 407.374L458.118 361.725L395.323 357.158Z" fill="#231F20"/>
<path d="M459.557 358.75C459.878 350.924 445.488 343.979 427.416 343.237C409.344 342.496 394.434 348.238 394.113 356.064C393.791 363.89 408.181 370.835 426.253 371.577C444.325 372.318 459.236 366.576 459.557 358.75Z" fill="#231F20"/>
<path d="M429.374 372.642C428.312 372.642 427.251 372.642 426.189 372.642C407.26 371.881 392.718 364.63 393.079 356.097C393.439 347.564 408.522 341.555 427.431 342.336C446.34 343.117 460.882 350.348 460.522 358.881C460.361 363.087 456.515 366.893 449.885 369.377C443.3 371.689 436.352 372.795 429.374 372.642ZM424.346 344.179C408.462 344.179 395.342 349.387 395.062 356.197C394.781 363.328 409.083 369.958 426.269 370.659C434.072 371.114 441.888 370.018 449.264 367.434C455.073 365.211 458.478 362.026 458.619 358.721C458.919 351.57 444.597 344.94 427.431 344.239L424.346 344.179Z" fill="#231F20"/>
<path d="M348.451 227.721H242.469C242.204 227.721 241.949 227.615 241.761 227.428C241.573 227.24 241.468 226.985 241.468 226.719V195.432C241.473 195.168 241.58 194.916 241.767 194.729C241.954 194.542 242.205 194.435 242.469 194.43H348.451C348.716 194.43 348.971 194.536 349.159 194.723C349.347 194.911 349.452 195.166 349.452 195.432V226.779C349.437 227.035 349.325 227.274 349.139 227.449C348.952 227.624 348.706 227.721 348.451 227.721ZM243.471 225.718H347.449V196.433H243.471V225.718Z" fill="white"/>
<path d="M544.97 449.439H1.00146V470.411H544.97V449.439Z" fill="white"/>
<path d="M544.99 471.412H1.00153C0.735905 471.412 0.481162 471.306 0.293339 471.119C0.105517 470.931 0 470.676 0 470.41V449.439C0.00512796 449.175 0.112294 448.923 0.299017 448.736C0.485739 448.549 0.73751 448.442 1.00153 448.437H544.99C545.254 448.442 545.506 448.549 545.693 448.736C545.88 448.923 545.987 449.175 545.992 449.439V470.41C545.992 470.676 545.886 470.931 545.699 471.119C545.511 471.306 545.256 471.412 544.99 471.412ZM2.00305 469.409H543.989V450.44H2.00305V469.409Z" fill="#D1D3D4"/>
<path d="M459.38 253.58C459.116 253.57 458.866 253.458 458.683 253.267C458.5 253.077 458.398 252.823 458.398 252.559C458.398 250.255 459.861 195.952 465.85 177.144C471.839 158.335 483.076 150.503 483.537 150.203C483.757 150.054 484.028 149.999 484.289 150.05C484.55 150.1 484.78 150.253 484.929 150.473C485.078 150.694 485.133 150.964 485.082 151.225C485.031 151.486 484.879 151.717 484.658 151.865C484.538 151.865 473.582 159.457 467.753 177.745C461.924 196.033 460.422 252.038 460.401 252.599C460.399 252.73 460.37 252.86 460.318 252.981C460.265 253.101 460.189 253.21 460.094 253.301C459.999 253.392 459.887 253.464 459.765 253.512C459.642 253.56 459.511 253.583 459.38 253.58Z" fill="white"/>
</svg>
