<svg width="1066" height="127" viewBox="0 0 1066 127" fill="none" xmlns="http://www.w3.org/2000/svg">
<path d="M828.559 120.288C827.327 120.288 826.239 120.08 825.295 119.664C824.351 119.232 823.607 118.624 823.063 117.84C822.519 117.04 822.239 116.072 822.223 114.936H825.463C825.495 115.72 825.775 116.384 826.303 116.928C826.847 117.456 827.591 117.72 828.535 117.72C829.351 117.72 829.999 117.528 830.479 117.144C830.959 116.744 831.199 116.216 831.199 115.56C831.199 114.872 830.983 114.336 830.551 113.952C830.135 113.568 829.575 113.256 828.871 113.016C828.167 112.776 827.415 112.52 826.615 112.248C825.319 111.8 824.327 111.224 823.639 110.52C822.967 109.816 822.631 108.88 822.631 107.712C822.615 106.72 822.847 105.872 823.327 105.168C823.823 104.448 824.495 103.896 825.343 103.512C826.191 103.112 827.167 102.912 828.271 102.912C829.391 102.912 830.375 103.112 831.223 103.512C832.087 103.912 832.759 104.472 833.239 105.192C833.735 105.912 833.999 106.768 834.031 107.76H830.743C830.727 107.168 830.495 106.648 830.047 106.2C829.615 105.736 829.007 105.504 828.223 105.504C827.551 105.488 826.983 105.656 826.519 106.008C826.071 106.344 825.847 106.84 825.847 107.496C825.847 108.056 826.023 108.504 826.375 108.84C826.727 109.16 827.207 109.432 827.815 109.656C828.423 109.88 829.119 110.12 829.903 110.376C830.735 110.664 831.495 111 832.183 111.384C832.871 111.768 833.423 112.28 833.839 112.92C834.255 113.544 834.463 114.352 834.463 115.344C834.463 116.224 834.239 117.04 833.791 117.792C833.343 118.544 832.679 119.152 831.799 119.616C830.919 120.064 829.839 120.288 828.559 120.288ZM842.856 120.288C841.656 120.288 840.592 120.032 839.664 119.52C838.736 119.008 838.008 118.288 837.48 117.36C836.952 116.432 836.688 115.36 836.688 114.144C836.688 112.912 836.944 111.816 837.456 110.856C837.984 109.896 838.704 109.152 839.616 108.624C840.544 108.08 841.632 107.808 842.88 107.808C844.048 107.808 845.08 108.064 845.976 108.576C846.872 109.088 847.568 109.792 848.064 110.688C848.576 111.568 848.832 112.552 848.832 113.64C848.832 113.816 848.824 114 848.808 114.192C848.808 114.384 848.8 114.584 848.784 114.792H839.736C839.8 115.72 840.12 116.448 840.696 116.976C841.288 117.504 842 117.768 842.832 117.768C843.456 117.768 843.976 117.632 844.392 117.36C844.824 117.072 845.144 116.704 845.352 116.256H848.472C848.248 117.008 847.872 117.696 847.344 118.32C846.832 118.928 846.192 119.408 845.424 119.76C844.672 120.112 843.816 120.288 842.856 120.288ZM842.88 110.304C842.128 110.304 841.464 110.52 840.888 110.952C840.312 111.368 839.944 112.008 839.784 112.872H845.712C845.664 112.088 845.376 111.464 844.848 111C844.32 110.536 843.664 110.304 842.88 110.304ZM851.415 120V108.096H854.127L854.391 109.704C854.775 109.128 855.279 108.672 855.903 108.336C856.543 107.984 857.279 107.808 858.111 107.808C859.951 107.808 861.255 108.52 862.023 109.944C862.455 109.288 863.031 108.768 863.751 108.384C864.487 108 865.287 107.808 866.151 107.808C867.703 107.808 868.895 108.272 869.727 109.2C870.559 110.128 870.975 111.488 870.975 113.28V120H867.903V113.568C867.903 112.544 867.703 111.76 867.303 111.216C866.919 110.672 866.319 110.4 865.503 110.4C864.671 110.4 863.999 110.704 863.487 111.312C862.991 111.92 862.743 112.768 862.743 113.856V120H859.671V113.568C859.671 112.544 859.471 111.76 859.071 111.216C858.671 110.672 858.055 110.4 857.223 110.4C856.407 110.4 855.743 110.704 855.231 111.312C854.735 111.92 854.487 112.768 854.487 113.856V120H851.415ZM875.548 106.248C874.988 106.248 874.524 106.08 874.156 105.744C873.804 105.408 873.628 104.984 873.628 104.472C873.628 103.96 873.804 103.544 874.156 103.224C874.524 102.888 874.988 102.72 875.548 102.72C876.108 102.72 876.564 102.888 876.916 103.224C877.284 103.544 877.468 103.96 877.468 104.472C877.468 104.984 877.284 105.408 876.916 105.744C876.564 106.08 876.108 106.248 875.548 106.248ZM874.012 120V108.096H877.084V120H874.012ZM887.346 120.288C886.45 120.288 885.666 120.12 884.994 119.784C884.322 119.448 883.778 118.976 883.362 118.368L883.026 120H880.29V102.72H883.362V109.8C883.746 109.272 884.25 108.808 884.874 108.408C885.514 108.008 886.338 107.808 887.346 107.808C888.466 107.808 889.466 108.08 890.346 108.624C891.226 109.168 891.922 109.912 892.434 110.856C892.946 111.8 893.202 112.872 893.202 114.072C893.202 115.272 892.946 116.344 892.434 117.288C891.922 118.216 891.226 118.952 890.346 119.496C889.466 120.024 888.466 120.288 887.346 120.288ZM886.698 117.6C887.674 117.6 888.482 117.272 889.122 116.616C889.762 115.96 890.082 115.112 890.082 114.072C890.082 113.032 889.762 112.176 889.122 111.504C888.482 110.832 887.674 110.496 886.698 110.496C885.706 110.496 884.89 110.832 884.25 111.504C883.626 112.16 883.314 113.008 883.314 114.048C883.314 115.088 883.626 115.944 884.25 116.616C884.89 117.272 885.706 117.6 886.698 117.6ZM901.659 120.288C900.507 120.288 899.467 120.024 898.539 119.496C897.627 118.968 896.899 118.24 896.355 117.312C895.827 116.368 895.563 115.28 895.563 114.048C895.563 112.816 895.835 111.736 896.379 110.808C896.923 109.864 897.651 109.128 898.563 108.6C899.491 108.072 900.531 107.808 901.683 107.808C902.819 107.808 903.843 108.072 904.755 108.6C905.683 109.128 906.411 109.864 906.939 110.808C907.483 111.736 907.755 112.816 907.755 114.048C907.755 115.28 907.483 116.368 906.939 117.312C906.411 118.24 905.683 118.968 904.755 119.496C903.827 120.024 902.795 120.288 901.659 120.288ZM901.659 117.624C902.459 117.624 903.155 117.328 903.747 116.736C904.339 116.128 904.635 115.232 904.635 114.048C904.635 112.864 904.339 111.976 903.747 111.384C903.155 110.776 902.467 110.472 901.683 110.472C900.867 110.472 900.163 110.776 899.571 111.384C898.995 111.976 898.707 112.864 898.707 114.048C898.707 115.232 898.995 116.128 899.571 116.736C900.163 117.328 900.859 117.624 901.659 117.624ZM910.501 120V102.72H913.573V120H910.501ZM922.184 120.288C921.064 120.288 920.064 120.016 919.184 119.472C918.304 118.928 917.608 118.184 917.096 117.24C916.584 116.296 916.328 115.224 916.328 114.024C916.328 112.824 916.584 111.76 917.096 110.832C917.608 109.888 918.304 109.152 919.184 108.624C920.064 108.08 921.064 107.808 922.184 107.808C923.08 107.808 923.864 107.976 924.536 108.312C925.208 108.648 925.752 109.12 926.168 109.728V102.72H929.24V120H926.504L926.168 118.296C925.784 118.824 925.272 119.288 924.632 119.688C924.008 120.088 923.192 120.288 922.184 120.288ZM922.832 117.6C923.824 117.6 924.632 117.272 925.256 116.616C925.896 115.944 926.216 115.088 926.216 114.048C926.216 113.008 925.896 112.16 925.256 111.504C924.632 110.832 923.824 110.496 922.832 110.496C921.856 110.496 921.048 110.824 920.408 111.48C919.768 112.136 919.448 112.984 919.448 114.024C919.448 115.064 919.768 115.92 920.408 116.592C921.048 117.264 921.856 117.6 922.832 117.6Z" fill="black"/>
<path d="M490.032 116V99.2H493.032L498.72 110.384L504.384 99.2H507.384V116H504.84V103.592L499.704 113.6H497.736L492.576 103.616V116H490.032ZM516.27 116.288C515.102 116.288 514.062 116.032 513.15 115.52C512.254 114.992 511.55 114.264 511.038 113.336C510.526 112.408 510.27 111.328 510.27 110.096C510.27 108.848 510.518 107.752 511.014 106.808C511.526 105.864 512.23 105.128 513.126 104.6C514.038 104.072 515.094 103.808 516.294 103.808C517.462 103.808 518.478 104.072 519.342 104.6C520.206 105.112 520.878 105.8 521.358 106.664C521.838 107.528 522.078 108.48 522.078 109.52C522.078 109.68 522.07 109.856 522.054 110.048C522.054 110.224 522.046 110.424 522.03 110.648H512.766C512.846 111.8 513.222 112.68 513.894 113.288C514.582 113.88 515.374 114.176 516.27 114.176C516.99 114.176 517.59 114.016 518.07 113.696C518.566 113.36 518.934 112.912 519.174 112.352H521.718C521.398 113.472 520.758 114.408 519.798 115.16C518.854 115.912 517.678 116.288 516.27 116.288ZM516.27 105.896C515.422 105.896 514.67 106.152 514.014 106.664C513.358 107.16 512.958 107.912 512.814 108.92H519.534C519.486 107.992 519.158 107.256 518.55 106.712C517.942 106.168 517.182 105.896 516.27 105.896ZM530.141 116.288C528.989 116.288 527.973 116.016 527.093 115.472C526.213 114.928 525.525 114.184 525.029 113.24C524.533 112.296 524.285 111.224 524.285 110.024C524.285 108.824 524.533 107.76 525.029 106.832C525.525 105.888 526.213 105.152 527.093 104.624C527.989 104.08 529.013 103.808 530.165 103.808C531.109 103.808 531.933 103.992 532.637 104.36C533.357 104.728 533.917 105.248 534.317 105.92V98.72H536.861V116H534.581L534.317 114.152C533.933 114.712 533.405 115.208 532.733 115.64C532.061 116.072 531.197 116.288 530.141 116.288ZM530.597 114.08C531.685 114.08 532.573 113.704 533.261 112.952C533.965 112.2 534.317 111.232 534.317 110.048C534.317 108.848 533.965 107.88 533.261 107.144C532.573 106.392 531.685 106.016 530.597 106.016C529.509 106.016 528.613 106.392 527.909 107.144C527.205 107.88 526.853 108.848 526.853 110.048C526.853 110.832 527.013 111.528 527.333 112.136C527.653 112.744 528.093 113.224 528.653 113.576C529.229 113.912 529.877 114.08 530.597 114.08ZM541.509 101.84C541.029 101.84 540.629 101.696 540.309 101.408C540.005 101.104 539.853 100.728 539.853 100.28C539.853 99.832 540.005 99.464 540.309 99.176C540.629 98.872 541.029 98.72 541.509 98.72C541.989 98.72 542.381 98.872 542.685 99.176C543.005 99.464 543.165 99.832 543.165 100.28C543.165 100.728 543.005 101.104 542.685 101.408C542.381 101.696 541.989 101.84 541.509 101.84ZM540.237 116V104.096H542.781V116H540.237ZM550.531 116.288C549.091 116.288 547.955 115.84 547.123 114.944C546.307 114.048 545.899 112.712 545.899 110.936V104.096H548.443V110.672C548.443 112.976 549.387 114.128 551.275 114.128C552.219 114.128 552.995 113.792 553.603 113.12C554.211 112.448 554.515 111.488 554.515 110.24V104.096H557.059V116H554.803L554.611 113.912C554.243 114.648 553.699 115.232 552.979 115.664C552.275 116.08 551.459 116.288 550.531 116.288ZM560.296 116V104.096H562.552L562.768 105.776C563.152 105.168 563.656 104.688 564.28 104.336C564.92 103.984 565.656 103.808 566.488 103.808C568.376 103.808 569.688 104.552 570.424 106.04C570.856 105.352 571.432 104.808 572.152 104.408C572.888 104.008 573.68 103.808 574.528 103.808C576.016 103.808 577.184 104.256 578.032 105.152C578.88 106.048 579.304 107.384 579.304 109.16V116H576.76V109.424C576.76 107.12 575.88 105.968 574.12 105.968C573.224 105.968 572.488 106.304 571.911 106.976C571.352 107.648 571.072 108.608 571.072 109.856V116H568.528V109.424C568.528 107.12 567.64 105.968 565.864 105.968C564.984 105.968 564.256 106.304 563.68 106.976C563.12 107.648 562.84 108.608 562.84 109.856V116H560.296Z" fill="black"/>
<path d="M110.889 110V93.2H116.313C117.625 93.2 118.697 93.416 119.529 93.848C120.361 94.28 120.977 94.872 121.377 95.624C121.777 96.376 121.977 97.208 121.977 98.12C121.977 99.176 121.689 100.128 121.113 100.976C120.553 101.824 119.673 102.424 118.473 102.776L122.145 110H119.769L116.361 103.064H116.217H112.905V110H110.889ZM112.905 101.48H116.169C117.465 101.48 118.409 101.168 119.001 100.544C119.593 99.92 119.889 99.12 119.889 98.144C119.889 97.152 119.593 96.368 119.001 95.792C118.425 95.2 117.473 94.904 116.145 94.904H112.905V101.48ZM129.621 110.288C128.485 110.288 127.477 110.032 126.597 109.52C125.717 108.992 125.021 108.264 124.509 107.336C124.013 106.408 123.765 105.312 123.765 104.048C123.765 102.8 124.013 101.712 124.509 100.784C125.005 99.84 125.693 99.112 126.573 98.6C127.469 98.072 128.501 97.808 129.669 97.808C130.821 97.808 131.813 98.072 132.645 98.6C133.493 99.112 134.141 99.792 134.589 100.64C135.037 101.488 135.261 102.4 135.261 103.376C135.261 103.552 135.253 103.728 135.237 103.904C135.237 104.08 135.237 104.28 135.237 104.504H125.757C125.805 105.416 126.013 106.176 126.381 106.784C126.765 107.376 127.237 107.824 127.797 108.128C128.373 108.432 128.981 108.584 129.621 108.584C130.453 108.584 131.149 108.392 131.709 108.008C132.269 107.624 132.677 107.104 132.933 106.448H134.925C134.605 107.552 133.989 108.472 133.077 109.208C132.181 109.928 131.029 110.288 129.621 110.288ZM129.621 99.512C128.661 99.512 127.805 99.808 127.053 100.4C126.317 100.976 125.893 101.824 125.781 102.944H133.269C133.221 101.872 132.853 101.032 132.165 100.424C131.477 99.816 130.629 99.512 129.621 99.512ZM142.567 106.256C141.895 106.256 141.279 106.168 140.719 105.992L139.519 107.12C139.695 107.248 139.911 107.36 140.167 107.456C140.439 107.536 140.823 107.616 141.319 107.696C141.815 107.76 142.511 107.832 143.407 107.912C145.007 108.024 146.151 108.392 146.839 109.016C147.527 109.64 147.871 110.456 147.871 111.464C147.871 112.152 147.679 112.808 147.295 113.432C146.927 114.056 146.351 114.568 145.567 114.968C144.799 115.368 143.807 115.568 142.591 115.568C141.519 115.568 140.567 115.424 139.735 115.136C138.903 114.864 138.255 114.44 137.791 113.864C137.327 113.304 137.095 112.592 137.095 111.728C137.095 111.28 137.215 110.792 137.455 110.264C137.695 109.752 138.143 109.264 138.799 108.8C138.447 108.656 138.143 108.504 137.887 108.344C137.647 108.168 137.423 107.976 137.215 107.768V107.216L139.255 105.2C138.311 104.4 137.839 103.344 137.839 102.032C137.839 101.248 138.023 100.536 138.391 99.896C138.759 99.256 139.295 98.752 139.999 98.384C140.703 98 141.559 97.808 142.567 97.808C143.255 97.808 143.879 97.904 144.439 98.096H148.831V99.608L146.599 99.704C147.063 100.376 147.295 101.152 147.295 102.032C147.295 102.816 147.103 103.528 146.719 104.168C146.351 104.808 145.815 105.32 145.111 105.704C144.423 106.072 143.575 106.256 142.567 106.256ZM142.567 104.6C143.415 104.6 144.087 104.384 144.583 103.952C145.095 103.504 145.351 102.864 145.351 102.032C145.351 101.216 145.095 100.592 144.583 100.16C144.087 99.712 143.415 99.488 142.567 99.488C141.703 99.488 141.015 99.712 140.503 100.16C140.007 100.592 139.759 101.216 139.759 102.032C139.759 102.864 140.007 103.504 140.503 103.952C141.015 104.384 141.703 104.6 142.567 104.6ZM139.063 111.536C139.063 112.336 139.399 112.928 140.071 113.312C140.743 113.712 141.583 113.912 142.591 113.912C143.583 113.912 144.375 113.696 144.967 113.264C145.575 112.832 145.879 112.256 145.879 111.536C145.879 111.024 145.671 110.576 145.255 110.192C144.839 109.824 144.071 109.608 142.951 109.544C142.071 109.48 141.311 109.4 140.671 109.304C140.015 109.656 139.583 110.032 139.375 110.432C139.167 110.848 139.063 111.216 139.063 111.536ZM155.449 110.288C154.041 110.288 152.921 109.864 152.089 109.016C151.257 108.152 150.841 106.832 150.841 105.056V98.096H152.857V104.84C152.857 107.32 153.873 108.56 155.905 108.56C156.945 108.56 157.801 108.192 158.473 107.456C159.161 106.704 159.505 105.64 159.505 104.264V98.096H161.521V110H159.697L159.553 107.864C159.185 108.616 158.633 109.208 157.897 109.64C157.177 110.072 156.361 110.288 155.449 110.288ZM164.84 110V92.72H166.856V110H164.84ZM175.512 110.288C174.376 110.288 173.368 110.032 172.488 109.52C171.608 108.992 170.912 108.264 170.4 107.336C169.904 106.408 169.656 105.312 169.656 104.048C169.656 102.8 169.904 101.712 170.4 100.784C170.896 99.84 171.584 99.112 172.464 98.6C173.36 98.072 174.392 97.808 175.56 97.808C176.712 97.808 177.704 98.072 178.536 98.6C179.384 99.112 180.032 99.792 180.48 100.64C180.928 101.488 181.152 102.4 181.152 103.376C181.152 103.552 181.144 103.728 181.128 103.904C181.128 104.08 181.128 104.28 181.128 104.504H171.648C171.696 105.416 171.904 106.176 172.272 106.784C172.656 107.376 173.128 107.824 173.688 108.128C174.264 108.432 174.872 108.584 175.512 108.584C176.344 108.584 177.04 108.392 177.6 108.008C178.16 107.624 178.568 107.104 178.824 106.448H180.816C180.496 107.552 179.88 108.472 178.968 109.208C178.072 109.928 176.92 110.288 175.512 110.288ZM175.512 99.512C174.552 99.512 173.696 99.808 172.944 100.4C172.208 100.976 171.784 101.824 171.672 102.944H179.16C179.112 101.872 178.744 101.032 178.056 100.424C177.368 99.816 176.52 99.512 175.512 99.512ZM183.824 110V98.096H185.648L185.816 100.376C186.184 99.592 186.744 98.968 187.496 98.504C188.248 98.04 189.176 97.808 190.28 97.808V99.92H189.728C189.024 99.92 188.376 100.048 187.784 100.304C187.192 100.544 186.72 100.96 186.368 101.552C186.016 102.144 185.84 102.96 185.84 104V110H183.824Z" fill="black"/>
<path d="M3.87547 41V11.2H14.1155C16.0621 11.2 17.7688 11.5867 19.2355 12.36C20.7021 13.1067 21.8355 14.1733 22.6355 15.56C23.4621 16.92 23.8755 18.5067 23.8755 20.32C23.8755 22.1333 23.4621 23.72 22.6355 25.08C21.8355 26.44 20.7021 27.5067 19.2355 28.28C17.7955 29.0267 16.0888 29.4 14.1155 29.4H7.07547V41H3.87547ZM7.07547 26.4H14.2755C15.5555 26.4 16.6755 26.16 17.6355 25.68C18.5955 25.1733 19.3421 24.4667 19.8755 23.56C20.4088 22.6267 20.6755 21.5333 20.6755 20.28C20.6755 19.0267 20.4088 17.9467 19.8755 17.04C19.3421 16.1333 18.5955 15.44 17.6355 14.96C16.6755 14.4533 15.5555 14.2 14.2755 14.2H7.07547V26.4ZM29.1386 41V10.72H32.1386V41H29.1386ZM45.8792 41.48C44.3859 41.48 43.0259 41.1333 41.7992 40.44C40.5726 39.72 39.5992 38.7333 38.8792 37.48C38.1859 36.2 37.8392 34.7333 37.8392 33.08V19.56H40.8392V32.72C40.8392 33.8667 41.0659 34.88 41.5192 35.76C41.9992 36.6133 42.6526 37.28 43.4792 37.76C44.3326 38.24 45.3059 38.48 46.3992 38.48C47.4926 38.48 48.4659 38.24 49.3192 37.76C50.1726 37.2533 50.8392 36.5467 51.3192 35.64C51.7992 34.7067 52.0392 33.6 52.0392 32.32V19.56H55.0392V41H52.0392V36.84L52.7192 37C52.2126 38.3867 51.3459 39.48 50.1192 40.28C48.8926 41.08 47.4792 41.48 45.8792 41.48ZM68.6489 41.48C66.5956 41.48 64.7956 40.96 63.2489 39.92C61.7022 38.88 60.5822 37.4667 59.8889 35.68L62.4089 34.48C63.0222 35.7867 63.8756 36.8267 64.9689 37.6C66.0889 38.3733 67.3156 38.76 68.6489 38.76C69.9289 38.76 71.0089 38.4533 71.8889 37.84C72.7689 37.2 73.2089 36.3733 73.2089 35.36C73.2089 34.6133 72.9956 34.0267 72.5689 33.6C72.1422 33.1467 71.6489 32.8 71.0889 32.56C70.5289 32.32 70.0356 32.1467 69.6089 32.04L66.5289 31.16C64.5556 30.6 63.1289 29.8133 62.2489 28.8C61.3689 27.7867 60.9289 26.6133 60.9289 25.28C60.9289 24.0267 61.2489 22.9333 61.8889 22C62.5289 21.0667 63.3956 20.3467 64.4889 19.84C65.5822 19.3333 66.7956 19.08 68.1289 19.08C69.9422 19.08 71.5822 19.56 73.0489 20.52C74.5422 21.4533 75.5956 22.76 76.2089 24.44L73.6489 25.64C73.1156 24.44 72.3422 23.5067 71.3289 22.84C70.3422 22.1467 69.2356 21.8 68.0089 21.8C66.8089 21.8 65.8489 22.1067 65.1289 22.72C64.4089 23.3333 64.0489 24.1067 64.0489 25.04C64.0489 25.76 64.2356 26.3333 64.6089 26.76C64.9822 27.1867 65.4089 27.5067 65.8889 27.72C66.3956 27.9333 66.8356 28.0933 67.2089 28.2L70.7689 29.24C72.5022 29.7467 73.8489 30.5333 74.8089 31.6C75.7956 32.6667 76.2889 33.92 76.2889 35.36C76.2889 36.5333 75.9556 37.5867 75.2889 38.52C74.6489 39.4533 73.7556 40.1867 72.6089 40.72C71.4622 41.2267 70.1422 41.48 68.6489 41.48ZM87.4773 41V37.8H89.0773C90.5707 37.8 91.744 37.36 92.5973 36.48C93.4507 35.5733 93.8773 34.3467 93.8773 32.8V11.2H97.0773V32.8C97.0773 34.48 96.744 35.9333 96.0773 37.16C95.4373 38.3867 94.5173 39.3333 93.3173 40C92.1173 40.6667 90.704 41 89.0773 41H87.4773ZM109.87 41.48C108.51 41.48 107.297 41.2267 106.23 40.72C105.163 40.1867 104.323 39.4667 103.71 38.56C103.097 37.6533 102.79 36.6133 102.79 35.44C102.79 34.32 103.03 33.3067 103.51 32.4C103.99 31.4667 104.737 30.68 105.75 30.04C106.763 29.4 108.057 28.9467 109.63 28.68L118.03 27.28V30L110.35 31.28C108.803 31.5467 107.683 32.04 106.99 32.76C106.323 33.48 105.99 34.3333 105.99 35.32C105.99 36.28 106.363 37.0933 107.11 37.76C107.883 38.4267 108.87 38.76 110.07 38.76C111.537 38.76 112.817 38.4533 113.91 37.84C115.003 37.2 115.857 36.3467 116.47 35.28C117.083 34.2133 117.39 33.0267 117.39 31.72V26.28C117.39 25 116.923 23.96 115.99 23.16C115.057 22.36 113.843 21.96 112.35 21.96C111.043 21.96 109.897 22.2933 108.91 22.96C107.923 23.6 107.19 24.44 106.71 25.48L103.99 24C104.39 23.0933 105.017 22.2667 105.87 21.52C106.75 20.7733 107.75 20.1867 108.87 19.76C109.99 19.3067 111.15 19.08 112.35 19.08C113.923 19.08 115.31 19.3867 116.51 20C117.737 20.6133 118.683 21.4667 119.35 22.56C120.043 23.6267 120.39 24.8667 120.39 26.28V41H117.39V36.72L117.83 37.16C117.457 37.96 116.87 38.6933 116.07 39.36C115.297 40 114.377 40.52 113.31 40.92C112.27 41.2933 111.123 41.48 109.87 41.48ZM126.56 41V10.72H129.56V31.92L128.28 31.72L140.32 19.56H144.2L135.8 28.16L144.96 41H141.36L132.76 29.12L134.68 29.28L128.56 35.6L129.56 33.12V41H126.56ZM154.675 41.48C153.315 41.48 152.101 41.2267 151.035 40.72C149.968 40.1867 149.128 39.4667 148.515 38.56C147.901 37.6533 147.595 36.6133 147.595 35.44C147.595 34.32 147.835 33.3067 148.315 32.4C148.795 31.4667 149.541 30.68 150.555 30.04C151.568 29.4 152.861 28.9467 154.435 28.68L162.835 27.28V30L155.155 31.28C153.608 31.5467 152.488 32.04 151.795 32.76C151.128 33.48 150.795 34.3333 150.795 35.32C150.795 36.28 151.168 37.0933 151.915 37.76C152.688 38.4267 153.675 38.76 154.875 38.76C156.341 38.76 157.621 38.4533 158.715 37.84C159.808 37.2 160.661 36.3467 161.275 35.28C161.888 34.2133 162.195 33.0267 162.195 31.72V26.28C162.195 25 161.728 23.96 160.795 23.16C159.861 22.36 158.648 21.96 157.155 21.96C155.848 21.96 154.701 22.2933 153.715 22.96C152.728 23.6 151.995 24.44 151.515 25.48L148.795 24C149.195 23.0933 149.821 22.2667 150.675 21.52C151.555 20.7733 152.555 20.1867 153.675 19.76C154.795 19.3067 155.955 19.08 157.155 19.08C158.728 19.08 160.115 19.3867 161.315 20C162.541 20.6133 163.488 21.4667 164.155 22.56C164.848 23.6267 165.195 24.8667 165.195 26.28V41H162.195V36.72L162.635 37.16C162.261 37.96 161.675 38.6933 160.875 39.36C160.101 40 159.181 40.52 158.115 40.92C157.075 41.2933 155.928 41.48 154.675 41.48ZM171.365 41V19.56H174.365V23.08L173.965 22.56C174.472 21.5467 175.232 20.7467 176.245 20.16C177.285 19.5733 178.538 19.28 180.005 19.28H181.365V22.28H179.485C177.938 22.28 176.698 22.76 175.765 23.72C174.832 24.68 174.365 26.04 174.365 27.8V41H171.365ZM193.081 41.24C191.161 41.24 189.681 40.68 188.641 39.56C187.601 38.44 187.081 36.84 187.081 34.76V22.56H183.121V19.56H184.121C185.027 19.56 185.747 19.2667 186.281 18.68C186.814 18.0667 187.081 17.3067 187.081 16.4V14.6H190.081V19.56H194.801V22.56H190.081V34.76C190.081 35.48 190.187 36.12 190.401 36.68C190.614 37.2133 190.974 37.64 191.481 37.96C192.014 38.28 192.721 38.44 193.601 38.44C193.814 38.44 194.067 38.4267 194.361 38.4C194.654 38.3733 194.907 38.3467 195.121 38.32V41C194.801 41.08 194.441 41.1333 194.041 41.16C193.641 41.2133 193.321 41.24 193.081 41.24ZM206.198 41.48C204.838 41.48 203.625 41.2267 202.558 40.72C201.491 40.1867 200.651 39.4667 200.038 38.56C199.425 37.6533 199.118 36.6133 199.118 35.44C199.118 34.32 199.358 33.3067 199.838 32.4C200.318 31.4667 201.065 30.68 202.078 30.04C203.091 29.4 204.385 28.9467 205.958 28.68L214.358 27.28V30L206.678 31.28C205.131 31.5467 204.011 32.04 203.318 32.76C202.651 33.48 202.318 34.3333 202.318 35.32C202.318 36.28 202.691 37.0933 203.438 37.76C204.211 38.4267 205.198 38.76 206.398 38.76C207.865 38.76 209.145 38.4533 210.238 37.84C211.331 37.2 212.185 36.3467 212.798 35.28C213.411 34.2133 213.718 33.0267 213.718 31.72V26.28C213.718 25 213.251 23.96 212.318 23.16C211.385 22.36 210.171 21.96 208.678 21.96C207.371 21.96 206.225 22.2933 205.238 22.96C204.251 23.6 203.518 24.44 203.038 25.48L200.318 24C200.718 23.0933 201.345 22.2667 202.198 21.52C203.078 20.7733 204.078 20.1867 205.198 19.76C206.318 19.3067 207.478 19.08 208.678 19.08C210.251 19.08 211.638 19.3867 212.838 20C214.065 20.6133 215.011 21.4667 215.678 22.56C216.371 23.6267 216.718 24.8667 216.718 26.28V41H213.718V36.72L214.158 37.16C213.785 37.96 213.198 38.6933 212.398 39.36C211.625 40 210.705 40.52 209.638 40.92C208.598 41.2933 207.451 41.48 206.198 41.48ZM240.165 41.48C238.272 41.48 236.552 41.12 235.005 40.4C233.459 39.68 232.152 38.72 231.085 37.52C230.019 36.2933 229.259 34.9467 228.805 33.48L231.685 32.4C232.379 34.4267 233.459 35.9733 234.925 37.04C236.392 38.08 238.139 38.6 240.165 38.6C241.445 38.6 242.565 38.4 243.525 38C244.512 37.5733 245.272 36.9867 245.805 36.24C246.339 35.4933 246.605 34.6267 246.605 33.64C246.605 32.1733 246.205 31.04 245.405 30.24C244.605 29.44 243.459 28.8267 241.965 28.4L236.605 26.8C234.499 26.1867 232.872 25.16 231.725 23.72C230.605 22.28 230.045 20.64 230.045 18.8C230.045 17.2267 230.432 15.84 231.205 14.64C231.979 13.4133 233.032 12.4533 234.365 11.76C235.725 11.0667 237.259 10.72 238.965 10.72C240.752 10.72 242.352 11.0533 243.765 11.72C245.205 12.36 246.419 13.2133 247.405 14.28C248.392 15.3467 249.099 16.5333 249.525 17.84L246.725 18.96C246.085 17.2 245.085 15.8667 243.725 14.96C242.392 14.0533 240.819 13.6 239.005 13.6C237.859 13.6 236.845 13.8 235.965 14.2C235.112 14.6 234.445 15.1733 233.965 15.92C233.485 16.6667 233.245 17.5467 233.245 18.56C233.245 19.7867 233.632 20.8933 234.405 21.88C235.179 22.84 236.365 23.56 237.965 24.04L242.685 25.44C245.032 26.1333 246.805 27.1333 248.005 28.44C249.205 29.7467 249.805 31.3867 249.805 33.36C249.805 34.96 249.392 36.3733 248.565 37.6C247.765 38.8 246.632 39.7467 245.165 40.44C243.725 41.1333 242.059 41.48 240.165 41.48ZM260.964 41.48C259.604 41.48 258.39 41.2267 257.324 40.72C256.257 40.1867 255.417 39.4667 254.804 38.56C254.19 37.6533 253.884 36.6133 253.884 35.44C253.884 34.32 254.124 33.3067 254.604 32.4C255.084 31.4667 255.83 30.68 256.844 30.04C257.857 29.4 259.15 28.9467 260.724 28.68L269.124 27.28V30L261.444 31.28C259.897 31.5467 258.777 32.04 258.084 32.76C257.417 33.48 257.084 34.3333 257.084 35.32C257.084 36.28 257.457 37.0933 258.204 37.76C258.977 38.4267 259.964 38.76 261.164 38.76C262.63 38.76 263.91 38.4533 265.004 37.84C266.097 37.2 266.95 36.3467 267.564 35.28C268.177 34.2133 268.484 33.0267 268.484 31.72V26.28C268.484 25 268.017 23.96 267.084 23.16C266.15 22.36 264.937 21.96 263.444 21.96C262.137 21.96 260.99 22.2933 260.004 22.96C259.017 23.6 258.284 24.44 257.804 25.48L255.084 24C255.484 23.0933 256.11 22.2667 256.964 21.52C257.844 20.7733 258.844 20.1867 259.964 19.76C261.084 19.3067 262.244 19.08 263.444 19.08C265.017 19.08 266.404 19.3867 267.604 20C268.83 20.6133 269.777 21.4667 270.444 22.56C271.137 23.6267 271.484 24.8667 271.484 26.28V41H268.484V36.72L268.924 37.16C268.55 37.96 267.964 38.6933 267.164 39.36C266.39 40 265.47 40.52 264.404 40.92C263.364 41.2933 262.217 41.48 260.964 41.48ZM277.654 41V19.56H280.654V23.72L279.974 23.56C280.508 22.1733 281.374 21.08 282.574 20.28C283.801 19.48 285.214 19.08 286.814 19.08C288.334 19.08 289.694 19.4267 290.894 20.12C292.121 20.8133 293.081 21.7733 293.774 23C294.494 24.2 294.854 25.56 294.854 27.08V41H291.854V28.24C291.854 26.9333 291.614 25.8267 291.134 24.92C290.681 24.0133 290.028 23.32 289.174 22.84C288.348 22.3333 287.388 22.08 286.294 22.08C285.201 22.08 284.228 22.3333 283.374 22.84C282.521 23.32 281.854 24.0267 281.374 24.96C280.894 25.8667 280.654 26.96 280.654 28.24V41H277.654ZM308.024 41.48C305.971 41.48 304.171 40.96 302.624 39.92C301.077 38.88 299.957 37.4667 299.264 35.68L301.784 34.48C302.397 35.7867 303.251 36.8267 304.344 37.6C305.464 38.3733 306.691 38.76 308.024 38.76C309.304 38.76 310.384 38.4533 311.264 37.84C312.144 37.2 312.584 36.3733 312.584 35.36C312.584 34.6133 312.371 34.0267 311.944 33.6C311.517 33.1467 311.024 32.8 310.464 32.56C309.904 32.32 309.411 32.1467 308.984 32.04L305.904 31.16C303.931 30.6 302.504 29.8133 301.624 28.8C300.744 27.7867 300.304 26.6133 300.304 25.28C300.304 24.0267 300.624 22.9333 301.264 22C301.904 21.0667 302.771 20.3467 303.864 19.84C304.957 19.3333 306.171 19.08 307.504 19.08C309.317 19.08 310.957 19.56 312.424 20.52C313.917 21.4533 314.971 22.76 315.584 24.44L313.024 25.64C312.491 24.44 311.717 23.5067 310.704 22.84C309.717 22.1467 308.611 21.8 307.384 21.8C306.184 21.8 305.224 22.1067 304.504 22.72C303.784 23.3333 303.424 24.1067 303.424 25.04C303.424 25.76 303.611 26.3333 303.984 26.76C304.357 27.1867 304.784 27.5067 305.264 27.72C305.771 27.9333 306.211 28.0933 306.584 28.2L310.144 29.24C311.877 29.7467 313.224 30.5333 314.184 31.6C315.171 32.6667 315.664 33.92 315.664 35.36C315.664 36.5333 315.331 37.5867 314.664 38.52C314.024 39.4533 313.131 40.1867 311.984 40.72C310.837 41.2267 309.517 41.48 308.024 41.48ZM329.052 48.6V7.2H332.252V48.6H329.052Z" fill="black"/>
<path d="M360.636 41V11.2H371.156C373.13 11.2 374.863 11.5733 376.356 12.32C377.85 13.0667 379.01 14.1333 379.836 15.52C380.69 16.9067 381.116 18.5333 381.116 20.4C381.116 22.2667 380.69 23.8933 379.836 25.28C379.01 26.64 377.85 27.7067 376.356 28.48C374.89 29.2267 373.156 29.6 371.156 29.6H364.556V41H360.636ZM364.556 26H371.276C372.476 26 373.516 25.7733 374.396 25.32C375.276 24.8667 375.956 24.2133 376.436 23.36C376.916 22.5067 377.156 21.52 377.156 20.4C377.156 19.2533 376.916 18.2667 376.436 17.44C375.956 16.5867 375.276 15.9333 374.396 15.48C373.516 15.0267 372.476 14.8 371.276 14.8H364.556V26ZM385.978 41V10.72H389.698V41H385.978ZM403.11 41.48C401.563 41.48 400.163 41.12 398.91 40.4C397.683 39.68 396.723 38.68 396.03 37.4C395.363 36.0933 395.03 34.6 395.03 32.92V19.44H398.75V32.52C398.75 33.5867 398.963 34.52 399.39 35.32C399.843 36.12 400.457 36.7467 401.23 37.2C402.03 37.6533 402.937 37.88 403.95 37.88C404.963 37.88 405.857 37.6533 406.63 37.2C407.43 36.7467 408.043 36.0933 408.47 35.24C408.923 34.3867 409.15 33.3733 409.15 32.2V19.44H412.91V41H409.27V36.8L409.87 37.16C409.363 38.52 408.497 39.5867 407.27 40.36C406.07 41.1067 404.683 41.48 403.11 41.48ZM426.393 41.48C424.233 41.48 422.353 40.9467 420.753 39.88C419.153 38.8133 418.02 37.3733 417.353 35.56L420.313 34.12C420.926 35.4 421.766 36.4133 422.833 37.16C423.9 37.9067 425.086 38.28 426.393 38.28C427.566 38.28 428.54 38 429.313 37.44C430.086 36.88 430.473 36.1467 430.473 35.24C430.473 34.6 430.286 34.0933 429.913 33.72C429.566 33.32 429.14 33.0133 428.633 32.8C428.126 32.56 427.66 32.3867 427.233 32.28L423.993 31.36C422.046 30.8 420.62 30 419.713 28.96C418.833 27.92 418.393 26.7067 418.393 25.32C418.393 24.04 418.713 22.9333 419.353 22C420.02 21.04 420.913 20.2933 422.033 19.76C423.18 19.2267 424.46 18.96 425.873 18.96C427.766 18.96 429.46 19.44 430.953 20.4C432.473 21.36 433.553 22.7067 434.193 24.44L431.153 25.84C430.673 24.72 429.953 23.84 428.993 23.2C428.033 22.5333 426.953 22.2 425.753 22.2C424.66 22.2 423.793 22.48 423.153 23.04C422.513 23.5733 422.193 24.2533 422.193 25.08C422.193 25.6933 422.353 26.2 422.673 26.6C422.993 26.9733 423.38 27.2667 423.833 27.48C424.286 27.6667 424.726 27.8267 425.153 27.96L428.673 29C430.433 29.5067 431.793 30.2933 432.753 31.36C433.74 32.4267 434.233 33.7067 434.233 35.2C434.233 36.4 433.9 37.48 433.233 38.44C432.566 39.4 431.646 40.1467 430.473 40.68C429.3 41.2133 427.94 41.48 426.393 41.48ZM445.137 41V37.2H446.777C448.19 37.2 449.31 36.7867 450.137 35.96C450.963 35.1067 451.377 33.96 451.377 32.52V11.2H455.337V32.44C455.337 34.1733 454.977 35.68 454.257 36.96C453.563 38.24 452.577 39.24 451.297 39.96C450.017 40.6533 448.51 41 446.777 41H445.137ZM467.766 41.48C466.353 41.48 465.1 41.2267 464.006 40.72C462.94 40.1867 462.1 39.4667 461.486 38.56C460.873 37.6267 460.566 36.56 460.566 35.36C460.566 34.2133 460.806 33.1867 461.286 32.28C461.793 31.3467 462.566 30.56 463.606 29.92C464.673 29.28 466.006 28.8267 467.606 28.56L475.606 27.24V30.36L468.446 31.56C467.06 31.8 466.046 32.24 465.406 32.88C464.793 33.52 464.486 34.3067 464.486 35.24C464.486 36.12 464.833 36.8533 465.526 37.44C466.246 38.0267 467.14 38.32 468.206 38.32C469.566 38.32 470.74 38.04 471.726 37.48C472.74 36.8933 473.526 36.1067 474.086 35.12C474.673 34.1333 474.966 33.04 474.966 31.84V26.36C474.966 25.1867 474.526 24.24 473.646 23.52C472.793 22.7733 471.66 22.4 470.246 22.4C469.02 22.4 467.926 22.72 466.966 23.36C466.033 23.9733 465.34 24.8 464.886 25.84L461.646 24.16C462.046 23.1733 462.686 22.2933 463.566 21.52C464.446 20.72 465.473 20.0933 466.646 19.64C467.82 19.1867 469.046 18.96 470.326 18.96C471.98 18.96 473.433 19.28 474.686 19.92C475.94 20.5333 476.913 21.4 477.606 22.52C478.326 23.6133 478.686 24.8933 478.686 26.36V41H475.046V36.92L475.726 37.16C475.273 38.0133 474.66 38.76 473.886 39.4C473.113 40.04 472.206 40.5467 471.166 40.92C470.126 41.2933 468.993 41.48 467.766 41.48ZM484.454 41V10.72H488.174V31.48L486.654 31.12L498.094 19.44H502.854L494.574 28.12L503.414 41H499.014L490.934 29.32L493.254 29.2L486.974 35.76L488.174 33.04V41H484.454ZM513.079 41.48C511.666 41.48 510.412 41.2267 509.319 40.72C508.252 40.1867 507.412 39.4667 506.799 38.56C506.186 37.6267 505.879 36.56 505.879 35.36C505.879 34.2133 506.119 33.1867 506.599 32.28C507.106 31.3467 507.879 30.56 508.919 29.92C509.986 29.28 511.319 28.8267 512.919 28.56L520.919 27.24V30.36L513.759 31.56C512.372 31.8 511.359 32.24 510.719 32.88C510.106 33.52 509.799 34.3067 509.799 35.24C509.799 36.12 510.146 36.8533 510.839 37.44C511.559 38.0267 512.452 38.32 513.519 38.32C514.879 38.32 516.052 38.04 517.039 37.48C518.052 36.8933 518.839 36.1067 519.399 35.12C519.986 34.1333 520.279 33.04 520.279 31.84V26.36C520.279 25.1867 519.839 24.24 518.959 23.52C518.106 22.7733 516.972 22.4 515.559 22.4C514.332 22.4 513.239 22.72 512.279 23.36C511.346 23.9733 510.652 24.8 510.199 25.84L506.959 24.16C507.359 23.1733 507.999 22.2933 508.879 21.52C509.759 20.72 510.786 20.0933 511.959 19.64C513.132 19.1867 514.359 18.96 515.639 18.96C517.292 18.96 518.746 19.28 519.999 19.92C521.252 20.5333 522.226 21.4 522.919 22.52C523.639 23.6133 523.999 24.8933 523.999 26.36V41H520.359V36.92L521.039 37.16C520.586 38.0133 519.972 38.76 519.199 39.4C518.426 40.04 517.519 40.5467 516.479 40.92C515.439 41.2933 514.306 41.48 513.079 41.48ZM529.767 41V19.44H533.407V23.4L533.007 22.84C533.513 21.6133 534.287 20.7067 535.327 20.12C536.367 19.5067 537.633 19.2 539.127 19.2H540.447V22.72H538.567C537.047 22.72 535.82 23.2 534.887 24.16C533.953 25.0933 533.487 26.4267 533.487 28.16V41H529.767ZM552.706 41.24C550.6 41.24 548.973 40.64 547.826 39.44C546.706 38.24 546.146 36.5467 546.146 34.36V23H542.226V19.44H543.026C543.986 19.44 544.746 19.1467 545.306 18.56C545.866 17.9733 546.146 17.2 546.146 16.24V14.48H549.866V19.44H554.706V23H549.866V34.24C549.866 34.96 549.973 35.5867 550.186 36.12C550.426 36.6533 550.813 37.08 551.346 37.4C551.88 37.6933 552.586 37.84 553.466 37.84C553.653 37.84 553.88 37.8267 554.146 37.8C554.44 37.7733 554.706 37.7467 554.946 37.72V41C554.6 41.08 554.213 41.1333 553.786 41.16C553.36 41.2133 553 41.24 552.706 41.24ZM565.852 41.48C564.439 41.48 563.186 41.2267 562.092 40.72C561.026 40.1867 560.186 39.4667 559.572 38.56C558.959 37.6267 558.652 36.56 558.652 35.36C558.652 34.2133 558.892 33.1867 559.372 32.28C559.879 31.3467 560.652 30.56 561.692 29.92C562.759 29.28 564.092 28.8267 565.692 28.56L573.692 27.24V30.36L566.532 31.56C565.146 31.8 564.132 32.24 563.492 32.88C562.879 33.52 562.572 34.3067 562.572 35.24C562.572 36.12 562.919 36.8533 563.612 37.44C564.332 38.0267 565.226 38.32 566.292 38.32C567.652 38.32 568.826 38.04 569.812 37.48C570.826 36.8933 571.612 36.1067 572.172 35.12C572.759 34.1333 573.052 33.04 573.052 31.84V26.36C573.052 25.1867 572.612 24.24 571.732 23.52C570.879 22.7733 569.746 22.4 568.332 22.4C567.106 22.4 566.012 22.72 565.052 23.36C564.119 23.9733 563.426 24.8 562.972 25.84L559.732 24.16C560.132 23.1733 560.772 22.2933 561.652 21.52C562.532 20.72 563.559 20.0933 564.732 19.64C565.906 19.1867 567.132 18.96 568.412 18.96C570.066 18.96 571.519 19.28 572.772 19.92C574.026 20.5333 574.999 21.4 575.692 22.52C576.412 23.6133 576.772 24.8933 576.772 26.36V41H573.132V36.92L573.812 37.16C573.359 38.0133 572.746 38.76 571.972 39.4C571.199 40.04 570.292 40.5467 569.252 40.92C568.212 41.2933 567.079 41.48 565.852 41.48ZM600.134 41.48C598.241 41.48 596.508 41.1333 594.934 40.44C593.361 39.72 592.028 38.7467 590.934 37.52C589.841 36.2933 589.054 34.92 588.574 33.4L591.974 32C592.694 33.92 593.761 35.4 595.174 36.44C596.614 37.4533 598.294 37.96 600.214 37.96C601.388 37.96 602.414 37.7733 603.294 37.4C604.174 37.0267 604.854 36.5067 605.334 35.84C605.841 35.1467 606.094 34.3467 606.094 33.44C606.094 32.1867 605.734 31.2 605.014 30.48C604.321 29.7333 603.294 29.1733 601.934 28.8L596.454 27.12C594.294 26.4533 592.641 25.4 591.494 23.96C590.348 22.52 589.774 20.8667 589.774 19C589.774 17.3733 590.161 15.9467 590.934 14.72C591.734 13.4667 592.828 12.4933 594.214 11.8C595.628 11.08 597.228 10.72 599.014 10.72C600.801 10.72 602.414 11.04 603.854 11.68C605.321 12.32 606.561 13.1867 607.574 14.28C608.588 15.3467 609.334 16.5733 609.814 17.96L606.454 19.36C605.814 17.68 604.854 16.4133 603.574 15.56C602.294 14.68 600.788 14.24 599.054 14.24C597.988 14.24 597.041 14.4267 596.214 14.8C595.414 15.1467 594.788 15.6667 594.334 16.36C593.908 17.0267 593.694 17.8267 593.694 18.76C593.694 19.8533 594.041 20.8267 594.734 21.68C595.428 22.5333 596.481 23.1867 597.894 23.64L602.894 25.12C605.241 25.84 607.014 26.8667 608.214 28.2C609.414 29.5333 610.014 31.1867 610.014 33.16C610.014 34.7867 609.588 36.2267 608.734 37.48C607.908 38.7333 606.748 39.72 605.254 40.44C603.788 41.1333 602.081 41.48 600.134 41.48ZM621.048 41.48C619.634 41.48 618.381 41.2267 617.288 40.72C616.221 40.1867 615.381 39.4667 614.768 38.56C614.154 37.6267 613.848 36.56 613.848 35.36C613.848 34.2133 614.088 33.1867 614.568 32.28C615.074 31.3467 615.848 30.56 616.888 29.92C617.954 29.28 619.288 28.8267 620.888 28.56L628.888 27.24V30.36L621.728 31.56C620.341 31.8 619.328 32.24 618.688 32.88C618.074 33.52 617.768 34.3067 617.768 35.24C617.768 36.12 618.114 36.8533 618.808 37.44C619.528 38.0267 620.421 38.32 621.488 38.32C622.848 38.32 624.021 38.04 625.008 37.48C626.021 36.8933 626.808 36.1067 627.368 35.12C627.954 34.1333 628.248 33.04 628.248 31.84V26.36C628.248 25.1867 627.808 24.24 626.928 23.52C626.074 22.7733 624.941 22.4 623.528 22.4C622.301 22.4 621.208 22.72 620.248 23.36C619.314 23.9733 618.621 24.8 618.168 25.84L614.928 24.16C615.328 23.1733 615.968 22.2933 616.848 21.52C617.728 20.72 618.754 20.0933 619.928 19.64C621.101 19.1867 622.328 18.96 623.608 18.96C625.261 18.96 626.714 19.28 627.968 19.92C629.221 20.5333 630.194 21.4 630.888 22.52C631.608 23.6133 631.968 24.8933 631.968 26.36V41H628.328V36.92L629.008 37.16C628.554 38.0133 627.941 38.76 627.168 39.4C626.394 40.04 625.488 40.5467 624.448 40.92C623.408 41.2933 622.274 41.48 621.048 41.48ZM637.735 41V19.44H641.375V23.64L640.775 23.28C641.309 21.92 642.162 20.8667 643.335 20.12C644.535 19.3467 645.935 18.96 647.535 18.96C649.082 18.96 650.455 19.3067 651.655 20C652.882 20.6933 653.842 21.6533 654.535 22.88C655.255 24.1067 655.615 25.4933 655.615 27.04V41H651.855V28.24C651.855 27.04 651.642 26.0267 651.215 25.2C650.789 24.3733 650.175 23.7333 649.375 23.28C648.602 22.8 647.709 22.56 646.695 22.56C645.682 22.56 644.775 22.8 643.975 23.28C643.202 23.7333 642.589 24.3867 642.135 25.24C641.682 26.0667 641.455 27.0667 641.455 28.24V41H637.735ZM668.659 41.48C666.499 41.48 664.619 40.9467 663.019 39.88C661.419 38.8133 660.285 37.3733 659.619 35.56L662.579 34.12C663.192 35.4 664.032 36.4133 665.099 37.16C666.165 37.9067 667.352 38.28 668.659 38.28C669.832 38.28 670.805 38 671.579 37.44C672.352 36.88 672.739 36.1467 672.739 35.24C672.739 34.6 672.552 34.0933 672.179 33.72C671.832 33.32 671.405 33.0133 670.899 32.8C670.392 32.56 669.925 32.3867 669.499 32.28L666.259 31.36C664.312 30.8 662.885 30 661.979 28.96C661.099 27.92 660.659 26.7067 660.659 25.32C660.659 24.04 660.979 22.9333 661.619 22C662.285 21.04 663.179 20.2933 664.299 19.76C665.445 19.2267 666.725 18.96 668.139 18.96C670.032 18.96 671.725 19.44 673.219 20.4C674.739 21.36 675.819 22.7067 676.459 24.44L673.419 25.84C672.939 24.72 672.219 23.84 671.259 23.2C670.299 22.5333 669.219 22.2 668.019 22.2C666.925 22.2 666.059 22.48 665.419 23.04C664.779 23.5733 664.459 24.2533 664.459 25.08C664.459 25.6933 664.619 26.2 664.939 26.6C665.259 26.9733 665.645 27.2667 666.099 27.48C666.552 27.6667 666.992 27.8267 667.419 27.96L670.939 29C672.699 29.5067 674.059 30.2933 675.019 31.36C676.005 32.4267 676.499 33.7067 676.499 35.2C676.499 36.4 676.165 37.48 675.499 38.44C674.832 39.4 673.912 40.1467 672.739 40.68C671.565 41.2133 670.205 41.48 668.659 41.48ZM690.082 48.6V7.2H694.002V48.6H690.082Z" fill="black"/>
<path d="M722.494 41V11.2H733.334C735.334 11.2 737.094 11.5733 738.614 12.32C740.161 13.04 741.361 14.1067 742.214 15.52C743.067 16.9067 743.494 18.5733 743.494 20.52C743.494 22.44 743.054 24.0933 742.174 25.48C741.321 26.8667 740.134 27.9333 738.614 28.68C737.094 29.4267 735.334 29.8 733.334 29.8H727.214V41H722.494ZM727.214 25.6H733.454C734.521 25.6 735.454 25.3867 736.254 24.96C737.054 24.5333 737.681 23.9467 738.134 23.2C738.587 22.4267 738.814 21.52 738.814 20.48C738.814 19.44 738.587 18.5467 738.134 17.8C737.681 17.0267 737.054 16.44 736.254 16.04C735.454 15.6133 734.521 15.4 733.454 15.4H727.214V25.6ZM747.913 41V10.72H752.433V41H747.913ZM765.438 41.48C763.811 41.48 762.385 41.12 761.158 40.4C759.931 39.6533 758.971 38.6267 758.278 37.32C757.611 35.9867 757.278 34.4533 757.278 32.72V19.36H761.798V32.32C761.798 33.3067 761.998 34.1733 762.398 34.92C762.798 35.6667 763.358 36.2533 764.078 36.68C764.798 37.08 765.625 37.28 766.558 37.28C767.518 37.28 768.358 37.0667 769.078 36.64C769.798 36.2133 770.358 35.6133 770.758 34.84C771.185 34.0667 771.398 33.16 771.398 32.12V19.36H775.878V41H771.598V36.76L772.078 37.32C771.571 38.6533 770.731 39.68 769.558 40.4C768.385 41.12 767.011 41.48 765.438 41.48ZM789.156 41.48C786.942 41.48 784.996 40.9333 783.316 39.84C781.662 38.7467 780.502 37.28 779.836 35.44L783.316 33.8C783.902 35.0267 784.702 36 785.716 36.72C786.756 37.44 787.902 37.8 789.156 37.8C790.222 37.8 791.089 37.56 791.756 37.08C792.422 36.6 792.756 35.9467 792.756 35.12C792.756 34.5867 792.609 34.16 792.316 33.84C792.022 33.4933 791.649 33.2133 791.196 33C790.769 32.7867 790.329 32.6267 789.876 32.52L786.476 31.56C784.609 31.0267 783.209 30.2267 782.276 29.16C781.369 28.0667 780.916 26.8 780.916 25.36C780.916 24.0533 781.249 22.92 781.916 21.96C782.582 20.9733 783.502 20.2133 784.676 19.68C785.849 19.1467 787.169 18.88 788.636 18.88C790.609 18.88 792.369 19.3733 793.916 20.36C795.462 21.32 796.556 22.6667 797.196 24.4L793.716 26.04C793.289 25 792.609 24.1733 791.676 23.56C790.769 22.9467 789.742 22.64 788.596 22.64C787.609 22.64 786.822 22.88 786.236 23.36C785.649 23.8133 785.356 24.4133 785.356 25.16C785.356 25.6667 785.489 26.0933 785.756 26.44C786.022 26.76 786.369 27.0267 786.796 27.24C787.222 27.4267 787.662 27.5867 788.116 27.72L791.636 28.76C793.422 29.2667 794.796 30.0667 795.756 31.16C796.716 32.2267 797.196 33.5067 797.196 35C797.196 36.28 796.849 37.4133 796.156 38.4C795.489 39.36 794.556 40.12 793.356 40.68C792.156 41.2133 790.756 41.48 789.156 41.48ZM807.737 41V36.6H809.457C810.79 36.6 811.857 36.2133 812.657 35.44C813.457 34.64 813.857 33.5733 813.857 32.24V11.2H818.537V32.08C818.537 33.8933 818.163 35.4667 817.417 36.8C816.697 38.1333 815.643 39.1733 814.257 39.92C812.897 40.64 811.297 41 809.457 41H807.737ZM830.683 41.48C829.216 41.48 827.923 41.2267 826.803 40.72C825.709 40.1867 824.856 39.4667 824.243 38.56C823.629 37.6267 823.323 36.5333 823.323 35.28C823.323 34.1067 823.576 33.0533 824.083 32.12C824.616 31.1867 825.429 30.4 826.523 29.76C827.616 29.12 828.989 28.6667 830.643 28.4L838.163 27.16V30.72L831.523 31.88C830.323 32.0933 829.443 32.48 828.883 33.04C828.323 33.5733 828.043 34.2667 828.043 35.12C828.043 35.9467 828.349 36.6267 828.963 37.16C829.603 37.6667 830.416 37.92 831.403 37.92C832.629 37.92 833.696 37.6533 834.603 37.12C835.536 36.5867 836.256 35.88 836.763 35C837.269 34.0933 837.523 33.0933 837.523 32V26.44C837.523 25.3733 837.123 24.5067 836.323 23.84C835.549 23.1467 834.509 22.8 833.203 22.8C832.003 22.8 830.949 23.12 830.043 23.76C829.163 24.3733 828.509 25.1733 828.083 26.16L824.323 24.28C824.723 23.2133 825.376 22.28 826.283 21.48C827.189 20.6533 828.243 20.0133 829.443 19.56C830.669 19.1067 831.963 18.88 833.322 18.88C835.029 18.88 836.536 19.2 837.843 19.84C839.176 20.48 840.203 21.3733 840.923 22.52C841.669 23.64 842.043 24.9467 842.043 26.44V41H837.723V37.08L838.643 37.2C838.136 38.08 837.483 38.84 836.683 39.48C835.909 40.12 835.016 40.6133 834.003 40.96C833.016 41.3067 831.909 41.48 830.683 41.48ZM847.327 41V10.72H851.848V31L850.088 30.56L860.928 19.36H866.568L858.408 28.04L866.928 41H861.728L854.128 29.52L856.808 29.16L850.408 35.96L851.848 32.96V41H847.327ZM876.503 41.48C875.036 41.48 873.743 41.2267 872.623 40.72C871.529 40.1867 870.676 39.4667 870.063 38.56C869.449 37.6267 869.143 36.5333 869.143 35.28C869.143 34.1067 869.396 33.0533 869.903 32.12C870.436 31.1867 871.249 30.4 872.343 29.76C873.436 29.12 874.809 28.6667 876.463 28.4L883.983 27.16V30.72L877.343 31.88C876.143 32.0933 875.263 32.48 874.703 33.04C874.143 33.5733 873.863 34.2667 873.863 35.12C873.863 35.9467 874.169 36.6267 874.783 37.16C875.423 37.6667 876.236 37.92 877.223 37.92C878.449 37.92 879.516 37.6533 880.423 37.12C881.356 36.5867 882.076 35.88 882.583 35C883.089 34.0933 883.343 33.0933 883.343 32V26.44C883.343 25.3733 882.943 24.5067 882.143 23.84C881.369 23.1467 880.329 22.8 879.023 22.8C877.823 22.8 876.769 23.12 875.863 23.76C874.983 24.3733 874.329 25.1733 873.903 26.16L870.143 24.28C870.543 23.2133 871.196 22.28 872.103 21.48C873.009 20.6533 874.063 20.0133 875.263 19.56C876.489 19.1067 877.783 18.88 879.143 18.88C880.849 18.88 882.356 19.2 883.663 19.84C884.996 20.48 886.023 21.3733 886.743 22.52C887.489 23.64 887.863 24.9467 887.863 26.44V41H883.543V37.08L884.463 37.2C883.956 38.08 883.303 38.84 882.503 39.48C881.729 40.12 880.836 40.6133 879.823 40.96C878.836 41.3067 877.729 41.48 876.503 41.48ZM893.148 41V19.36H897.468V23.72L897.068 23.08C897.548 21.6667 898.321 20.6533 899.388 20.04C900.454 19.4 901.734 19.08 903.228 19.08H904.548V23.2H902.668C901.174 23.2 899.961 23.6667 899.028 24.6C898.121 25.5067 897.668 26.8133 897.668 28.52V41H893.148ZM917.391 41.24C915.124 41.24 913.364 40.6 912.111 39.32C910.857 38.04 910.231 36.24 910.231 33.92V23.44H906.431V19.36H907.031C908.044 19.36 908.831 19.0667 909.391 18.48C909.951 17.8933 910.231 17.0933 910.231 16.08V14.4H914.751V19.36H919.671V23.44H914.751V33.72C914.751 34.4667 914.871 35.1067 915.111 35.64C915.351 36.1467 915.737 36.5467 916.271 36.84C916.804 37.1067 917.497 37.24 918.351 37.24C918.564 37.24 918.804 37.2267 919.071 37.2C919.337 37.1733 919.591 37.1467 919.831 37.12V41C919.457 41.0533 919.044 41.1067 918.591 41.16C918.137 41.2133 917.737 41.24 917.391 41.24ZM930.526 41.48C929.06 41.48 927.766 41.2267 926.646 40.72C925.553 40.1867 924.7 39.4667 924.086 38.56C923.473 37.6267 923.166 36.5333 923.166 35.28C923.166 34.1067 923.42 33.0533 923.926 32.12C924.46 31.1867 925.273 30.4 926.366 29.76C927.46 29.12 928.833 28.6667 930.486 28.4L938.006 27.16V30.72L931.366 31.88C930.166 32.0933 929.286 32.48 928.726 33.04C928.166 33.5733 927.886 34.2667 927.886 35.12C927.886 35.9467 928.193 36.6267 928.806 37.16C929.446 37.6667 930.26 37.92 931.246 37.92C932.473 37.92 933.54 37.6533 934.446 37.12C935.38 36.5867 936.1 35.88 936.606 35C937.113 34.0933 937.366 33.0933 937.366 32V26.44C937.366 25.3733 936.966 24.5067 936.166 23.84C935.393 23.1467 934.353 22.8 933.046 22.8C931.846 22.8 930.793 23.12 929.886 23.76C929.006 24.3733 928.353 25.1733 927.926 26.16L924.166 24.28C924.566 23.2133 925.22 22.28 926.126 21.48C927.033 20.6533 928.086 20.0133 929.286 19.56C930.513 19.1067 931.806 18.88 933.166 18.88C934.873 18.88 936.38 19.2 937.686 19.84C939.02 20.48 940.046 21.3733 940.766 22.52C941.513 23.64 941.886 24.9467 941.886 26.44V41H937.566V37.08L938.486 37.2C937.98 38.08 937.326 38.84 936.526 39.48C935.753 40.12 934.86 40.6133 933.846 40.96C932.86 41.3067 931.753 41.48 930.526 41.48ZM965.043 41.48C963.177 41.48 961.443 41.1333 959.843 40.44C958.243 39.72 956.883 38.7467 955.763 37.52C954.643 36.2933 953.817 34.88 953.283 33.28L957.283 31.6C958.003 33.44 959.057 34.8533 960.443 35.84C961.83 36.8267 963.43 37.32 965.243 37.32C966.31 37.32 967.243 37.16 968.043 36.84C968.843 36.4933 969.457 36.0133 969.883 35.4C970.337 34.7867 970.563 34.08 970.563 33.28C970.563 32.1867 970.257 31.32 969.643 30.68C969.03 30.04 968.123 29.5333 966.923 29.16L961.323 27.4C959.083 26.7067 957.377 25.6533 956.203 24.24C955.03 22.8 954.443 21.12 954.443 19.2C954.443 17.52 954.857 16.0533 955.683 14.8C956.51 13.52 957.643 12.52 959.083 11.8C960.55 11.08 962.217 10.72 964.083 10.72C965.87 10.72 967.497 11.04 968.963 11.68C970.43 12.2933 971.683 13.1467 972.723 14.24C973.79 15.3333 974.563 16.6 975.043 18.04L971.123 19.76C970.537 18.1867 969.617 16.9733 968.363 16.12C967.137 15.2667 965.71 14.84 964.083 14.84C963.097 14.84 962.23 15.0133 961.483 15.36C960.737 15.68 960.15 16.16 959.723 16.8C959.323 17.4133 959.123 18.1333 959.123 18.96C959.123 19.92 959.43 20.7733 960.043 21.52C960.657 22.2667 961.59 22.8267 962.843 23.2L968.043 24.84C970.417 25.56 972.203 26.6 973.403 27.96C974.603 29.2933 975.203 30.96 975.203 32.96C975.203 34.6133 974.763 36.08 973.883 37.36C973.03 38.64 971.843 39.6533 970.323 40.4C968.803 41.12 967.043 41.48 965.043 41.48ZM986.151 41.48C984.685 41.48 983.391 41.2267 982.271 40.72C981.178 40.1867 980.325 39.4667 979.711 38.56C979.098 37.6267 978.791 36.5333 978.791 35.28C978.791 34.1067 979.045 33.0533 979.551 32.12C980.085 31.1867 980.898 30.4 981.991 29.76C983.085 29.12 984.458 28.6667 986.111 28.4L993.631 27.16V30.72L986.991 31.88C985.791 32.0933 984.911 32.48 984.351 33.04C983.791 33.5733 983.511 34.2667 983.511 35.12C983.511 35.9467 983.818 36.6267 984.431 37.16C985.071 37.6667 985.885 37.92 986.871 37.92C988.098 37.92 989.165 37.6533 990.071 37.12C991.005 36.5867 991.725 35.88 992.231 35C992.738 34.0933 992.991 33.0933 992.991 32V26.44C992.991 25.3733 992.591 24.5067 991.791 23.84C991.018 23.1467 989.978 22.8 988.671 22.8C987.471 22.8 986.418 23.12 985.511 23.76C984.631 24.3733 983.978 25.1733 983.551 26.16L979.791 24.28C980.191 23.2133 980.845 22.28 981.751 21.48C982.658 20.6533 983.711 20.0133 984.911 19.56C986.138 19.1067 987.431 18.88 988.791 18.88C990.498 18.88 992.005 19.2 993.311 19.84C994.645 20.48 995.671 21.3733 996.391 22.52C997.138 23.64 997.511 24.9467 997.511 26.44V41H993.191V37.08L994.111 37.2C993.605 38.08 992.951 38.84 992.151 39.48C991.378 40.12 990.485 40.6133 989.471 40.96C988.485 41.3067 987.378 41.48 986.151 41.48ZM1002.8 41V19.36H1007.12V23.6L1006.6 23.04C1007.13 21.68 1007.98 20.6533 1009.16 19.96C1010.33 19.24 1011.69 18.88 1013.24 18.88C1014.84 18.88 1016.25 19.2267 1017.48 19.92C1018.7 20.6133 1019.66 21.5733 1020.36 22.8C1021.05 24.0267 1021.4 25.44 1021.4 27.04V41H1016.92V28.24C1016.92 27.1467 1016.72 26.2267 1016.32 25.48C1015.92 24.7067 1015.34 24.12 1014.6 23.72C1013.88 23.2933 1013.05 23.08 1012.12 23.08C1011.18 23.08 1010.34 23.2933 1009.6 23.72C1008.88 24.12 1008.32 24.7067 1007.92 25.48C1007.52 26.2533 1007.32 27.1733 1007.32 28.24V41H1002.8ZM1034.23 41.48C1032.02 41.48 1030.07 40.9333 1028.39 39.84C1026.74 38.7467 1025.58 37.28 1024.91 35.44L1028.39 33.8C1028.98 35.0267 1029.78 36 1030.79 36.72C1031.83 37.44 1032.98 37.8 1034.23 37.8C1035.3 37.8 1036.17 37.56 1036.83 37.08C1037.5 36.6 1037.83 35.9467 1037.83 35.12C1037.83 34.5867 1037.69 34.16 1037.39 33.84C1037.1 33.4933 1036.73 33.2133 1036.27 33C1035.85 32.7867 1035.41 32.6267 1034.95 32.52L1031.55 31.56C1029.69 31.0267 1028.29 30.2267 1027.35 29.16C1026.45 28.0667 1025.99 26.8 1025.99 25.36C1025.99 24.0533 1026.33 22.92 1026.99 21.96C1027.66 20.9733 1028.58 20.2133 1029.75 19.68C1030.93 19.1467 1032.25 18.88 1033.71 18.88C1035.69 18.88 1037.45 19.3733 1038.99 20.36C1040.54 21.32 1041.63 22.6667 1042.27 24.4L1038.79 26.04C1038.37 25 1037.69 24.1733 1036.75 23.56C1035.85 22.9467 1034.82 22.64 1033.67 22.64C1032.69 22.64 1031.9 22.88 1031.31 23.36C1030.73 23.8133 1030.43 24.4133 1030.43 25.16C1030.43 25.6667 1030.57 26.0933 1030.83 26.44C1031.1 26.76 1031.45 27.0267 1031.87 27.24C1032.3 27.4267 1032.74 27.5867 1033.19 27.72L1036.71 28.76C1038.5 29.2667 1039.87 30.0667 1040.83 31.16C1041.79 32.2267 1042.27 33.5067 1042.27 35C1042.27 36.28 1041.93 37.4133 1041.23 38.4C1040.57 39.36 1039.63 40.12 1038.43 40.68C1037.23 41.2133 1035.83 41.48 1034.23 41.48ZM1056.01 48.6V7.2H1060.61V48.6H1056.01Z" fill="black"/>
</svg>
