<svg width="1290" height="453" viewBox="0 0 1290 453" fill="none" xmlns="http://www.w3.org/2000/svg">
<path d="M26.8369 330V313.92H21.8929V312.12H33.6529V313.92H28.7569V330H26.8369ZM35.7582 330V311.832H37.5582V319.632L37.1502 319.536C37.4702 318.704 37.9902 318.048 38.7102 317.568C39.4462 317.088 40.2942 316.848 41.2542 316.848C42.1662 316.848 42.9822 317.056 43.7022 317.472C44.4382 317.888 45.0142 318.464 45.4302 319.2C45.8622 319.92 46.0782 320.736 46.0782 321.648V330H44.2782V322.344C44.2782 321.56 44.1342 320.896 43.8462 320.352C43.5582 319.808 43.1582 319.392 42.6462 319.104C42.1502 318.8 41.5822 318.648 40.9422 318.648C40.3022 318.648 39.7262 318.8 39.2142 319.104C38.7022 319.392 38.2942 319.816 37.9902 320.376C37.7022 320.92 37.5582 321.576 37.5582 322.344V330H35.7582ZM49.516 330V317.136H51.316V330H49.516ZM49.516 314.76V312.12H51.316V314.76H49.516ZM59.4643 330.288C58.2323 330.288 57.1523 329.976 56.2243 329.352C55.2963 328.728 54.6243 327.88 54.2083 326.808L55.7203 326.088C56.0883 326.872 56.6003 327.496 57.2563 327.96C57.9283 328.424 58.6643 328.656 59.4643 328.656C60.2323 328.656 60.8803 328.472 61.4083 328.104C61.9363 327.72 62.2003 327.224 62.2003 326.616C62.2003 326.168 62.0723 325.816 61.8163 325.56C61.5603 325.288 61.2643 325.08 60.9283 324.936C60.5923 324.792 60.2963 324.688 60.0403 324.624L58.1923 324.096C57.0083 323.76 56.1523 323.288 55.6243 322.68C55.0963 322.072 54.8323 321.368 54.8323 320.568C54.8323 319.816 55.0243 319.16 55.4083 318.6C55.7923 318.04 56.3123 317.608 56.9683 317.304C57.6243 317 58.3523 316.848 59.1523 316.848C60.2403 316.848 61.2243 317.136 62.1043 317.712C63.0003 318.272 63.6323 319.056 64.0003 320.064L62.4643 320.784C62.1443 320.064 61.6803 319.504 61.0723 319.104C60.4803 318.688 59.8163 318.48 59.0803 318.48C58.3603 318.48 57.7843 318.664 57.3523 319.032C56.9203 319.4 56.7043 319.864 56.7043 320.424C56.7043 320.856 56.8163 321.2 57.0403 321.456C57.2643 321.712 57.5203 321.904 57.8083 322.032C58.1123 322.16 58.3763 322.256 58.6003 322.32L60.7363 322.944C61.7763 323.248 62.5843 323.72 63.1603 324.36C63.7523 325 64.0483 325.752 64.0483 326.616C64.0483 327.32 63.8483 327.952 63.4483 328.512C63.0643 329.072 62.5283 329.512 61.8403 329.832C61.1523 330.136 60.3603 330.288 59.4643 330.288ZM77.5774 330.288C76.4414 330.288 75.4094 330.072 74.4814 329.64C73.5534 329.208 72.7694 328.632 72.1294 327.912C71.4894 327.176 71.0334 326.368 70.7614 325.488L72.4894 324.84C72.9054 326.056 73.5534 326.984 74.4334 327.624C75.3134 328.248 76.3614 328.56 77.5774 328.56C78.3454 328.56 79.0174 328.44 79.5934 328.2C80.1854 327.944 80.6414 327.592 80.9614 327.144C81.2814 326.696 81.4414 326.176 81.4414 325.584C81.4414 324.704 81.2014 324.024 80.7214 323.544C80.2414 323.064 79.5534 322.696 78.6574 322.44L75.4414 321.48C74.1774 321.112 73.2014 320.496 72.5134 319.632C71.8414 318.768 71.5054 317.784 71.5054 316.68C71.5054 315.736 71.7374 314.904 72.2014 314.184C72.6654 313.448 73.2974 312.872 74.0974 312.456C74.9134 312.04 75.8334 311.832 76.8574 311.832C77.9294 311.832 78.8894 312.032 79.7374 312.432C80.6014 312.816 81.3294 313.328 81.9214 313.968C82.5134 314.608 82.9374 315.32 83.1934 316.104L81.5134 316.776C81.1294 315.72 80.5294 314.92 79.7134 314.376C78.9134 313.832 77.9694 313.56 76.8814 313.56C76.1934 313.56 75.5854 313.68 75.0574 313.92C74.5454 314.16 74.1454 314.504 73.8574 314.952C73.5694 315.4 73.4254 315.928 73.4254 316.536C73.4254 317.272 73.6574 317.936 74.1214 318.528C74.5854 319.104 75.2974 319.536 76.2574 319.824L79.0894 320.664C80.4974 321.08 81.5614 321.68 82.2814 322.464C83.0014 323.248 83.3614 324.232 83.3614 325.416C83.3614 326.376 83.1134 327.224 82.6174 327.96C82.1374 328.68 81.4574 329.248 80.5774 329.664C79.7134 330.08 78.7134 330.288 77.5774 330.288ZM92.661 330.288C91.461 330.288 90.373 330 89.397 329.424C88.437 328.832 87.677 328.024 87.117 327C86.557 325.976 86.277 324.816 86.277 323.52C86.277 322.224 86.549 321.08 87.093 320.088C87.637 319.08 88.373 318.288 89.301 317.712C90.245 317.136 91.301 316.848 92.469 316.848C93.397 316.848 94.221 317.024 94.941 317.376C95.677 317.712 96.301 318.176 96.813 318.768C97.325 319.344 97.717 320 97.989 320.736C98.261 321.456 98.397 322.2 98.397 322.968C98.397 323.128 98.389 323.312 98.373 323.52C98.357 323.712 98.333 323.912 98.301 324.12H87.429V322.44H97.269L96.405 323.16C96.549 322.28 96.445 321.496 96.093 320.808C95.757 320.104 95.269 319.552 94.629 319.152C93.989 318.736 93.269 318.528 92.469 318.528C91.669 318.528 90.925 318.736 90.237 319.152C89.565 319.568 89.037 320.152 88.653 320.904C88.269 321.64 88.117 322.52 88.197 323.544C88.117 324.568 88.277 325.464 88.677 326.232C89.093 326.984 89.653 327.568 90.357 327.984C91.077 328.4 91.845 328.608 92.661 328.608C93.605 328.608 94.397 328.384 95.037 327.936C95.677 327.488 96.197 326.928 96.597 326.256L98.133 327.072C97.877 327.648 97.485 328.184 96.957 328.68C96.429 329.16 95.797 329.552 95.061 329.856C94.341 330.144 93.541 330.288 92.661 330.288ZM107.451 330.288C106.187 330.288 105.075 329.992 104.115 329.4C103.155 328.808 102.403 328.008 101.859 327C101.315 325.976 101.043 324.824 101.043 323.544C101.043 322.264 101.315 321.12 101.859 320.112C102.403 319.104 103.155 318.312 104.115 317.736C105.075 317.144 106.187 316.848 107.451 316.848C108.251 316.848 109.003 316.992 109.707 317.28C110.411 317.568 111.035 317.96 111.579 318.456C112.123 318.936 112.531 319.496 112.803 320.136L111.171 320.976C110.851 320.288 110.363 319.728 109.707 319.296C109.051 318.864 108.299 318.648 107.451 318.648C106.603 318.648 105.835 318.864 105.147 319.296C104.475 319.712 103.939 320.296 103.539 321.048C103.155 321.784 102.963 322.624 102.963 323.568C102.963 324.496 103.155 325.336 103.539 326.088C103.939 326.824 104.475 327.408 105.147 327.84C105.835 328.272 106.603 328.488 107.451 328.488C108.299 328.488 109.043 328.272 109.683 327.84C110.339 327.408 110.835 326.832 111.171 326.112L112.803 327C112.531 327.624 112.123 328.184 111.579 328.68C111.035 329.176 110.411 329.568 109.707 329.856C109.003 330.144 108.251 330.288 107.451 330.288ZM120.881 330.144C119.729 330.144 118.841 329.808 118.217 329.136C117.593 328.464 117.281 327.504 117.281 326.256V318.936H114.905V317.136H115.505C116.049 317.136 116.481 316.96 116.801 316.608C117.121 316.24 117.281 315.784 117.281 315.24V314.16H119.081V317.136H121.913V318.936H119.081V326.256C119.081 326.688 119.145 327.072 119.273 327.408C119.401 327.728 119.617 327.984 119.921 328.176C120.241 328.368 120.665 328.464 121.193 328.464C121.321 328.464 121.473 328.456 121.649 328.44C121.825 328.424 121.977 328.408 122.105 328.392V330C121.913 330.048 121.697 330.08 121.457 330.096C121.217 330.128 121.025 330.144 120.881 330.144ZM125.266 330V317.136H127.066V330H125.266ZM125.266 314.76V312.12H127.066V314.76H125.266ZM136.774 330.288C135.558 330.288 134.454 330 133.462 329.424C132.47 328.832 131.678 328.032 131.086 327.024C130.51 326 130.222 324.84 130.222 323.544C130.222 322.264 130.51 321.12 131.086 320.112C131.662 319.104 132.438 318.312 133.414 317.736C134.406 317.144 135.526 316.848 136.774 316.848C138.022 316.848 139.134 317.136 140.11 317.712C141.102 318.288 141.878 319.08 142.438 320.088C143.014 321.096 143.302 322.248 143.302 323.544C143.302 324.856 143.006 326.024 142.414 327.048C141.822 328.056 141.03 328.848 140.038 329.424C139.062 330 137.974 330.288 136.774 330.288ZM136.774 328.488C137.638 328.488 138.414 328.272 139.102 327.84C139.806 327.408 140.358 326.816 140.758 326.064C141.174 325.312 141.382 324.472 141.382 323.544C141.382 322.616 141.174 321.784 140.758 321.048C140.358 320.312 139.806 319.728 139.102 319.296C138.414 318.864 137.638 318.648 136.774 318.648C135.91 318.648 135.126 318.864 134.422 319.296C133.734 319.728 133.182 320.312 132.766 321.048C132.35 321.784 132.142 322.616 132.142 323.544C132.142 324.472 132.35 325.312 132.766 326.064C133.182 326.816 133.734 327.408 134.422 327.84C135.126 328.272 135.91 328.488 136.774 328.488ZM146.477 330V317.136H148.277V319.632L147.869 319.536C148.189 318.704 148.709 318.048 149.429 317.568C150.165 317.088 151.013 316.848 151.973 316.848C152.885 316.848 153.701 317.056 154.421 317.472C155.157 317.888 155.733 318.464 156.149 319.2C156.581 319.92 156.797 320.736 156.797 321.648V330H154.997V322.344C154.997 321.56 154.853 320.896 154.565 320.352C154.293 319.808 153.901 319.392 153.389 319.104C152.893 318.8 152.317 318.648 151.661 318.648C151.005 318.648 150.421 318.8 149.909 319.104C149.397 319.392 148.997 319.816 148.709 320.376C148.421 320.92 148.277 321.576 148.277 322.344V330H146.477ZM167.865 330L162.729 312.12H164.673L169.113 328.128H168.705L173.265 312.12H175.305L179.841 328.128H179.409L183.873 312.12H185.817L180.681 330H178.641L174.057 313.92H174.489L169.905 330H167.865ZM187.938 330V311.832H189.738V319.632L189.33 319.536C189.65 318.704 190.17 318.048 190.89 317.568C191.626 317.088 192.474 316.848 193.434 316.848C194.346 316.848 195.162 317.056 195.882 317.472C196.618 317.888 197.194 318.464 197.61 319.2C198.042 319.92 198.258 320.736 198.258 321.648V330H196.458V322.344C196.458 321.56 196.314 320.896 196.026 320.352C195.738 319.808 195.338 319.392 194.826 319.104C194.33 318.8 193.762 318.648 193.122 318.648C192.482 318.648 191.906 318.8 191.394 319.104C190.882 319.392 190.474 319.816 190.17 320.376C189.882 320.92 189.738 321.576 189.738 322.344V330H187.938ZM207.552 330.288C206.352 330.288 205.264 330 204.288 329.424C203.328 328.832 202.568 328.024 202.008 327C201.448 325.976 201.168 324.816 201.168 323.52C201.168 322.224 201.44 321.08 201.984 320.088C202.528 319.08 203.264 318.288 204.192 317.712C205.136 317.136 206.192 316.848 207.36 316.848C208.288 316.848 209.112 317.024 209.832 317.376C210.568 317.712 211.192 318.176 211.704 318.768C212.216 319.344 212.608 320 212.88 320.736C213.152 321.456 213.288 322.2 213.288 322.968C213.288 323.128 213.28 323.312 213.264 323.52C213.248 323.712 213.224 323.912 213.192 324.12H202.32V322.44H212.16L211.296 323.16C211.44 322.28 211.336 321.496 210.984 320.808C210.648 320.104 210.16 319.552 209.52 319.152C208.88 318.736 208.16 318.528 207.36 318.528C206.56 318.528 205.816 318.736 205.128 319.152C204.456 319.568 203.928 320.152 203.544 320.904C203.16 321.64 203.008 322.52 203.088 323.544C203.008 324.568 203.168 325.464 203.568 326.232C203.984 326.984 204.544 327.568 205.248 327.984C205.968 328.4 206.736 328.608 207.552 328.608C208.496 328.608 209.288 328.384 209.928 327.936C210.568 327.488 211.088 326.928 211.488 326.256L213.024 327.072C212.768 327.648 212.376 328.184 211.848 328.68C211.32 329.16 210.688 329.552 209.952 329.856C209.232 330.144 208.432 330.288 207.552 330.288ZM216.461 330V317.136H218.261V319.248L218.021 318.936C218.325 318.328 218.781 317.848 219.389 317.496C220.013 317.144 220.765 316.968 221.645 316.968H222.461V318.768H221.333C220.405 318.768 219.661 319.056 219.101 319.632C218.541 320.208 218.261 321.024 218.261 322.08V330H216.461ZM230.427 330.288C229.227 330.288 228.139 330 227.163 329.424C226.203 328.832 225.443 328.024 224.883 327C224.323 325.976 224.043 324.816 224.043 323.52C224.043 322.224 224.315 321.08 224.859 320.088C225.403 319.08 226.139 318.288 227.067 317.712C228.011 317.136 229.067 316.848 230.235 316.848C231.163 316.848 231.987 317.024 232.707 317.376C233.443 317.712 234.067 318.176 234.579 318.768C235.091 319.344 235.483 320 235.755 320.736C236.027 321.456 236.163 322.2 236.163 322.968C236.163 323.128 236.155 323.312 236.139 323.52C236.123 323.712 236.099 323.912 236.067 324.12H225.195V322.44H235.035L234.171 323.16C234.315 322.28 234.211 321.496 233.859 320.808C233.523 320.104 233.035 319.552 232.395 319.152C231.755 318.736 231.035 318.528 230.235 318.528C229.435 318.528 228.691 318.736 228.003 319.152C227.331 319.568 226.803 320.152 226.419 320.904C226.035 321.64 225.883 322.52 225.963 323.544C225.883 324.568 226.043 325.464 226.443 326.232C226.859 326.984 227.419 327.568 228.123 327.984C228.843 328.4 229.611 328.608 230.427 328.608C231.371 328.608 232.163 328.384 232.803 327.936C233.443 327.488 233.963 326.928 234.363 326.256L235.899 327.072C235.643 327.648 235.251 328.184 234.723 328.68C234.195 329.16 233.563 329.552 232.827 329.856C232.107 330.144 231.307 330.288 230.427 330.288ZM246.774 330V313.92H241.83V312.12H253.59V313.92H248.694V330H246.774ZM255.696 330V311.832H257.496V319.632L257.088 319.536C257.408 318.704 257.928 318.048 258.648 317.568C259.384 317.088 260.232 316.848 261.192 316.848C262.104 316.848 262.92 317.056 263.64 317.472C264.376 317.888 264.952 318.464 265.368 319.2C265.8 319.92 266.016 320.736 266.016 321.648V330H264.216V322.344C264.216 321.56 264.072 320.896 263.784 320.352C263.496 319.808 263.096 319.392 262.584 319.104C262.088 318.8 261.52 318.648 260.88 318.648C260.24 318.648 259.664 318.8 259.152 319.104C258.64 319.392 258.232 319.816 257.928 320.376C257.64 320.92 257.496 321.576 257.496 322.344V330H255.696ZM275.309 330.288C274.109 330.288 273.021 330 272.045 329.424C271.085 328.832 270.325 328.024 269.765 327C269.205 325.976 268.925 324.816 268.925 323.52C268.925 322.224 269.197 321.08 269.741 320.088C270.285 319.08 271.021 318.288 271.949 317.712C272.893 317.136 273.949 316.848 275.117 316.848C276.045 316.848 276.869 317.024 277.589 317.376C278.325 317.712 278.949 318.176 279.461 318.768C279.973 319.344 280.365 320 280.637 320.736C280.909 321.456 281.045 322.2 281.045 322.968C281.045 323.128 281.037 323.312 281.021 323.52C281.005 323.712 280.981 323.912 280.949 324.12H270.077V322.44H279.917L279.053 323.16C279.197 322.28 279.093 321.496 278.741 320.808C278.405 320.104 277.917 319.552 277.277 319.152C276.637 318.736 275.917 318.528 275.117 318.528C274.317 318.528 273.573 318.736 272.885 319.152C272.213 319.568 271.685 320.152 271.301 320.904C270.917 321.64 270.765 322.52 270.845 323.544C270.765 324.568 270.925 325.464 271.325 326.232C271.741 326.984 272.301 327.568 273.005 327.984C273.725 328.4 274.493 328.608 275.309 328.608C276.253 328.608 277.045 328.384 277.685 327.936C278.325 327.488 278.845 326.928 279.245 326.256L280.781 327.072C280.525 327.648 280.133 328.184 279.605 328.68C279.077 329.16 278.445 329.552 277.709 329.856C276.989 330.144 276.189 330.288 275.309 330.288ZM9.90106 359V341.12H16.0451C17.2131 341.12 18.2371 341.352 19.1171 341.816C19.9971 342.264 20.6771 342.904 21.1571 343.736C21.6531 344.552 21.9011 345.504 21.9011 346.592C21.9011 347.68 21.6531 348.632 21.1571 349.448C20.6771 350.264 19.9971 350.904 19.1171 351.368C18.2531 351.816 17.2291 352.04 16.0451 352.04H11.8211V359H9.90106ZM11.8211 350.24H16.1411C16.9091 350.24 17.5811 350.096 18.1571 349.808C18.7331 349.504 19.1811 349.08 19.5011 348.536C19.8211 347.976 19.9811 347.32 19.9811 346.568C19.9811 345.816 19.8211 345.168 19.5011 344.624C19.1811 344.08 18.7331 343.664 18.1571 343.376C17.5811 343.072 16.9091 342.92 16.1411 342.92H11.8211V350.24ZM25.0589 359V340.832H26.8589V359H25.0589ZM34.2633 359.288C33.4473 359.288 32.7193 359.136 32.0793 358.832C31.4393 358.512 30.9353 358.08 30.5673 357.536C30.1993 356.992 30.0153 356.368 30.0153 355.664C30.0153 354.992 30.1593 354.384 30.4473 353.84C30.7353 353.28 31.1833 352.808 31.7913 352.424C32.3993 352.04 33.1753 351.768 34.1193 351.608L39.1593 350.768V352.4L34.5513 353.168C33.6233 353.328 32.9513 353.624 32.5353 354.056C32.1353 354.488 31.9353 355 31.9353 355.592C31.9353 356.168 32.1593 356.656 32.6073 357.056C33.0713 357.456 33.6633 357.656 34.3833 357.656C35.2633 357.656 36.0313 357.472 36.6873 357.104C37.3433 356.72 37.8553 356.208 38.2233 355.568C38.5913 354.928 38.7753 354.216 38.7753 353.432V350.168C38.7753 349.4 38.4953 348.776 37.9353 348.296C37.3753 347.816 36.6473 347.576 35.7513 347.576C34.9673 347.576 34.2793 347.776 33.6873 348.176C33.0953 348.56 32.6553 349.064 32.3673 349.688L30.7353 348.8C30.9753 348.256 31.3513 347.76 31.8633 347.312C32.3913 346.864 32.9913 346.512 33.6633 346.256C34.3353 345.984 35.0313 345.848 35.7513 345.848C36.6953 345.848 37.5273 346.032 38.2473 346.4C38.9833 346.768 39.5513 347.28 39.9513 347.936C40.3673 348.576 40.5753 349.32 40.5753 350.168V359H38.7753V356.432L39.0393 356.696C38.8153 357.176 38.4633 357.616 37.9833 358.016C37.5193 358.4 36.9673 358.712 36.3273 358.952C35.7033 359.176 35.0153 359.288 34.2633 359.288ZM50.1577 359.288C48.8937 359.288 47.7817 358.992 46.8217 358.4C45.8617 357.808 45.1097 357.008 44.5657 356C44.0217 354.976 43.7497 353.824 43.7497 352.544C43.7497 351.264 44.0217 350.12 44.5657 349.112C45.1097 348.104 45.8617 347.312 46.8217 346.736C47.7817 346.144 48.8937 345.848 50.1577 345.848C50.9577 345.848 51.7097 345.992 52.4137 346.28C53.1177 346.568 53.7417 346.96 54.2857 347.456C54.8297 347.936 55.2377 348.496 55.5097 349.136L53.8777 349.976C53.5577 349.288 53.0697 348.728 52.4137 348.296C51.7577 347.864 51.0057 347.648 50.1577 347.648C49.3097 347.648 48.5417 347.864 47.8537 348.296C47.1817 348.712 46.6457 349.296 46.2457 350.048C45.8617 350.784 45.6697 351.624 45.6697 352.568C45.6697 353.496 45.8617 354.336 46.2457 355.088C46.6457 355.824 47.1817 356.408 47.8537 356.84C48.5417 357.272 49.3097 357.488 50.1577 357.488C51.0057 357.488 51.7497 357.272 52.3897 356.84C53.0457 356.408 53.5417 355.832 53.8777 355.112L55.5097 356C55.2377 356.624 54.8297 357.184 54.2857 357.68C53.7417 358.176 53.1177 358.568 52.4137 358.856C51.7097 359.144 50.9577 359.288 50.1577 359.288ZM64.5243 359.288C63.3243 359.288 62.2363 359 61.2603 358.424C60.3003 357.832 59.5403 357.024 58.9803 356C58.4203 354.976 58.1403 353.816 58.1403 352.52C58.1403 351.224 58.4123 350.08 58.9563 349.088C59.5003 348.08 60.2363 347.288 61.1643 346.712C62.1083 346.136 63.1643 345.848 64.3323 345.848C65.2603 345.848 66.0843 346.024 66.8043 346.376C67.5403 346.712 68.1643 347.176 68.6763 347.768C69.1883 348.344 69.5803 349 69.8523 349.736C70.1243 350.456 70.2603 351.2 70.2603 351.968C70.2603 352.128 70.2523 352.312 70.2363 352.52C70.2203 352.712 70.1963 352.912 70.1643 353.12H59.2923V351.44H69.1323L68.2683 352.16C68.4123 351.28 68.3083 350.496 67.9563 349.808C67.6203 349.104 67.1323 348.552 66.4923 348.152C65.8523 347.736 65.1323 347.528 64.3323 347.528C63.5323 347.528 62.7883 347.736 62.1003 348.152C61.4283 348.568 60.9003 349.152 60.5163 349.904C60.1323 350.64 59.9803 351.52 60.0603 352.544C59.9803 353.568 60.1403 354.464 60.5403 355.232C60.9563 355.984 61.5163 356.568 62.2203 356.984C62.9403 357.4 63.7083 357.608 64.5243 357.608C65.4683 357.608 66.2603 357.384 66.9003 356.936C67.5403 356.488 68.0603 355.928 68.4603 355.256L69.9963 356.072C69.7403 356.648 69.3483 357.184 68.8203 357.68C68.2923 358.16 67.6603 358.552 66.9243 358.856C66.2043 359.144 65.4043 359.288 64.5243 359.288ZM77.7761 359V341.12H79.6961V359H77.7761ZM87.9948 359V341.12H94.1388C95.3068 341.12 96.3308 341.352 97.2108 341.816C98.0908 342.264 98.7708 342.904 99.2508 343.736C99.7468 344.552 99.9948 345.504 99.9948 346.592C99.9948 347.68 99.7468 348.632 99.2508 349.448C98.7708 350.264 98.0908 350.904 97.2108 351.368C96.3468 351.816 95.3228 352.04 94.1388 352.04H89.9148V359H87.9948ZM89.9148 350.24H94.2348C95.0028 350.24 95.6748 350.096 96.2508 349.808C96.8268 349.504 97.2748 349.08 97.5948 348.536C97.9148 347.976 98.0748 347.32 98.0748 346.568C98.0748 345.816 97.9148 345.168 97.5948 344.624C97.2748 344.08 96.8268 343.664 96.2508 343.376C95.6748 343.072 95.0028 342.92 94.2348 342.92H89.9148V350.24ZM107.713 359.288C106.817 359.288 106.001 359.08 105.265 358.664C104.529 358.232 103.945 357.64 103.513 356.888C103.097 356.12 102.889 355.24 102.889 354.248V346.136H104.689V354.032C104.689 354.72 104.825 355.328 105.097 355.856C105.385 356.368 105.777 356.768 106.273 357.056C106.785 357.344 107.369 357.488 108.025 357.488C108.681 357.488 109.265 357.344 109.777 357.056C110.289 356.752 110.689 356.328 110.977 355.784C111.265 355.224 111.409 354.56 111.409 353.792V346.136H113.209V359H111.409V356.504L111.817 356.6C111.513 357.432 110.993 358.088 110.257 358.568C109.521 359.048 108.673 359.288 107.713 359.288ZM121.831 359.144C120.679 359.144 119.791 358.808 119.167 358.136C118.543 357.464 118.23 356.504 118.23 355.256V347.936H115.854V346.136H116.455C116.999 346.136 117.431 345.96 117.751 345.608C118.071 345.24 118.23 344.784 118.23 344.24V343.16H120.031V346.136H122.863V347.936H120.031V355.256C120.031 355.688 120.095 356.072 120.223 356.408C120.351 356.728 120.567 356.984 120.871 357.176C121.191 357.368 121.615 357.464 122.143 357.464C122.271 357.464 122.423 357.456 122.599 357.44C122.775 357.424 122.927 357.408 123.055 357.392V359C122.863 359.048 122.647 359.08 122.407 359.096C122.167 359.128 121.975 359.144 121.831 359.144ZM130.557 359V341.12H132.237L138.957 350.864H138.021L144.717 341.12H146.397V359H144.477V343.712L145.101 343.952L138.525 353.48H138.429L131.877 343.952L132.477 343.712V359H130.557ZM150.62 364.28C150.364 364.28 150.1 364.256 149.828 364.208C149.572 364.176 149.316 364.112 149.06 364.016V362.336C149.22 362.352 149.42 362.376 149.66 362.408C149.916 362.456 150.172 362.48 150.428 362.48C151.212 362.48 151.812 362.312 152.228 361.976C152.644 361.656 153.052 361.032 153.452 360.104L154.268 358.184L154.22 359.768L148.772 346.136H150.716L155.18 357.392H154.676L159.116 346.136H161.108L155.228 360.632C154.972 361.256 154.644 361.848 154.244 362.408C153.86 362.968 153.372 363.416 152.78 363.752C152.188 364.104 151.468 364.28 150.62 364.28ZM173.589 359.288C172.453 359.288 171.421 359.072 170.493 358.64C169.565 358.208 168.781 357.632 168.141 356.912C167.501 356.176 167.045 355.368 166.773 354.488L168.501 353.84C168.917 355.056 169.565 355.984 170.445 356.624C171.325 357.248 172.373 357.56 173.589 357.56C174.357 357.56 175.029 357.44 175.605 357.2C176.197 356.944 176.653 356.592 176.973 356.144C177.293 355.696 177.453 355.176 177.453 354.584C177.453 353.704 177.213 353.024 176.733 352.544C176.253 352.064 175.565 351.696 174.669 351.44L171.453 350.48C170.189 350.112 169.213 349.496 168.525 348.632C167.853 347.768 167.517 346.784 167.517 345.68C167.517 344.736 167.749 343.904 168.213 343.184C168.677 342.448 169.309 341.872 170.109 341.456C170.925 341.04 171.845 340.832 172.869 340.832C173.941 340.832 174.901 341.032 175.749 341.432C176.613 341.816 177.341 342.328 177.933 342.968C178.525 343.608 178.949 344.32 179.205 345.104L177.525 345.776C177.141 344.72 176.541 343.92 175.725 343.376C174.925 342.832 173.981 342.56 172.893 342.56C172.205 342.56 171.597 342.68 171.069 342.92C170.557 343.16 170.157 343.504 169.869 343.952C169.581 344.4 169.437 344.928 169.437 345.536C169.437 346.272 169.669 346.936 170.133 347.528C170.597 348.104 171.309 348.536 172.269 348.824L175.101 349.664C176.509 350.08 177.573 350.68 178.293 351.464C179.013 352.248 179.373 353.232 179.373 354.416C179.373 355.376 179.125 356.224 178.629 356.96C178.149 357.68 177.469 358.248 176.589 358.664C175.725 359.08 174.725 359.288 173.589 359.288ZM187.737 359.144C186.585 359.144 185.697 358.808 185.073 358.136C184.449 357.464 184.137 356.504 184.137 355.256V347.936H181.761V346.136H182.361C182.905 346.136 183.337 345.96 183.657 345.608C183.977 345.24 184.137 344.784 184.137 344.24V343.16H185.937V346.136H188.769V347.936H185.937V355.256C185.937 355.688 186.001 356.072 186.129 356.408C186.257 356.728 186.473 356.984 186.777 357.176C187.097 357.368 187.521 357.464 188.049 357.464C188.177 357.464 188.329 357.456 188.505 357.44C188.681 357.424 188.833 357.408 188.961 357.392V359C188.769 359.048 188.553 359.08 188.313 359.096C188.073 359.128 187.881 359.144 187.737 359.144ZM196.681 359.288C195.785 359.288 194.969 359.08 194.233 358.664C193.497 358.232 192.913 357.64 192.481 356.888C192.065 356.12 191.857 355.24 191.857 354.248V346.136H193.657V354.032C193.657 354.72 193.793 355.328 194.065 355.856C194.353 356.368 194.745 356.768 195.241 357.056C195.753 357.344 196.337 357.488 196.993 357.488C197.649 357.488 198.233 357.344 198.745 357.056C199.257 356.752 199.657 356.328 199.945 355.784C200.233 355.224 200.377 354.56 200.377 353.792V346.136H202.177V359H200.377V356.504L200.785 356.6C200.481 357.432 199.961 358.088 199.225 358.568C198.489 359.048 197.641 359.288 196.681 359.288ZM211.687 359.288C210.487 359.288 209.407 359 208.447 358.424C207.487 357.832 206.727 357.032 206.167 356.024C205.623 355 205.351 353.848 205.351 352.568C205.351 351.272 205.623 350.12 206.167 349.112C206.727 348.104 207.479 347.312 208.423 346.736C209.383 346.144 210.471 345.848 211.687 345.848C212.791 345.848 213.775 346.088 214.639 346.568C215.503 347.048 216.183 347.696 216.679 348.512L216.391 349.016V340.832H218.191V359H216.391V356.12L216.679 356.384C216.231 357.312 215.559 358.032 214.663 358.544C213.783 359.04 212.791 359.288 211.687 359.288ZM211.783 357.488C212.647 357.488 213.423 357.272 214.111 356.84C214.815 356.408 215.367 355.824 215.767 355.088C216.183 354.336 216.391 353.496 216.391 352.568C216.391 351.64 216.183 350.808 215.767 350.072C215.367 349.32 214.815 348.728 214.111 348.296C213.423 347.864 212.647 347.648 211.783 347.648C210.935 347.648 210.167 347.864 209.479 348.296C208.791 348.728 208.247 349.312 207.847 350.048C207.463 350.784 207.271 351.624 207.271 352.568C207.271 353.496 207.463 354.336 207.847 355.088C208.247 355.824 208.783 356.408 209.455 356.84C210.143 357.272 210.919 357.488 211.783 357.488ZM222.151 364.28C221.895 364.28 221.631 364.256 221.359 364.208C221.103 364.176 220.847 364.112 220.591 364.016V362.336C220.751 362.352 220.951 362.376 221.191 362.408C221.447 362.456 221.703 362.48 221.959 362.48C222.743 362.48 223.343 362.312 223.759 361.976C224.175 361.656 224.583 361.032 224.983 360.104L225.799 358.184L225.751 359.768L220.303 346.136H222.247L226.711 357.392H226.207L230.647 346.136H232.639L226.759 360.632C226.503 361.256 226.175 361.848 225.775 362.408C225.391 362.968 224.903 363.416 224.311 363.752C223.719 364.104 222.999 364.28 222.151 364.28ZM247.256 359.288C245.992 359.288 244.832 359.064 243.776 358.616C242.72 358.152 241.8 357.512 241.016 356.696C240.248 355.864 239.648 354.888 239.216 353.768C238.784 352.648 238.568 351.416 238.568 350.072C238.568 348.728 238.784 347.496 239.216 346.376C239.648 345.256 240.248 344.28 241.016 343.448C241.8 342.616 242.72 341.976 243.776 341.528C244.832 341.064 245.992 340.832 247.256 340.832C248.472 340.832 249.56 341.048 250.52 341.48C251.496 341.912 252.312 342.472 252.968 343.16C253.64 343.832 254.12 344.544 254.408 345.296L252.608 346.088C252.16 345.048 251.472 344.216 250.544 343.592C249.632 342.952 248.536 342.632 247.256 342.632C245.944 342.632 244.776 342.944 243.752 343.568C242.728 344.192 241.928 345.064 241.352 346.184C240.776 347.288 240.488 348.584 240.488 350.072C240.488 351.544 240.776 352.84 241.352 353.96C241.928 355.08 242.728 355.952 243.752 356.576C244.776 357.184 245.944 357.488 247.256 357.488C248.536 357.488 249.632 357.176 250.544 356.552C251.472 355.928 252.16 355.096 252.608 354.056L254.408 354.848C254.12 355.584 253.64 356.296 252.968 356.984C252.312 357.656 251.496 358.208 250.52 358.64C249.56 359.072 248.472 359.288 247.256 359.288ZM261.068 359.288C260.252 359.288 259.524 359.136 258.884 358.832C258.244 358.512 257.74 358.08 257.372 357.536C257.004 356.992 256.82 356.368 256.82 355.664C256.82 354.992 256.964 354.384 257.252 353.84C257.54 353.28 257.988 352.808 258.596 352.424C259.204 352.04 259.98 351.768 260.924 351.608L265.964 350.768V352.4L261.356 353.168C260.428 353.328 259.756 353.624 259.34 354.056C258.94 354.488 258.74 355 258.74 355.592C258.74 356.168 258.964 356.656 259.412 357.056C259.876 357.456 260.468 357.656 261.188 357.656C262.068 357.656 262.836 357.472 263.492 357.104C264.148 356.72 264.66 356.208 265.028 355.568C265.396 354.928 265.58 354.216 265.58 353.432V350.168C265.58 349.4 265.3 348.776 264.74 348.296C264.18 347.816 263.452 347.576 262.556 347.576C261.772 347.576 261.084 347.776 260.492 348.176C259.9 348.56 259.46 349.064 259.172 349.688L257.54 348.8C257.78 348.256 258.156 347.76 258.668 347.312C259.196 346.864 259.796 346.512 260.468 346.256C261.14 345.984 261.836 345.848 262.556 345.848C263.5 345.848 264.332 346.032 265.052 346.4C265.788 346.768 266.356 347.28 266.756 347.936C267.172 348.576 267.38 349.32 267.38 350.168V359H265.58V356.432L265.844 356.696C265.62 357.176 265.268 357.616 264.788 358.016C264.324 358.4 263.772 358.712 263.132 358.952C262.508 359.176 261.82 359.288 261.068 359.288ZM275.546 359.288C274.314 359.288 273.234 358.976 272.306 358.352C271.378 357.728 270.706 356.88 270.29 355.808L271.802 355.088C272.17 355.872 272.682 356.496 273.338 356.96C274.01 357.424 274.746 357.656 275.546 357.656C276.314 357.656 276.962 357.472 277.49 357.104C278.018 356.72 278.282 356.224 278.282 355.616C278.282 355.168 278.154 354.816 277.898 354.56C277.642 354.288 277.346 354.08 277.01 353.936C276.674 353.792 276.378 353.688 276.122 353.624L274.274 353.096C273.09 352.76 272.234 352.288 271.706 351.68C271.178 351.072 270.914 350.368 270.914 349.568C270.914 348.816 271.106 348.16 271.49 347.6C271.874 347.04 272.394 346.608 273.05 346.304C273.706 346 274.434 345.848 275.234 345.848C276.322 345.848 277.306 346.136 278.186 346.712C279.082 347.272 279.714 348.056 280.082 349.064L278.546 349.784C278.226 349.064 277.762 348.504 277.154 348.104C276.562 347.688 275.898 347.48 275.162 347.48C274.442 347.48 273.866 347.664 273.434 348.032C273.002 348.4 272.786 348.864 272.786 349.424C272.786 349.856 272.898 350.2 273.122 350.456C273.346 350.712 273.602 350.904 273.89 351.032C274.194 351.16 274.458 351.256 274.682 351.32L276.818 351.944C277.858 352.248 278.666 352.72 279.242 353.36C279.834 354 280.13 354.752 280.13 355.616C280.13 356.32 279.93 356.952 279.53 357.512C279.146 358.072 278.61 358.512 277.922 358.832C277.234 359.136 276.442 359.288 275.546 359.288ZM289.149 359.288C287.949 359.288 286.861 359 285.885 358.424C284.925 357.832 284.165 357.024 283.605 356C283.045 354.976 282.765 353.816 282.765 352.52C282.765 351.224 283.037 350.08 283.581 349.088C284.125 348.08 284.861 347.288 285.789 346.712C286.733 346.136 287.789 345.848 288.957 345.848C289.885 345.848 290.709 346.024 291.429 346.376C292.165 346.712 292.789 347.176 293.301 347.768C293.813 348.344 294.205 349 294.477 349.736C294.749 350.456 294.885 351.2 294.885 351.968C294.885 352.128 294.877 352.312 294.861 352.52C294.845 352.712 294.821 352.912 294.789 353.12H283.917V351.44H293.757L292.893 352.16C293.037 351.28 292.933 350.496 292.581 349.808C292.245 349.104 291.757 348.552 291.117 348.152C290.477 347.736 289.757 347.528 288.957 347.528C288.157 347.528 287.413 347.736 286.725 348.152C286.053 348.568 285.525 349.152 285.141 349.904C284.757 350.64 284.605 351.52 284.685 352.544C284.605 353.568 284.765 354.464 285.165 355.232C285.581 355.984 286.141 356.568 286.845 356.984C287.565 357.4 288.333 357.608 289.149 357.608C290.093 357.608 290.885 357.384 291.525 356.936C292.165 356.488 292.685 355.928 293.085 355.256L294.621 356.072C294.365 356.648 293.973 357.184 293.445 357.68C292.917 358.16 292.285 358.552 291.549 358.856C290.829 359.144 290.029 359.288 289.149 359.288ZM114.467 388V370.12H116.387V388H114.467ZM120.344 388V375.136H122.144V377.632L121.736 377.536C122.056 376.704 122.576 376.048 123.296 375.568C124.032 375.088 124.88 374.848 125.84 374.848C126.752 374.848 127.568 375.056 128.288 375.472C129.024 375.888 129.6 376.464 130.016 377.2C130.448 377.92 130.664 378.736 130.664 379.648V388H128.864V380.344C128.864 379.56 128.72 378.896 128.432 378.352C128.16 377.808 127.768 377.392 127.256 377.104C126.76 376.8 126.184 376.648 125.528 376.648C124.872 376.648 124.288 376.8 123.776 377.104C123.264 377.392 122.864 377.816 122.576 378.376C122.288 378.92 122.144 379.576 122.144 380.344V388H120.344ZM138.444 388V370.12H140.364V378.16H149.964V370.12H151.884V388H149.964V379.96H140.364V388H138.444ZM161.708 388.288C160.508 388.288 159.42 388 158.444 387.424C157.484 386.832 156.724 386.024 156.164 385C155.604 383.976 155.324 382.816 155.324 381.52C155.324 380.224 155.596 379.08 156.14 378.088C156.684 377.08 157.42 376.288 158.348 375.712C159.292 375.136 160.348 374.848 161.516 374.848C162.444 374.848 163.268 375.024 163.988 375.376C164.724 375.712 165.348 376.176 165.86 376.768C166.372 377.344 166.764 378 167.036 378.736C167.308 379.456 167.444 380.2 167.444 380.968C167.444 381.128 167.436 381.312 167.42 381.52C167.404 381.712 167.38 381.912 167.348 382.12H156.476V380.44H166.316L165.452 381.16C165.596 380.28 165.492 379.496 165.14 378.808C164.804 378.104 164.316 377.552 163.676 377.152C163.036 376.736 162.316 376.528 161.516 376.528C160.716 376.528 159.972 376.736 159.284 377.152C158.612 377.568 158.084 378.152 157.7 378.904C157.316 379.64 157.164 380.52 157.244 381.544C157.164 382.568 157.324 383.464 157.724 384.232C158.14 384.984 158.7 385.568 159.404 385.984C160.124 386.4 160.892 386.608 161.708 386.608C162.652 386.608 163.444 386.384 164.084 385.936C164.724 385.488 165.244 384.928 165.644 384.256L167.18 385.072C166.924 385.648 166.532 386.184 166.004 386.68C165.476 387.16 164.844 387.552 164.108 387.856C163.388 388.144 162.588 388.288 161.708 388.288ZM170.618 388V375.136H172.418V377.248L172.178 376.936C172.482 376.328 172.938 375.848 173.546 375.496C174.17 375.144 174.922 374.968 175.802 374.968H176.618V376.768H175.49C174.562 376.768 173.818 377.056 173.258 377.632C172.698 378.208 172.418 379.024 172.418 380.08V388H170.618ZM184.583 388.288C183.383 388.288 182.295 388 181.319 387.424C180.359 386.832 179.599 386.024 179.039 385C178.479 383.976 178.199 382.816 178.199 381.52C178.199 380.224 178.471 379.08 179.015 378.088C179.559 377.08 180.295 376.288 181.223 375.712C182.167 375.136 183.223 374.848 184.391 374.848C185.319 374.848 186.143 375.024 186.863 375.376C187.599 375.712 188.223 376.176 188.735 376.768C189.247 377.344 189.639 378 189.911 378.736C190.183 379.456 190.319 380.2 190.319 380.968C190.319 381.128 190.311 381.312 190.295 381.52C190.279 381.712 190.255 381.912 190.223 382.12H179.351V380.44H189.191L188.327 381.16C188.471 380.28 188.367 379.496 188.015 378.808C187.679 378.104 187.191 377.552 186.551 377.152C185.911 376.736 185.191 376.528 184.391 376.528C183.591 376.528 182.847 376.736 182.159 377.152C181.487 377.568 180.959 378.152 180.575 378.904C180.191 379.64 180.039 380.52 180.119 381.544C180.039 382.568 180.199 383.464 180.599 384.232C181.015 384.984 181.575 385.568 182.279 385.984C182.999 386.4 183.767 386.608 184.583 386.608C185.527 386.608 186.319 386.384 186.959 385.936C187.599 385.488 188.119 384.928 188.519 384.256L190.055 385.072C189.799 385.648 189.407 386.184 188.879 386.68C188.351 387.16 187.719 387.552 186.983 387.856C186.263 388.144 185.463 388.288 184.583 388.288Z" fill="black"/>
<path d="M1029.55 330V313.92H1024.6V312.12H1036.36V313.92H1031.47V330H1029.55ZM1042.81 330.288C1041.59 330.288 1040.49 330 1039.49 329.424C1038.5 328.832 1037.71 328.032 1037.12 327.024C1036.54 326 1036.25 324.84 1036.25 323.544C1036.25 322.264 1036.54 321.12 1037.12 320.112C1037.69 319.104 1038.47 318.312 1039.45 317.736C1040.44 317.144 1041.56 316.848 1042.81 316.848C1044.05 316.848 1045.17 317.136 1046.14 317.712C1047.13 318.288 1047.91 319.08 1048.47 320.088C1049.05 321.096 1049.33 322.248 1049.33 323.544C1049.33 324.856 1049.04 326.024 1048.45 327.048C1047.85 328.056 1047.06 328.848 1046.07 329.424C1045.09 330 1044.01 330.288 1042.81 330.288ZM1042.81 328.488C1043.67 328.488 1044.45 328.272 1045.13 327.84C1045.84 327.408 1046.39 326.816 1046.79 326.064C1047.21 325.312 1047.41 324.472 1047.41 323.544C1047.41 322.616 1047.21 321.784 1046.79 321.048C1046.39 320.312 1045.84 319.728 1045.13 319.296C1044.45 318.864 1043.67 318.648 1042.81 318.648C1041.94 318.648 1041.16 318.864 1040.45 319.296C1039.77 319.728 1039.21 320.312 1038.8 321.048C1038.38 321.784 1038.17 322.616 1038.17 323.544C1038.17 324.472 1038.38 325.312 1038.8 326.064C1039.21 326.816 1039.77 327.408 1040.45 327.84C1041.16 328.272 1041.94 328.488 1042.81 328.488ZM1062.87 330.288C1061.74 330.288 1060.71 330.072 1059.78 329.64C1058.85 329.208 1058.07 328.632 1057.43 327.912C1056.79 327.176 1056.33 326.368 1056.06 325.488L1057.79 324.84C1058.2 326.056 1058.85 326.984 1059.73 327.624C1060.61 328.248 1061.66 328.56 1062.87 328.56C1063.64 328.56 1064.31 328.44 1064.89 328.2C1065.48 327.944 1065.94 327.592 1066.26 327.144C1066.58 326.696 1066.74 326.176 1066.74 325.584C1066.74 324.704 1066.5 324.024 1066.02 323.544C1065.54 323.064 1064.85 322.696 1063.95 322.44L1060.74 321.48C1059.47 321.112 1058.5 320.496 1057.81 319.632C1057.14 318.768 1056.8 317.784 1056.8 316.68C1056.8 315.736 1057.03 314.904 1057.5 314.184C1057.96 313.448 1058.59 312.872 1059.39 312.456C1060.21 312.04 1061.13 311.832 1062.15 311.832C1063.23 311.832 1064.19 312.032 1065.03 312.432C1065.9 312.816 1066.63 313.328 1067.22 313.968C1067.81 314.608 1068.23 315.32 1068.49 316.104L1066.81 316.776C1066.43 315.72 1065.83 314.92 1065.01 314.376C1064.21 313.832 1063.27 313.56 1062.18 313.56C1061.49 313.56 1060.88 313.68 1060.35 313.92C1059.84 314.16 1059.44 314.504 1059.15 314.952C1058.87 315.4 1058.72 315.928 1058.72 316.536C1058.72 317.272 1058.95 317.936 1059.42 318.528C1059.88 319.104 1060.59 319.536 1061.55 319.824L1064.39 320.664C1065.79 321.08 1066.86 321.68 1067.58 322.464C1068.3 323.248 1068.66 324.232 1068.66 325.416C1068.66 326.376 1068.41 327.224 1067.91 327.96C1067.43 328.68 1066.75 329.248 1065.87 329.664C1065.01 330.08 1064.01 330.288 1062.87 330.288ZM1072.1 330V311.832H1073.9V319.632L1073.49 319.536C1073.81 318.704 1074.33 318.048 1075.05 317.568C1075.79 317.088 1076.64 316.848 1077.6 316.848C1078.51 316.848 1079.33 317.056 1080.05 317.472C1080.78 317.888 1081.36 318.464 1081.77 319.2C1082.21 319.92 1082.42 320.736 1082.42 321.648V330H1080.62V322.344C1080.62 321.56 1080.48 320.896 1080.19 320.352C1079.9 319.808 1079.5 319.392 1078.99 319.104C1078.49 318.8 1077.93 318.648 1077.29 318.648C1076.65 318.648 1076.07 318.8 1075.56 319.104C1075.05 319.392 1074.64 319.816 1074.33 320.376C1074.05 320.92 1073.9 321.576 1073.9 322.344V330H1072.1ZM1091.88 330.288C1090.67 330.288 1089.56 330 1088.57 329.424C1087.58 328.832 1086.79 328.032 1086.2 327.024C1085.62 326 1085.33 324.84 1085.33 323.544C1085.33 322.264 1085.62 321.12 1086.2 320.112C1086.77 319.104 1087.55 318.312 1088.52 317.736C1089.52 317.144 1090.64 316.848 1091.88 316.848C1093.13 316.848 1094.24 317.136 1095.22 317.712C1096.21 318.288 1096.99 319.08 1097.55 320.088C1098.12 321.096 1098.41 322.248 1098.41 323.544C1098.41 324.856 1098.12 326.024 1097.52 327.048C1096.93 328.056 1096.14 328.848 1095.15 329.424C1094.17 330 1093.08 330.288 1091.88 330.288ZM1091.88 328.488C1092.75 328.488 1093.52 328.272 1094.21 327.84C1094.92 327.408 1095.47 326.816 1095.87 326.064C1096.28 325.312 1096.49 324.472 1096.49 323.544C1096.49 322.616 1096.28 321.784 1095.87 321.048C1095.47 320.312 1094.92 319.728 1094.21 319.296C1093.52 318.864 1092.75 318.648 1091.88 318.648C1091.02 318.648 1090.24 318.864 1089.53 319.296C1088.84 319.728 1088.29 320.312 1087.88 321.048C1087.46 321.784 1087.25 322.616 1087.25 323.544C1087.25 324.472 1087.46 325.312 1087.88 326.064C1088.29 326.816 1088.84 327.408 1089.53 327.84C1090.24 328.272 1091.02 328.488 1091.88 328.488ZM1104.18 330L1099.77 317.136H1101.81L1105.46 328.392H1104.74L1108.17 317.136H1109.97L1113.4 328.392H1112.68L1116.35 317.136H1118.37L1113.95 330H1112.15L1108.82 318.984H1109.32L1105.98 330H1104.18ZM1124.82 330V312.12H1126.5L1133.22 321.864H1132.28L1138.98 312.12H1140.66V330H1138.74V314.712L1139.36 314.952L1132.79 324.48H1132.69L1126.14 314.952L1126.74 314.712V330H1124.82ZM1144.88 335.28C1144.63 335.28 1144.36 335.256 1144.09 335.208C1143.83 335.176 1143.58 335.112 1143.32 335.016V333.336C1143.48 333.352 1143.68 333.376 1143.92 333.408C1144.18 333.456 1144.43 333.48 1144.69 333.48C1145.47 333.48 1146.07 333.312 1146.49 332.976C1146.91 332.656 1147.31 332.032 1147.71 331.104L1148.53 329.184L1148.48 330.768L1143.03 317.136H1144.98L1149.44 328.392H1148.94L1153.38 317.136H1155.37L1149.49 331.632C1149.23 332.256 1148.91 332.848 1148.51 333.408C1148.12 333.968 1147.63 334.416 1147.04 334.752C1146.45 335.104 1145.73 335.28 1144.88 335.28ZM1161.83 330V312.12H1167.97C1169.14 312.12 1170.16 312.352 1171.04 312.816C1171.92 313.264 1172.6 313.904 1173.08 314.736C1173.58 315.552 1173.83 316.504 1173.83 317.592C1173.83 318.856 1173.49 319.936 1172.82 320.832C1172.16 321.728 1171.27 322.36 1170.13 322.728L1174.31 330H1172.05L1167.68 322.296L1168.98 323.04H1163.75V330H1161.83ZM1163.75 321.24H1168.07C1168.83 321.24 1169.51 321.096 1170.08 320.808C1170.66 320.504 1171.11 320.08 1171.43 319.536C1171.75 318.976 1171.91 318.32 1171.91 317.568C1171.91 316.816 1171.75 316.168 1171.43 315.624C1171.11 315.08 1170.66 314.664 1170.08 314.376C1169.51 314.072 1168.83 313.92 1168.07 313.92H1163.75V321.24ZM1182.07 330.288C1180.87 330.288 1179.78 330 1178.8 329.424C1177.84 328.832 1177.08 328.024 1176.52 327C1175.96 325.976 1175.68 324.816 1175.68 323.52C1175.68 322.224 1175.96 321.08 1176.5 320.088C1177.04 319.08 1177.78 318.288 1178.71 317.712C1179.65 317.136 1180.71 316.848 1181.88 316.848C1182.8 316.848 1183.63 317.024 1184.35 317.376C1185.08 317.712 1185.71 318.176 1186.22 318.768C1186.73 319.344 1187.12 320 1187.4 320.736C1187.67 321.456 1187.8 322.2 1187.8 322.968C1187.8 323.128 1187.8 323.312 1187.78 323.52C1187.76 323.712 1187.74 323.912 1187.71 324.12H1176.84V322.44H1186.68L1185.81 323.16C1185.96 322.28 1185.85 321.496 1185.5 320.808C1185.16 320.104 1184.68 319.552 1184.04 319.152C1183.4 318.736 1182.68 318.528 1181.88 318.528C1181.08 318.528 1180.33 318.736 1179.64 319.152C1178.97 319.568 1178.44 320.152 1178.06 320.904C1177.68 321.64 1177.52 322.52 1177.6 323.544C1177.52 324.568 1177.68 325.464 1178.08 326.232C1178.5 326.984 1179.06 327.568 1179.76 327.984C1180.48 328.4 1181.25 328.608 1182.07 328.608C1183.01 328.608 1183.8 328.384 1184.44 327.936C1185.08 327.488 1185.6 326.928 1186 326.256L1187.54 327.072C1187.28 327.648 1186.89 328.184 1186.36 328.68C1185.84 329.16 1185.2 329.552 1184.47 329.856C1183.75 330.144 1182.95 330.288 1182.07 330.288ZM1195.44 330.288C1194.21 330.288 1193.13 329.976 1192.2 329.352C1191.27 328.728 1190.6 327.88 1190.18 326.808L1191.7 326.088C1192.06 326.872 1192.58 327.496 1193.23 327.96C1193.9 328.424 1194.64 328.656 1195.44 328.656C1196.21 328.656 1196.86 328.472 1197.38 328.104C1197.91 327.72 1198.18 327.224 1198.18 326.616C1198.18 326.168 1198.05 325.816 1197.79 325.56C1197.54 325.288 1197.24 325.08 1196.9 324.936C1196.57 324.792 1196.27 324.688 1196.02 324.624L1194.17 324.096C1192.98 323.76 1192.13 323.288 1191.6 322.68C1191.07 322.072 1190.81 321.368 1190.81 320.568C1190.81 319.816 1191 319.16 1191.38 318.6C1191.77 318.04 1192.29 317.608 1192.94 317.304C1193.6 317 1194.33 316.848 1195.13 316.848C1196.22 316.848 1197.2 317.136 1198.08 317.712C1198.98 318.272 1199.61 319.056 1199.98 320.064L1198.44 320.784C1198.12 320.064 1197.66 319.504 1197.05 319.104C1196.46 318.688 1195.79 318.48 1195.06 318.48C1194.34 318.48 1193.76 318.664 1193.33 319.032C1192.9 319.4 1192.68 319.864 1192.68 320.424C1192.68 320.856 1192.79 321.2 1193.02 321.456C1193.24 321.712 1193.5 321.904 1193.78 322.032C1194.09 322.16 1194.35 322.256 1194.58 322.32L1196.71 322.944C1197.75 323.248 1198.56 323.72 1199.14 324.36C1199.73 325 1200.02 325.752 1200.02 326.616C1200.02 327.32 1199.82 327.952 1199.42 328.512C1199.04 329.072 1198.5 329.512 1197.82 329.832C1197.13 330.136 1196.34 330.288 1195.44 330.288ZM1207.75 330.288C1206.85 330.288 1206.04 330.08 1205.3 329.664C1204.56 329.232 1203.98 328.64 1203.55 327.888C1203.13 327.12 1202.92 326.24 1202.92 325.248V317.136H1204.72V325.032C1204.72 325.72 1204.86 326.328 1205.13 326.856C1205.42 327.368 1205.81 327.768 1206.31 328.056C1206.82 328.344 1207.4 328.488 1208.06 328.488C1208.72 328.488 1209.3 328.344 1209.81 328.056C1210.32 327.752 1210.72 327.328 1211.01 326.784C1211.3 326.224 1211.44 325.56 1211.44 324.792V317.136H1213.24V330H1211.44V327.504L1211.85 327.6C1211.55 328.432 1211.03 329.088 1210.29 329.568C1209.56 330.048 1208.71 330.288 1207.75 330.288ZM1216.95 330V317.136H1218.75V319.584L1218.46 319.224C1218.81 318.472 1219.33 317.888 1220.02 317.472C1220.72 317.056 1221.49 316.848 1222.32 316.848C1223.31 316.848 1224.21 317.128 1225.01 317.688C1225.81 318.248 1226.38 318.976 1226.71 319.872L1226.21 319.896C1226.53 318.904 1227.08 318.152 1227.87 317.64C1228.67 317.112 1229.55 316.848 1230.51 316.848C1231.37 316.848 1232.16 317.056 1232.88 317.472C1233.62 317.888 1234.2 318.464 1234.63 319.2C1235.08 319.92 1235.31 320.736 1235.31 321.648V330H1233.51V322.344C1233.51 321.56 1233.36 320.896 1233.07 320.352C1232.8 319.808 1232.43 319.392 1231.95 319.104C1231.47 318.8 1230.91 318.648 1230.29 318.648C1229.68 318.648 1229.13 318.8 1228.63 319.104C1228.14 319.392 1227.75 319.816 1227.46 320.376C1227.17 320.92 1227.03 321.576 1227.03 322.344V330H1225.23V322.344C1225.23 321.56 1225.08 320.896 1224.79 320.352C1224.52 319.808 1224.15 319.392 1223.67 319.104C1223.19 318.8 1222.63 318.648 1222.01 318.648C1221.39 318.648 1220.83 318.8 1220.33 319.104C1219.85 319.392 1219.47 319.816 1219.18 320.376C1218.89 320.92 1218.75 321.576 1218.75 322.344V330H1216.95ZM1244.6 330.288C1243.4 330.288 1242.31 330 1241.33 329.424C1240.37 328.832 1239.61 328.024 1239.05 327C1238.49 325.976 1238.21 324.816 1238.21 323.52C1238.21 322.224 1238.49 321.08 1239.03 320.088C1239.57 319.08 1240.31 318.288 1241.24 317.712C1242.18 317.136 1243.24 316.848 1244.41 316.848C1245.33 316.848 1246.16 317.024 1246.88 317.376C1247.61 317.712 1248.24 318.176 1248.75 318.768C1249.26 319.344 1249.65 320 1249.93 320.736C1250.2 321.456 1250.33 322.2 1250.33 322.968C1250.33 323.128 1250.33 323.312 1250.31 323.52C1250.29 323.712 1250.27 323.912 1250.24 324.12H1239.37V322.44H1249.21L1248.34 323.16C1248.49 322.28 1248.38 321.496 1248.03 320.808C1247.69 320.104 1247.21 319.552 1246.57 319.152C1245.93 318.736 1245.21 318.528 1244.41 318.528C1243.61 318.528 1242.86 318.736 1242.17 319.152C1241.5 319.568 1240.97 320.152 1240.59 320.904C1240.21 321.64 1240.05 322.52 1240.13 323.544C1240.05 324.568 1240.21 325.464 1240.61 326.232C1241.03 326.984 1241.59 327.568 1242.29 327.984C1243.01 328.4 1243.78 328.608 1244.6 328.608C1245.54 328.608 1246.33 328.384 1246.97 327.936C1247.61 327.488 1248.13 326.928 1248.53 326.256L1250.07 327.072C1249.81 327.648 1249.42 328.184 1248.89 328.68C1248.37 329.16 1247.73 329.552 1247 329.856C1246.28 330.144 1245.48 330.288 1244.6 330.288Z" fill="black"/>
<rect x="364" width="111" height="54" rx="27" fill="#E9E9E9"/>
<path d="M385.54 35V20.1H390.96C391.96 20.1 392.84 20.2867 393.6 20.66C394.373 21.02 394.973 21.5533 395.4 22.26C395.827 22.9533 396.04 23.7867 396.04 24.76C396.04 25.72 395.82 26.5467 395.38 27.24C394.953 27.9333 394.36 28.4667 393.6 28.84C392.84 29.2133 391.96 29.4 390.96 29.4H387.9V35H385.54ZM387.9 27.3H391.02C391.553 27.3 392.02 27.1933 392.42 26.98C392.82 26.7667 393.133 26.4733 393.36 26.1C393.587 25.7133 393.7 25.26 393.7 24.74C393.7 24.22 393.587 23.7733 393.36 23.4C393.133 23.0133 392.82 22.72 392.42 22.52C392.02 22.3067 391.553 22.2 391.02 22.2H387.9V27.3ZM398.25 35V24.18H400.41V26.36L400.21 26.04C400.45 25.3333 400.836 24.8267 401.37 24.52C401.903 24.2 402.543 24.04 403.29 24.04H403.95V26.1H403.01C402.263 26.1 401.656 26.3333 401.19 26.8C400.736 27.2533 400.51 27.9067 400.51 28.76V35H398.25ZM410.716 35.24C409.676 35.24 408.722 34.9933 407.856 34.5C407.002 34.0067 406.322 33.3333 405.816 32.48C405.309 31.6267 405.056 30.66 405.056 29.58C405.056 28.4867 405.309 27.52 405.816 26.68C406.322 25.8267 407.002 25.16 407.856 24.68C408.709 24.1867 409.662 23.94 410.716 23.94C411.782 23.94 412.736 24.1867 413.576 24.68C414.429 25.16 415.102 25.8267 415.596 26.68C416.102 27.52 416.356 28.4867 416.356 29.58C416.356 30.6733 416.102 31.6467 415.596 32.5C415.089 33.3533 414.409 34.0267 413.556 34.52C412.702 35 411.756 35.24 410.716 35.24ZM410.716 33.14C411.356 33.14 411.922 32.9867 412.416 32.68C412.909 32.3733 413.296 31.9533 413.576 31.42C413.869 30.8733 414.016 30.26 414.016 29.58C414.016 28.9 413.869 28.2933 413.576 27.76C413.296 27.2267 412.909 26.8067 412.416 26.5C411.922 26.1933 411.356 26.04 410.716 26.04C410.089 26.04 409.522 26.1933 409.016 26.5C408.522 26.8067 408.129 27.2267 407.836 27.76C407.556 28.2933 407.416 28.9 407.416 29.58C407.416 30.26 407.556 30.8733 407.836 31.42C408.129 31.9533 408.522 32.3733 409.016 32.68C409.522 32.9867 410.089 33.14 410.716 33.14ZM416.902 39.42C416.756 39.42 416.596 39.4067 416.422 39.38C416.236 39.3667 416.082 39.3467 415.962 39.32V37.36C416.216 37.4 416.469 37.42 416.722 37.42C417.282 37.42 417.729 37.2733 418.062 36.98C418.396 36.7 418.562 36.2733 418.562 35.7V24.18H420.822V35.7C420.822 36.4867 420.656 37.16 420.322 37.72C419.989 38.28 419.529 38.7 418.942 38.98C418.356 39.2733 417.676 39.42 416.902 39.42ZM418.562 22.7V20.1H420.822V22.7H418.562ZM428.545 35.24C427.465 35.24 426.505 34.9933 425.665 34.5C424.838 33.9933 424.191 33.3133 423.725 32.46C423.258 31.5933 423.025 30.6267 423.025 29.56C423.025 28.4667 423.258 27.5 423.725 26.66C424.205 25.82 424.845 25.16 425.645 24.68C426.445 24.1867 427.351 23.94 428.365 23.94C429.178 23.94 429.905 24.08 430.545 24.36C431.185 24.64 431.725 25.0267 432.165 25.52C432.605 26 432.938 26.5533 433.165 27.18C433.405 27.8067 433.525 28.4733 433.525 29.18C433.525 29.3533 433.518 29.5333 433.505 29.72C433.491 29.9067 433.465 30.08 433.425 30.24H424.805V28.44H432.145L431.065 29.26C431.198 28.6067 431.151 28.0267 430.925 27.52C430.711 27 430.378 26.5933 429.925 26.3C429.485 25.9933 428.965 25.84 428.365 25.84C427.765 25.84 427.231 25.9933 426.765 26.3C426.298 26.5933 425.938 27.02 425.685 27.58C425.431 28.1267 425.331 28.7933 425.385 29.58C425.318 30.3133 425.418 30.9533 425.685 31.5C425.965 32.0467 426.351 32.4733 426.845 32.78C427.351 33.0867 427.925 33.24 428.565 33.24C429.218 33.24 429.771 33.0933 430.225 32.8C430.691 32.5067 431.058 32.1267 431.325 31.66L433.165 32.56C432.951 33.0667 432.618 33.5267 432.165 33.94C431.725 34.34 431.191 34.66 430.565 34.9C429.951 35.1267 429.278 35.24 428.545 35.24ZM440.87 35.24C439.79 35.24 438.83 34.9933 437.99 34.5C437.163 33.9933 436.503 33.3133 436.01 32.46C435.53 31.6067 435.29 30.64 435.29 29.56C435.29 28.4933 435.53 27.5333 436.01 26.68C436.49 25.8267 437.15 25.16 437.99 24.68C438.83 24.1867 439.79 23.94 440.87 23.94C441.603 23.94 442.29 24.0733 442.93 24.34C443.57 24.5933 444.123 24.9467 444.59 25.4C445.07 25.8533 445.423 26.38 445.65 26.98L443.67 27.9C443.443 27.34 443.077 26.8933 442.57 26.56C442.077 26.2133 441.51 26.04 440.87 26.04C440.257 26.04 439.703 26.1933 439.21 26.5C438.73 26.7933 438.35 27.2133 438.07 27.76C437.79 28.2933 437.65 28.9 437.65 29.58C437.65 30.26 437.79 30.8733 438.07 31.42C438.35 31.9533 438.73 32.3733 439.21 32.68C439.703 32.9867 440.257 33.14 440.87 33.14C441.523 33.14 442.09 32.9733 442.57 32.64C443.063 32.2933 443.43 31.8333 443.67 31.26L445.65 32.2C445.437 32.7733 445.09 33.2933 444.61 33.76C444.143 34.2133 443.59 34.5733 442.95 34.84C442.31 35.1067 441.617 35.24 440.87 35.24ZM452.539 35.12C451.406 35.12 450.526 34.8 449.899 34.16C449.272 33.52 448.959 32.62 448.959 31.46V26.22H447.059V24.18H447.359C447.866 24.18 448.259 24.0333 448.539 23.74C448.819 23.4467 448.959 23.0467 448.959 22.54V21.7H451.219V24.18H453.679V26.22H451.219V31.36C451.219 31.7333 451.279 32.0533 451.399 32.32C451.519 32.5733 451.712 32.7733 451.979 32.92C452.246 33.0533 452.592 33.12 453.019 33.12C453.126 33.12 453.246 33.1133 453.379 33.1C453.512 33.0867 453.639 33.0733 453.759 33.06V35C453.572 35.0267 453.366 35.0533 453.139 35.08C452.912 35.1067 452.712 35.12 452.539 35.12Z" fill="black"/>
<rect x="575" width="151" height="54" rx="27" fill="#E9E9E9"/>
<path d="M596.54 35V20.1H606.36V22.2H598.9V26.48H605.96V28.58H598.9V32.9H606.36V35H596.54ZM607.252 35L611.032 29.58L607.252 24.18H609.912L613.012 28.7H611.732L614.832 24.18H617.492L613.692 29.58L617.472 35H614.812L611.752 30.46H612.992L609.912 35H607.252ZM619.035 39V24.18H621.195V26.42L620.935 25.9C621.335 25.2867 621.868 24.8067 622.535 24.46C623.202 24.1133 623.962 23.94 624.815 23.94C625.842 23.94 626.762 24.1867 627.575 24.68C628.402 25.1733 629.048 25.8467 629.515 26.7C629.995 27.5533 630.235 28.5133 630.235 29.58C630.235 30.6467 629.995 31.6067 629.515 32.46C629.048 33.3133 628.408 33.9933 627.595 34.5C626.782 34.9933 625.855 35.24 624.815 35.24C623.975 35.24 623.208 35.0667 622.515 34.72C621.835 34.3733 621.308 33.8733 620.935 33.22L621.295 32.8V39H619.035ZM624.595 33.14C625.235 33.14 625.802 32.9867 626.295 32.68C626.788 32.3733 627.175 31.9533 627.455 31.42C627.748 30.8733 627.895 30.26 627.895 29.58C627.895 28.9 627.748 28.2933 627.455 27.76C627.175 27.2267 626.788 26.8067 626.295 26.5C625.802 26.1933 625.235 26.04 624.595 26.04C623.968 26.04 623.402 26.1933 622.895 26.5C622.402 26.8067 622.008 27.2267 621.715 27.76C621.435 28.2933 621.295 28.9 621.295 29.58C621.295 30.26 621.435 30.8733 621.715 31.42C622.008 31.9533 622.402 32.3733 622.895 32.68C623.402 32.9867 623.968 33.14 624.595 33.14ZM632.433 35V19.86H634.693V35H632.433ZM642.556 35.24C641.516 35.24 640.562 34.9933 639.696 34.5C638.842 34.0067 638.162 33.3333 637.656 32.48C637.149 31.6267 636.896 30.66 636.896 29.58C636.896 28.4867 637.149 27.52 637.656 26.68C638.162 25.8267 638.842 25.16 639.696 24.68C640.549 24.1867 641.502 23.94 642.556 23.94C643.622 23.94 644.576 24.1867 645.416 24.68C646.269 25.16 646.942 25.8267 647.436 26.68C647.942 27.52 648.196 28.4867 648.196 29.58C648.196 30.6733 647.942 31.6467 647.436 32.5C646.929 33.3533 646.249 34.0267 645.396 34.52C644.542 35 643.596 35.24 642.556 35.24ZM642.556 33.14C643.196 33.14 643.762 32.9867 644.256 32.68C644.749 32.3733 645.136 31.9533 645.416 31.42C645.709 30.8733 645.856 30.26 645.856 29.58C645.856 28.9 645.709 28.2933 645.416 27.76C645.136 27.2267 644.749 26.8067 644.256 26.5C643.762 26.1933 643.196 26.04 642.556 26.04C641.929 26.04 641.362 26.1933 640.856 26.5C640.362 26.8067 639.969 27.2267 639.676 27.76C639.396 28.2933 639.256 28.9 639.256 29.58C639.256 30.26 639.396 30.8733 639.676 31.42C639.969 31.9533 640.362 32.3733 640.856 32.68C641.362 32.9867 641.929 33.14 642.556 33.14ZM650.402 35V24.18H652.562V26.36L652.362 26.04C652.602 25.3333 652.989 24.8267 653.522 24.52C654.055 24.2 654.695 24.04 655.442 24.04H656.102V26.1H655.162C654.415 26.1 653.809 26.3333 653.342 26.8C652.889 27.2533 652.662 27.9067 652.662 28.76V35H650.402ZM660.888 35.24C660.155 35.24 659.508 35.1133 658.948 34.86C658.401 34.5933 657.975 34.2333 657.668 33.78C657.361 33.3133 657.208 32.7667 657.208 32.14C657.208 31.5533 657.335 31.0267 657.588 30.56C657.855 30.0933 658.261 29.7 658.808 29.38C659.355 29.06 660.041 28.8333 660.868 28.7L664.628 28.08V29.86L661.308 30.44C660.708 30.5467 660.268 30.74 659.988 31.02C659.708 31.2867 659.568 31.6333 659.568 32.06C659.568 32.4733 659.721 32.8133 660.028 33.08C660.348 33.3333 660.755 33.46 661.248 33.46C661.861 33.46 662.395 33.3267 662.848 33.06C663.315 32.7933 663.675 32.44 663.928 32C664.181 31.5467 664.308 31.0467 664.308 30.5V27.72C664.308 27.1867 664.108 26.7533 663.708 26.42C663.321 26.0733 662.801 25.9 662.148 25.9C661.548 25.9 661.021 26.06 660.568 26.38C660.128 26.6867 659.801 27.0867 659.588 27.58L657.708 26.64C657.908 26.1067 658.235 25.64 658.688 25.24C659.141 24.8267 659.668 24.5067 660.268 24.28C660.881 24.0533 661.528 23.94 662.208 23.94C663.061 23.94 663.815 24.1 664.468 24.42C665.135 24.74 665.648 25.1867 666.008 25.76C666.381 26.32 666.568 26.9733 666.568 27.72V35H664.408V33.04L664.868 33.1C664.615 33.54 664.288 33.92 663.888 34.24C663.501 34.56 663.055 34.8067 662.548 34.98C662.055 35.1533 661.501 35.24 660.888 35.24ZM673.695 35.12C672.562 35.12 671.682 34.8 671.055 34.16C670.429 33.52 670.115 32.62 670.115 31.46V26.22H668.215V24.18H668.515C669.022 24.18 669.415 24.0333 669.695 23.74C669.975 23.4467 670.115 23.0467 670.115 22.54V21.7H672.375V24.18H674.835V26.22H672.375V31.36C672.375 31.7333 672.435 32.0533 672.555 32.32C672.675 32.5733 672.869 32.7733 673.135 32.92C673.402 33.0533 673.749 33.12 674.175 33.12C674.282 33.12 674.402 33.1133 674.535 33.1C674.669 33.0867 674.795 33.0733 674.915 33.06V35C674.729 35.0267 674.522 35.0533 674.295 35.08C674.069 35.1067 673.869 35.12 673.695 35.12ZM677.121 35V24.18H679.381V35H677.121ZM677.121 22.7V20.1H679.381V22.7H677.121ZM687.243 35.24C686.203 35.24 685.25 34.9933 684.383 34.5C683.53 34.0067 682.85 33.3333 682.343 32.48C681.836 31.6267 681.583 30.66 681.583 29.58C681.583 28.4867 681.836 27.52 682.343 26.68C682.85 25.8267 683.53 25.16 684.383 24.68C685.236 24.1867 686.19 23.94 687.243 23.94C688.31 23.94 689.263 24.1867 690.103 24.68C690.956 25.16 691.63 25.8267 692.123 26.68C692.63 27.52 692.883 28.4867 692.883 29.58C692.883 30.6733 692.63 31.6467 692.123 32.5C691.616 33.3533 690.936 34.0267 690.083 34.52C689.23 35 688.283 35.24 687.243 35.24ZM687.243 33.14C687.883 33.14 688.45 32.9867 688.943 32.68C689.436 32.3733 689.823 31.9533 690.103 31.42C690.396 30.8733 690.543 30.26 690.543 29.58C690.543 28.9 690.396 28.2933 690.103 27.76C689.823 27.2267 689.436 26.8067 688.943 26.5C688.45 26.1933 687.883 26.04 687.243 26.04C686.616 26.04 686.05 26.1933 685.543 26.5C685.05 26.8067 684.656 27.2267 684.363 27.76C684.083 28.2933 683.943 28.9 683.943 29.58C683.943 30.26 684.083 30.8733 684.363 31.42C684.656 31.9533 685.05 32.3733 685.543 32.68C686.05 32.9867 686.616 33.14 687.243 33.14ZM695.09 35V24.18H697.25V26.3L696.99 26.02C697.256 25.34 697.683 24.8267 698.27 24.48C698.856 24.12 699.536 23.94 700.31 23.94C701.11 23.94 701.816 24.1133 702.43 24.46C703.043 24.8067 703.523 25.2867 703.87 25.9C704.216 26.5133 704.39 27.22 704.39 28.02V35H702.15V28.62C702.15 28.0733 702.05 27.6133 701.85 27.24C701.65 26.8533 701.363 26.56 700.99 26.36C700.63 26.1467 700.216 26.04 699.75 26.04C699.283 26.04 698.863 26.1467 698.49 26.36C698.13 26.56 697.85 26.8533 697.65 27.24C697.45 27.6267 697.35 28.0867 697.35 28.62V35H695.09Z" fill="black"/>
<rect x="826" width="118" height="54" rx="27" fill="#E9E9E9"/>
<path d="M847.54 35V20.1H852.96C853.96 20.1 854.84 20.2867 855.6 20.66C856.36 21.02 856.953 21.5533 857.38 22.26C857.82 22.9533 858.04 23.7867 858.04 24.76C858.04 25.7867 857.78 26.6667 857.26 27.4C856.753 28.1333 856.067 28.6667 855.2 29L858.64 35H855.96L852.3 28.5L853.84 29.4H849.9V35H847.54ZM849.9 27.3H853C853.547 27.3 854.02 27.1933 854.42 26.98C854.82 26.7667 855.127 26.4733 855.34 26.1C855.567 25.7133 855.68 25.26 855.68 24.74C855.68 24.22 855.567 23.7733 855.34 23.4C855.127 23.0133 854.82 22.72 854.42 22.52C854.02 22.3067 853.547 22.2 853 22.2H849.9V27.3ZM864.88 35.24C863.8 35.24 862.84 34.9933 862 34.5C861.174 33.9933 860.527 33.3133 860.06 32.46C859.594 31.5933 859.36 30.6267 859.36 29.56C859.36 28.4667 859.594 27.5 860.06 26.66C860.54 25.82 861.18 25.16 861.98 24.68C862.78 24.1867 863.687 23.94 864.7 23.94C865.514 23.94 866.24 24.08 866.88 24.36C867.52 24.64 868.06 25.0267 868.5 25.52C868.94 26 869.274 26.5533 869.5 27.18C869.74 27.8067 869.86 28.4733 869.86 29.18C869.86 29.3533 869.854 29.5333 869.84 29.72C869.827 29.9067 869.8 30.08 869.76 30.24H861.14V28.44H868.48L867.4 29.26C867.534 28.6067 867.487 28.0267 867.26 27.52C867.047 27 866.714 26.5933 866.26 26.3C865.82 25.9933 865.3 25.84 864.7 25.84C864.1 25.84 863.567 25.9933 863.1 26.3C862.634 26.5933 862.274 27.02 862.02 27.58C861.767 28.1267 861.667 28.7933 861.72 29.58C861.654 30.3133 861.754 30.9533 862.02 31.5C862.3 32.0467 862.687 32.4733 863.18 32.78C863.687 33.0867 864.26 33.24 864.9 33.24C865.554 33.24 866.107 33.0933 866.56 32.8C867.027 32.5067 867.394 32.1267 867.66 31.66L869.5 32.56C869.287 33.0667 868.954 33.5267 868.5 33.94C868.06 34.34 867.527 34.66 866.9 34.9C866.287 35.1267 865.614 35.24 864.88 35.24ZM876.066 35.24C874.959 35.24 873.986 34.9667 873.146 34.42C872.319 33.8733 871.739 33.14 871.406 32.22L873.146 31.4C873.439 32.0133 873.839 32.5 874.346 32.86C874.866 33.22 875.439 33.4 876.066 33.4C876.599 33.4 877.033 33.28 877.366 33.04C877.699 32.8 877.866 32.4733 877.866 32.06C877.866 31.7933 877.793 31.58 877.646 31.42C877.499 31.2467 877.313 31.1067 877.086 31C876.873 30.8933 876.653 30.8133 876.426 30.76L874.726 30.28C873.793 30.0133 873.093 29.6133 872.626 29.08C872.173 28.5333 871.946 27.9 871.946 27.18C871.946 26.5267 872.113 25.96 872.446 25.48C872.779 24.9867 873.239 24.6067 873.826 24.34C874.413 24.0733 875.073 23.94 875.806 23.94C876.793 23.94 877.673 24.1867 878.446 24.68C879.219 25.16 879.766 25.8333 880.086 26.7L878.346 27.52C878.133 27 877.793 26.5867 877.326 26.28C876.873 25.9733 876.359 25.82 875.786 25.82C875.293 25.82 874.899 25.94 874.606 26.18C874.313 26.4067 874.166 26.7067 874.166 27.08C874.166 27.3333 874.233 27.5467 874.366 27.72C874.499 27.88 874.673 28.0133 874.886 28.12C875.099 28.2133 875.319 28.2933 875.546 28.36L877.306 28.88C878.199 29.1333 878.886 29.5333 879.366 30.08C879.846 30.6133 880.086 31.2533 880.086 32C880.086 32.64 879.913 33.2067 879.566 33.7C879.233 34.18 878.766 34.56 878.166 34.84C877.566 35.1067 876.866 35.24 876.066 35.24ZM886.16 35.24C885.347 35.24 884.634 35.06 884.02 34.7C883.407 34.3267 882.927 33.8133 882.58 33.16C882.247 32.4933 882.08 31.7267 882.08 30.86V24.18H884.34V30.66C884.34 31.1533 884.44 31.5867 884.64 31.96C884.84 32.3333 885.12 32.6267 885.48 32.84C885.84 33.04 886.254 33.14 886.72 33.14C887.2 33.14 887.62 33.0333 887.98 32.82C888.34 32.6067 888.62 32.3067 888.82 31.92C889.034 31.5333 889.14 31.08 889.14 30.56V24.18H891.38V35H889.24V32.88L889.48 33.16C889.227 33.8267 888.807 34.34 888.22 34.7C887.634 35.06 886.947 35.24 886.16 35.24ZM894.019 35V24.18H896.179V26.52L895.899 26.16C896.126 25.4267 896.539 24.8733 897.139 24.5C897.739 24.1267 898.426 23.94 899.199 23.94C900.066 23.94 900.833 24.1733 901.499 24.64C902.179 25.0933 902.633 25.7 902.859 26.46L902.219 26.52C902.539 25.6533 903.026 25.0067 903.679 24.58C904.346 24.1533 905.106 23.94 905.959 23.94C906.706 23.94 907.379 24.1133 907.979 24.46C908.593 24.8067 909.079 25.2867 909.439 25.9C909.799 26.5133 909.979 27.2133 909.979 28V35H907.719V28.62C907.719 28.0733 907.619 27.6133 907.419 27.24C907.233 26.8533 906.966 26.56 906.619 26.36C906.286 26.1467 905.893 26.04 905.439 26.04C904.986 26.04 904.586 26.1467 904.239 26.36C903.893 26.56 903.619 26.8533 903.419 27.24C903.219 27.6267 903.119 28.0867 903.119 28.62V35H900.879V28.62C900.879 28.0733 900.779 27.6133 900.579 27.24C900.393 26.8533 900.126 26.56 899.779 26.36C899.446 26.1467 899.046 26.04 898.579 26.04C898.126 26.04 897.726 26.1467 897.379 26.36C897.033 26.56 896.759 26.8533 896.559 27.24C896.373 27.6267 896.279 28.0867 896.279 28.62V35H894.019ZM917.478 35.24C916.398 35.24 915.438 34.9933 914.598 34.5C913.771 33.9933 913.125 33.3133 912.658 32.46C912.191 31.5933 911.958 30.6267 911.958 29.56C911.958 28.4667 912.191 27.5 912.658 26.66C913.138 25.82 913.778 25.16 914.578 24.68C915.378 24.1867 916.285 23.94 917.298 23.94C918.111 23.94 918.838 24.08 919.478 24.36C920.118 24.64 920.658 25.0267 921.098 25.52C921.538 26 921.871 26.5533 922.098 27.18C922.338 27.8067 922.458 28.4733 922.458 29.18C922.458 29.3533 922.451 29.5333 922.438 29.72C922.425 29.9067 922.398 30.08 922.358 30.24H913.738V28.44H921.078L919.998 29.26C920.131 28.6067 920.085 28.0267 919.858 27.52C919.645 27 919.311 26.5933 918.858 26.3C918.418 25.9933 917.898 25.84 917.298 25.84C916.698 25.84 916.165 25.9933 915.698 26.3C915.231 26.5933 914.871 27.02 914.618 27.58C914.365 28.1267 914.265 28.7933 914.318 29.58C914.251 30.3133 914.351 30.9533 914.618 31.5C914.898 32.0467 915.285 32.4733 915.778 32.78C916.285 33.0867 916.858 33.24 917.498 33.24C918.151 33.24 918.705 33.0933 919.158 32.8C919.625 32.5067 919.991 32.1267 920.258 31.66L922.098 32.56C921.885 33.0667 921.551 33.5267 921.098 33.94C920.658 34.34 920.125 34.66 919.498 34.9C918.885 35.1267 918.211 35.24 917.478 35.24Z" fill="black"/>
<path d="M422 171V172.5H423.5V171H422ZM175.5 171V169.5H174V171H175.5ZM174.439 239.061C175.025 239.646 175.975 239.646 176.561 239.061L186.107 229.515C186.692 228.929 186.692 227.979 186.107 227.393C185.521 226.808 184.571 226.808 183.985 227.393L175.5 235.879L167.015 227.393C166.429 226.808 165.479 226.808 164.893 227.393C164.308 227.979 164.308 228.929 164.893 229.515L174.439 239.061ZM420.5 92V171H423.5V92H420.5ZM422 169.5H175.5V172.5H422V169.5ZM174 171V238H177V171H174Z" fill="black"/>
<path d="M891 171V172.5H889.5V171H891ZM1137.5 171V169.5H1139V171H1137.5ZM1138.56 239.061C1137.97 239.646 1137.03 239.646 1136.44 239.061L1126.89 229.515C1126.31 228.929 1126.31 227.979 1126.89 227.393C1127.48 226.808 1128.43 226.808 1129.01 227.393L1137.5 235.879L1145.99 227.393C1146.57 226.808 1147.52 226.808 1148.11 227.393C1148.69 227.979 1148.69 228.929 1148.11 229.515L1138.56 239.061ZM892.5 92V171H889.5V92H892.5ZM891 169.5H1137.5V172.5H891V169.5ZM1139 171V238H1136V171H1139Z" fill="black"/>
<path d="M651.939 452.061C652.525 452.646 653.475 452.646 654.061 452.061L663.607 442.515C664.192 441.929 664.192 440.979 663.607 440.393C663.021 439.808 662.071 439.808 661.485 440.393L653 448.879L644.515 440.393C643.929 439.808 642.979 439.808 642.393 440.393C641.808 440.979 641.808 441.929 642.393 442.515L651.939 452.061ZM651.5 97V451H654.5V97H651.5Z" fill="black"/>
</svg>
