<svg width="509" height="160" viewBox="0 0 509 160" fill="none" xmlns="http://www.w3.org/2000/svg">
<rect x="9.44919" y="20.5244" width="112.4" height="38.3002" rx="19.1501" fill="#E9E9E9"/>
<path d="M29.8831 45.3452C29.1163 45.3452 28.4016 45.2079 27.7389 44.9334C27.0857 44.6589 26.5082 44.2755 26.0065 43.7832C25.5142 43.2909 25.1261 42.7135 24.8421 42.0508C24.5676 41.3881 24.4303 40.6639 24.4303 39.8782C24.4303 39.0924 24.5676 38.3682 24.8421 37.7055C25.1261 37.0334 25.5142 36.4559 26.0065 35.9731C26.4988 35.4809 27.0763 35.1022 27.7389 34.8371C28.4016 34.5626 29.1163 34.4253 29.8831 34.4253C30.6594 34.4253 31.3742 34.5626 32.0274 34.8371C32.69 35.1022 33.2675 35.4809 33.7598 35.9731C34.2615 36.4654 34.6496 37.0429 34.9242 37.7055C35.1987 38.3682 35.336 39.0924 35.336 39.8782C35.336 40.6639 35.194 41.3881 34.91 42.0508C34.6354 42.7135 34.252 43.2909 33.7598 43.7832C33.2675 44.2755 32.69 44.6589 32.0274 44.9334C31.3647 45.2079 30.6499 45.3452 29.8831 45.3452ZM29.8831 43.8116C30.4322 43.8116 30.9339 43.7122 31.3884 43.5134C31.8522 43.3146 32.2546 43.0401 32.5954 42.6898C32.9362 42.33 33.2012 41.9135 33.3906 41.4402C33.5799 40.9574 33.6746 40.4367 33.6746 39.8782C33.6746 39.3196 33.5799 38.8037 33.3906 38.3304C33.2012 37.857 32.9362 37.4405 32.5954 37.0807C32.2546 36.721 31.8522 36.4417 31.3884 36.2429C30.9339 36.0441 30.4322 35.9447 29.8831 35.9447C29.3341 35.9447 28.8276 36.0441 28.3637 36.2429C27.9093 36.4417 27.5117 36.721 27.1709 37.0807C26.8301 37.4405 26.565 37.857 26.3757 38.3304C26.1958 38.8037 26.1059 39.3196 26.1059 39.8782C26.1059 40.4367 26.1958 40.9574 26.3757 41.4402C26.565 41.9135 26.8301 42.33 27.1709 42.6898C27.5117 43.0401 27.9141 43.3146 28.3779 43.5134C28.8418 43.7122 29.3435 43.8116 29.8831 43.8116ZM37.0532 45.1748V37.4925H38.5868V38.9978L38.4022 38.799C38.5915 38.3162 38.8945 37.9517 39.311 37.7055C39.7276 37.4499 40.2104 37.3221 40.7594 37.3221C41.3274 37.3221 41.8292 37.4452 42.2646 37.6913C42.7001 37.9375 43.0409 38.2783 43.287 38.7138C43.5332 39.1492 43.6563 39.651 43.6563 40.219V45.1748H42.0658V40.645C42.0658 40.2568 41.9948 39.9302 41.8528 39.6652C41.7108 39.3906 41.5073 39.1824 41.2422 39.0404C40.9866 38.8889 40.6932 38.8132 40.3618 38.8132C40.0305 38.8132 39.7323 38.8889 39.4672 39.0404C39.2116 39.1824 39.0128 39.3906 38.8708 39.6652C38.7288 39.9397 38.6578 40.2663 38.6578 40.645V45.1748H37.0532ZM49.4774 45.3452C48.881 45.3452 48.3367 45.2221 47.8444 44.976C47.3616 44.7299 46.9877 44.3749 46.7226 43.911L46.9072 43.6128V45.1748H45.3736V34.4253H46.9782V39.083L46.7226 38.7138C47.0066 38.2783 47.3853 37.9375 47.8586 37.6913C48.3319 37.4452 48.8715 37.3221 49.4774 37.3221C50.2063 37.3221 50.8596 37.4973 51.437 37.8475C52.024 38.1978 52.4831 38.6759 52.8144 39.2818C53.1552 39.8876 53.3256 40.5692 53.3256 41.3266C53.3256 42.0839 53.1552 42.7655 52.8144 43.3714C52.4831 43.9773 52.0287 44.4601 51.4512 44.8198C50.8738 45.1701 50.2158 45.3452 49.4774 45.3452ZM49.3212 43.8542C49.7756 43.8542 50.1779 43.7453 50.5282 43.5276C50.8785 43.3099 51.153 43.0117 51.3518 42.633C51.5601 42.2448 51.6642 41.8094 51.6642 41.3266C51.6642 40.8438 51.5601 40.413 51.3518 40.0344C51.153 39.6557 50.8785 39.3575 50.5282 39.1398C50.1779 38.922 49.7756 38.8132 49.3212 38.8132C48.8763 38.8132 48.4739 38.922 48.1142 39.1398C47.7639 39.3575 47.4847 39.6557 47.2764 40.0344C47.0776 40.413 46.9782 40.8438 46.9782 41.3266C46.9782 41.8094 47.0776 42.2448 47.2764 42.633C47.4847 43.0117 47.7639 43.3099 48.1142 43.5276C48.4739 43.7453 48.8763 43.8542 49.3212 43.8542ZM58.5928 45.3452C57.8544 45.3452 57.1775 45.1701 56.5622 44.8198C55.9563 44.4695 55.4735 43.9915 55.1137 43.3856C54.754 42.7797 54.5741 42.0934 54.5741 41.3266C54.5741 40.5503 54.754 39.864 55.1137 39.2676C55.4735 38.6617 55.9563 38.1883 56.5622 37.8475C57.168 37.4973 57.8449 37.3221 58.5928 37.3221C59.3501 37.3221 60.027 37.4973 60.6234 37.8475C61.2293 38.1883 61.7073 38.6617 62.0576 39.2676C62.4173 39.864 62.5972 40.5503 62.5972 41.3266C62.5972 42.1028 62.4173 42.7939 62.0576 43.3998C61.6979 44.0057 61.2151 44.4837 60.6092 44.834C60.0033 45.1748 59.3312 45.3452 58.5928 45.3452ZM58.5928 43.8542C59.0472 43.8542 59.4495 43.7453 59.7998 43.5276C60.15 43.3099 60.4246 43.0117 60.6234 42.633C60.8317 42.2448 60.9358 41.8094 60.9358 41.3266C60.9358 40.8438 60.8317 40.413 60.6234 40.0344C60.4246 39.6557 60.15 39.3575 59.7998 39.1398C59.4495 38.922 59.0472 38.8132 58.5928 38.8132C58.1478 38.8132 57.7455 38.922 57.3858 39.1398C57.0355 39.3575 56.7562 39.6557 56.548 40.0344C56.3492 40.413 56.2498 40.8438 56.2498 41.3266C56.2498 41.8094 56.3492 42.2448 56.548 42.633C56.7562 43.0117 57.0355 43.3099 57.3858 43.5276C57.7455 43.7453 58.1478 43.8542 58.5928 43.8542ZM66.4642 45.3452C65.9435 45.3452 65.4844 45.2553 65.0868 45.0754C64.6986 44.8861 64.3957 44.6305 64.178 44.3086C63.9602 43.9773 63.8514 43.5891 63.8514 43.1442C63.8514 42.7277 63.9413 42.3537 64.1212 42.0224C64.3105 41.691 64.5992 41.4118 64.9874 41.1846C65.3755 40.9574 65.863 40.7964 66.45 40.7018L69.1196 40.2616V41.5254L66.7624 41.9372C66.3364 42.0129 66.024 42.1502 65.8252 42.349C65.6264 42.5383 65.527 42.7845 65.527 43.0874C65.527 43.3809 65.6358 43.6223 65.8536 43.8116C66.0808 43.9915 66.3695 44.0814 66.7198 44.0814C67.1553 44.0814 67.5339 43.9867 67.8558 43.7974C68.1871 43.6081 68.4427 43.3572 68.6226 43.0448C68.8025 42.7229 68.8924 42.3679 68.8924 41.9798V40.006C68.8924 39.6273 68.7504 39.3196 68.4664 39.083C68.1919 38.8368 67.8227 38.7138 67.3588 38.7138C66.9328 38.7138 66.5588 38.8274 66.237 39.0546C65.9246 39.2723 65.6926 39.5563 65.5412 39.9066L64.2064 39.2392C64.3484 38.8605 64.5803 38.5292 64.9022 38.2451C65.224 37.9517 65.598 37.7245 66.024 37.5635C66.4594 37.4026 66.9186 37.3221 67.4014 37.3221C68.0073 37.3221 68.5421 37.4357 69.006 37.6629C69.4793 37.8901 69.8438 38.2073 70.0994 38.6144C70.3645 39.012 70.497 39.4758 70.497 40.006V45.1748H68.9634V43.7832L69.29 43.8258C69.1101 44.1382 68.8782 44.408 68.5942 44.6352C68.3197 44.8624 68.0025 45.0375 67.6428 45.1606C67.2925 45.2837 66.8997 45.3452 66.4642 45.3452ZM72.3732 45.1748V37.4925H73.9068V39.0404L73.7648 38.8132C73.9352 38.3114 74.2098 37.9517 74.5884 37.7339C74.9671 37.5067 75.4215 37.3931 75.9516 37.3931H76.4202V38.8558H75.7528C75.2227 38.8558 74.792 39.0214 74.4606 39.3528C74.1388 39.6746 73.9778 40.1385 73.9778 40.7444V45.1748H72.3732ZM81.068 45.3452C80.3296 45.3452 79.6669 45.1701 79.08 44.8198C78.5025 44.4601 78.0434 43.9773 77.7026 43.3714C77.3712 42.7655 77.2056 42.0839 77.2056 41.3266C77.2056 40.5692 77.376 39.8876 77.7168 39.2818C78.0576 38.6759 78.5167 38.1978 79.0942 37.8475C79.6717 37.4973 80.3249 37.3221 81.0538 37.3221C81.6691 37.3221 82.2135 37.4452 82.6868 37.6913C83.1601 37.9375 83.5341 38.2783 83.8086 38.7138L83.5672 39.083V34.4253H85.1576V45.1748H83.6382V43.6128L83.8228 43.911C83.5577 44.3749 83.1791 44.7299 82.6868 44.976C82.1945 45.2221 81.6549 45.3452 81.068 45.3452ZM81.2242 43.8542C81.6691 43.8542 82.0667 43.7453 82.417 43.5276C82.7767 43.3099 83.056 43.0117 83.2548 42.633C83.4631 42.2448 83.5672 41.8094 83.5672 41.3266C83.5672 40.8438 83.4631 40.413 83.2548 40.0344C83.056 39.6557 82.7767 39.3575 82.417 39.1398C82.0667 38.922 81.6691 38.8132 81.2242 38.8132C80.7793 38.8132 80.3769 38.922 80.0172 39.1398C79.6575 39.3575 79.3782 39.6557 79.1794 40.0344C78.9806 40.413 78.8812 40.8438 78.8812 41.3266C78.8812 41.8094 78.9806 42.2448 79.1794 42.633C79.3782 43.0117 79.6527 43.3099 80.003 43.5276C80.3627 43.7453 80.7698 43.8542 81.2242 43.8542ZM87.0309 45.1748V37.4925H88.6355V45.1748H87.0309ZM87.0309 36.4417V34.5957H88.6355V36.4417H87.0309ZM90.5116 45.1748V37.4925H92.0452V38.9978L91.8606 38.799C92.05 38.3162 92.3529 37.9517 92.7694 37.7055C93.186 37.4499 93.6688 37.3221 94.2179 37.3221C94.7859 37.3221 95.2876 37.4452 95.7231 37.6913C96.1585 37.9375 96.4993 38.2783 96.7455 38.7138C96.9916 39.1492 97.1147 39.651 97.1147 40.219V45.1748H95.5243V40.645C95.5243 40.2568 95.4533 39.9302 95.3113 39.6652C95.1693 39.3906 94.9657 39.1824 94.7007 39.0404C94.4451 38.8889 94.1516 38.8132 93.8203 38.8132C93.4889 38.8132 93.1907 38.8889 92.9256 39.0404C92.67 39.1824 92.4712 39.3906 92.3292 39.6652C92.1872 39.9397 92.1162 40.2663 92.1162 40.645V45.1748H90.5116ZM102.538 48.2988C101.98 48.2988 101.464 48.2089 100.99 48.029C100.517 47.8492 100.11 47.5983 99.7692 47.2764C99.4284 46.964 99.1728 46.5948 99.0024 46.1688L100.479 45.5582C100.612 45.9179 100.853 46.2161 101.203 46.4528C101.563 46.6895 102.003 46.8078 102.524 46.8078C102.931 46.8078 103.296 46.7274 103.617 46.5664C103.939 46.4149 104.195 46.1877 104.384 45.8848C104.574 45.5913 104.668 45.2363 104.668 44.8198V43.0874L104.952 43.414C104.687 43.9063 104.318 44.2802 103.845 44.5358C103.381 44.7914 102.855 44.9192 102.268 44.9192C101.558 44.9192 100.919 44.7535 100.351 44.4222C99.7834 44.0909 99.3337 43.6365 99.0024 43.059C98.6805 42.4815 98.5196 41.833 98.5196 41.1136C98.5196 40.3846 98.6805 39.7362 99.0024 39.1682C99.3337 38.6002 99.7787 38.1505 100.337 37.8191C100.896 37.4878 101.535 37.3221 102.254 37.3221C102.841 37.3221 103.362 37.4499 103.816 37.7055C104.28 37.9517 104.659 38.3114 104.952 38.7848L104.739 39.1824V37.4925H106.259V44.8198C106.259 45.4825 106.098 46.0741 105.776 46.5948C105.463 47.125 105.028 47.5415 104.469 47.8444C103.911 48.1474 103.267 48.2988 102.538 48.2988ZM102.453 43.4282C102.879 43.4282 103.258 43.3288 103.589 43.13C103.92 42.9217 104.181 42.6472 104.37 42.3064C104.569 41.9561 104.668 41.5632 104.668 41.1278C104.668 40.6923 104.569 40.2994 104.37 39.9492C104.171 39.5989 103.906 39.3244 103.575 39.1256C103.244 38.9173 102.87 38.8132 102.453 38.8132C102.018 38.8132 101.629 38.9173 101.289 39.1256C100.948 39.3244 100.678 39.5989 100.479 39.9492C100.29 40.29 100.195 40.6828 100.195 41.1278C100.195 41.5538 100.29 41.9419 100.479 42.2922C100.678 42.6425 100.948 42.9217 101.289 43.13C101.629 43.3288 102.018 43.4282 102.453 43.4282Z" fill="black"/>
<path d="M144.57 38.9648C144.177 38.9648 143.86 39.2827 143.86 39.6748C143.86 40.0669 144.177 40.3848 144.57 40.3848L144.57 38.9648ZM168.502 40.1769C168.779 39.8996 168.779 39.45 168.502 39.1728L163.983 34.6543C163.706 34.377 163.257 34.377 162.979 34.6543C162.702 34.9316 162.702 35.3811 162.979 35.6584L166.996 39.6748L162.979 43.6912C162.702 43.9685 162.702 44.418 162.979 44.6953C163.257 44.9726 163.706 44.9726 163.983 44.6953L168.502 40.1769ZM144.57 40.3848L168 40.3848L168 38.9648L144.57 38.9648L144.57 40.3848Z" fill="black"/>
<rect x="190.72" y="21.0244" width="104.4" height="37.3002" rx="18.6501" fill="#E9E9E9"/>
<path d="M205.066 44.6748L208.541 34.7927H210.478L213.953 44.6748H212.282L211.526 42.4596H207.507L206.737 44.6748H205.066ZM207.958 41.0668H211.048L209.297 35.8937H209.735L207.958 41.0668ZM214.98 44.6748V37.4987H216.412V38.9047L216.24 38.719C216.417 38.268 216.7 37.9276 217.089 37.6977C217.478 37.4589 217.929 37.3395 218.442 37.3395C218.972 37.3395 219.441 37.4545 219.848 37.6844C220.255 37.9143 220.573 38.2327 220.803 38.6394C221.033 39.0462 221.148 39.5149 221.148 40.0455V44.6748H219.662V40.4434C219.662 40.0809 219.596 39.7758 219.463 39.5282C219.33 39.2717 219.14 39.0772 218.893 38.9445C218.654 38.803 218.38 38.7323 218.07 38.7323C217.761 38.7323 217.482 38.803 217.235 38.9445C216.996 39.0772 216.81 39.2717 216.678 39.5282C216.545 39.7846 216.479 40.0897 216.479 40.4434V44.6748H214.98ZM222.752 44.6748V37.4987H224.251V44.6748H222.752ZM222.752 36.5171V34.7927H224.251V36.5171H222.752ZM226.003 44.6748V37.4987H227.436V39.0506L227.25 38.8119C227.4 38.3255 227.675 37.9585 228.072 37.7109C228.47 37.4633 228.926 37.3395 229.439 37.3395C230.014 37.3395 230.522 37.4943 230.964 37.8038C231.415 38.1044 231.716 38.5068 231.866 39.0108L231.442 39.0506C231.654 38.4758 231.977 38.047 232.41 37.764C232.852 37.481 233.356 37.3395 233.922 37.3395C234.417 37.3395 234.864 37.4545 235.262 37.6844C235.669 37.9143 235.991 38.2327 236.23 38.6394C236.469 39.0462 236.588 39.5105 236.588 40.0322V44.6748H235.089V40.4434C235.089 40.0809 235.023 39.7758 234.89 39.5282C234.767 39.2717 234.59 39.0772 234.36 38.9445C234.139 38.803 233.878 38.7323 233.577 38.7323C233.277 38.7323 233.011 38.803 232.781 38.9445C232.551 39.0772 232.37 39.2717 232.238 39.5282C232.105 39.7846 232.039 40.0897 232.039 40.4434V44.6748H230.553V40.4434C230.553 40.0809 230.487 39.7758 230.354 39.5282C230.23 39.2717 230.053 39.0772 229.823 38.9445C229.602 38.803 229.337 38.7323 229.028 38.7323C228.727 38.7323 228.462 38.803 228.232 38.9445C228.002 39.0772 227.82 39.2717 227.688 39.5282C227.564 39.7846 227.502 40.0897 227.502 40.4434V44.6748H226.003ZM241.562 44.834C240.846 44.834 240.209 44.6704 239.652 44.3432C239.103 44.0072 238.675 43.5562 238.365 42.9902C238.056 42.4154 237.901 41.7743 237.901 41.0668C237.901 40.3417 238.056 39.7006 238.365 39.1435C238.683 38.5864 239.108 38.1487 239.638 37.8303C240.169 37.5031 240.77 37.3395 241.442 37.3395C241.982 37.3395 242.464 37.4324 242.888 37.6181C243.313 37.8038 243.671 38.0602 243.963 38.3874C244.255 38.7058 244.476 39.0727 244.626 39.4884C244.785 39.904 244.865 40.3461 244.865 40.8148C244.865 40.9298 244.86 41.0492 244.851 41.173C244.843 41.2968 244.825 41.4117 244.798 41.5178H239.081V40.324H243.949L243.233 40.8679C243.322 40.4346 243.291 40.0499 243.14 39.7139C242.999 39.369 242.778 39.0993 242.477 38.9047C242.185 38.7013 241.84 38.5996 241.442 38.5996C241.044 38.5996 240.691 38.7013 240.381 38.9047C240.072 39.0993 239.833 39.3823 239.665 39.7537C239.497 40.1162 239.431 40.5584 239.466 41.0801C239.422 41.5665 239.488 41.9909 239.665 42.3535C239.851 42.7161 240.107 42.9991 240.434 43.2024C240.77 43.4058 241.151 43.5075 241.575 43.5075C242.008 43.5075 242.375 43.4103 242.676 43.2157C242.986 43.0212 243.229 42.7691 243.406 42.4596L244.626 43.0565C244.484 43.3926 244.263 43.6977 243.963 43.9718C243.671 44.2371 243.317 44.4493 242.902 44.6085C242.495 44.7588 242.048 44.834 241.562 44.834ZM248.792 44.6748V34.7927H252.387C253.05 34.7927 253.634 34.9165 254.138 35.1641C254.651 35.4029 255.049 35.7566 255.332 36.2253C255.615 36.6851 255.756 37.2378 255.756 37.8834C255.756 38.5201 255.61 39.0683 255.318 39.5282C255.035 39.988 254.642 40.3417 254.138 40.5893C253.634 40.8369 253.05 40.9607 252.387 40.9607H250.357V44.6748H248.792ZM250.357 39.568H252.427C252.78 39.568 253.09 39.4972 253.355 39.3557C253.62 39.2142 253.828 39.0197 253.979 38.7721C254.129 38.5156 254.204 38.215 254.204 37.8701C254.204 37.5252 254.129 37.229 253.979 36.9814C253.828 36.7249 253.62 36.5304 253.355 36.3977C253.09 36.2562 252.78 36.1855 252.427 36.1855H250.357V39.568ZM258.904 44.834C258.418 44.834 257.989 44.75 257.617 44.582C257.255 44.4051 256.972 44.1663 256.768 43.8657C256.565 43.5562 256.463 43.1936 256.463 42.778C256.463 42.3889 256.547 42.0396 256.715 41.7301C256.892 41.4206 257.162 41.1597 257.525 40.9475C257.887 40.7352 258.343 40.5849 258.891 40.4965L261.385 40.0853V41.2658L259.183 41.6505C258.785 41.7212 258.493 41.8495 258.307 42.0352C258.121 42.212 258.029 42.4419 258.029 42.7249C258.029 42.9991 258.13 43.2245 258.334 43.4014C258.546 43.5694 258.816 43.6534 259.143 43.6534C259.55 43.6534 259.903 43.565 260.204 43.3881C260.513 43.2113 260.752 42.9769 260.92 42.6851C261.088 42.3845 261.172 42.0528 261.172 41.6903V39.8465C261.172 39.4928 261.04 39.2054 260.774 38.9843C260.518 38.7544 260.173 38.6394 259.74 38.6394C259.342 38.6394 258.992 38.7456 258.692 38.9578C258.4 39.1612 258.183 39.4265 258.042 39.7537L256.795 39.1302C256.928 38.7765 257.144 38.467 257.445 38.2017C257.746 37.9276 258.095 37.7153 258.493 37.565C258.9 37.4147 259.329 37.3395 259.78 37.3395C260.345 37.3395 260.845 37.4456 261.278 37.6579C261.721 37.8701 262.061 38.1663 262.3 38.5466C262.547 38.918 262.671 39.3513 262.671 39.8465V44.6748H261.239V43.3749L261.544 43.4147C261.376 43.7065 261.159 43.9585 260.894 44.1708C260.637 44.383 260.341 44.5466 260.005 44.6615C259.678 44.7765 259.311 44.834 258.904 44.834ZM267.886 47.593C267.364 47.593 266.882 47.509 266.44 47.341C265.998 47.173 265.618 46.9386 265.299 46.638C264.981 46.3461 264.742 46.0013 264.583 45.6033L265.962 45.0329C266.086 45.369 266.312 45.6475 266.639 45.8686C266.975 46.0897 267.386 46.2002 267.873 46.2002C268.253 46.2002 268.593 46.1251 268.894 45.9747C269.195 45.8332 269.433 45.621 269.61 45.338C269.787 45.0639 269.875 44.7323 269.875 44.3432V42.7249L270.141 43.03C269.893 43.4898 269.548 43.8391 269.106 44.0779C268.673 44.3167 268.182 44.436 267.634 44.436C266.971 44.436 266.374 44.2813 265.843 43.9718C265.312 43.6623 264.892 43.2378 264.583 42.6984C264.282 42.159 264.132 41.5532 264.132 40.8811C264.132 40.2002 264.282 39.5945 264.583 39.0639C264.892 38.5333 265.308 38.1133 265.83 37.8038C266.352 37.4943 266.948 37.3395 267.621 37.3395C268.169 37.3395 268.655 37.4589 269.08 37.6977C269.513 37.9276 269.867 38.2636 270.141 38.7058L269.942 39.0772V37.4987H271.361V44.3432C271.361 44.9622 271.211 45.5149 270.91 46.0013C270.618 46.4965 270.212 46.8856 269.69 47.1685C269.168 47.4515 268.567 47.593 267.886 47.593ZM267.806 43.0433C268.204 43.0433 268.558 42.9504 268.867 42.7647C269.177 42.5702 269.42 42.3137 269.597 41.9954C269.783 41.6682 269.875 41.3012 269.875 40.8944C269.875 40.4876 269.783 40.1206 269.597 39.7935C269.411 39.4663 269.164 39.2098 268.854 39.0241C268.545 38.8296 268.195 38.7323 267.806 38.7323C267.399 38.7323 267.037 38.8296 266.719 39.0241C266.4 39.2098 266.148 39.4663 265.962 39.7935C265.786 40.1118 265.697 40.4788 265.697 40.8944C265.697 41.2923 265.786 41.6549 265.962 41.9821C266.148 42.3093 266.4 42.5702 266.719 42.7647C267.037 42.9504 267.399 43.0433 267.806 43.0433ZM276.485 44.834C275.769 44.834 275.132 44.6704 274.575 44.3432C274.026 44.0072 273.598 43.5562 273.288 42.9902C272.979 42.4154 272.824 41.7743 272.824 41.0668C272.824 40.3417 272.979 39.7006 273.288 39.1435C273.606 38.5864 274.031 38.1487 274.561 37.8303C275.092 37.5031 275.693 37.3395 276.365 37.3395C276.905 37.3395 277.387 37.4324 277.811 37.6181C278.236 37.8038 278.594 38.0602 278.886 38.3874C279.178 38.7058 279.399 39.0727 279.549 39.4884C279.708 39.904 279.788 40.3461 279.788 40.8148C279.788 40.9298 279.783 41.0492 279.774 41.173C279.766 41.2968 279.748 41.4117 279.721 41.5178H274.004V40.324H278.872L278.156 40.8679C278.245 40.4346 278.214 40.0499 278.063 39.7139C277.922 39.369 277.701 39.0993 277.4 38.9047C277.108 38.7013 276.763 38.5996 276.365 38.5996C275.968 38.5996 275.614 38.7013 275.304 38.9047C274.995 39.0993 274.756 39.3823 274.588 39.7537C274.42 40.1162 274.354 40.5584 274.389 41.0801C274.345 41.5665 274.411 41.9909 274.588 42.3535C274.774 42.7161 275.03 42.9991 275.357 43.2024C275.693 43.4058 276.074 43.5075 276.498 43.5075C276.931 43.5075 277.298 43.4103 277.599 43.2157C277.909 43.0212 278.152 42.7691 278.329 42.4596L279.549 43.0565C279.407 43.3926 279.186 43.6977 278.886 43.9718C278.594 44.2371 278.24 44.4493 277.825 44.6085C277.418 44.7588 276.971 44.834 276.485 44.834Z" fill="black"/>
<path d="M317.84 38.9648C317.448 38.9648 317.13 39.2827 317.13 39.6748C317.13 40.0669 317.448 40.3848 317.84 40.3848L317.84 38.9648ZM341.773 40.1769C342.05 39.8996 342.05 39.45 341.773 39.1728L337.254 34.6543C336.977 34.377 336.527 34.377 336.25 34.6543C335.973 34.9316 335.973 35.3811 336.25 35.6584L340.266 39.6748L336.25 43.6912C335.973 43.9685 335.973 44.418 336.25 44.6953C336.527 44.9726 336.977 44.9726 337.254 44.6953L341.773 40.1769ZM317.84 40.3848L341.271 40.3848L341.271 38.9648L317.84 38.9648L317.84 40.3848Z" fill="black"/>
<rect x="363.991" y="20.5244" width="135.4" height="38.3002" rx="19.1501" fill="#E9E9E9"/>
<path d="M383.246 45.3452C382.46 45.3452 381.76 45.1795 381.144 44.8482C380.539 44.5169 380.061 44.0625 379.71 43.485C379.369 42.9075 379.199 42.2496 379.199 41.5112V34.5957H380.875V41.4402C380.875 41.904 380.974 42.3158 381.173 42.6756C381.381 43.0353 381.66 43.3146 382.011 43.5134C382.37 43.7122 382.782 43.8116 383.246 43.8116C383.719 43.8116 384.131 43.7122 384.481 43.5134C384.841 43.3146 385.12 43.0353 385.319 42.6756C385.528 42.3158 385.632 41.904 385.632 41.4402V34.5957H387.293V41.5112C387.293 42.2496 387.123 42.9075 386.782 43.485C386.441 44.0625 385.963 44.5169 385.348 44.8482C384.742 45.1795 384.041 45.3452 383.246 45.3452ZM389.237 48.0148V37.4925H390.771V39.083L390.586 38.7138C390.87 38.2783 391.249 37.9375 391.722 37.6913C392.196 37.4452 392.735 37.3221 393.341 37.3221C394.07 37.3221 394.723 37.4973 395.301 37.8475C395.888 38.1978 396.347 38.6759 396.678 39.2818C397.019 39.8876 397.189 40.5692 397.189 41.3266C397.189 42.0839 397.019 42.7655 396.678 43.3714C396.347 43.9773 395.892 44.4601 395.315 44.8198C394.737 45.1701 394.08 45.3452 393.341 45.3452C392.745 45.3452 392.2 45.2221 391.708 44.976C391.225 44.7299 390.851 44.3749 390.586 43.911L390.842 43.6128V48.0148H389.237ZM393.185 43.8542C393.639 43.8542 394.042 43.7453 394.392 43.5276C394.742 43.3099 395.017 43.0117 395.216 42.633C395.424 42.2448 395.528 41.8094 395.528 41.3266C395.528 40.8438 395.424 40.413 395.216 40.0344C395.017 39.6557 394.742 39.3575 394.392 39.1398C394.042 38.922 393.639 38.8132 393.185 38.8132C392.74 38.8132 392.338 38.922 391.978 39.1398C391.628 39.3575 391.348 39.6557 391.14 40.0344C390.941 40.413 390.842 40.8438 390.842 41.3266C390.842 41.8094 390.941 42.2448 391.14 42.633C391.348 43.0117 391.628 43.3099 391.978 43.5276C392.338 43.7453 392.74 43.8542 393.185 43.8542ZM402.3 45.3452C401.562 45.3452 400.899 45.1701 400.312 44.8198C399.735 44.4601 399.276 43.9773 398.935 43.3714C398.604 42.7655 398.438 42.0839 398.438 41.3266C398.438 40.5692 398.608 39.8876 398.949 39.2818C399.29 38.6759 399.749 38.1978 400.326 37.8475C400.904 37.4973 401.557 37.3221 402.286 37.3221C402.901 37.3221 403.446 37.4452 403.919 37.6913C404.392 37.9375 404.766 38.2783 405.041 38.7138L404.8 39.083V34.4253H406.39V45.1748H404.871V43.6128L405.055 43.911C404.79 44.3749 404.411 44.7299 403.919 44.976C403.427 45.2221 402.887 45.3452 402.3 45.3452ZM402.456 43.8542C402.901 43.8542 403.299 43.7453 403.649 43.5276C404.009 43.3099 404.288 43.0117 404.487 42.633C404.695 42.2448 404.8 41.8094 404.8 41.3266C404.8 40.8438 404.695 40.413 404.487 40.0344C404.288 39.6557 404.009 39.3575 403.649 39.1398C403.299 38.922 402.901 38.8132 402.456 38.8132C402.012 38.8132 401.609 38.922 401.249 39.1398C400.89 39.3575 400.61 39.6557 400.412 40.0344C400.213 40.413 400.113 40.8438 400.113 41.3266C400.113 41.8094 400.213 42.2448 400.412 42.633C400.61 43.0117 400.885 43.3099 401.235 43.5276C401.595 43.7453 402.002 43.8542 402.456 43.8542ZM410.564 45.3452C410.043 45.3452 409.584 45.2553 409.186 45.0754C408.798 44.8861 408.495 44.6305 408.277 44.3086C408.06 43.9773 407.951 43.5891 407.951 43.1442C407.951 42.7277 408.041 42.3537 408.221 42.0224C408.41 41.691 408.699 41.4118 409.087 41.1846C409.475 40.9574 409.963 40.7964 410.549 40.7018L413.219 40.2616V41.5254L410.862 41.9372C410.436 42.0129 410.123 42.1502 409.925 42.349C409.726 42.5383 409.626 42.7845 409.626 43.0874C409.626 43.3809 409.735 43.6223 409.953 43.8116C410.18 43.9915 410.469 44.0814 410.819 44.0814C411.255 44.0814 411.633 43.9867 411.955 43.7974C412.287 43.6081 412.542 43.3572 412.722 43.0448C412.902 42.7229 412.992 42.3679 412.992 41.9798V40.006C412.992 39.6273 412.85 39.3196 412.566 39.083C412.291 38.8368 411.922 38.7138 411.458 38.7138C411.032 38.7138 410.658 38.8274 410.336 39.0546C410.024 39.2723 409.792 39.5563 409.641 39.9066L408.306 39.2392C408.448 38.8605 408.68 38.5292 409.002 38.2451C409.324 37.9517 409.697 37.7245 410.123 37.5635C410.559 37.4026 411.018 37.3221 411.501 37.3221C412.107 37.3221 412.642 37.4357 413.105 37.6629C413.579 37.8901 413.943 38.2073 414.199 38.6144C414.464 39.012 414.596 39.4758 414.596 40.006V45.1748H413.063V43.7832L413.389 43.8258C413.21 44.1382 412.978 44.408 412.694 44.6352C412.419 44.8624 412.102 45.0375 411.742 45.1606C411.392 45.2837 410.999 45.3452 410.564 45.3452ZM419.657 45.26C418.852 45.26 418.227 45.0328 417.782 44.5784C417.337 44.124 417.115 43.485 417.115 42.6614V38.941H415.766V37.4925H415.979C416.339 37.4925 416.618 37.3884 416.817 37.1801C417.016 36.9719 417.115 36.6879 417.115 36.3281V35.7317H418.72V37.4925H420.466V38.941H418.72V42.5904C418.72 42.8555 418.762 43.0827 418.847 43.272C418.933 43.4519 419.07 43.5939 419.259 43.698C419.449 43.7927 419.695 43.84 419.998 43.84C420.073 43.84 420.159 43.8353 420.253 43.8258C420.348 43.8163 420.438 43.8069 420.523 43.7974V45.1748C420.39 45.1937 420.244 45.2127 420.083 45.2316C419.922 45.2505 419.78 45.26 419.657 45.26ZM425.557 45.3452C424.79 45.3452 424.109 45.1701 423.512 44.8198C422.925 44.4601 422.466 43.9773 422.135 43.3714C421.804 42.7561 421.638 42.0697 421.638 41.3124C421.638 40.5361 421.804 39.8498 422.135 39.2534C422.476 38.657 422.93 38.1883 423.498 37.8475C424.066 37.4973 424.71 37.3221 425.429 37.3221C426.007 37.3221 426.523 37.4215 426.977 37.6203C427.431 37.8191 427.815 38.0937 428.127 38.444C428.44 38.7848 428.676 39.1776 428.837 39.6226C429.008 40.0675 429.093 40.5408 429.093 41.0426C429.093 41.1656 429.088 41.2934 429.079 41.426C429.069 41.5585 429.05 41.6816 429.022 41.7952H422.902V40.5172H428.113L427.346 41.0994C427.441 40.6355 427.408 40.2237 427.247 39.864C427.095 39.4948 426.859 39.206 426.537 38.9978C426.224 38.78 425.855 38.6712 425.429 38.6712C425.003 38.6712 424.625 38.78 424.293 38.9978C423.962 39.206 423.706 39.509 423.526 39.9066C423.347 40.2947 423.276 40.768 423.313 41.3266C423.266 41.8472 423.337 42.3016 423.526 42.6898C423.725 43.0779 424 43.3809 424.35 43.5986C424.71 43.8163 425.117 43.9252 425.571 43.9252C426.035 43.9252 426.428 43.8211 426.75 43.6128C427.081 43.4045 427.342 43.1347 427.531 42.8034L428.837 43.4424C428.686 43.8021 428.449 44.1287 428.127 44.4222C427.815 44.7062 427.436 44.9334 426.991 45.1038C426.556 45.2647 426.078 45.3452 425.557 45.3452ZM434.209 45.3452C433.471 45.3452 432.808 45.1701 432.221 44.8198C431.643 44.4601 431.184 43.9773 430.844 43.3714C430.512 42.7655 430.347 42.0839 430.347 41.3266C430.347 40.5692 430.517 39.8876 430.858 39.2818C431.199 38.6759 431.658 38.1978 432.235 37.8475C432.813 37.4973 433.466 37.3221 434.195 37.3221C434.81 37.3221 435.354 37.4452 435.828 37.6913C436.301 37.9375 436.675 38.2783 436.95 38.7138L436.708 39.083V34.4253H438.299V45.1748H436.779V43.6128L436.964 43.911C436.699 44.3749 436.32 44.7299 435.828 44.976C435.335 45.2221 434.796 45.3452 434.209 45.3452ZM434.365 43.8542C434.81 43.8542 435.208 43.7453 435.558 43.5276C435.918 43.3099 436.197 43.0117 436.396 42.633C436.604 42.2448 436.708 41.8094 436.708 41.3266C436.708 40.8438 436.604 40.413 436.396 40.0344C436.197 39.6557 435.918 39.3575 435.558 39.1398C435.208 38.922 434.81 38.8132 434.365 38.8132C433.92 38.8132 433.518 38.922 433.158 39.1398C432.798 39.3575 432.519 39.6557 432.32 40.0344C432.122 40.413 432.022 40.8438 432.022 41.3266C432.022 41.8094 432.122 42.2448 432.32 42.633C432.519 43.0117 432.794 43.3099 433.144 43.5276C433.504 43.7453 433.911 43.8542 434.365 43.8542ZM441.873 45.1748L445.594 34.5957H447.667L451.387 45.1748H449.598L448.789 42.8034H444.486L443.662 45.1748H441.873ZM444.969 41.3124H448.277L446.403 35.7743H446.872L444.969 41.3124ZM452.486 45.1748V37.4925H454.02V38.9978L453.835 38.799C454.024 38.3162 454.327 37.9517 454.744 37.7055C455.16 37.4499 455.643 37.3221 456.192 37.3221C456.76 37.3221 457.262 37.4452 457.697 37.6913C458.133 37.9375 458.474 38.2783 458.72 38.7138C458.966 39.1492 459.089 39.651 459.089 40.219V45.1748H457.499V40.645C457.499 40.2568 457.428 39.9302 457.286 39.6652C457.144 39.3906 456.94 39.1824 456.675 39.0404C456.419 38.8889 456.126 38.8132 455.795 38.8132C455.463 38.8132 455.165 38.8889 454.9 39.0404C454.644 39.1824 454.446 39.3906 454.304 39.6652C454.162 39.9397 454.091 40.2663 454.091 40.645V45.1748H452.486ZM460.806 45.1748V37.4925H462.411V45.1748H460.806ZM460.806 36.4417V34.5957H462.411V36.4417H460.806ZM464.287 45.1748V37.4925H465.821V39.154L465.622 38.8984C465.783 38.3777 466.076 37.9848 466.502 37.7197C466.928 37.4547 467.416 37.3221 467.965 37.3221C468.58 37.3221 469.125 37.4878 469.598 37.8191C470.081 38.141 470.403 38.5718 470.564 39.1114L470.109 39.154C470.336 38.5386 470.682 38.0795 471.146 37.7765C471.619 37.4736 472.159 37.3221 472.765 37.3221C473.295 37.3221 473.773 37.4452 474.199 37.6913C474.634 37.9375 474.98 38.2783 475.235 38.7138C475.491 39.1492 475.619 39.6462 475.619 40.2048V45.1748H474.014V40.645C474.014 40.2568 473.943 39.9302 473.801 39.6652C473.669 39.3906 473.479 39.1824 473.233 39.0404C472.997 38.8889 472.717 38.8132 472.395 38.8132C472.074 38.8132 471.789 38.8889 471.543 39.0404C471.297 39.1824 471.103 39.3906 470.961 39.6652C470.819 39.9397 470.748 40.2663 470.748 40.645V45.1748H469.158V40.645C469.158 40.2568 469.087 39.9302 468.945 39.6652C468.812 39.3906 468.623 39.1824 468.377 39.0404C468.14 38.8889 467.856 38.8132 467.525 38.8132C467.203 38.8132 466.919 38.8889 466.673 39.0404C466.427 39.1824 466.233 39.3906 466.091 39.6652C465.958 39.9397 465.892 40.2663 465.892 40.645V45.1748H464.287ZM480.943 45.3452C480.176 45.3452 479.495 45.1701 478.898 44.8198C478.311 44.4601 477.852 43.9773 477.521 43.3714C477.189 42.7561 477.024 42.0697 477.024 41.3124C477.024 40.5361 477.189 39.8498 477.521 39.2534C477.862 38.657 478.316 38.1883 478.884 37.8475C479.452 37.4973 480.096 37.3221 480.815 37.3221C481.393 37.3221 481.909 37.4215 482.363 37.6203C482.817 37.8191 483.201 38.0937 483.513 38.444C483.826 38.7848 484.062 39.1776 484.223 39.6226C484.394 40.0675 484.479 40.5408 484.479 41.0426C484.479 41.1656 484.474 41.2934 484.465 41.426C484.455 41.5585 484.436 41.6816 484.408 41.7952H478.288V40.5172H483.499L482.732 41.0994C482.827 40.6355 482.794 40.2237 482.633 39.864C482.481 39.4948 482.245 39.206 481.923 38.9978C481.61 38.78 481.241 38.6712 480.815 38.6712C480.389 38.6712 480.011 38.78 479.679 38.9978C479.348 39.206 479.092 39.509 478.912 39.9066C478.733 40.2947 478.662 40.768 478.699 41.3266C478.652 41.8472 478.723 42.3016 478.912 42.6898C479.111 43.0779 479.386 43.3809 479.736 43.5986C480.096 43.8163 480.503 43.9252 480.957 43.9252C481.421 43.9252 481.814 43.8211 482.136 43.6128C482.467 43.4045 482.728 43.1347 482.917 42.8034L484.223 43.4424C484.072 43.8021 483.835 44.1287 483.513 44.4222C483.201 44.7062 482.822 44.9334 482.377 45.1038C481.942 45.2647 481.464 45.3452 480.943 45.3452Z" fill="black"/>
<rect x="233.926" y="105.213" width="34.6919" height="34.6919" rx="17.3459" fill="#47FF29"/>
<path d="M249.166 125.707L258.292 116.611L259.697 118.01L249.166 128.506L242.847 122.209L244.251 120.81L249.166 125.707Z" fill="white"/>
<rect x="0.25" y="0.25" width="508.5" height="159.5" stroke="black" stroke-width="0.5"/>
</svg>
