<svg width="834" height="127" viewBox="0 0 834 127" fill="none" xmlns="http://www.w3.org/2000/svg">
<path d="M115.851 120V103.2H122.595C124.339 103.2 125.667 103.608 126.579 104.424C127.507 105.224 127.971 106.256 127.971 107.52C127.971 108.576 127.683 109.424 127.107 110.064C126.547 110.688 125.859 111.112 125.043 111.336C126.003 111.528 126.795 112.008 127.419 112.776C128.043 113.528 128.355 114.408 128.355 115.416C128.355 116.744 127.875 117.84 126.915 118.704C125.955 119.568 124.595 120 122.835 120H115.851ZM118.923 110.256H122.139C123.003 110.256 123.667 110.056 124.131 109.656C124.595 109.256 124.827 108.688 124.827 107.952C124.827 107.248 124.595 106.696 124.131 106.296C123.683 105.88 123.003 105.672 122.091 105.672H118.923V110.256ZM118.923 117.504H122.355C123.267 117.504 123.971 117.296 124.467 116.88C124.979 116.448 125.235 115.848 125.235 115.08C125.235 114.296 124.971 113.68 124.443 113.232C123.915 112.784 123.203 112.56 122.307 112.56H118.923V117.504ZM136.631 120.288C135.479 120.288 134.439 120.024 133.511 119.496C132.599 118.968 131.871 118.24 131.327 117.312C130.799 116.368 130.535 115.28 130.535 114.048C130.535 112.816 130.807 111.736 131.351 110.808C131.895 109.864 132.623 109.128 133.535 108.6C134.463 108.072 135.503 107.808 136.655 107.808C137.791 107.808 138.815 108.072 139.727 108.6C140.655 109.128 141.383 109.864 141.911 110.808C142.455 111.736 142.727 112.816 142.727 114.048C142.727 115.28 142.455 116.368 141.911 117.312C141.383 118.24 140.655 118.968 139.727 119.496C138.799 120.024 137.767 120.288 136.631 120.288ZM136.631 117.624C137.431 117.624 138.127 117.328 138.719 116.736C139.311 116.128 139.607 115.232 139.607 114.048C139.607 112.864 139.311 111.976 138.719 111.384C138.127 110.776 137.439 110.472 136.655 110.472C135.839 110.472 135.135 110.776 134.543 111.384C133.967 111.976 133.679 112.864 133.679 114.048C133.679 115.232 133.967 116.128 134.543 116.736C135.135 117.328 135.831 117.624 136.631 117.624ZM145.474 120V102.72H148.546V120H145.474ZM157.157 120.288C156.037 120.288 155.037 120.016 154.157 119.472C153.277 118.928 152.581 118.184 152.069 117.24C151.557 116.296 151.301 115.224 151.301 114.024C151.301 112.824 151.557 111.76 152.069 110.832C152.581 109.888 153.277 109.152 154.157 108.624C155.037 108.08 156.037 107.808 157.157 107.808C158.053 107.808 158.837 107.976 159.509 108.312C160.181 108.648 160.725 109.12 161.141 109.728V102.72H164.213V120H161.477L161.141 118.296C160.757 118.824 160.245 119.288 159.605 119.688C158.981 120.088 158.165 120.288 157.157 120.288ZM157.805 117.6C158.797 117.6 159.605 117.272 160.229 116.616C160.869 115.944 161.189 115.088 161.189 114.048C161.189 113.008 160.869 112.16 160.229 111.504C159.605 110.832 158.797 110.496 157.805 110.496C156.829 110.496 156.021 110.824 155.381 111.48C154.741 112.136 154.421 112.984 154.421 114.024C154.421 115.064 154.741 115.92 155.381 116.592C156.021 117.264 156.829 117.6 157.805 117.6Z" fill="black"/>
<path d="M373.032 120V103.2H376.032L381.72 114.384L387.384 103.2H390.384V120H387.84V107.592L382.704 117.6H380.736L375.576 107.616V120H373.032ZM399.27 120.288C398.102 120.288 397.062 120.032 396.15 119.52C395.254 118.992 394.55 118.264 394.038 117.336C393.526 116.408 393.27 115.328 393.27 114.096C393.27 112.848 393.518 111.752 394.014 110.808C394.526 109.864 395.23 109.128 396.126 108.6C397.038 108.072 398.094 107.808 399.294 107.808C400.462 107.808 401.478 108.072 402.342 108.6C403.206 109.112 403.878 109.8 404.358 110.664C404.838 111.528 405.078 112.48 405.078 113.52C405.078 113.68 405.07 113.856 405.054 114.048C405.054 114.224 405.046 114.424 405.03 114.648H395.766C395.846 115.8 396.222 116.68 396.894 117.288C397.582 117.88 398.374 118.176 399.27 118.176C399.99 118.176 400.59 118.016 401.07 117.696C401.566 117.36 401.934 116.912 402.174 116.352H404.718C404.398 117.472 403.758 118.408 402.798 119.16C401.854 119.912 400.678 120.288 399.27 120.288ZM399.27 109.896C398.422 109.896 397.67 110.152 397.014 110.664C396.358 111.16 395.958 111.912 395.814 112.92H402.534C402.486 111.992 402.158 111.256 401.55 110.712C400.942 110.168 400.182 109.896 399.27 109.896ZM413.141 120.288C411.989 120.288 410.973 120.016 410.093 119.472C409.213 118.928 408.525 118.184 408.029 117.24C407.533 116.296 407.285 115.224 407.285 114.024C407.285 112.824 407.533 111.76 408.029 110.832C408.525 109.888 409.213 109.152 410.093 108.624C410.989 108.08 412.013 107.808 413.165 107.808C414.109 107.808 414.933 107.992 415.637 108.36C416.357 108.728 416.917 109.248 417.317 109.92V102.72H419.861V120H417.581L417.317 118.152C416.933 118.712 416.405 119.208 415.733 119.64C415.061 120.072 414.197 120.288 413.141 120.288ZM413.597 118.08C414.685 118.08 415.573 117.704 416.261 116.952C416.965 116.2 417.317 115.232 417.317 114.048C417.317 112.848 416.965 111.88 416.261 111.144C415.573 110.392 414.685 110.016 413.597 110.016C412.509 110.016 411.613 110.392 410.909 111.144C410.205 111.88 409.853 112.848 409.853 114.048C409.853 114.832 410.013 115.528 410.333 116.136C410.653 116.744 411.093 117.224 411.653 117.576C412.229 117.912 412.877 118.08 413.597 118.08ZM424.509 105.84C424.029 105.84 423.629 105.696 423.309 105.408C423.005 105.104 422.853 104.728 422.853 104.28C422.853 103.832 423.005 103.464 423.309 103.176C423.629 102.872 424.029 102.72 424.509 102.72C424.989 102.72 425.381 102.872 425.685 103.176C426.005 103.464 426.165 103.832 426.165 104.28C426.165 104.728 426.005 105.104 425.685 105.408C425.381 105.696 424.989 105.84 424.509 105.84ZM423.237 120V108.096H425.781V120H423.237ZM433.531 120.288C432.091 120.288 430.955 119.84 430.123 118.944C429.307 118.048 428.899 116.712 428.899 114.936V108.096H431.443V114.672C431.443 116.976 432.387 118.128 434.275 118.128C435.219 118.128 435.995 117.792 436.603 117.12C437.211 116.448 437.515 115.488 437.515 114.24V108.096H440.059V120H437.803L437.611 117.912C437.243 118.648 436.699 119.232 435.979 119.664C435.275 120.08 434.459 120.288 433.531 120.288ZM443.296 120V108.096H445.552L445.768 109.776C446.152 109.168 446.656 108.688 447.28 108.336C447.92 107.984 448.656 107.808 449.488 107.808C451.376 107.808 452.688 108.552 453.424 110.04C453.856 109.352 454.432 108.808 455.152 108.408C455.888 108.008 456.68 107.808 457.528 107.808C459.016 107.808 460.184 108.256 461.032 109.152C461.88 110.048 462.304 111.384 462.304 113.16V120H459.76V113.424C459.76 111.12 458.88 109.968 457.12 109.968C456.224 109.968 455.488 110.304 454.911 110.976C454.352 111.648 454.072 112.608 454.072 113.856V120H451.528V113.424C451.528 111.12 450.64 109.968 448.864 109.968C447.984 109.968 447.256 110.304 446.68 110.976C446.12 111.648 445.84 112.608 445.84 113.856V120H443.296Z" fill="black"/>
<path d="M666.889 120V103.2H672.313C673.625 103.2 674.697 103.416 675.529 103.848C676.361 104.28 676.977 104.872 677.377 105.624C677.777 106.376 677.977 107.208 677.977 108.12C677.977 109.176 677.689 110.128 677.113 110.976C676.553 111.824 675.673 112.424 674.473 112.776L678.145 120H675.769L672.361 113.064H672.217H668.905V120H666.889ZM668.905 111.48H672.169C673.465 111.48 674.409 111.168 675.001 110.544C675.593 109.92 675.889 109.12 675.889 108.144C675.889 107.152 675.593 106.368 675.001 105.792C674.425 105.2 673.473 104.904 672.145 104.904H668.905V111.48ZM685.621 120.288C684.485 120.288 683.477 120.032 682.597 119.52C681.717 118.992 681.021 118.264 680.509 117.336C680.013 116.408 679.765 115.312 679.765 114.048C679.765 112.8 680.013 111.712 680.509 110.784C681.005 109.84 681.693 109.112 682.573 108.6C683.469 108.072 684.501 107.808 685.669 107.808C686.821 107.808 687.813 108.072 688.645 108.6C689.493 109.112 690.141 109.792 690.589 110.64C691.037 111.488 691.261 112.4 691.261 113.376C691.261 113.552 691.253 113.728 691.237 113.904C691.237 114.08 691.237 114.28 691.237 114.504H681.757C681.805 115.416 682.013 116.176 682.381 116.784C682.765 117.376 683.237 117.824 683.797 118.128C684.373 118.432 684.981 118.584 685.621 118.584C686.453 118.584 687.149 118.392 687.709 118.008C688.269 117.624 688.677 117.104 688.933 116.448H690.925C690.605 117.552 689.989 118.472 689.077 119.208C688.181 119.928 687.029 120.288 685.621 120.288ZM685.621 109.512C684.661 109.512 683.805 109.808 683.053 110.4C682.317 110.976 681.893 111.824 681.781 112.944H689.269C689.221 111.872 688.853 111.032 688.165 110.424C687.477 109.816 686.629 109.512 685.621 109.512ZM698.567 116.256C697.895 116.256 697.279 116.168 696.719 115.992L695.519 117.12C695.695 117.248 695.911 117.36 696.167 117.456C696.439 117.536 696.823 117.616 697.319 117.696C697.815 117.76 698.511 117.832 699.407 117.912C701.007 118.024 702.151 118.392 702.839 119.016C703.527 119.64 703.871 120.456 703.871 121.464C703.871 122.152 703.679 122.808 703.295 123.432C702.927 124.056 702.351 124.568 701.567 124.968C700.799 125.368 699.807 125.568 698.591 125.568C697.519 125.568 696.567 125.424 695.735 125.136C694.903 124.864 694.255 124.44 693.791 123.864C693.327 123.304 693.095 122.592 693.095 121.728C693.095 121.28 693.215 120.792 693.455 120.264C693.695 119.752 694.143 119.264 694.799 118.8C694.447 118.656 694.143 118.504 693.887 118.344C693.647 118.168 693.423 117.976 693.215 117.768V117.216L695.255 115.2C694.311 114.4 693.839 113.344 693.839 112.032C693.839 111.248 694.023 110.536 694.391 109.896C694.759 109.256 695.295 108.752 695.999 108.384C696.703 108 697.559 107.808 698.567 107.808C699.255 107.808 699.879 107.904 700.439 108.096H704.831V109.608L702.599 109.704C703.063 110.376 703.295 111.152 703.295 112.032C703.295 112.816 703.103 113.528 702.719 114.168C702.351 114.808 701.815 115.32 701.111 115.704C700.423 116.072 699.575 116.256 698.567 116.256ZM698.567 114.6C699.415 114.6 700.087 114.384 700.583 113.952C701.095 113.504 701.351 112.864 701.351 112.032C701.351 111.216 701.095 110.592 700.583 110.16C700.087 109.712 699.415 109.488 698.567 109.488C697.703 109.488 697.015 109.712 696.503 110.16C696.007 110.592 695.759 111.216 695.759 112.032C695.759 112.864 696.007 113.504 696.503 113.952C697.015 114.384 697.703 114.6 698.567 114.6ZM695.063 121.536C695.063 122.336 695.399 122.928 696.071 123.312C696.743 123.712 697.583 123.912 698.591 123.912C699.583 123.912 700.375 123.696 700.967 123.264C701.575 122.832 701.879 122.256 701.879 121.536C701.879 121.024 701.671 120.576 701.255 120.192C700.839 119.824 700.071 119.608 698.951 119.544C698.071 119.48 697.311 119.4 696.671 119.304C696.015 119.656 695.583 120.032 695.375 120.432C695.167 120.848 695.063 121.216 695.063 121.536ZM711.449 120.288C710.041 120.288 708.921 119.864 708.089 119.016C707.257 118.152 706.841 116.832 706.841 115.056V108.096H708.857V114.84C708.857 117.32 709.873 118.56 711.905 118.56C712.945 118.56 713.801 118.192 714.473 117.456C715.161 116.704 715.505 115.64 715.505 114.264V108.096H717.521V120H715.697L715.553 117.864C715.185 118.616 714.633 119.208 713.897 119.64C713.177 120.072 712.361 120.288 711.449 120.288ZM720.84 120V102.72H722.856V120H720.84ZM731.512 120.288C730.376 120.288 729.368 120.032 728.488 119.52C727.608 118.992 726.912 118.264 726.4 117.336C725.904 116.408 725.656 115.312 725.656 114.048C725.656 112.8 725.904 111.712 726.4 110.784C726.896 109.84 727.584 109.112 728.464 108.6C729.36 108.072 730.392 107.808 731.56 107.808C732.712 107.808 733.704 108.072 734.536 108.6C735.384 109.112 736.032 109.792 736.48 110.64C736.928 111.488 737.152 112.4 737.152 113.376C737.152 113.552 737.144 113.728 737.128 113.904C737.128 114.08 737.128 114.28 737.128 114.504H727.648C727.696 115.416 727.904 116.176 728.272 116.784C728.656 117.376 729.128 117.824 729.688 118.128C730.264 118.432 730.872 118.584 731.512 118.584C732.344 118.584 733.04 118.392 733.6 118.008C734.16 117.624 734.568 117.104 734.824 116.448H736.816C736.496 117.552 735.88 118.472 734.968 119.208C734.072 119.928 732.92 120.288 731.512 120.288ZM731.512 109.512C730.552 109.512 729.696 109.808 728.944 110.4C728.208 110.976 727.784 111.824 727.672 112.944H735.16C735.112 111.872 734.744 111.032 734.056 110.424C733.368 109.816 732.52 109.512 731.512 109.512ZM739.824 120V108.096H741.648L741.816 110.376C742.184 109.592 742.744 108.968 743.496 108.504C744.248 108.04 745.176 107.808 746.28 107.808V109.92H745.728C745.024 109.92 744.376 110.048 743.784 110.304C743.192 110.544 742.72 110.96 742.368 111.552C742.016 112.144 741.84 112.96 741.84 114V120H739.824Z" fill="black"/>
<path d="M4.33195 59V17H18.672C23.592 17 27.632 17.88 30.792 19.64C33.992 21.36 36.352 23.8 37.872 26.96C39.432 30.08 40.212 33.76 40.212 38C40.212 42.24 39.432 45.94 37.872 49.1C36.352 52.22 33.992 54.66 30.792 56.42C27.632 58.14 23.592 59 18.672 59H4.33195ZM12.012 52.4H18.312C21.832 52.4 24.612 51.84 26.652 50.72C28.692 49.56 30.152 47.92 31.032 45.8C31.912 43.64 32.352 41.04 32.352 38C32.352 35 31.912 32.42 31.032 30.26C30.152 28.1 28.692 26.44 26.652 25.28C24.612 24.12 21.832 23.54 18.312 23.54H12.012V52.4ZM46.9882 59V17H56.1082L69.4882 43.64L82.6882 17H91.8082V59H84.1282V30.02L72.4282 53H66.3682L54.6682 30.02V59H46.9882ZM128.594 59.72C125.514 59.72 122.794 59.2 120.434 58.16C118.074 57.08 116.214 55.56 114.854 53.6C113.494 51.6 112.794 49.18 112.754 46.34H120.854C120.934 48.3 121.634 49.96 122.954 51.32C124.314 52.64 126.174 53.3 128.534 53.3C130.574 53.3 132.194 52.82 133.394 51.86C134.594 50.86 135.194 49.54 135.194 47.9C135.194 46.18 134.654 44.84 133.574 43.88C132.534 42.92 131.134 42.14 129.374 41.54C127.614 40.94 125.734 40.3 123.734 39.62C120.494 38.5 118.014 37.06 116.294 35.3C114.614 33.54 113.774 31.2 113.774 28.28C113.734 25.8 114.314 23.68 115.514 21.92C116.754 20.12 118.434 18.74 120.554 17.78C122.674 16.78 125.114 16.28 127.874 16.28C130.674 16.28 133.134 16.78 135.254 17.78C137.414 18.78 139.094 20.18 140.294 21.98C141.534 23.78 142.194 25.92 142.274 28.4H134.054C134.014 26.92 133.434 25.62 132.314 24.5C131.234 23.34 129.714 22.76 127.754 22.76C126.074 22.72 124.654 23.14 123.494 24.02C122.374 24.86 121.814 26.1 121.814 27.74C121.814 29.14 122.254 30.26 123.134 31.1C124.014 31.9 125.214 32.58 126.734 33.14C128.254 33.7 129.994 34.3 131.954 34.94C134.034 35.66 135.934 36.5 137.654 37.46C139.374 38.42 140.754 39.7 141.794 41.3C142.834 42.86 143.354 44.88 143.354 47.36C143.354 49.56 142.794 51.6 141.674 53.48C140.554 55.36 138.894 56.88 136.694 58.04C134.494 59.16 131.794 59.72 128.594 59.72ZM160.135 59.72C157.575 59.72 155.475 59.32 153.835 58.52C152.195 57.68 150.975 56.58 150.175 55.22C149.375 53.86 148.975 52.36 148.975 50.72C148.975 47.96 150.055 45.72 152.215 44C154.375 42.28 157.615 41.42 161.935 41.42H169.495V40.7C169.495 38.66 168.915 37.16 167.755 36.2C166.595 35.24 165.155 34.76 163.435 34.76C161.875 34.76 160.515 35.14 159.355 35.9C158.195 36.62 157.475 37.7 157.195 39.14H149.695C149.895 36.98 150.615 35.1 151.855 33.5C153.135 31.9 154.775 30.68 156.775 29.84C158.775 28.96 161.015 28.52 163.495 28.52C167.735 28.52 171.075 29.58 173.515 31.7C175.955 33.82 177.175 36.82 177.175 40.7V59H170.635L169.915 54.2C169.035 55.8 167.795 57.12 166.195 58.16C164.635 59.2 162.615 59.72 160.135 59.72ZM161.875 53.72C164.075 53.72 165.775 53 166.975 51.56C168.215 50.12 168.995 48.34 169.315 46.22H162.775C160.735 46.22 159.275 46.6 158.395 47.36C157.515 48.08 157.075 48.98 157.075 50.06C157.075 51.22 157.515 52.12 158.395 52.76C159.275 53.4 160.435 53.72 161.875 53.72ZM184.504 59V29.24H191.284L191.884 34.28C192.804 32.52 194.124 31.12 195.844 30.08C197.604 29.04 199.664 28.52 202.024 28.52C205.704 28.52 208.564 29.68 210.604 32C212.644 34.32 213.664 37.72 213.664 42.2V59H205.984V42.92C205.984 40.36 205.464 38.4 204.424 37.04C203.384 35.68 201.764 35 199.564 35C197.404 35 195.624 35.76 194.224 37.28C192.864 38.8 192.184 40.92 192.184 43.64V59H184.504ZM233.307 59.72C230.667 59.72 228.347 59.3 226.347 58.46C224.347 57.58 222.747 56.38 221.547 54.86C220.347 53.34 219.627 51.58 219.387 49.58H227.127C227.367 50.74 228.007 51.74 229.047 52.58C230.127 53.38 231.507 53.78 233.187 53.78C234.867 53.78 236.087 53.44 236.847 52.76C237.647 52.08 238.047 51.3 238.047 50.42C238.047 49.14 237.487 48.28 236.367 47.84C235.247 47.36 233.687 46.9 231.687 46.46C230.407 46.18 229.107 45.84 227.787 45.44C226.467 45.04 225.247 44.54 224.127 43.94C223.047 43.3 222.167 42.5 221.487 41.54C220.807 40.54 220.467 39.32 220.467 37.88C220.467 35.24 221.507 33.02 223.587 31.22C225.707 29.42 228.667 28.52 232.467 28.52C235.987 28.52 238.787 29.34 240.867 30.98C242.987 32.62 244.247 34.88 244.647 37.76H237.387C236.947 35.56 235.287 34.46 232.407 34.46C230.967 34.46 229.847 34.74 229.047 35.3C228.287 35.86 227.907 36.56 227.907 37.4C227.907 38.28 228.487 38.98 229.647 39.5C230.807 40.02 232.347 40.5 234.267 40.94C236.347 41.42 238.247 41.96 239.967 42.56C241.727 43.12 243.127 43.98 244.167 45.14C245.207 46.26 245.727 47.88 245.727 50C245.767 51.84 245.287 53.5 244.287 54.98C243.287 56.46 241.847 57.62 239.967 58.46C238.087 59.3 235.867 59.72 233.307 59.72ZM267.008 65V15.8H274.688V65H267.008Z" fill="black"/>
<path d="M303.709 59V17H317.329C322.249 17 326.289 17.86 329.449 19.58C332.649 21.3 335.009 23.74 336.529 26.9C338.089 30.02 338.869 33.74 338.869 38.06C338.869 42.34 338.089 46.06 336.529 49.22C335.009 52.34 332.649 54.76 329.449 56.48C326.289 58.16 322.249 59 317.329 59H303.709ZM310.069 53.6H317.089C320.889 53.6 323.889 52.98 326.089 51.74C328.329 50.5 329.929 48.72 330.889 46.4C331.889 44.08 332.389 41.3 332.389 38.06C332.389 34.82 331.889 32.02 330.889 29.66C329.929 27.3 328.329 25.5 326.089 24.26C323.889 22.98 320.889 22.34 317.089 22.34H310.069V53.6ZM345.897 59V17H353.397L367.617 44.96L381.777 17H389.277V59H382.917V27.98L370.077 53H365.157L352.257 28.04V59H345.897ZM426.788 59.72C423.708 59.72 421.008 59.18 418.688 58.1C416.368 57.02 414.548 55.48 413.228 53.48C411.948 51.48 411.288 49.1 411.248 46.34H417.968C418.008 48.58 418.788 50.48 420.308 52.04C421.828 53.6 423.968 54.38 426.728 54.38C429.168 54.38 431.068 53.8 432.428 52.64C433.828 51.44 434.528 49.92 434.528 48.08C434.528 46.6 434.188 45.4 433.508 44.48C432.868 43.56 431.968 42.8 430.808 42.2C429.688 41.6 428.388 41.06 426.908 40.58C425.428 40.1 423.868 39.58 422.228 39.02C418.988 37.94 416.548 36.54 414.908 34.82C413.308 33.1 412.508 30.84 412.508 28.04C412.468 25.68 413.008 23.62 414.128 21.86C415.288 20.1 416.888 18.74 418.928 17.78C421.008 16.78 423.428 16.28 426.188 16.28C428.908 16.28 431.288 16.78 433.328 17.78C435.408 18.78 437.028 20.18 438.188 21.98C439.348 23.74 439.948 25.8 439.988 28.16H433.268C433.268 27.08 432.988 26.06 432.428 25.1C431.868 24.1 431.048 23.28 429.968 22.64C428.888 22 427.568 21.68 426.008 21.68C424.008 21.64 422.348 22.14 421.028 23.18C419.748 24.22 419.108 25.66 419.108 27.5C419.108 29.14 419.588 30.4 420.548 31.28C421.508 32.16 422.828 32.9 424.508 33.5C426.188 34.06 428.108 34.72 430.268 35.48C432.348 36.16 434.208 36.98 435.848 37.94C437.488 38.9 438.788 40.16 439.748 41.72C440.748 43.28 441.248 45.26 441.248 47.66C441.248 49.78 440.708 51.76 439.628 53.6C438.548 55.4 436.928 56.88 434.768 58.04C432.608 59.16 429.948 59.72 426.788 59.72ZM458.041 59.72C455.521 59.72 453.441 59.3 451.801 58.46C450.161 57.62 448.941 56.52 448.141 55.16C447.341 53.76 446.941 52.24 446.941 50.6C446.941 47.72 448.061 45.44 450.301 43.76C452.541 42.08 455.741 41.24 459.901 41.24H467.701V40.7C467.701 38.38 467.061 36.64 465.781 35.48C464.541 34.32 462.921 33.74 460.921 33.74C459.161 33.74 457.621 34.18 456.301 35.06C455.021 35.9 454.241 37.16 453.961 38.84H447.601C447.801 36.68 448.521 34.84 449.761 33.32C451.041 31.76 452.641 30.58 454.561 29.78C456.521 28.94 458.661 28.52 460.981 28.52C465.141 28.52 468.361 29.62 470.641 31.82C472.921 33.98 474.061 36.94 474.061 40.7V59H468.541L468.001 53.9C467.161 55.54 465.941 56.92 464.341 58.04C462.741 59.16 460.641 59.72 458.041 59.72ZM459.301 54.56C461.021 54.56 462.461 54.16 463.621 53.36C464.821 52.52 465.741 51.42 466.381 50.06C467.061 48.7 467.481 47.2 467.641 45.56H460.561C458.041 45.56 456.241 46 455.161 46.88C454.121 47.76 453.601 48.86 453.601 50.18C453.601 51.54 454.101 52.62 455.101 53.42C456.141 54.18 457.541 54.56 459.301 54.56ZM481.477 59V29.24H487.117L487.597 34.46C488.517 32.62 489.857 31.18 491.617 30.14C493.417 29.06 495.477 28.52 497.797 28.52C501.397 28.52 504.217 29.64 506.257 31.88C508.337 34.12 509.377 37.46 509.377 41.9V59H503.077V42.56C503.077 36.8 500.717 33.92 495.997 33.92C493.637 33.92 491.677 34.76 490.117 36.44C488.597 38.12 487.837 40.52 487.837 43.64V59H481.477ZM528.748 59.72C524.988 59.72 521.888 58.8 519.448 56.96C517.008 55.12 515.608 52.68 515.248 49.64H521.668C521.988 51 522.748 52.18 523.948 53.18C525.148 54.14 526.728 54.62 528.688 54.62C530.608 54.62 532.008 54.22 532.888 53.42C533.768 52.62 534.208 51.7 534.208 50.66C534.208 49.14 533.588 48.12 532.348 47.6C531.148 47.04 529.468 46.54 527.308 46.1C525.628 45.74 523.948 45.26 522.268 44.66C520.628 44.06 519.248 43.22 518.128 42.14C517.048 41.02 516.508 39.52 516.508 37.64C516.508 35.04 517.508 32.88 519.508 31.16C521.508 29.4 524.308 28.52 527.908 28.52C531.228 28.52 533.908 29.32 535.948 30.92C538.028 32.52 539.248 34.78 539.608 37.7H533.488C533.288 36.42 532.688 35.42 531.688 34.7C530.728 33.98 529.428 33.62 527.788 33.62C526.188 33.62 524.948 33.96 524.068 34.64C523.188 35.28 522.748 36.12 522.748 37.16C522.748 38.2 523.348 39.02 524.548 39.62C525.788 40.22 527.408 40.76 529.408 41.24C531.408 41.68 533.248 42.2 534.928 42.8C536.648 43.36 538.028 44.2 539.068 45.32C540.108 46.44 540.628 48.08 540.628 50.24C540.668 52.96 539.608 55.22 537.448 57.02C535.328 58.82 532.428 59.72 528.748 59.72ZM562.928 65V15.8H569.288V65H562.928Z" fill="black"/>
<path d="M598.469 59V17H611.369C618.769 17 624.209 18.88 627.689 22.64C631.209 26.4 632.969 31.56 632.969 38.12C632.969 44.56 631.209 49.66 627.689 53.42C624.209 57.14 618.769 59 611.369 59H598.469ZM603.509 54.8H611.249C615.329 54.8 618.569 54.14 620.969 52.82C623.409 51.46 625.149 49.54 626.189 47.06C627.229 44.54 627.749 41.56 627.749 38.12C627.749 34.6 627.229 31.58 626.189 29.06C625.149 26.54 623.409 24.6 620.969 23.24C618.569 21.88 615.329 21.2 611.249 21.2H603.509V54.8ZM640.247 59V17H646.127L661.247 46.28L676.247 17H682.187V59H677.147V26L663.107 53H659.327L645.287 26.06V59H640.247ZM720.306 59.72C717.226 59.72 714.546 59.16 712.266 58.04C709.986 56.92 708.226 55.36 706.986 53.36C705.746 51.36 705.126 49.04 705.126 46.4H710.406C710.406 48.04 710.786 49.56 711.546 50.96C712.306 52.32 713.406 53.42 714.846 54.26C716.326 55.06 718.146 55.46 720.306 55.46C723.146 55.46 725.346 54.78 726.906 53.42C728.466 52.06 729.246 50.36 729.246 48.32C729.246 46.64 728.886 45.3 728.166 44.3C727.446 43.26 726.466 42.42 725.226 41.78C724.026 41.14 722.626 40.58 721.026 40.1C719.466 39.62 717.826 39.08 716.106 38.48C712.866 37.36 710.466 35.98 708.906 34.34C707.346 32.66 706.566 30.48 706.566 27.8C706.526 25.56 707.046 23.58 708.126 21.86C709.206 20.1 710.726 18.74 712.686 17.78C714.686 16.78 717.046 16.28 719.766 16.28C722.446 16.28 724.766 16.78 726.726 17.78C728.726 18.78 730.266 20.16 731.346 21.92C732.466 23.68 733.046 25.68 733.086 27.92H727.806C727.806 26.76 727.506 25.62 726.906 24.5C726.306 23.34 725.386 22.4 724.146 21.68C722.946 20.96 721.426 20.6 719.586 20.6C717.306 20.56 715.426 21.14 713.946 22.34C712.506 23.54 711.786 25.2 711.786 27.32C711.786 29.12 712.286 30.5 713.286 31.46C714.326 32.42 715.766 33.22 717.606 33.86C719.446 34.46 721.566 35.16 723.966 35.96C725.966 36.68 727.766 37.52 729.366 38.48C730.966 39.44 732.206 40.68 733.086 42.2C734.006 43.72 734.466 45.66 734.466 48.02C734.466 50.02 733.946 51.92 732.906 53.72C731.866 55.48 730.286 56.92 728.166 58.04C726.086 59.16 723.466 59.72 720.306 59.72ZM751.214 59.72C748.734 59.72 746.674 59.3 745.034 58.46C743.394 57.62 742.174 56.5 741.374 55.1C740.574 53.7 740.174 52.18 740.174 50.54C740.174 47.5 741.334 45.16 743.654 43.52C745.974 41.88 749.134 41.06 753.134 41.06H761.174V40.7C761.174 38.1 760.494 36.14 759.134 34.82C757.774 33.46 755.954 32.78 753.674 32.78C751.714 32.78 750.014 33.28 748.574 34.28C747.174 35.24 746.294 36.66 745.934 38.54H740.774C740.974 36.38 741.694 34.56 742.934 33.08C744.214 31.6 745.794 30.48 747.674 29.72C749.554 28.92 751.554 28.52 753.674 28.52C757.834 28.52 760.954 29.64 763.034 31.88C765.154 34.08 766.214 37.02 766.214 40.7V59H761.714L761.414 53.66C760.574 55.34 759.334 56.78 757.694 57.98C756.094 59.14 753.934 59.72 751.214 59.72ZM751.994 55.46C753.914 55.46 755.554 54.96 756.914 53.96C758.314 52.96 759.374 51.66 760.094 50.06C760.814 48.46 761.174 46.78 761.174 45.02V44.96H753.554C750.594 44.96 748.494 45.48 747.254 46.52C746.054 47.52 745.454 48.78 745.454 50.3C745.454 51.86 746.014 53.12 747.134 54.08C748.294 55 749.914 55.46 751.994 55.46ZM773.775 59V29.24H778.335L778.635 34.58C779.595 32.7 780.975 31.22 782.775 30.14C784.575 29.06 786.615 28.52 788.895 28.52C792.415 28.52 795.215 29.6 797.295 31.76C799.415 33.88 800.475 37.16 800.475 41.6V59H795.435V42.14C795.435 35.94 792.875 32.84 787.755 32.84C785.195 32.84 783.055 33.78 781.335 35.66C779.655 37.5 778.815 40.14 778.815 43.58V59H773.775ZM819.511 59.72C815.951 59.72 812.991 58.82 810.631 57.02C808.271 55.22 806.891 52.78 806.491 49.7H811.651C811.971 51.26 812.791 52.62 814.111 53.78C815.471 54.9 817.291 55.46 819.571 55.46C821.691 55.46 823.251 55.02 824.251 54.14C825.251 53.22 825.751 52.14 825.751 50.9C825.751 49.1 825.091 47.9 823.771 47.3C822.491 46.7 820.671 46.16 818.311 45.68C816.711 45.36 815.111 44.9 813.511 44.3C811.911 43.7 810.571 42.86 809.491 41.78C808.411 40.66 807.871 39.2 807.871 37.4C807.871 34.8 808.831 32.68 810.751 31.04C812.711 29.36 815.351 28.52 818.671 28.52C821.831 28.52 824.411 29.32 826.411 30.92C828.451 32.48 829.631 34.72 829.951 37.64H824.971C824.771 36.12 824.111 34.94 822.991 34.1C821.911 33.22 820.451 32.78 818.611 32.78C816.811 32.78 815.411 33.16 814.411 33.92C813.451 34.68 812.971 35.68 812.971 36.92C812.971 38.12 813.591 39.06 814.831 39.74C816.111 40.42 817.831 41 819.991 41.48C821.831 41.88 823.571 42.38 825.211 42.98C826.891 43.54 828.251 44.4 829.291 45.56C830.371 46.68 830.911 48.32 830.911 50.48C830.951 53.16 829.931 55.38 827.851 57.14C825.811 58.86 823.031 59.72 819.511 59.72Z" fill="black"/>
</svg>
