<svg width="654" height="437" viewBox="0 0 654 437" fill="none" xmlns="http://www.w3.org/2000/svg">
<path d="M97.464 32V8.16H101.24V32H97.464ZM107.783 32V17.952H104.583V14.688H107.783V13.792C107.783 12.4907 108.049 11.4027 108.583 10.528C109.116 9.632 109.852 8.94933 110.791 8.48C111.751 8.01067 112.849 7.776 114.087 7.776C114.321 7.776 114.588 7.79733 114.887 7.84C115.185 7.86133 115.431 7.89333 115.623 7.936V11.072C115.452 11.0293 115.26 11.008 115.047 11.008C114.833 10.9867 114.663 10.976 114.535 10.976C113.575 10.976 112.807 11.2 112.231 11.648C111.655 12.0747 111.367 12.7893 111.367 13.792V14.688H115.335V17.952H111.367V32H107.783ZM122.54 32L130.924 8.16H135.596L143.98 32H139.948L138.124 26.656H128.428L126.572 32H122.54ZM129.516 23.296H136.972L132.748 10.816H133.804L129.516 23.296ZM146.456 32V14.688H149.912V18.08L149.496 17.632C149.922 16.544 150.605 15.7227 151.544 15.168C152.482 14.592 153.57 14.304 154.808 14.304C156.088 14.304 157.218 14.5813 158.2 15.136C159.181 15.6907 159.949 16.4587 160.504 17.44C161.058 18.4213 161.336 19.552 161.336 20.832V32H157.752V21.792C157.752 20.9173 157.592 20.1813 157.272 19.584C156.952 18.9653 156.493 18.496 155.896 18.176C155.32 17.8347 154.658 17.664 153.912 17.664C153.165 17.664 152.493 17.8347 151.896 18.176C151.32 18.496 150.872 18.9653 150.552 19.584C150.232 20.2027 150.072 20.9387 150.072 21.792V32H146.456ZM166.429 39.072C166.003 39.072 165.576 39.0293 165.149 38.944C164.744 38.88 164.371 38.7733 164.029 38.624V35.52C164.285 35.584 164.595 35.6373 164.957 35.68C165.32 35.744 165.672 35.776 166.013 35.776C167.016 35.776 167.752 35.552 168.221 35.104C168.712 34.6773 169.149 34.0053 169.533 33.088L170.685 30.464L170.621 33.504L163.133 14.688H167.005L172.541 29.12H171.229L176.733 14.688H180.637L172.989 33.888C172.584 34.912 172.072 35.808 171.453 36.576C170.856 37.3653 170.141 37.9733 169.309 38.4C168.499 38.848 167.539 39.072 166.429 39.072ZM191.152 32.384C189.488 32.384 187.962 31.9893 186.576 31.2C185.21 30.4107 184.122 29.3333 183.312 27.968C182.501 26.6027 182.096 25.056 182.096 23.328C182.096 21.5787 182.501 20.032 183.312 18.688C184.122 17.3227 185.21 16.256 186.576 15.488C187.941 14.6987 189.466 14.304 191.152 14.304C192.858 14.304 194.384 14.6987 195.728 15.488C197.093 16.256 198.17 17.3227 198.96 18.688C199.77 20.032 200.176 21.5787 200.176 23.328C200.176 25.0773 199.77 26.6347 198.96 28C198.149 29.3653 197.061 30.4427 195.696 31.232C194.33 32 192.816 32.384 191.152 32.384ZM191.152 29.024C192.176 29.024 193.082 28.7787 193.872 28.288C194.661 27.7973 195.28 27.1253 195.728 26.272C196.197 25.3973 196.432 24.416 196.432 23.328C196.432 22.24 196.197 21.2693 195.728 20.416C195.28 19.5627 194.661 18.8907 193.872 18.4C193.082 17.9093 192.176 17.664 191.152 17.664C190.149 17.664 189.242 17.9093 188.432 18.4C187.642 18.8907 187.013 19.5627 186.544 20.416C186.096 21.2693 185.872 22.24 185.872 23.328C185.872 24.416 186.096 25.3973 186.544 26.272C187.013 27.1253 187.642 27.7973 188.432 28.288C189.242 28.7787 190.149 29.024 191.152 29.024ZM203.706 32V14.688H207.162V18.08L206.746 17.632C207.172 16.544 207.855 15.7227 208.794 15.168C209.732 14.592 210.82 14.304 212.058 14.304C213.338 14.304 214.468 14.5813 215.45 15.136C216.431 15.6907 217.199 16.4587 217.754 17.44C218.308 18.4213 218.586 19.552 218.586 20.832V32H215.002V21.792C215.002 20.9173 214.842 20.1813 214.522 19.584C214.202 18.9653 213.743 18.496 213.146 18.176C212.57 17.8347 211.908 17.664 211.162 17.664C210.415 17.664 209.743 17.8347 209.146 18.176C208.57 18.496 208.122 18.9653 207.802 19.584C207.482 20.2027 207.322 20.9387 207.322 21.792V32H203.706ZM230.584 32.384C228.856 32.384 227.32 31.9893 225.976 31.2C224.653 30.3893 223.618 29.3013 222.872 27.936C222.125 26.5493 221.752 25.0027 221.752 23.296C221.752 21.5467 222.125 20 222.872 18.656C223.64 17.312 224.664 16.256 225.944 15.488C227.224 14.6987 228.674 14.304 230.296 14.304C231.597 14.304 232.76 14.528 233.784 14.976C234.808 15.424 235.672 16.0427 236.376 16.832C237.08 17.6 237.613 18.4853 237.976 19.488C238.36 20.4907 238.552 21.5573 238.552 22.688C238.552 22.9653 238.541 23.2533 238.52 23.552C238.498 23.8507 238.456 24.128 238.392 24.384H224.6V21.504H236.344L234.616 22.816C234.829 21.7707 234.754 20.8427 234.392 20.032C234.05 19.2 233.517 18.5493 232.792 18.08C232.088 17.5893 231.256 17.344 230.296 17.344C229.336 17.344 228.482 17.5893 227.736 18.08C226.989 18.5493 226.413 19.232 226.008 20.128C225.602 21.0027 225.442 22.0693 225.528 23.328C225.421 24.5013 225.581 25.5253 226.008 26.4C226.456 27.2747 227.074 27.9573 227.864 28.448C228.674 28.9387 229.592 29.184 230.616 29.184C231.661 29.184 232.546 28.9493 233.272 28.48C234.018 28.0107 234.605 27.4027 235.032 26.656L237.976 28.096C237.634 28.9067 237.101 29.6427 236.376 30.304C235.672 30.944 234.818 31.456 233.816 31.84C232.834 32.2027 231.757 32.384 230.584 32.384ZM252.475 32L245.915 8.16H249.915L255.227 28.8H254.235L259.739 8.16H263.675L269.179 28.8H268.155L273.499 8.16H277.467L270.939 32H266.683L261.147 11.68H262.267L256.699 32H252.475ZM283.827 32.384C282.654 32.384 281.619 32.1813 280.723 31.776C279.849 31.3493 279.166 30.7733 278.675 30.048C278.185 29.3013 277.939 28.4267 277.939 27.424C277.939 26.4853 278.142 25.6427 278.547 24.896C278.974 24.1493 279.625 23.52 280.499 23.008C281.374 22.496 282.473 22.1333 283.795 21.92L289.811 20.928V23.776L284.499 24.704C283.539 24.8747 282.835 25.184 282.387 25.632C281.939 26.0587 281.715 26.6133 281.715 27.296C281.715 27.9573 281.961 28.5013 282.451 28.928C282.963 29.3333 283.614 29.536 284.403 29.536C285.385 29.536 286.238 29.3227 286.963 28.896C287.71 28.4693 288.286 27.904 288.691 27.2C289.097 26.4747 289.299 25.6747 289.299 24.8V20.352C289.299 19.4987 288.979 18.8053 288.339 18.272C287.721 17.7173 286.889 17.44 285.843 17.44C284.883 17.44 284.041 17.696 283.315 18.208C282.611 18.6987 282.089 19.3387 281.747 20.128L278.739 18.624C279.059 17.7707 279.582 17.024 280.307 16.384C281.033 15.7227 281.875 15.2107 282.835 14.848C283.817 14.4853 284.851 14.304 285.939 14.304C287.305 14.304 288.51 14.56 289.555 15.072C290.622 15.584 291.443 16.2987 292.019 17.216C292.617 18.112 292.915 19.1573 292.915 20.352V32H289.459V28.864L290.195 28.96C289.79 29.664 289.267 30.272 288.627 30.784C288.009 31.296 287.294 31.6907 286.483 31.968C285.694 32.2453 284.809 32.384 283.827 32.384ZM297.143 32V14.688H300.599V18.08L300.183 17.632C300.61 16.544 301.293 15.7227 302.231 15.168C303.17 14.592 304.258 14.304 305.495 14.304C306.775 14.304 307.906 14.5813 308.887 15.136C309.869 15.6907 310.637 16.4587 311.191 17.44C311.746 18.4213 312.023 19.552 312.023 20.832V32H308.439V21.792C308.439 20.9173 308.279 20.1813 307.959 19.584C307.639 18.9653 307.181 18.496 306.583 18.176C306.007 17.8347 305.346 17.664 304.599 17.664C303.853 17.664 303.181 17.8347 302.583 18.176C302.007 18.496 301.559 18.9653 301.239 19.584C300.919 20.2027 300.759 20.9387 300.759 21.792V32H297.143ZM323.381 32.192C321.568 32.192 320.16 31.68 319.157 30.656C318.155 29.632 317.653 28.192 317.653 26.336V17.952H314.613V14.688H315.093C315.904 14.688 316.533 14.4533 316.981 13.984C317.429 13.5147 317.653 12.8747 317.653 12.064V10.72H321.269V14.688H325.205V17.952H321.269V26.176C321.269 26.7733 321.365 27.2853 321.557 27.712C321.749 28.1173 322.059 28.4373 322.485 28.672C322.912 28.8853 323.467 28.992 324.149 28.992C324.32 28.992 324.512 28.9813 324.725 28.96C324.939 28.9387 325.141 28.9173 325.333 28.896V32C325.035 32.0427 324.704 32.0853 324.341 32.128C323.979 32.1707 323.659 32.192 323.381 32.192ZM343.16 32.384C341.666 32.384 340.28 32.1067 339 31.552C337.72 30.976 336.632 30.1973 335.736 29.216C334.84 28.2347 334.178 27.104 333.752 25.824L336.952 24.48C337.528 25.952 338.37 27.0827 339.48 27.872C340.589 28.6613 341.869 29.056 343.32 29.056C344.173 29.056 344.92 28.928 345.56 28.672C346.2 28.3947 346.69 28.0107 347.032 27.52C347.394 27.0293 347.576 26.464 347.576 25.824C347.576 24.9493 347.33 24.256 346.84 23.744C346.349 23.232 345.624 22.8267 344.664 22.528L340.184 21.12C338.392 20.5653 337.026 19.7227 336.088 18.592C335.149 17.44 334.68 16.096 334.68 14.56C334.68 13.216 335.01 12.0427 335.672 11.04C336.333 10.016 337.24 9.216 338.392 8.64C339.565 8.064 340.898 7.776 342.392 7.776C343.821 7.776 345.122 8.032 346.296 8.544C347.469 9.03467 348.472 9.71733 349.304 10.592C350.157 11.4667 350.776 12.48 351.16 13.632L348.024 15.008C347.554 13.7493 346.818 12.7787 345.816 12.096C344.834 11.4133 343.693 11.072 342.392 11.072C341.602 11.072 340.909 11.2107 340.312 11.488C339.714 11.744 339.245 12.128 338.904 12.64C338.584 13.1307 338.424 13.7067 338.424 14.368C338.424 15.136 338.669 15.8187 339.16 16.416C339.65 17.0133 340.397 17.4613 341.4 17.76L345.56 19.072C347.458 19.648 348.888 20.48 349.848 21.568C350.808 22.6347 351.288 23.968 351.288 25.568C351.288 26.8907 350.936 28.064 350.232 29.088C349.549 30.112 348.6 30.9227 347.384 31.52C346.168 32.096 344.76 32.384 343.16 32.384ZM363.303 32.384C361.575 32.384 360.039 31.9893 358.695 31.2C357.372 30.3893 356.337 29.3013 355.591 27.936C354.844 26.5493 354.471 25.0027 354.471 23.296C354.471 21.5467 354.844 20 355.591 18.656C356.359 17.312 357.383 16.256 358.663 15.488C359.943 14.6987 361.393 14.304 363.015 14.304C364.316 14.304 365.479 14.528 366.503 14.976C367.527 15.424 368.391 16.0427 369.095 16.832C369.799 17.6 370.332 18.4853 370.694 19.488C371.079 20.4907 371.271 21.5573 371.271 22.688C371.271 22.9653 371.26 23.2533 371.239 23.552C371.217 23.8507 371.175 24.128 371.111 24.384H357.319V21.504H369.062L367.335 22.816C367.548 21.7707 367.473 20.8427 367.111 20.032C366.769 19.2 366.236 18.5493 365.511 18.08C364.807 17.5893 363.975 17.344 363.015 17.344C362.055 17.344 361.201 17.5893 360.455 18.08C359.708 18.5493 359.132 19.232 358.727 20.128C358.321 21.0027 358.161 22.0693 358.247 23.328C358.14 24.5013 358.3 25.5253 358.727 26.4C359.175 27.2747 359.793 27.9573 360.583 28.448C361.393 28.9387 362.311 29.184 363.335 29.184C364.38 29.184 365.265 28.9493 365.991 28.48C366.737 28.0107 367.324 27.4027 367.751 26.656L370.694 28.096C370.353 28.9067 369.82 29.6427 369.095 30.304C368.391 30.944 367.537 31.456 366.535 31.84C365.553 32.2027 364.476 32.384 363.303 32.384ZM382.928 32.384C381.2 32.384 379.664 31.9893 378.32 31.2C376.997 30.3893 375.962 29.3013 375.216 27.936C374.469 26.5493 374.096 25.0027 374.096 23.296C374.096 21.5467 374.469 20 375.216 18.656C375.984 17.312 377.008 16.256 378.288 15.488C379.568 14.6987 381.018 14.304 382.64 14.304C383.941 14.304 385.104 14.528 386.128 14.976C387.152 15.424 388.016 16.0427 388.72 16.832C389.424 17.6 389.957 18.4853 390.319 19.488C390.704 20.4907 390.896 21.5573 390.896 22.688C390.896 22.9653 390.885 23.2533 390.864 23.552C390.842 23.8507 390.8 24.128 390.736 24.384H376.944V21.504H388.688L386.96 22.816C387.173 21.7707 387.098 20.8427 386.736 20.032C386.394 19.2 385.861 18.5493 385.136 18.08C384.432 17.5893 383.6 17.344 382.64 17.344C381.68 17.344 380.826 17.5893 380.08 18.08C379.333 18.5493 378.757 19.232 378.352 20.128C377.946 21.0027 377.786 22.0693 377.872 23.328C377.765 24.5013 377.925 25.5253 378.352 26.4C378.8 27.2747 379.418 27.9573 380.208 28.448C381.018 28.9387 381.936 29.184 382.96 29.184C384.005 29.184 384.89 28.9493 385.616 28.48C386.362 28.0107 386.949 27.4027 387.376 26.656L390.319 28.096C389.978 28.9067 389.445 29.6427 388.72 30.304C388.016 30.944 387.162 31.456 386.16 31.84C385.178 32.2027 384.101 32.384 382.928 32.384ZM400.37 32V8.16H404.146V28.64H414.45V32H400.37ZM422.452 32.384C421.279 32.384 420.244 32.1813 419.348 31.776C418.474 31.3493 417.791 30.7733 417.3 30.048C416.81 29.3013 416.564 28.4267 416.564 27.424C416.564 26.4853 416.767 25.6427 417.172 24.896C417.599 24.1493 418.25 23.52 419.124 23.008C419.999 22.496 421.098 22.1333 422.42 21.92L428.436 20.928V23.776L423.124 24.704C422.164 24.8747 421.46 25.184 421.012 25.632C420.564 26.0587 420.34 26.6133 420.34 27.296C420.34 27.9573 420.586 28.5013 421.076 28.928C421.588 29.3333 422.239 29.536 423.028 29.536C424.01 29.536 424.863 29.3227 425.588 28.896C426.335 28.4693 426.911 27.904 427.316 27.2C427.722 26.4747 427.924 25.6747 427.924 24.8V20.352C427.924 19.4987 427.604 18.8053 426.964 18.272C426.346 17.7173 425.514 17.44 424.468 17.44C423.508 17.44 422.666 17.696 421.94 18.208C421.236 18.6987 420.714 19.3387 420.372 20.128L417.364 18.624C417.684 17.7707 418.207 17.024 418.932 16.384C419.658 15.7227 420.5 15.2107 421.46 14.848C422.442 14.4853 423.476 14.304 424.564 14.304C425.93 14.304 427.135 14.56 428.18 15.072C429.247 15.584 430.068 16.2987 430.644 17.216C431.242 18.112 431.54 19.1573 431.54 20.352V32H428.084V28.864L428.82 28.96C428.415 29.664 427.892 30.272 427.252 30.784C426.634 31.296 425.919 31.6907 425.108 31.968C424.319 32.2453 423.434 32.384 422.452 32.384ZM442.944 32.192C441.13 32.192 439.722 31.68 438.72 30.656C437.717 29.632 437.216 28.192 437.216 26.336V17.952H434.176V14.688H434.656C435.466 14.688 436.096 14.4533 436.544 13.984C436.992 13.5147 437.216 12.8747 437.216 12.064V10.72H440.832V14.688H444.768V17.952H440.832V26.176C440.832 26.7733 440.928 27.2853 441.12 27.712C441.312 28.1173 441.621 28.4373 442.048 28.672C442.474 28.8853 443.029 28.992 443.712 28.992C443.882 28.992 444.074 28.9813 444.288 28.96C444.501 28.9387 444.704 28.9173 444.896 28.896V32C444.597 32.0427 444.266 32.0853 443.904 32.128C443.541 32.1707 443.221 32.192 442.944 32.192ZM456.24 32.384C454.512 32.384 452.976 31.9893 451.632 31.2C450.309 30.3893 449.275 29.3013 448.528 27.936C447.781 26.5493 447.408 25.0027 447.408 23.296C447.408 21.5467 447.781 20 448.528 18.656C449.296 17.312 450.32 16.256 451.6 15.488C452.88 14.6987 454.331 14.304 455.952 14.304C457.253 14.304 458.416 14.528 459.44 14.976C460.464 15.424 461.328 16.0427 462.032 16.832C462.736 17.6 463.269 18.4853 463.632 19.488C464.016 20.4907 464.208 21.5573 464.208 22.688C464.208 22.9653 464.197 23.2533 464.176 23.552C464.155 23.8507 464.112 24.128 464.048 24.384H450.256V21.504H462L460.272 22.816C460.485 21.7707 460.411 20.8427 460.048 20.032C459.707 19.2 459.173 18.5493 458.448 18.08C457.744 17.5893 456.912 17.344 455.952 17.344C454.992 17.344 454.139 17.5893 453.392 18.08C452.645 18.5493 452.069 19.232 451.664 20.128C451.259 21.0027 451.099 22.0693 451.184 23.328C451.077 24.5013 451.237 25.5253 451.664 26.4C452.112 27.2747 452.731 27.9573 453.52 28.448C454.331 28.9387 455.248 29.184 456.272 29.184C457.317 29.184 458.203 28.9493 458.928 28.48C459.675 28.0107 460.261 27.4027 460.688 26.656L463.632 28.096C463.291 28.9067 462.757 29.6427 462.032 30.304C461.328 30.944 460.475 31.456 459.472 31.84C458.491 32.2027 457.413 32.384 456.24 32.384ZM474.137 32.384C472.366 32.384 470.809 31.9467 469.465 31.072C468.142 30.1973 467.214 29.024 466.681 27.552L469.465 26.24C469.934 27.2213 470.574 28 471.385 28.576C472.217 29.152 473.134 29.44 474.137 29.44C474.99 29.44 475.684 29.248 476.217 28.864C476.75 28.48 477.017 27.9573 477.017 27.296C477.017 26.8693 476.9 26.528 476.665 26.272C476.43 25.9947 476.132 25.7707 475.769 25.6C475.428 25.4293 475.076 25.3013 474.713 25.216L471.993 24.448C470.5 24.0213 469.38 23.3813 468.633 22.528C467.908 21.6533 467.545 20.64 467.545 19.488C467.545 18.4427 467.812 17.536 468.345 16.768C468.878 15.9787 469.614 15.3707 470.553 14.944C471.492 14.5173 472.548 14.304 473.721 14.304C475.3 14.304 476.708 14.6987 477.945 15.488C479.182 16.256 480.057 17.3333 480.569 18.72L477.785 20.032C477.444 19.2 476.9 18.5387 476.153 18.048C475.428 17.5573 474.606 17.312 473.689 17.312C472.9 17.312 472.27 17.504 471.801 17.888C471.332 18.2507 471.097 18.7307 471.097 19.328C471.097 19.7333 471.204 20.0747 471.417 20.352C471.63 20.608 471.908 20.8213 472.249 20.992C472.59 21.1413 472.942 21.2693 473.305 21.376L476.121 22.208C477.55 22.6133 478.649 23.2533 479.417 24.128C480.185 24.9813 480.569 26.0053 480.569 27.2C480.569 28.224 480.292 29.1307 479.737 29.92C479.204 30.688 478.457 31.296 477.497 31.744C476.537 32.1707 475.417 32.384 474.137 32.384ZM491.6 32.192C489.787 32.192 488.379 31.68 487.376 30.656C486.373 29.632 485.872 28.192 485.872 26.336V17.952H482.832V14.688H483.312C484.123 14.688 484.752 14.4533 485.2 13.984C485.648 13.5147 485.872 12.8747 485.872 12.064V10.72H489.488V14.688H493.424V17.952H489.488V26.176C489.488 26.7733 489.584 27.2853 489.776 27.712C489.968 28.1173 490.277 28.4373 490.704 28.672C491.131 28.8853 491.685 28.992 492.368 28.992C492.539 28.992 492.731 28.9813 492.944 28.96C493.157 28.9387 493.36 28.9173 493.552 28.896V32C493.253 32.0427 492.923 32.0853 492.56 32.128C492.197 32.1707 491.877 32.192 491.6 32.192ZM503.027 32V8.16H506.547L515.507 20.576H513.747L522.547 8.16H526.067V32H522.323V12.608L523.731 12.992L514.739 25.28H514.355L505.555 12.992L506.803 12.608V32H503.027ZM538.995 32.384C537.331 32.384 535.806 31.9893 534.419 31.2C533.054 30.4107 531.966 29.3333 531.155 27.968C530.345 26.6027 529.939 25.056 529.939 23.328C529.939 21.5787 530.345 20.032 531.155 18.688C531.966 17.3227 533.054 16.256 534.419 15.488C535.785 14.6987 537.31 14.304 538.995 14.304C540.702 14.304 542.227 14.6987 543.571 15.488C544.937 16.256 546.014 17.3227 546.803 18.688C547.614 20.032 548.019 21.5787 548.019 23.328C548.019 25.0773 547.614 26.6347 546.803 28C545.993 29.3653 544.905 30.4427 543.539 31.232C542.174 32 540.659 32.384 538.995 32.384ZM538.995 29.024C540.019 29.024 540.926 28.7787 541.715 28.288C542.505 27.7973 543.123 27.1253 543.571 26.272C544.041 25.3973 544.275 24.416 544.275 23.328C544.275 22.24 544.041 21.2693 543.571 20.416C543.123 19.5627 542.505 18.8907 541.715 18.4C540.926 17.9093 540.019 17.664 538.995 17.664C537.993 17.664 537.086 17.9093 536.275 18.4C535.486 18.8907 534.857 19.5627 534.387 20.416C533.939 21.2693 533.715 22.24 533.715 23.328C533.715 24.416 533.939 25.3973 534.387 26.272C534.857 27.1253 535.486 27.7973 536.275 28.288C537.086 28.7787 537.993 29.024 538.995 29.024ZM556.261 32L549.477 14.688H553.413L558.629 28.8H557.189L562.405 14.688H566.373L559.557 32H556.261ZM568.831 32V14.688H572.447V32H568.831ZM568.831 12.32V8.16H572.447V12.32H568.831ZM584.803 32.384C583.075 32.384 581.539 31.9893 580.195 31.2C578.872 30.3893 577.837 29.3013 577.091 27.936C576.344 26.5493 575.971 25.0027 575.971 23.296C575.971 21.5467 576.344 20 577.091 18.656C577.859 17.312 578.883 16.256 580.163 15.488C581.443 14.6987 582.893 14.304 584.515 14.304C585.816 14.304 586.979 14.528 588.003 14.976C589.027 15.424 589.891 16.0427 590.595 16.832C591.299 17.6 591.832 18.4853 592.194 19.488C592.579 20.4907 592.771 21.5573 592.771 22.688C592.771 22.9653 592.76 23.2533 592.739 23.552C592.717 23.8507 592.675 24.128 592.611 24.384H578.819V21.504H590.562L588.835 22.816C589.048 21.7707 588.973 20.8427 588.611 20.032C588.269 19.2 587.736 18.5493 587.011 18.08C586.307 17.5893 585.475 17.344 584.515 17.344C583.555 17.344 582.701 17.5893 581.955 18.08C581.208 18.5493 580.632 19.232 580.227 20.128C579.821 21.0027 579.661 22.0693 579.747 23.328C579.64 24.5013 579.8 25.5253 580.227 26.4C580.675 27.2747 581.293 27.9573 582.083 28.448C582.893 28.9387 583.811 29.184 584.835 29.184C585.88 29.184 586.765 28.9493 587.491 28.48C588.237 28.0107 588.824 27.4027 589.251 26.656L592.194 28.096C591.853 28.9067 591.32 29.6427 590.595 30.304C589.891 30.944 589.037 31.456 588.035 31.84C587.053 32.2027 585.976 32.384 584.803 32.384Z" fill="black"/>
<path d="M196.704 59.264L194.784 57.848L196.536 55.472L193.776 54.536L194.52 52.28L197.28 53.192V50.12H199.68V53.192L202.44 52.28L203.184 54.536L200.424 55.472L202.176 57.848L200.232 59.264L198.48 56.888L196.704 59.264ZM206.689 68V50.12H209.953V68H206.689ZM213.128 68V54.944H216.08V57.512L215.84 57.056C216.144 56.272 216.64 55.68 217.328 55.28C218.032 54.864 218.848 54.656 219.776 54.656C220.736 54.656 221.584 54.864 222.32 55.28C223.072 55.696 223.656 56.28 224.072 57.032C224.488 57.768 224.696 58.624 224.696 59.6V68H221.552V60.344C221.552 59.768 221.44 59.272 221.216 58.856C220.992 58.44 220.68 58.12 220.28 57.896C219.896 57.656 219.44 57.536 218.912 57.536C218.4 57.536 217.944 57.656 217.544 57.896C217.144 58.12 216.832 58.44 216.608 58.856C216.384 59.272 216.272 59.768 216.272 60.344V68H213.128ZM240.284 68.288C239.004 68.288 237.82 68.056 236.732 67.592C235.66 67.128 234.716 66.48 233.9 65.648C233.1 64.816 232.476 63.84 232.028 62.72C231.58 61.6 231.356 60.376 231.356 59.048C231.356 57.72 231.572 56.496 232.004 55.376C232.452 54.24 233.076 53.264 233.876 52.448C234.692 51.616 235.644 50.976 236.732 50.528C237.82 50.064 239.004 49.832 240.284 49.832C241.564 49.832 242.708 50.048 243.716 50.48C244.74 50.912 245.604 51.488 246.308 52.208C247.012 52.912 247.516 53.688 247.82 54.536L244.892 55.904C244.556 55.008 243.988 54.272 243.188 53.696C242.388 53.104 241.42 52.808 240.284 52.808C239.164 52.808 238.172 53.072 237.308 53.6C236.46 54.128 235.796 54.856 235.316 55.784C234.852 56.712 234.62 57.8 234.62 59.048C234.62 60.296 234.852 61.392 235.316 62.336C235.796 63.264 236.46 63.992 237.308 64.52C238.172 65.048 239.164 65.312 240.284 65.312C241.42 65.312 242.388 65.024 243.188 64.448C243.988 63.856 244.556 63.112 244.892 62.216L247.82 63.584C247.516 64.432 247.012 65.216 246.308 65.936C245.604 66.64 244.74 67.208 243.716 67.64C242.708 68.072 241.564 68.288 240.284 68.288ZM254.862 68.288C253.854 68.288 252.974 68.064 252.222 67.616C251.486 67.168 250.918 66.544 250.518 65.744C250.134 64.944 249.942 64.008 249.942 62.936V54.944H253.086V62.672C253.086 63.216 253.19 63.696 253.398 64.112C253.622 64.512 253.934 64.832 254.334 65.072C254.75 65.296 255.214 65.408 255.726 65.408C256.238 65.408 256.694 65.296 257.094 65.072C257.494 64.832 257.806 64.504 258.03 64.088C258.254 63.672 258.366 63.176 258.366 62.6V54.944H261.51V68H258.534V65.432L258.798 65.888C258.494 66.688 257.99 67.288 257.286 67.688C256.598 68.088 255.79 68.288 254.862 68.288ZM264.433 68V54.944H267.385V57.848L267.145 57.416C267.449 56.44 267.921 55.76 268.561 55.376C269.217 54.992 270.001 54.8 270.913 54.8H271.681V57.584H270.553C269.657 57.584 268.937 57.864 268.393 58.424C267.849 58.968 267.577 59.736 267.577 60.728V68H264.433ZM273.409 68V54.944H276.361V57.848L276.121 57.416C276.425 56.44 276.897 55.76 277.537 55.376C278.193 54.992 278.977 54.8 279.889 54.8H280.657V57.584H279.529C278.633 57.584 277.913 57.864 277.369 58.424C276.825 58.968 276.553 59.736 276.553 60.728V68H273.409ZM288.578 68.288C287.234 68.288 286.058 67.984 285.05 67.376C284.042 66.768 283.258 65.944 282.698 64.904C282.138 63.864 281.858 62.712 281.858 61.448C281.858 60.136 282.138 58.976 282.698 57.968C283.274 56.944 284.05 56.136 285.026 55.544C286.018 54.952 287.122 54.656 288.338 54.656C289.362 54.656 290.258 54.824 291.026 55.16C291.81 55.496 292.474 55.96 293.018 56.552C293.562 57.144 293.978 57.824 294.266 58.592C294.554 59.344 294.698 60.16 294.698 61.04C294.698 61.264 294.682 61.496 294.65 61.736C294.634 61.976 294.594 62.184 294.53 62.36H284.45V59.96H292.754L291.266 61.088C291.41 60.352 291.37 59.696 291.146 59.12C290.938 58.544 290.586 58.088 290.09 57.752C289.61 57.416 289.026 57.248 288.338 57.248C287.682 57.248 287.098 57.416 286.586 57.752C286.074 58.072 285.682 58.552 285.41 59.192C285.154 59.816 285.058 60.576 285.122 61.472C285.058 62.272 285.162 62.984 285.434 63.608C285.722 64.216 286.138 64.688 286.682 65.024C287.242 65.36 287.882 65.528 288.602 65.528C289.322 65.528 289.93 65.376 290.426 65.072C290.938 64.768 291.338 64.36 291.626 63.848L294.17 65.096C293.914 65.72 293.514 66.272 292.97 66.752C292.426 67.232 291.778 67.608 291.026 67.88C290.29 68.152 289.474 68.288 288.578 68.288ZM297.081 68V54.944H300.033V57.512L299.793 57.056C300.097 56.272 300.593 55.68 301.281 55.28C301.985 54.864 302.801 54.656 303.729 54.656C304.689 54.656 305.537 54.864 306.273 55.28C307.025 55.696 307.609 56.28 308.025 57.032C308.441 57.768 308.649 58.624 308.649 59.6V68H305.505V60.344C305.505 59.768 305.393 59.272 305.169 58.856C304.945 58.44 304.633 58.12 304.233 57.896C303.849 57.656 303.393 57.536 302.865 57.536C302.353 57.536 301.897 57.656 301.497 57.896C301.097 58.12 300.785 58.44 300.561 58.856C300.337 59.272 300.225 59.768 300.225 60.344V68H297.081ZM317.26 68.144C315.788 68.144 314.644 67.744 313.828 66.944C313.028 66.128 312.628 64.984 312.628 63.512V57.752H310.372V54.944H310.612C311.252 54.944 311.748 54.776 312.1 54.44C312.452 54.104 312.628 53.616 312.628 52.976V51.968H315.772V54.944H318.772V57.752H315.772V63.344C315.772 63.776 315.844 64.144 315.988 64.448C316.148 64.752 316.388 64.984 316.708 65.144C317.044 65.304 317.468 65.384 317.98 65.384C318.092 65.384 318.22 65.376 318.364 65.36C318.524 65.344 318.676 65.328 318.82 65.312V68C318.596 68.032 318.34 68.064 318.052 68.096C317.764 68.128 317.5 68.144 317.26 68.144ZM324.287 68L330.455 50.12H334.679L340.847 68H337.295L336.023 64.16H329.111L327.815 68H324.287ZM330.047 61.28H335.087L332.111 52.376H333.023L330.047 61.28ZM342.573 72.8V54.944H345.525V57.536L345.237 56.888C345.685 56.184 346.293 55.64 347.061 55.256C347.829 54.856 348.717 54.656 349.725 54.656C350.957 54.656 352.069 54.96 353.061 55.568C354.053 56.176 354.837 56.992 355.413 58.016C356.005 59.04 356.301 60.192 356.301 61.472C356.301 62.736 356.013 63.888 355.437 64.928C354.861 65.968 354.077 66.792 353.085 67.4C352.093 67.992 350.965 68.288 349.701 68.288C348.757 68.288 347.885 68.104 347.085 67.736C346.301 67.352 345.677 66.808 345.213 66.104L345.717 65.48V72.8H342.573ZM349.341 65.408C350.061 65.408 350.701 65.24 351.261 64.904C351.821 64.568 352.253 64.104 352.557 63.512C352.877 62.92 353.037 62.24 353.037 61.472C353.037 60.704 352.877 60.032 352.557 59.456C352.253 58.864 351.821 58.4 351.261 58.064C350.701 57.712 350.061 57.536 349.341 57.536C348.653 57.536 348.029 57.704 347.469 58.04C346.925 58.376 346.493 58.848 346.173 59.456C345.869 60.048 345.717 60.72 345.717 61.472C345.717 62.24 345.869 62.92 346.173 63.512C346.493 64.104 346.925 64.568 347.469 64.904C348.029 65.24 348.653 65.408 349.341 65.408ZM358.698 72.8V54.944H361.65V57.536L361.362 56.888C361.81 56.184 362.418 55.64 363.186 55.256C363.954 54.856 364.842 54.656 365.85 54.656C367.082 54.656 368.194 54.96 369.186 55.568C370.178 56.176 370.962 56.992 371.538 58.016C372.13 59.04 372.426 60.192 372.426 61.472C372.426 62.736 372.138 63.888 371.562 64.928C370.986 65.968 370.202 66.792 369.21 67.4C368.218 67.992 367.09 68.288 365.826 68.288C364.882 68.288 364.01 68.104 363.21 67.736C362.426 67.352 361.802 66.808 361.338 66.104L361.842 65.48V72.8H358.698ZM365.466 65.408C366.186 65.408 366.826 65.24 367.386 64.904C367.946 64.568 368.378 64.104 368.682 63.512C369.002 62.92 369.162 62.24 369.162 61.472C369.162 60.704 369.002 60.032 368.682 59.456C368.378 58.864 367.946 58.4 367.386 58.064C366.826 57.712 366.186 57.536 365.466 57.536C364.778 57.536 364.154 57.704 363.594 58.04C363.05 58.376 362.618 58.848 362.298 59.456C361.994 60.048 361.842 60.72 361.842 61.472C361.842 62.24 361.994 62.92 362.298 63.512C362.618 64.104 363.05 64.568 363.594 64.904C364.154 65.24 364.778 65.408 365.466 65.408ZM374.823 68V49.832H377.967V68H374.823ZM380.87 68V54.944H384.014V68H380.87ZM380.87 53.48V50.12H384.014V53.48H380.87ZM393.205 68.288C391.909 68.288 390.741 67.992 389.701 67.4C388.677 66.792 387.869 65.976 387.277 64.952C386.685 63.912 386.389 62.744 386.389 61.448C386.389 60.152 386.685 58.992 387.277 57.968C387.869 56.944 388.677 56.136 389.701 55.544C390.741 54.952 391.909 54.656 393.205 54.656C394.133 54.656 394.997 54.824 395.797 55.16C396.597 55.48 397.285 55.928 397.861 56.504C398.453 57.064 398.877 57.736 399.133 58.52L396.373 59.72C396.133 59.064 395.725 58.536 395.149 58.136C394.589 57.736 393.941 57.536 393.205 57.536C392.517 57.536 391.901 57.704 391.357 58.04C390.829 58.376 390.413 58.84 390.109 59.432C389.805 60.024 389.653 60.704 389.653 61.472C389.653 62.24 389.805 62.92 390.109 63.512C390.413 64.104 390.829 64.568 391.357 64.904C391.901 65.24 392.517 65.408 393.205 65.408C393.957 65.408 394.613 65.208 395.173 64.808C395.733 64.408 396.133 63.872 396.373 63.2L399.133 64.448C398.877 65.184 398.461 65.848 397.885 66.44C397.309 67.016 396.621 67.472 395.821 67.808C395.021 68.128 394.149 68.288 393.205 68.288ZM405.432 68.288C404.52 68.288 403.728 68.136 403.056 67.832C402.384 67.528 401.864 67.096 401.496 66.536C401.128 65.96 400.944 65.296 400.944 64.544C400.944 63.824 401.104 63.184 401.424 62.624C401.744 62.048 402.24 61.568 402.912 61.184C403.584 60.8 404.432 60.528 405.456 60.368L409.728 59.672V62.072L406.056 62.696C405.432 62.808 404.968 63.008 404.664 63.296C404.36 63.584 404.208 63.96 404.208 64.424C404.208 64.872 404.376 65.232 404.712 65.504C405.064 65.76 405.496 65.888 406.008 65.888C406.664 65.888 407.24 65.752 407.736 65.48C408.248 65.192 408.64 64.8 408.912 64.304C409.2 63.808 409.344 63.264 409.344 62.672V59.312C409.344 58.752 409.12 58.288 408.672 57.92C408.24 57.536 407.664 57.344 406.944 57.344C406.272 57.344 405.672 57.528 405.144 57.896C404.632 58.248 404.256 58.72 404.016 59.312L401.448 58.064C401.704 57.376 402.104 56.784 402.648 56.288C403.208 55.776 403.864 55.376 404.616 55.088C405.368 54.8 406.184 54.656 407.064 54.656C408.136 54.656 409.08 54.856 409.896 55.256C410.712 55.64 411.344 56.184 411.792 56.888C412.256 57.576 412.488 58.384 412.488 59.312V68H409.512V65.768L410.184 65.72C409.848 66.28 409.448 66.752 408.984 67.136C408.52 67.504 407.992 67.792 407.4 68C406.808 68.192 406.152 68.288 405.432 68.288ZM421.111 68.144C419.639 68.144 418.495 67.744 417.679 66.944C416.879 66.128 416.479 64.984 416.479 63.512V57.752H414.223V54.944H414.463C415.103 54.944 415.599 54.776 415.951 54.44C416.303 54.104 416.479 53.616 416.479 52.976V51.968H419.623V54.944H422.623V57.752H419.623V63.344C419.623 63.776 419.695 64.144 419.839 64.448C419.999 64.752 420.239 64.984 420.559 65.144C420.895 65.304 421.319 65.384 421.831 65.384C421.943 65.384 422.071 65.376 422.215 65.36C422.375 65.344 422.527 65.328 422.671 65.312V68C422.447 68.032 422.191 68.064 421.903 68.096C421.615 68.128 421.351 68.144 421.111 68.144ZM425.073 68V54.944H428.217V68H425.073ZM425.073 53.48V50.12H428.217V53.48H425.073ZM437.504 68.288C436.224 68.288 435.056 67.992 434 67.4C432.96 66.808 432.128 66 431.504 64.976C430.896 63.952 430.592 62.784 430.592 61.472C430.592 60.16 430.896 58.992 431.504 57.968C432.128 56.944 432.96 56.136 434 55.544C435.04 54.952 436.208 54.656 437.504 54.656C438.784 54.656 439.944 54.952 440.984 55.544C442.024 56.136 442.848 56.944 443.456 57.968C444.08 58.976 444.392 60.144 444.392 61.472C444.392 62.784 444.08 63.952 443.456 64.976C442.832 66 442 66.808 440.96 67.4C439.92 67.992 438.768 68.288 437.504 68.288ZM437.504 65.408C438.208 65.408 438.824 65.24 439.352 64.904C439.896 64.568 440.32 64.104 440.624 63.512C440.944 62.904 441.104 62.224 441.104 61.472C441.104 60.704 440.944 60.032 440.624 59.456C440.32 58.864 439.896 58.4 439.352 58.064C438.824 57.712 438.208 57.536 437.504 57.536C436.784 57.536 436.152 57.712 435.608 58.064C435.064 58.4 434.632 58.864 434.312 59.456C434.008 60.032 433.856 60.704 433.856 61.472C433.856 62.224 434.008 62.904 434.312 63.512C434.632 64.104 435.064 64.568 435.608 64.904C436.152 65.24 436.784 65.408 437.504 65.408ZM446.777 68V54.944H449.729V57.512L449.489 57.056C449.793 56.272 450.289 55.68 450.977 55.28C451.681 54.864 452.497 54.656 453.425 54.656C454.385 54.656 455.233 54.864 455.969 55.28C456.721 55.696 457.305 56.28 457.721 57.032C458.137 57.768 458.345 58.624 458.345 59.6V68H455.201V60.344C455.201 59.768 455.089 59.272 454.865 58.856C454.641 58.44 454.329 58.12 453.929 57.896C453.545 57.656 453.089 57.536 452.561 57.536C452.049 57.536 451.593 57.656 451.193 57.896C450.793 58.12 450.481 58.44 450.257 58.856C450.033 59.272 449.921 59.768 449.921 60.344V68H446.777ZM464.243 59.264L462.323 57.848L464.075 55.472L461.315 54.536L462.059 52.28L464.819 53.192V50.12H467.219V53.192L469.979 52.28L470.723 54.536L467.963 55.472L469.715 57.848L467.771 59.264L466.019 56.888L464.243 59.264Z" fill="black"/>
<path d="M8.78 186.24C7.7 186.24 6.69333 186.047 5.76 185.66C4.84 185.273 4.02667 184.733 3.32 184.04C2.62667 183.347 2.08 182.533 1.68 181.6C1.29333 180.667 1.1 179.647 1.1 178.54C1.1 177.433 1.29333 176.413 1.68 175.48C2.08 174.533 2.62667 173.72 3.32 173.04C4.01333 172.347 4.82667 171.813 5.76 171.44C6.69333 171.053 7.7 170.86 8.78 170.86C9.87333 170.86 10.88 171.053 11.8 171.44C12.7333 171.813 13.5467 172.347 14.24 173.04C14.9467 173.733 15.4933 174.547 15.88 175.48C16.2667 176.413 16.46 177.433 16.46 178.54C16.46 179.647 16.26 180.667 15.86 181.6C15.4733 182.533 14.9333 183.347 14.24 184.04C13.5467 184.733 12.7333 185.273 11.8 185.66C10.8667 186.047 9.86 186.24 8.78 186.24ZM8.78 184.08C9.55333 184.08 10.26 183.94 10.9 183.66C11.5533 183.38 12.12 182.993 12.6 182.5C13.08 181.993 13.4533 181.407 13.72 180.74C13.9867 180.06 14.12 179.327 14.12 178.54C14.12 177.753 13.9867 177.027 13.72 176.36C13.4533 175.693 13.08 175.107 12.6 174.6C12.12 174.093 11.5533 173.7 10.9 173.42C10.26 173.14 9.55333 173 8.78 173C8.00667 173 7.29333 173.14 6.64 173.42C6 173.7 5.44 174.093 4.96 174.6C4.48 175.107 4.10667 175.693 3.84 176.36C3.58667 177.027 3.46 177.753 3.46 178.54C3.46 179.327 3.58667 180.06 3.84 180.74C4.10667 181.407 4.48 181.993 4.96 182.5C5.44 182.993 6.00667 183.38 6.66 183.66C7.31333 183.94 8.02 184.08 8.78 184.08ZM18.8786 186V175.18H21.0386V177.3L20.7786 177.02C21.0453 176.34 21.4719 175.827 22.0586 175.48C22.6453 175.12 23.3253 174.94 24.0986 174.94C24.8986 174.94 25.6053 175.113 26.2186 175.46C26.8319 175.807 27.3119 176.287 27.6586 176.9C28.0053 177.513 28.1786 178.22 28.1786 179.02V186H25.9386V179.62C25.9386 179.073 25.8386 178.613 25.6386 178.24C25.4386 177.853 25.1519 177.56 24.7786 177.36C24.4186 177.147 24.0053 177.04 23.5386 177.04C23.0719 177.04 22.6519 177.147 22.2786 177.36C21.9186 177.56 21.6386 177.853 21.4386 178.24C21.2386 178.627 21.1386 179.087 21.1386 179.62V186H18.8786ZM36.3773 186.24C35.5373 186.24 34.7707 186.067 34.0773 185.72C33.3973 185.373 32.8707 184.873 32.4973 184.22L32.7573 183.8V186H30.5973V170.86H32.8573V177.42L32.4973 176.9C32.8973 176.287 33.4307 175.807 34.0973 175.46C34.764 175.113 35.524 174.94 36.3773 174.94C37.404 174.94 38.324 175.187 39.1373 175.68C39.964 176.173 40.6107 176.847 41.0773 177.7C41.5573 178.553 41.7973 179.513 41.7973 180.58C41.7973 181.647 41.5573 182.607 41.0773 183.46C40.6107 184.313 39.9707 184.993 39.1573 185.5C38.344 185.993 37.4173 186.24 36.3773 186.24ZM36.1573 184.14C36.7973 184.14 37.364 183.987 37.8573 183.68C38.3507 183.373 38.7373 182.953 39.0173 182.42C39.3107 181.873 39.4573 181.26 39.4573 180.58C39.4573 179.9 39.3107 179.293 39.0173 178.76C38.7373 178.227 38.3507 177.807 37.8573 177.5C37.364 177.193 36.7973 177.04 36.1573 177.04C35.5307 177.04 34.964 177.193 34.4573 177.5C33.964 177.807 33.5707 178.227 33.2773 178.76C32.9973 179.293 32.8573 179.9 32.8573 180.58C32.8573 181.26 32.9973 181.873 33.2773 182.42C33.5707 182.953 33.964 183.373 34.4573 183.68C34.964 183.987 35.5307 184.14 36.1573 184.14ZM49.2158 186.24C48.1758 186.24 47.2224 185.993 46.3558 185.5C45.5024 185.007 44.8224 184.333 44.3158 183.48C43.8091 182.627 43.5558 181.66 43.5558 180.58C43.5558 179.487 43.8091 178.52 44.3158 177.68C44.8224 176.827 45.5024 176.16 46.3558 175.68C47.2091 175.187 48.1624 174.94 49.2158 174.94C50.2824 174.94 51.2358 175.187 52.0758 175.68C52.9291 176.16 53.6024 176.827 54.0958 177.68C54.6024 178.52 54.8558 179.487 54.8558 180.58C54.8558 181.673 54.6024 182.647 54.0958 183.5C53.5891 184.353 52.9091 185.027 52.0558 185.52C51.2024 186 50.2558 186.24 49.2158 186.24ZM49.2158 184.14C49.8558 184.14 50.4224 183.987 50.9158 183.68C51.4091 183.373 51.7958 182.953 52.0758 182.42C52.3691 181.873 52.5158 181.26 52.5158 180.58C52.5158 179.9 52.3691 179.293 52.0758 178.76C51.7958 178.227 51.4091 177.807 50.9158 177.5C50.4224 177.193 49.8558 177.04 49.2158 177.04C48.5891 177.04 48.0224 177.193 47.5158 177.5C47.0224 177.807 46.6291 178.227 46.3358 178.76C46.0558 179.293 45.9158 179.9 45.9158 180.58C45.9158 181.26 46.0558 181.873 46.3358 182.42C46.6291 182.953 47.0224 183.373 47.5158 183.68C48.0224 183.987 48.5891 184.14 49.2158 184.14ZM60.3022 186.24C59.5689 186.24 58.9222 186.113 58.3622 185.86C57.8155 185.593 57.3889 185.233 57.0822 184.78C56.7755 184.313 56.6222 183.767 56.6222 183.14C56.6222 182.553 56.7489 182.027 57.0022 181.56C57.2689 181.093 57.6755 180.7 58.2222 180.38C58.7689 180.06 59.4555 179.833 60.2822 179.7L64.0422 179.08V180.86L60.7222 181.44C60.1222 181.547 59.6822 181.74 59.4022 182.02C59.1222 182.287 58.9822 182.633 58.9822 183.06C58.9822 183.473 59.1355 183.813 59.4422 184.08C59.7622 184.333 60.1689 184.46 60.6622 184.46C61.2755 184.46 61.8089 184.327 62.2622 184.06C62.7289 183.793 63.0889 183.44 63.3422 183C63.5955 182.547 63.7222 182.047 63.7222 181.5V178.72C63.7222 178.187 63.5222 177.753 63.1222 177.42C62.7355 177.073 62.2155 176.9 61.5622 176.9C60.9622 176.9 60.4355 177.06 59.9822 177.38C59.5422 177.687 59.2155 178.087 59.0022 178.58L57.1222 177.64C57.3222 177.107 57.6489 176.64 58.1022 176.24C58.5555 175.827 59.0822 175.507 59.6822 175.28C60.2955 175.053 60.9422 174.94 61.6222 174.94C62.4755 174.94 63.2289 175.1 63.8822 175.42C64.5489 175.74 65.0622 176.187 65.4222 176.76C65.7955 177.32 65.9822 177.973 65.9822 178.72V186H63.8222V184.04L64.2822 184.1C64.0289 184.54 63.7022 184.92 63.3022 185.24C62.9155 185.56 62.4689 185.807 61.9622 185.98C61.4689 186.153 60.9155 186.24 60.3022 186.24ZM68.6247 186V175.18H70.7847V177.36L70.5847 177.04C70.8247 176.333 71.2114 175.827 71.7447 175.52C72.278 175.2 72.918 175.04 73.6647 175.04H74.3247V177.1H73.3847C72.638 177.1 72.0314 177.333 71.5647 177.8C71.1114 178.253 70.8847 178.907 70.8847 179.76V186H68.6247ZM80.8708 186.24C79.8308 186.24 78.8974 185.993 78.0708 185.5C77.2574 184.993 76.6108 184.313 76.1308 183.46C75.6641 182.607 75.4308 181.647 75.4308 180.58C75.4308 179.513 75.6708 178.553 76.1508 177.7C76.6308 176.847 77.2774 176.173 78.0908 175.68C78.9041 175.187 79.8241 174.94 80.8508 174.94C81.7174 174.94 82.4841 175.113 83.1508 175.46C83.8174 175.807 84.3441 176.287 84.7308 176.9L84.3908 177.42V170.86H86.6308V186H84.4908V183.8L84.7508 184.22C84.3774 184.873 83.8441 185.373 83.1508 185.72C82.4574 186.067 81.6974 186.24 80.8708 186.24ZM81.0908 184.14C81.7174 184.14 82.2774 183.987 82.7708 183.68C83.2774 183.373 83.6708 182.953 83.9508 182.42C84.2441 181.873 84.3908 181.26 84.3908 180.58C84.3908 179.9 84.2441 179.293 83.9508 178.76C83.6708 178.227 83.2774 177.807 82.7708 177.5C82.2774 177.193 81.7174 177.04 81.0908 177.04C80.4641 177.04 79.8974 177.193 79.3908 177.5C78.8841 177.807 78.4908 178.227 78.2108 178.76C77.9308 179.293 77.7908 179.9 77.7908 180.58C77.7908 181.26 77.9308 181.873 78.2108 182.42C78.4908 182.953 78.8774 183.373 79.3708 183.68C79.8774 183.987 80.4508 184.14 81.0908 184.14ZM89.2692 186V175.18H91.5292V186H89.2692ZM89.2692 173.7V171.1H91.5292V173.7H89.2692ZM94.1716 186V175.18H96.3316V177.3L96.0716 177.02C96.3382 176.34 96.7649 175.827 97.3516 175.48C97.9382 175.12 98.6182 174.94 99.3916 174.94C100.192 174.94 100.898 175.113 101.512 175.46C102.125 175.807 102.605 176.287 102.952 176.9C103.298 177.513 103.472 178.22 103.472 179.02V186H101.232V179.62C101.232 179.073 101.132 178.613 100.932 178.24C100.732 177.853 100.445 177.56 100.072 177.36C99.7116 177.147 99.2982 177.04 98.8316 177.04C98.3649 177.04 97.9449 177.147 97.5716 177.36C97.2116 177.56 96.9316 177.853 96.7316 178.24C96.5316 178.627 96.4316 179.087 96.4316 179.62V186H94.1716ZM111.11 190.4C110.324 190.4 109.597 190.273 108.93 190.02C108.264 189.767 107.69 189.413 107.21 188.96C106.73 188.52 106.37 188 106.13 187.4L108.21 186.54C108.397 187.047 108.737 187.467 109.23 187.8C109.737 188.133 110.357 188.3 111.09 188.3C111.664 188.3 112.177 188.187 112.63 187.96C113.084 187.747 113.444 187.427 113.71 187C113.977 186.587 114.11 186.087 114.11 185.5V183.06L114.51 183.52C114.137 184.213 113.617 184.74 112.95 185.1C112.297 185.46 111.557 185.64 110.73 185.64C109.73 185.64 108.83 185.407 108.03 184.94C107.23 184.473 106.597 183.833 106.13 183.02C105.677 182.207 105.45 181.293 105.45 180.28C105.45 179.253 105.677 178.34 106.13 177.54C106.597 176.74 107.224 176.107 108.01 175.64C108.797 175.173 109.697 174.94 110.71 174.94C111.537 174.94 112.27 175.12 112.91 175.48C113.564 175.827 114.097 176.333 114.51 177L114.21 177.56V175.18H116.35V185.5C116.35 186.433 116.124 187.267 115.67 188C115.23 188.747 114.617 189.333 113.83 189.76C113.044 190.187 112.137 190.4 111.11 190.4ZM110.99 183.54C111.59 183.54 112.124 183.4 112.59 183.12C113.057 182.827 113.424 182.44 113.69 181.96C113.97 181.467 114.11 180.913 114.11 180.3C114.11 179.687 113.97 179.133 113.69 178.64C113.41 178.147 113.037 177.76 112.57 177.48C112.104 177.187 111.577 177.04 110.99 177.04C110.377 177.04 109.83 177.187 109.35 177.48C108.87 177.76 108.49 178.147 108.21 178.64C107.944 179.12 107.81 179.673 107.81 180.3C107.81 180.9 107.944 181.447 108.21 181.94C108.49 182.433 108.87 182.827 109.35 183.12C109.83 183.4 110.377 183.54 110.99 183.54Z" fill="black"/>
<path d="M170 177C169.448 177 169 177.448 169 178C169 178.552 169.448 179 170 179L170 177ZM203.707 178.707C204.098 178.317 204.098 177.683 203.707 177.293L197.343 170.929C196.953 170.538 196.319 170.538 195.929 170.929C195.538 171.319 195.538 171.953 195.929 172.343L201.586 178L195.929 183.657C195.538 184.047 195.538 184.681 195.929 185.071C196.319 185.462 196.953 185.462 197.343 185.071L203.707 178.707ZM170 179L203 179L203 177L170 177L170 179Z" fill="black"/>
<rect x="235" y="151" width="168" height="54" rx="27" fill="#E9E9E9"/>
<path d="M263.48 186.24C262.427 186.24 261.447 186.047 260.54 185.66C259.647 185.273 258.867 184.74 258.2 184.06C257.547 183.367 257.033 182.553 256.66 181.62C256.287 180.687 256.1 179.66 256.1 178.54C256.1 177.433 256.28 176.413 256.64 175.48C257.013 174.533 257.533 173.72 258.2 173.04C258.867 172.347 259.647 171.813 260.54 171.44C261.433 171.053 262.413 170.86 263.48 170.86C264.533 170.86 265.473 171.04 266.3 171.4C267.14 171.76 267.847 172.233 268.42 172.82C268.993 173.393 269.407 174.02 269.66 174.7L267.54 175.7C267.22 174.9 266.707 174.253 266 173.76C265.307 173.253 264.467 173 263.48 173C262.493 173 261.62 173.233 260.86 173.7C260.1 174.167 259.507 174.813 259.08 175.64C258.667 176.467 258.46 177.433 258.46 178.54C258.46 179.647 258.667 180.62 259.08 181.46C259.507 182.287 260.1 182.933 260.86 183.4C261.62 183.853 262.493 184.08 263.48 184.08C264.467 184.08 265.307 183.833 266 183.34C266.707 182.847 267.22 182.2 267.54 181.4L269.66 182.4C269.407 183.067 268.993 183.693 268.42 184.28C267.847 184.867 267.14 185.34 266.3 185.7C265.473 186.06 264.533 186.24 263.48 186.24ZM271.867 186V175.18H274.027V177.36L273.827 177.04C274.067 176.333 274.454 175.827 274.987 175.52C275.52 175.2 276.16 175.04 276.907 175.04H277.567V177.1H276.627C275.88 177.1 275.274 177.333 274.807 177.8C274.354 178.253 274.127 178.907 274.127 179.76V186H271.867ZM284.193 186.24C283.113 186.24 282.153 185.993 281.313 185.5C280.486 184.993 279.84 184.313 279.373 183.46C278.906 182.593 278.673 181.627 278.673 180.56C278.673 179.467 278.906 178.5 279.373 177.66C279.853 176.82 280.493 176.16 281.293 175.68C282.093 175.187 283 174.94 284.013 174.94C284.826 174.94 285.553 175.08 286.193 175.36C286.833 175.64 287.373 176.027 287.813 176.52C288.253 177 288.586 177.553 288.813 178.18C289.053 178.807 289.173 179.473 289.173 180.18C289.173 180.353 289.166 180.533 289.153 180.72C289.14 180.907 289.113 181.08 289.073 181.24H280.453V179.44H287.793L286.713 180.26C286.846 179.607 286.8 179.027 286.573 178.52C286.36 178 286.026 177.593 285.573 177.3C285.133 176.993 284.613 176.84 284.013 176.84C283.413 176.84 282.88 176.993 282.413 177.3C281.946 177.593 281.586 178.02 281.333 178.58C281.08 179.127 280.98 179.793 281.033 180.58C280.966 181.313 281.066 181.953 281.333 182.5C281.613 183.047 282 183.473 282.493 183.78C283 184.087 283.573 184.24 284.213 184.24C284.866 184.24 285.42 184.093 285.873 183.8C286.34 183.507 286.706 183.127 286.973 182.66L288.813 183.56C288.6 184.067 288.266 184.527 287.813 184.94C287.373 185.34 286.84 185.66 286.213 185.9C285.6 186.127 284.926 186.24 284.193 186.24ZM294.521 186.24C293.788 186.24 293.141 186.113 292.581 185.86C292.034 185.593 291.608 185.233 291.301 184.78C290.994 184.313 290.841 183.767 290.841 183.14C290.841 182.553 290.968 182.027 291.221 181.56C291.488 181.093 291.894 180.7 292.441 180.38C292.988 180.06 293.674 179.833 294.501 179.7L298.261 179.08V180.86L294.941 181.44C294.341 181.547 293.901 181.74 293.621 182.02C293.341 182.287 293.201 182.633 293.201 183.06C293.201 183.473 293.354 183.813 293.661 184.08C293.981 184.333 294.388 184.46 294.881 184.46C295.494 184.46 296.028 184.327 296.481 184.06C296.948 183.793 297.308 183.44 297.561 183C297.814 182.547 297.941 182.047 297.941 181.5V178.72C297.941 178.187 297.741 177.753 297.341 177.42C296.954 177.073 296.434 176.9 295.781 176.9C295.181 176.9 294.654 177.06 294.201 177.38C293.761 177.687 293.434 178.087 293.221 178.58L291.341 177.64C291.541 177.107 291.868 176.64 292.321 176.24C292.774 175.827 293.301 175.507 293.901 175.28C294.514 175.053 295.161 174.94 295.841 174.94C296.694 174.94 297.448 175.1 298.101 175.42C298.768 175.74 299.281 176.187 299.641 176.76C300.014 177.32 300.201 177.973 300.201 178.72V186H298.041V184.04L298.501 184.1C298.248 184.54 297.921 184.92 297.521 185.24C297.134 185.56 296.688 185.807 296.181 185.98C295.688 186.153 295.134 186.24 294.521 186.24ZM307.328 186.12C306.195 186.12 305.315 185.8 304.688 185.16C304.061 184.52 303.748 183.62 303.748 182.46V177.22H301.848V175.18H302.148C302.655 175.18 303.048 175.033 303.328 174.74C303.608 174.447 303.748 174.047 303.748 173.54V172.7H306.008V175.18H308.468V177.22H306.008V182.36C306.008 182.733 306.068 183.053 306.188 183.32C306.308 183.573 306.501 183.773 306.768 183.92C307.035 184.053 307.381 184.12 307.808 184.12C307.915 184.12 308.035 184.113 308.168 184.1C308.301 184.087 308.428 184.073 308.548 184.06V186C308.361 186.027 308.155 186.053 307.928 186.08C307.701 186.107 307.501 186.12 307.328 186.12ZM315.778 186.24C314.738 186.24 313.785 185.993 312.918 185.5C312.065 185.007 311.385 184.333 310.878 183.48C310.372 182.627 310.118 181.66 310.118 180.58C310.118 179.487 310.372 178.52 310.878 177.68C311.385 176.827 312.065 176.16 312.918 175.68C313.772 175.187 314.725 174.94 315.778 174.94C316.845 174.94 317.798 175.187 318.638 175.68C319.492 176.16 320.165 176.827 320.658 177.68C321.165 178.52 321.418 179.487 321.418 180.58C321.418 181.673 321.165 182.647 320.658 183.5C320.152 184.353 319.472 185.027 318.618 185.52C317.765 186 316.818 186.24 315.778 186.24ZM315.778 184.14C316.418 184.14 316.985 183.987 317.478 183.68C317.972 183.373 318.358 182.953 318.638 182.42C318.932 181.873 319.078 181.26 319.078 180.58C319.078 179.9 318.932 179.293 318.638 178.76C318.358 178.227 317.972 177.807 317.478 177.5C316.985 177.193 316.418 177.04 315.778 177.04C315.152 177.04 314.585 177.193 314.078 177.5C313.585 177.807 313.192 178.227 312.898 178.76C312.618 179.293 312.478 179.9 312.478 180.58C312.478 181.26 312.618 181.873 312.898 182.42C313.192 182.953 313.585 183.373 314.078 183.68C314.585 183.987 315.152 184.14 315.778 184.14ZM323.625 186V175.18H325.785V177.36L325.585 177.04C325.825 176.333 326.211 175.827 326.745 175.52C327.278 175.2 327.918 175.04 328.665 175.04H329.325V177.1H328.385C327.638 177.1 327.031 177.333 326.565 177.8C326.111 178.253 325.885 178.907 325.885 179.76V186H323.625ZM334.587 186V171.1H340.007C341.007 171.1 341.887 171.287 342.647 171.66C343.42 172.02 344.02 172.553 344.447 173.26C344.874 173.953 345.087 174.787 345.087 175.76C345.087 176.72 344.867 177.547 344.427 178.24C344 178.933 343.407 179.467 342.647 179.84C341.887 180.213 341.007 180.4 340.007 180.4H336.947V186H334.587ZM336.947 178.3H340.067C340.6 178.3 341.067 178.193 341.467 177.98C341.867 177.767 342.18 177.473 342.407 177.1C342.634 176.713 342.747 176.26 342.747 175.74C342.747 175.22 342.634 174.773 342.407 174.4C342.18 174.013 341.867 173.72 341.467 173.52C341.067 173.307 340.6 173.2 340.067 173.2H336.947V178.3ZM349.833 186.24C349.1 186.24 348.453 186.113 347.893 185.86C347.347 185.593 346.92 185.233 346.613 184.78C346.307 184.313 346.153 183.767 346.153 183.14C346.153 182.553 346.28 182.027 346.533 181.56C346.8 181.093 347.207 180.7 347.753 180.38C348.3 180.06 348.987 179.833 349.813 179.7L353.573 179.08V180.86L350.253 181.44C349.653 181.547 349.213 181.74 348.933 182.02C348.653 182.287 348.513 182.633 348.513 183.06C348.513 183.473 348.667 183.813 348.973 184.08C349.293 184.333 349.7 184.46 350.193 184.46C350.807 184.46 351.34 184.327 351.793 184.06C352.26 183.793 352.62 183.44 352.873 183C353.127 182.547 353.253 182.047 353.253 181.5V178.72C353.253 178.187 353.053 177.753 352.653 177.42C352.267 177.073 351.747 176.9 351.093 176.9C350.493 176.9 349.967 177.06 349.513 177.38C349.073 177.687 348.747 178.087 348.533 178.58L346.653 177.64C346.853 177.107 347.18 176.64 347.633 176.24C348.087 175.827 348.613 175.507 349.213 175.28C349.827 175.053 350.473 174.94 351.153 174.94C352.007 174.94 352.76 175.1 353.413 175.42C354.08 175.74 354.593 176.187 354.953 176.76C355.327 177.32 355.513 177.973 355.513 178.72V186H353.353V184.04L353.813 184.1C353.56 184.54 353.233 184.92 352.833 185.24C352.447 185.56 352 185.807 351.493 185.98C351 186.153 350.447 186.24 349.833 186.24ZM363.376 190.4C362.589 190.4 361.863 190.273 361.196 190.02C360.529 189.767 359.956 189.413 359.476 188.96C358.996 188.52 358.636 188 358.396 187.4L360.476 186.54C360.663 187.047 361.003 187.467 361.496 187.8C362.003 188.133 362.623 188.3 363.356 188.3C363.929 188.3 364.443 188.187 364.896 187.96C365.349 187.747 365.709 187.427 365.976 187C366.243 186.587 366.376 186.087 366.376 185.5V183.06L366.776 183.52C366.403 184.213 365.883 184.74 365.216 185.1C364.563 185.46 363.823 185.64 362.996 185.64C361.996 185.64 361.096 185.407 360.296 184.94C359.496 184.473 358.863 183.833 358.396 183.02C357.943 182.207 357.716 181.293 357.716 180.28C357.716 179.253 357.943 178.34 358.396 177.54C358.863 176.74 359.489 176.107 360.276 175.64C361.063 175.173 361.963 174.94 362.976 174.94C363.803 174.94 364.536 175.12 365.176 175.48C365.829 175.827 366.363 176.333 366.776 177L366.476 177.56V175.18H368.616V185.5C368.616 186.433 368.389 187.267 367.936 188C367.496 188.747 366.883 189.333 366.096 189.76C365.309 190.187 364.403 190.4 363.376 190.4ZM363.256 183.54C363.856 183.54 364.389 183.4 364.856 183.12C365.323 182.827 365.689 182.44 365.956 181.96C366.236 181.467 366.376 180.913 366.376 180.3C366.376 179.687 366.236 179.133 365.956 178.64C365.676 178.147 365.303 177.76 364.836 177.48C364.369 177.187 363.843 177.04 363.256 177.04C362.643 177.04 362.096 177.187 361.616 177.48C361.136 177.76 360.756 178.147 360.476 178.64C360.209 179.12 360.076 179.673 360.076 180.3C360.076 180.9 360.209 181.447 360.476 181.94C360.756 182.433 361.136 182.827 361.616 183.12C362.096 183.4 362.643 183.54 363.256 183.54ZM376.341 186.24C375.261 186.24 374.301 185.993 373.461 185.5C372.635 184.993 371.988 184.313 371.521 183.46C371.055 182.593 370.821 181.627 370.821 180.56C370.821 179.467 371.055 178.5 371.521 177.66C372.001 176.82 372.641 176.16 373.441 175.68C374.241 175.187 375.148 174.94 376.161 174.94C376.975 174.94 377.701 175.08 378.341 175.36C378.981 175.64 379.521 176.027 379.961 176.52C380.401 177 380.735 177.553 380.961 178.18C381.201 178.807 381.321 179.473 381.321 180.18C381.321 180.353 381.315 180.533 381.301 180.72C381.288 180.907 381.261 181.08 381.221 181.24H372.601V179.44H379.941L378.861 180.26C378.995 179.607 378.948 179.027 378.721 178.52C378.508 178 378.175 177.593 377.721 177.3C377.281 176.993 376.761 176.84 376.161 176.84C375.561 176.84 375.028 176.993 374.561 177.3C374.095 177.593 373.735 178.02 373.481 178.58C373.228 179.127 373.128 179.793 373.181 180.58C373.115 181.313 373.215 181.953 373.481 182.5C373.761 183.047 374.148 183.473 374.641 183.78C375.148 184.087 375.721 184.24 376.361 184.24C377.015 184.24 377.568 184.093 378.021 183.8C378.488 183.507 378.855 183.127 379.121 182.66L380.961 183.56C380.748 184.067 380.415 184.527 379.961 184.94C379.521 185.34 378.988 185.66 378.361 185.9C377.748 186.127 377.075 186.24 376.341 186.24Z" fill="black"/>
<path d="M435 177C434.448 177 434 177.448 434 178C434 178.552 434.448 179 435 179L435 177ZM468.707 178.707C469.098 178.317 469.098 177.683 468.707 177.293L462.343 170.929C461.953 170.538 461.319 170.538 460.929 170.929C460.538 171.319 460.538 171.953 460.929 172.343L466.586 178L460.929 183.657C460.538 184.047 460.538 184.681 460.929 185.071C461.319 185.462 461.953 185.462 462.343 185.071L468.707 178.707ZM435 179L468 179L468 177L435 177L435 179Z" fill="black"/>
<rect x="500" y="151" width="154" height="54" rx="27" fill="#E9E9E9"/>
<path d="M520.22 186L525.46 171.1H528.38L533.62 186H531.1L529.96 182.66H523.9L522.74 186H520.22ZM524.58 180.56H529.24L526.6 172.76H527.26L524.58 180.56ZM535.168 186V175.18H537.328V177.3L537.068 177.02C537.334 176.34 537.761 175.827 538.348 175.48C538.934 175.12 539.614 174.94 540.388 174.94C541.188 174.94 541.894 175.113 542.508 175.46C543.121 175.807 543.601 176.287 543.948 176.9C544.294 177.513 544.468 178.22 544.468 179.02V186H542.228V179.62C542.228 179.073 542.128 178.613 541.928 178.24C541.728 177.853 541.441 177.56 541.068 177.36C540.708 177.147 540.294 177.04 539.828 177.04C539.361 177.04 538.941 177.147 538.568 177.36C538.208 177.56 537.928 177.853 537.728 178.24C537.528 178.627 537.428 179.087 537.428 179.62V186H535.168ZM546.886 186V175.18H549.146V186H546.886ZM546.886 173.7V171.1H549.146V173.7H546.886ZM551.789 186V175.18H553.949V177.52L553.669 177.16C553.895 176.427 554.309 175.873 554.909 175.5C555.509 175.127 556.195 174.94 556.969 174.94C557.835 174.94 558.602 175.173 559.269 175.64C559.949 176.093 560.402 176.7 560.629 177.46L559.989 177.52C560.309 176.653 560.795 176.007 561.449 175.58C562.115 175.153 562.875 174.94 563.729 174.94C564.475 174.94 565.149 175.113 565.749 175.46C566.362 175.807 566.849 176.287 567.209 176.9C567.569 177.513 567.749 178.213 567.749 179V186H565.489V179.62C565.489 179.073 565.389 178.613 565.189 178.24C565.002 177.853 564.735 177.56 564.389 177.36C564.055 177.147 563.662 177.04 563.209 177.04C562.755 177.04 562.355 177.147 562.009 177.36C561.662 177.56 561.389 177.853 561.189 178.24C560.989 178.627 560.889 179.087 560.889 179.62V186H558.649V179.62C558.649 179.073 558.549 178.613 558.349 178.24C558.162 177.853 557.895 177.56 557.549 177.36C557.215 177.147 556.815 177.04 556.349 177.04C555.895 177.04 555.495 177.147 555.149 177.36C554.802 177.56 554.529 177.853 554.329 178.24C554.142 178.627 554.049 179.087 554.049 179.62V186H551.789ZM575.248 186.24C574.168 186.24 573.208 185.993 572.368 185.5C571.541 184.993 570.894 184.313 570.428 183.46C569.961 182.593 569.728 181.627 569.728 180.56C569.728 179.467 569.961 178.5 570.428 177.66C570.908 176.82 571.548 176.16 572.348 175.68C573.148 175.187 574.054 174.94 575.068 174.94C575.881 174.94 576.608 175.08 577.248 175.36C577.888 175.64 578.428 176.027 578.868 176.52C579.308 177 579.641 177.553 579.868 178.18C580.108 178.807 580.228 179.473 580.228 180.18C580.228 180.353 580.221 180.533 580.208 180.72C580.194 180.907 580.168 181.08 580.128 181.24H571.508V179.44H578.848L577.768 180.26C577.901 179.607 577.854 179.027 577.628 178.52C577.414 178 577.081 177.593 576.628 177.3C576.188 176.993 575.668 176.84 575.068 176.84C574.468 176.84 573.934 176.993 573.468 177.3C573.001 177.593 572.641 178.02 572.388 178.58C572.134 179.127 572.034 179.793 572.088 180.58C572.021 181.313 572.121 181.953 572.388 182.5C572.668 183.047 573.054 183.473 573.548 183.78C574.054 184.087 574.628 184.24 575.268 184.24C575.921 184.24 576.474 184.093 576.928 183.8C577.394 183.507 577.761 183.127 578.028 182.66L579.868 183.56C579.654 184.067 579.321 184.527 578.868 184.94C578.428 185.34 577.894 185.66 577.268 185.9C576.654 186.127 575.981 186.24 575.248 186.24ZM586.149 186V171.1H591.569C592.569 171.1 593.449 171.287 594.209 171.66C594.983 172.02 595.583 172.553 596.009 173.26C596.436 173.953 596.649 174.787 596.649 175.76C596.649 176.72 596.429 177.547 595.989 178.24C595.563 178.933 594.969 179.467 594.209 179.84C593.449 180.213 592.569 180.4 591.569 180.4H588.509V186H586.149ZM588.509 178.3H591.629C592.163 178.3 592.629 178.193 593.029 177.98C593.429 177.767 593.743 177.473 593.969 177.1C594.196 176.713 594.309 176.26 594.309 175.74C594.309 175.22 594.196 174.773 593.969 174.4C593.743 174.013 593.429 173.72 593.029 173.52C592.629 173.307 592.163 173.2 591.629 173.2H588.509V178.3ZM601.396 186.24C600.663 186.24 600.016 186.113 599.456 185.86C598.909 185.593 598.483 185.233 598.176 184.78C597.869 184.313 597.716 183.767 597.716 183.14C597.716 182.553 597.843 182.027 598.096 181.56C598.363 181.093 598.769 180.7 599.316 180.38C599.863 180.06 600.549 179.833 601.376 179.7L605.136 179.08V180.86L601.816 181.44C601.216 181.547 600.776 181.74 600.496 182.02C600.216 182.287 600.076 182.633 600.076 183.06C600.076 183.473 600.229 183.813 600.536 184.08C600.856 184.333 601.263 184.46 601.756 184.46C602.369 184.46 602.903 184.327 603.356 184.06C603.823 183.793 604.183 183.44 604.436 183C604.689 182.547 604.816 182.047 604.816 181.5V178.72C604.816 178.187 604.616 177.753 604.216 177.42C603.829 177.073 603.309 176.9 602.656 176.9C602.056 176.9 601.529 177.06 601.076 177.38C600.636 177.687 600.309 178.087 600.096 178.58L598.216 177.64C598.416 177.107 598.743 176.64 599.196 176.24C599.649 175.827 600.176 175.507 600.776 175.28C601.389 175.053 602.036 174.94 602.716 174.94C603.569 174.94 604.323 175.1 604.976 175.42C605.643 175.74 606.156 176.187 606.516 176.76C606.889 177.32 607.076 177.973 607.076 178.72V186H604.916V184.04L605.376 184.1C605.123 184.54 604.796 184.92 604.396 185.24C604.009 185.56 603.563 185.807 603.056 185.98C602.563 186.153 602.009 186.24 601.396 186.24ZM614.938 190.4C614.152 190.4 613.425 190.273 612.758 190.02C612.092 189.767 611.518 189.413 611.038 188.96C610.558 188.52 610.198 188 609.958 187.4L612.038 186.54C612.225 187.047 612.565 187.467 613.058 187.8C613.565 188.133 614.185 188.3 614.918 188.3C615.492 188.3 616.005 188.187 616.458 187.96C616.912 187.747 617.272 187.427 617.538 187C617.805 186.587 617.938 186.087 617.938 185.5V183.06L618.338 183.52C617.965 184.213 617.445 184.74 616.778 185.1C616.125 185.46 615.385 185.64 614.558 185.64C613.558 185.64 612.658 185.407 611.858 184.94C611.058 184.473 610.425 183.833 609.958 183.02C609.505 182.207 609.278 181.293 609.278 180.28C609.278 179.253 609.505 178.34 609.958 177.54C610.425 176.74 611.052 176.107 611.838 175.64C612.625 175.173 613.525 174.94 614.538 174.94C615.365 174.94 616.098 175.12 616.738 175.48C617.392 175.827 617.925 176.333 618.338 177L618.038 177.56V175.18H620.178V185.5C620.178 186.433 619.952 187.267 619.498 188C619.058 188.747 618.445 189.333 617.658 189.76C616.872 190.187 615.965 190.4 614.938 190.4ZM614.818 183.54C615.418 183.54 615.952 183.4 616.418 183.12C616.885 182.827 617.252 182.44 617.518 181.96C617.798 181.467 617.938 180.913 617.938 180.3C617.938 179.687 617.798 179.133 617.518 178.64C617.238 178.147 616.865 177.76 616.398 177.48C615.932 177.187 615.405 177.04 614.818 177.04C614.205 177.04 613.658 177.187 613.178 177.48C612.698 177.76 612.318 178.147 612.038 178.64C611.772 179.12 611.638 179.673 611.638 180.3C611.638 180.9 611.772 181.447 612.038 181.94C612.318 182.433 612.698 182.827 613.178 183.12C613.658 183.4 614.205 183.54 614.818 183.54ZM627.904 186.24C626.824 186.24 625.864 185.993 625.024 185.5C624.197 184.993 623.551 184.313 623.084 183.46C622.617 182.593 622.384 181.627 622.384 180.56C622.384 179.467 622.617 178.5 623.084 177.66C623.564 176.82 624.204 176.16 625.004 175.68C625.804 175.187 626.711 174.94 627.724 174.94C628.537 174.94 629.264 175.08 629.904 175.36C630.544 175.64 631.084 176.027 631.524 176.52C631.964 177 632.297 177.553 632.524 178.18C632.764 178.807 632.884 179.473 632.884 180.18C632.884 180.353 632.877 180.533 632.864 180.72C632.851 180.907 632.824 181.08 632.784 181.24H624.164V179.44H631.504L630.424 180.26C630.557 179.607 630.511 179.027 630.284 178.52C630.071 178 629.737 177.593 629.284 177.3C628.844 176.993 628.324 176.84 627.724 176.84C627.124 176.84 626.591 176.993 626.124 177.3C625.657 177.593 625.297 178.02 625.044 178.58C624.791 179.127 624.691 179.793 624.744 180.58C624.677 181.313 624.777 181.953 625.044 182.5C625.324 183.047 625.711 183.473 626.204 183.78C626.711 184.087 627.284 184.24 627.924 184.24C628.577 184.24 629.131 184.093 629.584 183.8C630.051 183.507 630.417 183.127 630.684 182.66L632.524 183.56C632.311 184.067 631.977 184.527 631.524 184.94C631.084 185.34 630.551 185.66 629.924 185.9C629.311 186.127 628.637 186.24 627.904 186.24Z" fill="black"/>
<rect x="160" y="300" width="99" height="54" rx="27" fill="#E9E9E9"/>
<path d="M181.54 335V320.1H183.74L189.34 327.86H188.24L193.74 320.1H195.94V335H193.6V322.88L194.48 323.12L188.86 330.8H188.62L183.12 323.12L183.9 322.88V335H181.54ZM204.02 335.24C202.98 335.24 202.027 334.993 201.16 334.5C200.307 334.007 199.627 333.333 199.12 332.48C198.614 331.627 198.36 330.66 198.36 329.58C198.36 328.487 198.614 327.52 199.12 326.68C199.627 325.827 200.307 325.16 201.16 324.68C202.014 324.187 202.967 323.94 204.02 323.94C205.087 323.94 206.04 324.187 206.88 324.68C207.734 325.16 208.407 325.827 208.9 326.68C209.407 327.52 209.66 328.487 209.66 329.58C209.66 330.673 209.407 331.647 208.9 332.5C208.394 333.353 207.714 334.027 206.86 334.52C206.007 335 205.06 335.24 204.02 335.24ZM204.02 333.14C204.66 333.14 205.227 332.987 205.72 332.68C206.214 332.373 206.6 331.953 206.88 331.42C207.174 330.873 207.32 330.26 207.32 329.58C207.32 328.9 207.174 328.293 206.88 327.76C206.6 327.227 206.214 326.807 205.72 326.5C205.227 326.193 204.66 326.04 204.02 326.04C203.394 326.04 202.827 326.193 202.32 326.5C201.827 326.807 201.434 327.227 201.14 327.76C200.86 328.293 200.72 328.9 200.72 329.58C200.72 330.26 200.86 330.873 201.14 331.42C201.434 331.953 201.827 332.373 202.32 332.68C202.827 332.987 203.394 333.14 204.02 333.14ZM214.812 335L210.572 324.18H213.032L216.292 333H215.392L218.652 324.18H221.132L216.872 335H214.812ZM222.668 335V324.18H224.928V335H222.668ZM222.668 322.7V320.1H224.928V322.7H222.668ZM232.65 335.24C231.57 335.24 230.61 334.993 229.77 334.5C228.943 333.993 228.297 333.313 227.83 332.46C227.363 331.593 227.13 330.627 227.13 329.56C227.13 328.467 227.363 327.5 227.83 326.66C228.31 325.82 228.95 325.16 229.75 324.68C230.55 324.187 231.457 323.94 232.47 323.94C233.283 323.94 234.01 324.08 234.65 324.36C235.29 324.64 235.83 325.027 236.27 325.52C236.71 326 237.043 326.553 237.27 327.18C237.51 327.807 237.63 328.473 237.63 329.18C237.63 329.353 237.623 329.533 237.61 329.72C237.597 329.907 237.57 330.08 237.53 330.24H228.91V328.44H236.25L235.17 329.26C235.303 328.607 235.257 328.027 235.03 327.52C234.817 327 234.483 326.593 234.03 326.3C233.59 325.993 233.07 325.84 232.47 325.84C231.87 325.84 231.337 325.993 230.87 326.3C230.403 326.593 230.043 327.02 229.79 327.58C229.537 328.127 229.437 328.793 229.49 329.58C229.423 330.313 229.523 330.953 229.79 331.5C230.07 332.047 230.457 332.473 230.95 332.78C231.457 333.087 232.03 333.24 232.67 333.24C233.323 333.24 233.877 333.093 234.33 332.8C234.797 332.507 235.163 332.127 235.43 331.66L237.27 332.56C237.057 333.067 236.723 333.527 236.27 333.94C235.83 334.34 235.297 334.66 234.67 334.9C234.057 335.127 233.383 335.24 232.65 335.24Z" fill="black"/>
<path d="M324 326C324.552 326 325 326.448 325 327C325 327.552 324.552 328 324 328L324 326ZM290.293 327.707C289.902 327.317 289.902 326.683 290.293 326.293L296.657 319.929C297.047 319.538 297.681 319.538 298.071 319.929C298.462 320.319 298.462 320.953 298.071 321.343L292.414 327L298.071 332.657C298.462 333.047 298.462 333.681 298.071 334.071C297.681 334.462 297.047 334.462 296.657 334.071L290.293 327.707ZM324 328L291 328L291 326L324 326L324 328Z" fill="black"/>
<rect x="356" y="300" width="132" height="54" rx="27" fill="#E9E9E9"/>
<path d="M382.76 335.24C381.827 335.24 380.96 335.067 380.16 334.72C379.36 334.36 378.68 333.873 378.12 333.26C377.56 332.647 377.147 331.94 376.88 331.14L378.88 330.3C379.24 331.22 379.767 331.927 380.46 332.42C381.153 332.913 381.953 333.16 382.86 333.16C383.393 333.16 383.86 333.08 384.26 332.92C384.66 332.747 384.967 332.507 385.18 332.2C385.407 331.893 385.52 331.54 385.52 331.14C385.52 330.593 385.367 330.16 385.06 329.84C384.753 329.52 384.3 329.267 383.7 329.08L380.9 328.2C379.78 327.853 378.927 327.327 378.34 326.62C377.753 325.9 377.46 325.06 377.46 324.1C377.46 323.26 377.667 322.527 378.08 321.9C378.493 321.26 379.06 320.76 379.78 320.4C380.513 320.04 381.347 319.86 382.28 319.86C383.173 319.86 383.987 320.02 384.72 320.34C385.453 320.647 386.08 321.073 386.6 321.62C387.133 322.167 387.52 322.8 387.76 323.52L385.8 324.38C385.507 323.593 385.047 322.987 384.42 322.56C383.807 322.133 383.093 321.92 382.28 321.92C381.787 321.92 381.353 322.007 380.98 322.18C380.607 322.34 380.313 322.58 380.1 322.9C379.9 323.207 379.8 323.567 379.8 323.98C379.8 324.46 379.953 324.887 380.26 325.26C380.567 325.633 381.033 325.913 381.66 326.1L384.26 326.92C385.447 327.28 386.34 327.8 386.94 328.48C387.54 329.147 387.84 329.98 387.84 330.98C387.84 331.807 387.62 332.54 387.18 333.18C386.753 333.82 386.16 334.327 385.4 334.7C384.64 335.06 383.76 335.24 382.76 335.24ZM395.409 335.24C394.329 335.24 393.369 334.993 392.529 334.5C391.703 333.993 391.043 333.313 390.549 332.46C390.069 331.607 389.829 330.64 389.829 329.56C389.829 328.493 390.069 327.533 390.549 326.68C391.029 325.827 391.689 325.16 392.529 324.68C393.369 324.187 394.329 323.94 395.409 323.94C396.143 323.94 396.829 324.073 397.469 324.34C398.109 324.593 398.663 324.947 399.129 325.4C399.609 325.853 399.963 326.38 400.189 326.98L398.209 327.9C397.983 327.34 397.616 326.893 397.109 326.56C396.616 326.213 396.049 326.04 395.409 326.04C394.796 326.04 394.243 326.193 393.749 326.5C393.269 326.793 392.889 327.213 392.609 327.76C392.329 328.293 392.189 328.9 392.189 329.58C392.189 330.26 392.329 330.873 392.609 331.42C392.889 331.953 393.269 332.373 393.749 332.68C394.243 332.987 394.796 333.14 395.409 333.14C396.063 333.14 396.629 332.973 397.109 332.64C397.603 332.293 397.969 331.833 398.209 331.26L400.189 332.2C399.976 332.773 399.629 333.293 399.149 333.76C398.683 334.213 398.129 334.573 397.489 334.84C396.849 335.107 396.156 335.24 395.409 335.24ZM402.398 335V319.86H404.658V326.3L404.298 326.02C404.565 325.34 404.991 324.827 405.578 324.48C406.165 324.12 406.845 323.94 407.618 323.94C408.418 323.94 409.125 324.113 409.738 324.46C410.351 324.807 410.831 325.287 411.178 325.9C411.525 326.513 411.698 327.213 411.698 328V335H409.458V328.62C409.458 328.073 409.351 327.613 409.138 327.24C408.938 326.853 408.658 326.56 408.298 326.36C407.938 326.147 407.525 326.04 407.058 326.04C406.605 326.04 406.191 326.147 405.818 326.36C405.458 326.56 405.171 326.853 404.958 327.24C404.758 327.627 404.658 328.087 404.658 328.62V335H402.398ZM419.197 335.24C418.117 335.24 417.157 334.993 416.317 334.5C415.49 333.993 414.844 333.313 414.377 332.46C413.91 331.593 413.677 330.627 413.677 329.56C413.677 328.467 413.91 327.5 414.377 326.66C414.857 325.82 415.497 325.16 416.297 324.68C417.097 324.187 418.004 323.94 419.017 323.94C419.83 323.94 420.557 324.08 421.197 324.36C421.837 324.64 422.377 325.027 422.817 325.52C423.257 326 423.59 326.553 423.817 327.18C424.057 327.807 424.177 328.473 424.177 329.18C424.177 329.353 424.17 329.533 424.157 329.72C424.144 329.907 424.117 330.08 424.077 330.24H415.457V328.44H422.797L421.717 329.26C421.85 328.607 421.804 328.027 421.577 327.52C421.364 327 421.03 326.593 420.577 326.3C420.137 325.993 419.617 325.84 419.017 325.84C418.417 325.84 417.884 325.993 417.417 326.3C416.95 326.593 416.59 327.02 416.337 327.58C416.084 328.127 415.984 328.793 416.037 329.58C415.97 330.313 416.07 330.953 416.337 331.5C416.617 332.047 417.004 332.473 417.497 332.78C418.004 333.087 418.577 333.24 419.217 333.24C419.87 333.24 420.424 333.093 420.877 332.8C421.344 332.507 421.71 332.127 421.977 331.66L423.817 332.56C423.604 333.067 423.27 333.527 422.817 333.94C422.377 334.34 421.844 334.66 421.217 334.9C420.604 335.127 419.93 335.24 419.197 335.24ZM431.383 335.24C430.343 335.24 429.409 334.993 428.583 334.5C427.769 333.993 427.123 333.313 426.643 332.46C426.176 331.607 425.943 330.647 425.943 329.58C425.943 328.513 426.183 327.553 426.663 326.7C427.143 325.847 427.789 325.173 428.603 324.68C429.416 324.187 430.336 323.94 431.363 323.94C432.229 323.94 432.996 324.113 433.663 324.46C434.329 324.807 434.856 325.287 435.243 325.9L434.903 326.42V319.86H437.143V335H435.003V332.8L435.263 333.22C434.889 333.873 434.356 334.373 433.663 334.72C432.969 335.067 432.209 335.24 431.383 335.24ZM431.603 333.14C432.229 333.14 432.789 332.987 433.283 332.68C433.789 332.373 434.183 331.953 434.463 331.42C434.756 330.873 434.903 330.26 434.903 329.58C434.903 328.9 434.756 328.293 434.463 327.76C434.183 327.227 433.789 326.807 433.283 326.5C432.789 326.193 432.229 326.04 431.603 326.04C430.976 326.04 430.409 326.193 429.903 326.5C429.396 326.807 429.003 327.227 428.723 327.76C428.443 328.293 428.303 328.9 428.303 329.58C428.303 330.26 428.443 330.873 428.723 331.42C429.003 331.953 429.389 332.373 429.883 332.68C430.389 332.987 430.963 333.14 431.603 333.14ZM443.641 335.24C442.828 335.24 442.114 335.06 441.501 334.7C440.888 334.327 440.408 333.813 440.061 333.16C439.728 332.493 439.561 331.727 439.561 330.86V324.18H441.821V330.66C441.821 331.153 441.921 331.587 442.121 331.96C442.321 332.333 442.601 332.627 442.961 332.84C443.321 333.04 443.734 333.14 444.201 333.14C444.681 333.14 445.101 333.033 445.461 332.82C445.821 332.607 446.101 332.307 446.301 331.92C446.514 331.533 446.621 331.08 446.621 330.56V324.18H448.861V335H446.721V332.88L446.961 333.16C446.708 333.827 446.288 334.34 445.701 334.7C445.114 335.06 444.428 335.24 443.641 335.24ZM451.5 335V319.86H453.76V335H451.5ZM461.482 335.24C460.402 335.24 459.442 334.993 458.602 334.5C457.775 333.993 457.129 333.313 456.662 332.46C456.195 331.593 455.962 330.627 455.962 329.56C455.962 328.467 456.195 327.5 456.662 326.66C457.142 325.82 457.782 325.16 458.582 324.68C459.382 324.187 460.289 323.94 461.302 323.94C462.115 323.94 462.842 324.08 463.482 324.36C464.122 324.64 464.662 325.027 465.102 325.52C465.542 326 465.875 326.553 466.102 327.18C466.342 327.807 466.462 328.473 466.462 329.18C466.462 329.353 466.455 329.533 466.442 329.72C466.429 329.907 466.402 330.08 466.362 330.24H457.742V328.44H465.082L464.002 329.26C464.135 328.607 464.089 328.027 463.862 327.52C463.649 327 463.315 326.593 462.862 326.3C462.422 325.993 461.902 325.84 461.302 325.84C460.702 325.84 460.169 325.993 459.702 326.3C459.235 326.593 458.875 327.02 458.622 327.58C458.369 328.127 458.269 328.793 458.322 329.58C458.255 330.313 458.355 330.953 458.622 331.5C458.902 332.047 459.289 332.473 459.782 332.78C460.289 333.087 460.862 333.24 461.502 333.24C462.155 333.24 462.709 333.093 463.162 332.8C463.629 332.507 463.995 332.127 464.262 331.66L466.102 332.56C465.889 333.067 465.555 333.527 465.102 333.94C464.662 334.34 464.129 334.66 463.502 334.9C462.889 335.127 462.215 335.24 461.482 335.24Z" fill="black"/>
<path d="M582.5 327V328H583.5V327H582.5ZM529.793 326.293C529.402 326.683 529.402 327.317 529.793 327.707L536.157 334.071C536.547 334.462 537.181 334.462 537.571 334.071C537.962 333.681 537.962 333.047 537.571 332.657L531.914 327L537.571 321.343C537.962 320.953 537.962 320.319 537.571 319.929C537.181 319.538 536.547 319.538 536.157 319.929L529.793 326.293ZM581.5 235.5V327H583.5V235.5H581.5ZM582.5 326H530.5V328H582.5V326Z" fill="black"/>
<path d="M209.52 419.352V417.336C209.52 416.408 209.72 415.64 210.12 415.032C210.536 414.424 211.136 414.024 211.92 413.832V414.672C211.44 414.8 211.096 415.04 210.888 415.392C210.68 415.728 210.56 416.168 210.528 416.712H211.44V419.352H209.52ZM205.92 419.352V417.336C205.92 416.408 206.12 415.64 206.52 415.032C206.936 414.424 207.536 414.024 208.32 413.832V414.672C207.84 414.8 207.496 415.04 207.288 415.392C207.08 415.728 206.96 416.168 206.928 416.712H207.84V419.352H205.92ZM228.428 432.288C227.164 432.288 226.004 432.064 224.948 431.616C223.892 431.152 222.972 430.512 222.188 429.696C221.42 428.864 220.82 427.888 220.388 426.768C219.956 425.648 219.74 424.416 219.74 423.072C219.74 421.728 219.956 420.496 220.388 419.376C220.82 418.256 221.42 417.28 222.188 416.448C222.972 415.616 223.892 414.976 224.948 414.528C226.004 414.064 227.164 413.832 228.428 413.832C229.644 413.832 230.732 414.048 231.692 414.48C232.668 414.912 233.484 415.472 234.14 416.16C234.812 416.832 235.292 417.544 235.58 418.296L233.78 419.088C233.332 418.048 232.644 417.216 231.716 416.592C230.804 415.952 229.708 415.632 228.428 415.632C227.116 415.632 225.948 415.944 224.924 416.568C223.9 417.192 223.1 418.064 222.524 419.184C221.948 420.288 221.66 421.584 221.66 423.072C221.66 424.544 221.948 425.84 222.524 426.96C223.1 428.08 223.9 428.952 224.924 429.576C225.948 430.184 227.116 430.488 228.428 430.488C229.708 430.488 230.804 430.176 231.716 429.552C232.644 428.928 233.332 428.096 233.78 427.056L235.58 427.848C235.292 428.584 234.812 429.296 234.14 429.984C233.484 430.656 232.668 431.208 231.692 431.64C230.732 432.072 229.644 432.288 228.428 432.288ZM242.24 432.288C241.424 432.288 240.696 432.136 240.056 431.832C239.416 431.512 238.912 431.08 238.544 430.536C238.176 429.992 237.992 429.368 237.992 428.664C237.992 427.992 238.136 427.384 238.424 426.84C238.712 426.28 239.16 425.808 239.768 425.424C240.376 425.04 241.152 424.768 242.096 424.608L247.136 423.768V425.4L242.528 426.168C241.6 426.328 240.928 426.624 240.512 427.056C240.112 427.488 239.912 428 239.912 428.592C239.912 429.168 240.136 429.656 240.584 430.056C241.048 430.456 241.64 430.656 242.36 430.656C243.24 430.656 244.008 430.472 244.664 430.104C245.32 429.72 245.832 429.208 246.2 428.568C246.568 427.928 246.752 427.216 246.752 426.432V423.168C246.752 422.4 246.472 421.776 245.912 421.296C245.352 420.816 244.624 420.576 243.728 420.576C242.944 420.576 242.256 420.776 241.664 421.176C241.072 421.56 240.632 422.064 240.344 422.688L238.712 421.8C238.952 421.256 239.328 420.76 239.84 420.312C240.368 419.864 240.968 419.512 241.64 419.256C242.312 418.984 243.008 418.848 243.728 418.848C244.672 418.848 245.504 419.032 246.224 419.4C246.96 419.768 247.528 420.28 247.928 420.936C248.344 421.576 248.552 422.32 248.552 423.168V432H246.752V429.432L247.016 429.696C246.792 430.176 246.44 430.616 245.96 431.016C245.496 431.4 244.944 431.712 244.304 431.952C243.68 432.176 242.992 432.288 242.24 432.288ZM252.254 432V419.136H254.054V421.632L253.646 421.536C253.966 420.704 254.486 420.048 255.206 419.568C255.942 419.088 256.79 418.848 257.75 418.848C258.662 418.848 259.478 419.056 260.198 419.472C260.934 419.888 261.51 420.464 261.926 421.2C262.358 421.92 262.574 422.736 262.574 423.648V432H260.774V424.344C260.774 423.56 260.63 422.896 260.342 422.352C260.07 421.808 259.678 421.392 259.166 421.104C258.67 420.8 258.094 420.648 257.438 420.648C256.782 420.648 256.198 420.8 255.686 421.104C255.174 421.392 254.774 421.816 254.486 422.376C254.198 422.92 254.054 423.576 254.054 424.344V432H252.254ZM270.354 432V414.12H277.866C278.874 414.12 279.746 414.312 280.482 414.696C281.234 415.064 281.81 415.584 282.21 416.256C282.626 416.928 282.834 417.712 282.834 418.608C282.834 419.536 282.602 420.36 282.138 421.08C281.69 421.784 281.042 422.32 280.194 422.688L280.17 422.112C280.874 422.368 281.474 422.728 281.97 423.192C282.482 423.656 282.874 424.2 283.146 424.824C283.418 425.432 283.554 426.088 283.554 426.792C283.554 428.392 283.042 429.664 282.018 430.608C281.01 431.536 279.634 432 277.89 432H270.354ZM272.274 430.2H277.89C279.026 430.2 279.93 429.904 280.602 429.312C281.29 428.704 281.634 427.872 281.634 426.816C281.634 425.776 281.29 424.952 280.602 424.344C279.93 423.72 279.026 423.408 277.89 423.408H272.274V430.2ZM272.274 421.68H277.722C278.682 421.68 279.45 421.4 280.026 420.84C280.618 420.28 280.914 419.56 280.914 418.68C280.914 417.784 280.618 417.104 280.026 416.64C279.45 416.16 278.682 415.92 277.722 415.92H272.274V421.68ZM292.587 432.288C291.387 432.288 290.299 432 289.323 431.424C288.363 430.832 287.603 430.024 287.043 429C286.483 427.976 286.203 426.816 286.203 425.52C286.203 424.224 286.475 423.08 287.019 422.088C287.563 421.08 288.299 420.288 289.227 419.712C290.171 419.136 291.227 418.848 292.395 418.848C293.323 418.848 294.147 419.024 294.867 419.376C295.603 419.712 296.227 420.176 296.739 420.768C297.251 421.344 297.643 422 297.915 422.736C298.187 423.456 298.323 424.2 298.323 424.968C298.323 425.128 298.315 425.312 298.299 425.52C298.283 425.712 298.259 425.912 298.227 426.12H287.355V424.44H297.195L296.331 425.16C296.475 424.28 296.371 423.496 296.019 422.808C295.683 422.104 295.195 421.552 294.555 421.152C293.915 420.736 293.195 420.528 292.395 420.528C291.595 420.528 290.851 420.736 290.163 421.152C289.491 421.568 288.963 422.152 288.579 422.904C288.195 423.64 288.043 424.52 288.123 425.544C288.043 426.568 288.203 427.464 288.603 428.232C289.019 428.984 289.579 429.568 290.283 429.984C291.003 430.4 291.771 430.608 292.587 430.608C293.531 430.608 294.323 430.384 294.963 429.936C295.603 429.488 296.123 428.928 296.523 428.256L298.059 429.072C297.803 429.648 297.411 430.184 296.883 430.68C296.355 431.16 295.723 431.552 294.987 431.856C294.267 432.144 293.467 432.288 292.587 432.288ZM305.839 432V414.12H307.519L314.239 423.864H313.303L319.999 414.12H321.679V432H319.759V416.712L320.383 416.952L313.807 426.48H313.711L307.159 416.952L307.759 416.712V432H305.839ZM329.357 432.288C328.541 432.288 327.813 432.136 327.173 431.832C326.533 431.512 326.029 431.08 325.661 430.536C325.293 429.992 325.109 429.368 325.109 428.664C325.109 427.992 325.253 427.384 325.541 426.84C325.829 426.28 326.277 425.808 326.885 425.424C327.493 425.04 328.269 424.768 329.213 424.608L334.253 423.768V425.4L329.645 426.168C328.717 426.328 328.045 426.624 327.629 427.056C327.229 427.488 327.029 428 327.029 428.592C327.029 429.168 327.253 429.656 327.701 430.056C328.165 430.456 328.757 430.656 329.477 430.656C330.357 430.656 331.125 430.472 331.781 430.104C332.437 429.72 332.949 429.208 333.317 428.568C333.685 427.928 333.869 427.216 333.869 426.432V423.168C333.869 422.4 333.589 421.776 333.029 421.296C332.469 420.816 331.741 420.576 330.845 420.576C330.061 420.576 329.373 420.776 328.781 421.176C328.189 421.56 327.749 422.064 327.461 422.688L325.829 421.8C326.069 421.256 326.445 420.76 326.957 420.312C327.485 419.864 328.085 419.512 328.757 419.256C329.429 418.984 330.125 418.848 330.845 418.848C331.789 418.848 332.621 419.032 333.341 419.4C334.077 419.768 334.645 420.28 335.045 420.936C335.461 421.576 335.669 422.32 335.669 423.168V432H333.869V429.432L334.133 429.696C333.909 430.176 333.557 430.616 333.077 431.016C332.613 431.4 332.061 431.712 331.421 431.952C330.797 432.176 330.109 432.288 329.357 432.288ZM345.179 432.288C343.979 432.288 342.899 432 341.939 431.424C340.979 430.832 340.219 430.032 339.659 429.024C339.115 428 338.843 426.848 338.843 425.568C338.843 424.272 339.115 423.12 339.659 422.112C340.219 421.104 340.971 420.312 341.915 419.736C342.875 419.144 343.963 418.848 345.179 418.848C346.283 418.848 347.267 419.088 348.131 419.568C348.995 420.048 349.675 420.696 350.171 421.512L349.883 422.016V413.832H351.683V432H349.883V429.12L350.171 429.384C349.723 430.312 349.051 431.032 348.155 431.544C347.275 432.04 346.283 432.288 345.179 432.288ZM345.275 430.488C346.139 430.488 346.915 430.272 347.603 429.84C348.307 429.408 348.859 428.824 349.259 428.088C349.675 427.336 349.883 426.496 349.883 425.568C349.883 424.64 349.675 423.808 349.259 423.072C348.859 422.32 348.307 421.728 347.603 421.296C346.915 420.864 346.139 420.648 345.275 420.648C344.427 420.648 343.659 420.864 342.971 421.296C342.283 421.728 341.739 422.312 341.339 423.048C340.955 423.784 340.763 424.624 340.763 425.568C340.763 426.496 340.955 427.336 341.339 428.088C341.739 428.824 342.275 429.408 342.947 429.84C343.635 430.272 344.411 430.488 345.275 430.488ZM361.235 432.288C360.035 432.288 358.947 432 357.971 431.424C357.011 430.832 356.251 430.024 355.691 429C355.131 427.976 354.851 426.816 354.851 425.52C354.851 424.224 355.123 423.08 355.667 422.088C356.211 421.08 356.947 420.288 357.875 419.712C358.819 419.136 359.875 418.848 361.043 418.848C361.971 418.848 362.795 419.024 363.515 419.376C364.251 419.712 364.875 420.176 365.387 420.768C365.899 421.344 366.291 422 366.563 422.736C366.835 423.456 366.971 424.2 366.971 424.968C366.971 425.128 366.963 425.312 366.947 425.52C366.931 425.712 366.907 425.912 366.875 426.12H356.003V424.44H365.843L364.979 425.16C365.123 424.28 365.019 423.496 364.667 422.808C364.331 422.104 363.843 421.552 363.203 421.152C362.563 420.736 361.843 420.528 361.043 420.528C360.243 420.528 359.499 420.736 358.811 421.152C358.139 421.568 357.611 422.152 357.227 422.904C356.843 423.64 356.691 424.52 356.771 425.544C356.691 426.568 356.851 427.464 357.251 428.232C357.667 428.984 358.227 429.568 358.931 429.984C359.651 430.4 360.419 430.608 361.235 430.608C362.179 430.608 362.971 430.384 363.611 429.936C364.251 429.488 364.771 428.928 365.171 428.256L366.707 429.072C366.451 429.648 366.059 430.184 365.531 430.68C365.003 431.16 364.371 431.552 363.635 431.856C362.915 432.144 362.115 432.288 361.235 432.288ZM380.511 432.288C379.375 432.288 378.343 432.072 377.415 431.64C376.487 431.208 375.703 430.632 375.063 429.912C374.423 429.176 373.967 428.368 373.695 427.488L375.423 426.84C375.839 428.056 376.487 428.984 377.367 429.624C378.247 430.248 379.295 430.56 380.511 430.56C381.279 430.56 381.951 430.44 382.527 430.2C383.119 429.944 383.575 429.592 383.895 429.144C384.215 428.696 384.375 428.176 384.375 427.584C384.375 426.704 384.135 426.024 383.655 425.544C383.175 425.064 382.487 424.696 381.591 424.44L378.375 423.48C377.111 423.112 376.135 422.496 375.447 421.632C374.775 420.768 374.439 419.784 374.439 418.68C374.439 417.736 374.671 416.904 375.135 416.184C375.599 415.448 376.231 414.872 377.031 414.456C377.847 414.04 378.767 413.832 379.791 413.832C380.863 413.832 381.823 414.032 382.671 414.432C383.535 414.816 384.263 415.328 384.855 415.968C385.447 416.608 385.871 417.32 386.127 418.104L384.447 418.776C384.063 417.72 383.463 416.92 382.647 416.376C381.847 415.832 380.903 415.56 379.815 415.56C379.127 415.56 378.519 415.68 377.991 415.92C377.479 416.16 377.079 416.504 376.791 416.952C376.503 417.4 376.359 417.928 376.359 418.536C376.359 419.272 376.591 419.936 377.055 420.528C377.519 421.104 378.231 421.536 379.191 421.824L382.023 422.664C383.431 423.08 384.495 423.68 385.215 424.464C385.935 425.248 386.295 426.232 386.295 427.416C386.295 428.376 386.047 429.224 385.551 429.96C385.071 430.68 384.391 431.248 383.511 431.664C382.647 432.08 381.647 432.288 380.511 432.288ZM389.739 432V419.136H391.539V432H389.739ZM389.739 416.76V414.12H391.539V416.76H389.739ZM395.223 432V419.136H397.023V421.584L396.735 421.224C397.087 420.472 397.607 419.888 398.295 419.472C398.999 419.056 399.767 418.848 400.599 418.848C401.591 418.848 402.487 419.128 403.287 419.688C404.087 420.248 404.655 420.976 404.991 421.872L404.487 421.896C404.807 420.904 405.359 420.152 406.143 419.64C406.943 419.112 407.823 418.848 408.783 418.848C409.647 418.848 410.439 419.056 411.159 419.472C411.895 419.888 412.479 420.464 412.911 421.2C413.359 421.92 413.583 422.736 413.583 423.648V432H411.783V424.344C411.783 423.56 411.639 422.896 411.351 422.352C411.079 421.808 410.703 421.392 410.223 421.104C409.743 420.8 409.191 420.648 408.567 420.648C407.959 420.648 407.407 420.8 406.911 421.104C406.415 421.392 406.023 421.816 405.735 422.376C405.447 422.92 405.303 423.576 405.303 424.344V432H403.503V424.344C403.503 423.56 403.359 422.896 403.071 422.352C402.799 421.808 402.423 421.392 401.943 421.104C401.463 420.8 400.911 420.648 400.287 420.648C399.663 420.648 399.103 420.8 398.607 421.104C398.127 421.392 397.743 421.816 397.455 422.376C397.167 422.92 397.023 423.576 397.023 424.344V432H395.223ZM417.02 436.8V419.136H418.82V422.016L418.532 421.512C419.044 420.696 419.724 420.048 420.572 419.568C421.436 419.088 422.42 418.848 423.524 418.848C424.74 418.848 425.82 419.144 426.764 419.736C427.724 420.312 428.476 421.104 429.02 422.112C429.58 423.12 429.86 424.272 429.86 425.568C429.86 426.848 429.58 428 429.02 429.024C428.476 430.032 427.724 430.832 426.764 431.424C425.82 432 424.74 432.288 423.524 432.288C422.42 432.288 421.42 432.04 420.524 431.544C419.644 431.032 418.98 430.312 418.532 429.384L418.82 429.12V436.8H417.02ZM423.428 430.488C424.292 430.488 425.06 430.272 425.732 429.84C426.42 429.408 426.956 428.824 427.34 428.088C427.74 427.336 427.94 426.496 427.94 425.568C427.94 424.624 427.74 423.784 427.34 423.048C426.956 422.312 426.42 421.728 425.732 421.296C425.06 420.864 424.292 420.648 423.428 420.648C422.564 420.648 421.78 420.864 421.076 421.296C420.388 421.728 419.836 422.32 419.42 423.072C419.02 423.808 418.82 424.64 418.82 425.568C418.82 426.496 419.02 427.336 419.42 428.088C419.836 428.824 420.388 429.408 421.076 429.84C421.78 430.272 422.564 430.488 423.428 430.488ZM433.028 432V413.832H434.828V432H433.028ZM444.368 432.288C443.168 432.288 442.08 432 441.104 431.424C440.144 430.832 439.384 430.024 438.824 429C438.264 427.976 437.984 426.816 437.984 425.52C437.984 424.224 438.256 423.08 438.8 422.088C439.344 421.08 440.08 420.288 441.008 419.712C441.952 419.136 443.008 418.848 444.176 418.848C445.104 418.848 445.928 419.024 446.648 419.376C447.384 419.712 448.008 420.176 448.52 420.768C449.032 421.344 449.424 422 449.696 422.736C449.968 423.456 450.104 424.2 450.104 424.968C450.104 425.128 450.096 425.312 450.08 425.52C450.064 425.712 450.04 425.912 450.008 426.12H439.136V424.44H448.976L448.112 425.16C448.256 424.28 448.152 423.496 447.8 422.808C447.464 422.104 446.976 421.552 446.336 421.152C445.696 420.736 444.976 420.528 444.176 420.528C443.376 420.528 442.632 420.736 441.944 421.152C441.272 421.568 440.744 422.152 440.36 422.904C439.976 423.64 439.824 424.52 439.904 425.544C439.824 426.568 439.984 427.464 440.384 428.232C440.8 428.984 441.36 429.568 442.064 429.984C442.784 430.4 443.552 430.608 444.368 430.608C445.312 430.608 446.104 430.384 446.744 429.936C447.384 429.488 447.904 428.928 448.304 428.256L449.84 429.072C449.584 429.648 449.192 430.184 448.664 430.68C448.136 431.16 447.504 431.552 446.768 431.856C446.048 432.144 445.248 432.288 444.368 432.288ZM456.95 419.352V417.336C456.95 416.408 457.15 415.64 457.55 415.032C457.966 414.424 458.566 414.024 459.35 413.832V414.672C458.87 414.8 458.526 415.04 458.318 415.392C458.11 415.728 457.99 416.168 457.958 416.712H458.87V419.352H456.95ZM453.35 419.352V417.336C453.35 416.408 453.55 415.64 453.95 415.032C454.366 414.424 454.966 414.024 455.75 413.832V414.672C455.27 414.8 454.926 415.04 454.718 415.392C454.51 415.728 454.39 416.168 454.358 416.712H455.27V419.352H453.35Z" fill="black"/>
</svg>
