<svg width="479" height="323" viewBox="0 0 479 323" fill="none" xmlns="http://www.w3.org/2000/svg">
<rect x="7.4292" width="190.382" height="59.0155" rx="29.5078" fill="#E0E0E0"/>
<path d="M45.4465 20.4349C40.0164 20.4349 36.2612 24.6493 36.2612 30.0794C36.2612 35.5095 40.0164 39.7239 45.4465 39.7239C50.8766 39.7239 54.6047 35.5095 54.6047 30.0794C54.6047 24.6493 50.8766 20.4349 45.4465 20.4349ZM45.4465 36.1039C41.9885 36.1039 39.9353 33.5104 39.9353 30.0794C39.9353 26.6214 41.9885 24.0279 45.4465 24.0279C48.8774 24.0279 50.9306 26.6214 50.9306 30.0794C50.9306 33.5104 48.8774 36.1039 45.4465 36.1039ZM62.9865 26.2972C61.7708 26.2972 60.7442 26.8105 59.9608 27.621V26.4863H56.3677V39.5078H59.9608V32.4297C59.9608 30.5116 60.8253 29.6472 62.122 29.6472C63.4187 29.6472 64.2022 30.4036 64.2022 32.2947V39.5078H67.7953V32.4297C67.7953 28.4315 65.9582 26.2972 62.9865 26.2972ZM77.0025 26.2972C75.6247 26.2972 74.436 26.8105 73.5445 27.621V20.597H69.9514V39.5078H73.5445V38.4002C74.436 39.2106 75.6247 39.7239 77.0025 39.7239C80.7576 39.7239 83.2701 36.7522 83.2701 32.9971C83.2701 29.2419 80.7576 26.2972 77.0025 26.2972ZM76.6243 36.428C74.6791 36.428 73.5445 34.9422 73.5445 32.9971C73.5445 31.052 74.6791 29.5661 76.6243 29.5661C78.5424 29.5661 79.677 31.052 79.677 32.9971C79.677 34.9422 78.5424 36.428 76.6243 36.428ZM91.0704 26.2972C87.3152 26.2972 84.4786 29.2419 84.4786 32.9971C84.4786 36.7522 87.3152 39.7239 91.0704 39.7239C94.8255 39.7239 97.6622 36.7522 97.6622 32.9971C97.6622 29.2419 94.8255 26.2972 91.0704 26.2972ZM91.0704 36.428C89.1253 36.428 87.9906 34.9422 87.9906 32.9971C87.9906 31.052 89.1253 29.5661 91.0704 29.5661C93.0155 29.5661 94.1502 31.052 94.1502 32.9971C94.1502 34.9422 93.0155 36.428 91.0704 36.428ZM104.911 26.2972C101.669 26.2972 99.751 28.4315 99.5079 30.1334L102.507 30.7818C102.723 29.7822 103.56 29.2689 104.668 29.2419C105.938 29.1879 106.775 29.9984 106.586 30.7818C106.424 31.5112 105.505 31.5112 103.317 31.9975C100.561 32.5918 98.6164 33.5914 98.6164 36.428C98.7244 38.4002 100.129 39.7239 102.669 39.7239C104.884 39.7239 106.181 38.7784 106.667 38.2921V39.5078H110.233V31.3761C110.233 27.594 107.748 26.2972 104.911 26.2972ZM106.667 34.1858C106.559 35.6176 105.559 36.7252 104.155 36.9413C103.344 37.0764 102.534 36.9143 102.317 36.32C102.074 35.6716 102.453 34.8071 103.776 34.4559C105.478 34.0237 106.667 33.7805 106.667 33.7805V34.1858ZM119.019 26.2972C117.804 26.2972 116.777 26.8105 115.994 27.621V26.4863H112.401V39.5078H115.994V32.4297C115.994 30.5116 116.885 29.6472 118.155 29.6472C118.641 29.6472 119.046 29.7552 119.371 29.9713L120.046 26.3783C119.722 26.3242 119.371 26.2972 119.019 26.2972ZM130.001 20.597V27.621C129.082 26.8105 127.92 26.2972 126.516 26.2972C122.76 26.2972 120.329 29.2419 120.329 32.9971C120.329 36.7522 122.76 39.7239 126.516 39.7239C127.92 39.7239 129.082 39.2106 130.001 38.4002V39.5078H133.594V20.597H130.001ZM126.921 36.428C124.976 36.428 123.841 34.9422 123.841 32.9971C123.841 31.052 124.976 29.5661 126.921 29.5661C128.866 29.5661 130.001 31.052 130.001 32.9971C130.001 34.9422 128.866 36.428 126.921 36.428ZM137.775 24.6763C138.883 24.6763 139.774 23.7848 139.774 22.6772C139.774 21.5425 138.883 20.651 137.775 20.651C136.64 20.651 135.749 21.5425 135.749 22.6772C135.749 23.7848 136.64 24.6763 137.775 24.6763ZM135.965 39.5078H139.558V26.4863H135.965V39.5078ZM148.676 26.2972C147.461 26.2972 146.434 26.8105 145.651 27.621V26.4863H142.058V39.5078H145.651V32.4297C145.651 30.5116 146.515 29.6472 147.812 29.6472C149.109 29.6472 149.892 30.4036 149.892 32.2947V39.5078H153.485V32.4297C153.485 28.4315 151.648 26.2972 148.676 26.2972ZM164.854 26.4863V27.621C163.962 26.8105 162.773 26.2972 161.396 26.2972C157.64 26.2972 155.101 29.2419 155.101 32.9971C155.101 36.7522 157.64 39.7239 161.396 39.7239C162.773 39.7239 163.935 39.2106 164.854 38.4002C164.827 40.6965 163.611 42.1553 161.504 42.1553C159.964 42.1553 158.964 41.507 158.316 40.7235L155.614 42.6146C156.587 44.0194 158.856 45.6133 161.585 45.6133C166.366 45.6133 168.447 42.1283 168.447 37.6167C168.447 33.4023 168.447 26.4863 168.447 26.4863H164.854ZM161.774 36.428C159.829 36.428 158.694 34.9422 158.694 32.9971C158.694 31.052 159.829 29.5661 161.774 29.5661C163.719 29.5661 164.854 31.052 164.854 32.9971C164.854 34.9422 163.719 36.428 161.774 36.428Z" fill="#2F2F2F"/>
<rect y="172.224" width="205.382" height="59.0155" rx="29.5078" fill="#E0E0E0"/>
<path d="M37.747 208.327C34.316 208.327 32.2628 205.734 32.2628 202.303C32.2628 198.845 34.316 196.252 37.747 196.252C39.8272 196.252 41.3941 197.197 42.3396 198.71L45.5815 197.089C44.0416 194.387 41.232 192.658 37.747 192.658C32.3169 192.658 28.5887 196.873 28.5887 202.303C28.5887 207.733 32.3169 211.948 37.747 211.948C41.232 211.948 44.0416 210.192 45.5815 207.517L42.3396 205.896C41.3941 207.409 39.8272 208.327 37.747 208.327ZM53.5432 198.521C52.3276 198.521 51.301 199.034 50.5175 199.845V198.71H46.9245V211.731H50.5175V204.653C50.5175 202.735 51.409 201.871 52.6788 201.871C53.165 201.871 53.5703 201.979 53.8945 202.195L54.5698 198.602C54.2457 198.548 53.8945 198.521 53.5432 198.521ZM67.226 206.517C67.307 206.112 67.334 205.68 67.334 205.221C67.334 201.466 65.0377 198.521 61.3096 198.521C57.5544 198.521 54.8529 201.466 54.8529 205.221C54.8529 208.976 57.6895 211.948 61.4447 211.948C63.822 211.948 65.7401 210.759 66.8207 208.949L63.849 207.49C63.3357 208.219 62.4983 208.652 61.4447 208.652C59.9588 208.652 58.9592 207.787 58.554 206.517H67.226ZM61.3096 201.79C62.8224 201.79 63.6329 202.708 63.9301 204.005H58.527C58.8512 202.708 59.7967 201.79 61.3096 201.79ZM74.708 198.521C71.4661 198.521 69.548 200.655 69.3049 202.357L72.3036 203.005C72.5197 202.006 73.3572 201.493 74.4649 201.466C75.7346 201.412 76.5721 202.222 76.383 203.005C76.2209 203.735 75.3023 203.735 73.1141 204.221C70.3585 204.815 68.4134 205.815 68.4134 208.652C68.5214 210.624 69.9263 211.948 72.4657 211.948C74.681 211.948 75.9777 211.002 76.464 210.516V211.731H80.0301V203.6C80.0301 199.818 77.5446 198.521 74.708 198.521ZM76.464 206.409C76.3559 207.841 75.3564 208.949 73.9516 209.165C73.1411 209.3 72.3306 209.138 72.1145 208.544C71.8714 207.895 72.2496 207.031 73.5733 206.68C75.2753 206.247 76.464 206.004 76.464 206.004V206.409ZM89.5792 207.895C89.228 208.219 88.5526 208.436 88.0663 208.436C86.9317 208.436 86.6345 207.733 86.6345 206.571V202.168H89.6602V198.71H86.6345V194.982L83.0414 195.792V198.71H81.2584V202.168H83.0414V207.733C83.0414 210.435 84.5813 211.867 87.3369 211.867C88.8768 211.867 90.0925 211.299 90.7679 210.651L89.5792 207.895ZM97.9082 198.521C94.153 198.521 91.3164 201.466 91.3164 205.221C91.3164 208.976 94.153 211.948 97.9082 211.948C101.663 211.948 104.5 208.976 104.5 205.221C104.5 201.466 101.663 198.521 97.9082 198.521ZM97.9082 208.652C95.9631 208.652 94.8284 207.166 94.8284 205.221C94.8284 203.276 95.9631 201.79 97.9082 201.79C99.8533 201.79 100.988 203.276 100.988 205.221C100.988 207.166 99.8533 208.652 97.9082 208.652ZM112.745 198.521C111.529 198.521 110.503 199.034 109.719 199.845V198.71H106.126V211.731H109.719V204.653C109.719 202.735 110.611 201.871 111.881 201.871C112.367 201.871 112.772 201.979 113.096 202.195L113.772 198.602C113.448 198.548 113.096 198.521 112.745 198.521ZM129.549 192.821H122.552V211.731H126.145V205.248H129.549C133.763 205.248 136.114 202.492 136.114 199.034C136.114 195.576 133.763 192.821 129.549 192.821ZM129.468 201.817H126.145V196.279H129.468C131.251 196.279 132.413 197.413 132.413 199.034C132.413 200.655 131.251 201.817 129.468 201.817ZM142.405 198.521C139.163 198.521 137.245 200.655 137.002 202.357L140.001 203.005C140.217 202.006 141.054 201.493 142.162 201.466C143.432 201.412 144.269 202.222 144.08 203.005C143.918 203.735 142.999 203.735 140.811 204.221C138.056 204.815 136.11 205.815 136.11 208.652C136.219 210.624 137.623 211.948 140.163 211.948C142.378 211.948 143.675 211.002 144.161 210.516V211.731H147.727V203.6C147.727 199.818 145.242 198.521 142.405 198.521ZM144.161 206.409C144.053 207.841 143.053 208.949 141.649 209.165C140.838 209.3 140.028 209.138 139.812 208.544C139.568 207.895 139.947 207.031 141.27 206.68C142.972 206.247 144.161 206.004 144.161 206.004V206.409ZM159.107 198.71V199.845C158.215 199.034 157.027 198.521 155.649 198.521C151.894 198.521 149.354 201.466 149.354 205.221C149.354 208.976 151.894 211.948 155.649 211.948C157.027 211.948 158.188 211.434 159.107 210.624C159.08 212.92 157.864 214.379 155.757 214.379C154.217 214.379 153.218 213.731 152.569 212.947L149.868 214.838C150.84 216.243 153.11 217.837 155.838 217.837C160.62 217.837 162.7 214.352 162.7 209.84C162.7 205.626 162.7 198.71 162.7 198.71H159.107ZM156.027 208.652C154.082 208.652 152.947 207.166 152.947 205.221C152.947 203.276 154.082 201.79 156.027 201.79C157.972 201.79 159.107 203.276 159.107 205.221C159.107 207.166 157.972 208.652 156.027 208.652ZM176.686 206.517C176.767 206.112 176.794 205.68 176.794 205.221C176.794 201.466 174.498 198.521 170.77 198.521C167.015 198.521 164.313 201.466 164.313 205.221C164.313 208.976 167.15 211.948 170.905 211.948C173.282 211.948 175.2 210.759 176.281 208.949L173.309 207.49C172.796 208.219 171.959 208.652 170.905 208.652C169.419 208.652 168.42 207.787 168.014 206.517H176.686ZM170.77 201.79C172.283 201.79 173.093 202.708 173.39 204.005H167.987C168.311 202.708 169.257 201.79 170.77 201.79Z" fill="#2F2F2F"/>
<rect x="287.19" y="172.224" width="191.382" height="59.0155" rx="29.5078" fill="#E0E0E0"/>
<path d="M328.696 211.731H332.775L325.859 192.821H322.185L315.269 211.731H319.349L320.807 207.463H327.21L328.696 211.731ZM322.023 204.032L324.022 198.224L326.021 204.032H322.023ZM340.609 198.521C339.393 198.521 338.367 199.034 337.583 199.845V198.71H333.99V211.731H337.583V204.653C337.583 202.735 338.448 201.871 339.744 201.871C341.041 201.871 341.825 202.627 341.825 204.518V211.731H345.418V204.653C345.418 200.655 343.581 198.521 340.609 198.521ZM349.468 196.9C350.576 196.9 351.467 196.008 351.467 194.901C351.467 193.766 350.576 192.875 349.468 192.875C348.333 192.875 347.442 193.766 347.442 194.901C347.442 196.008 348.333 196.9 349.468 196.9ZM347.658 211.731H351.251V198.71H347.658V211.731ZM367.447 198.521C365.961 198.521 364.638 199.142 363.692 200.196C362.936 199.088 361.774 198.521 360.234 198.521C359.019 198.521 357.992 199.034 357.208 199.845V198.71H353.615V211.731H357.208V204.653C357.208 202.843 357.938 201.871 359.208 201.871C360.504 201.871 361.153 202.816 361.153 204.518V211.731H364.746V204.653C364.746 202.843 365.448 201.871 366.745 201.871C368.042 201.871 368.69 202.816 368.69 204.518V211.731H372.283V204.653C372.283 200.655 370.446 198.521 367.447 198.521ZM386.29 206.517C386.371 206.112 386.398 205.68 386.398 205.221C386.398 201.466 384.102 198.521 380.374 198.521C376.619 198.521 373.917 201.466 373.917 205.221C373.917 208.976 376.754 211.948 380.509 211.948C382.886 211.948 384.804 210.759 385.885 208.949L382.913 207.49C382.4 208.219 381.563 208.652 380.509 208.652C379.023 208.652 378.023 207.787 377.618 206.517H386.29ZM380.374 201.79C381.887 201.79 382.697 202.708 382.994 204.005H377.591C377.915 202.708 378.861 201.79 380.374 201.79ZM402.708 192.821H395.711V211.731H399.304V205.248H402.708C406.922 205.248 409.273 202.492 409.273 199.034C409.273 195.576 406.922 192.821 402.708 192.821ZM402.627 201.817H399.304V196.279H402.627C404.41 196.279 405.572 197.413 405.572 199.034C405.572 200.655 404.41 201.817 402.627 201.817ZM415.564 198.521C412.322 198.521 410.404 200.655 410.161 202.357L413.16 203.005C413.376 202.006 414.213 201.493 415.321 201.466C416.591 201.412 417.428 202.222 417.239 203.005C417.077 203.735 416.158 203.735 413.97 204.221C411.215 204.815 409.269 205.815 409.269 208.652C409.378 210.624 410.782 211.948 413.322 211.948C415.537 211.948 416.834 211.002 417.32 210.516V211.731H420.886V203.6C420.886 199.818 418.401 198.521 415.564 198.521ZM417.32 206.409C417.212 207.841 416.212 208.949 414.808 209.165C413.997 209.3 413.187 209.138 412.971 208.544C412.727 207.895 413.106 207.031 414.429 206.68C416.131 206.247 417.32 206.004 417.32 206.004V206.409ZM432.266 198.71V199.845C431.374 199.034 430.186 198.521 428.808 198.521C425.053 198.521 422.513 201.466 422.513 205.221C422.513 208.976 425.053 211.948 428.808 211.948C430.186 211.948 431.347 211.434 432.266 210.624C432.239 212.92 431.023 214.379 428.916 214.379C427.376 214.379 426.377 213.731 425.728 212.947L423.027 214.838C423.999 216.243 426.269 217.837 428.997 217.837C433.779 217.837 435.859 214.352 435.859 209.84C435.859 205.626 435.859 198.71 435.859 198.71H432.266ZM429.186 208.652C427.241 208.652 426.106 207.166 426.106 205.221C426.106 203.276 427.241 201.79 429.186 201.79C431.131 201.79 432.266 203.276 432.266 205.221C432.266 207.166 431.131 208.652 429.186 208.652ZM449.845 206.517C449.926 206.112 449.953 205.68 449.953 205.221C449.953 201.466 447.657 198.521 443.929 198.521C440.174 198.521 437.472 201.466 437.472 205.221C437.472 208.976 440.309 211.948 444.064 211.948C446.441 211.948 448.359 210.759 449.44 208.949L446.468 207.49C445.955 208.219 445.118 208.652 444.064 208.652C442.578 208.652 441.579 207.787 441.173 206.517H449.845ZM443.929 201.79C445.442 201.79 446.252 202.708 446.549 204.005H441.146C441.47 202.708 442.416 201.79 443.929 201.79Z" fill="#2F2F2F"/>
<rect x="287.19" width="190.382" height="59.0155" rx="29.5078" fill="#E0E0E0"/>
<path d="M325.207 20.4349C319.777 20.4349 316.022 24.6493 316.022 30.0794C316.022 35.5095 319.777 39.7239 325.207 39.7239C330.637 39.7239 334.365 35.5095 334.365 30.0794C334.365 24.6493 330.637 20.4349 325.207 20.4349ZM325.207 36.1039C321.749 36.1039 319.696 33.5104 319.696 30.0794C319.696 26.6214 321.749 24.0279 325.207 24.0279C328.638 24.0279 330.691 26.6214 330.691 30.0794C330.691 33.5104 328.638 36.1039 325.207 36.1039ZM342.747 26.2972C341.531 26.2972 340.505 26.8105 339.721 27.621V26.4863H336.128V39.5078H339.721V32.4297C339.721 30.5116 340.586 29.6472 341.883 29.6472C343.179 29.6472 343.963 30.4036 343.963 32.2947V39.5078H347.556V32.4297C347.556 28.4315 345.719 26.2972 342.747 26.2972ZM356.763 26.2972C355.385 26.2972 354.197 26.8105 353.305 27.621V20.597H349.712V39.5078H353.305V38.4002C354.197 39.2106 355.385 39.7239 356.763 39.7239C360.518 39.7239 363.031 36.7522 363.031 32.9971C363.031 29.2419 360.518 26.2972 356.763 26.2972ZM356.385 36.428C354.44 36.428 353.305 34.9422 353.305 32.9971C353.305 31.052 354.44 29.5661 356.385 29.5661C358.303 29.5661 359.438 31.052 359.438 32.9971C359.438 34.9422 358.303 36.428 356.385 36.428ZM370.831 26.2972C367.076 26.2972 364.239 29.2419 364.239 32.9971C364.239 36.7522 367.076 39.7239 370.831 39.7239C374.586 39.7239 377.423 36.7522 377.423 32.9971C377.423 29.2419 374.586 26.2972 370.831 26.2972ZM370.831 36.428C368.886 36.428 367.751 34.9422 367.751 32.9971C367.751 31.052 368.886 29.5661 370.831 29.5661C372.776 29.5661 373.911 31.052 373.911 32.9971C373.911 34.9422 372.776 36.428 370.831 36.428ZM384.672 26.2972C381.43 26.2972 379.512 28.4315 379.269 30.1334L382.267 30.7818C382.483 29.7822 383.321 29.2689 384.428 29.2419C385.698 29.1879 386.536 29.9984 386.347 30.7818C386.184 31.5112 385.266 31.5112 383.078 31.9975C380.322 32.5918 378.377 33.5914 378.377 36.428C378.485 38.4002 379.89 39.7239 382.429 39.7239C384.645 39.7239 385.941 38.7784 386.428 38.2921V39.5078H389.994V31.3761C389.994 27.594 387.508 26.2972 384.672 26.2972ZM386.428 34.1858C386.32 35.6176 385.32 36.7252 383.915 36.9413C383.105 37.0764 382.294 36.9143 382.078 36.32C381.835 35.6716 382.213 34.8071 383.537 34.4559C385.239 34.0237 386.428 33.7805 386.428 33.7805V34.1858ZM398.78 26.2972C397.564 26.2972 396.538 26.8105 395.754 27.621V26.4863H392.161V39.5078H395.754V32.4297C395.754 30.5116 396.646 29.6472 397.916 29.6472C398.402 29.6472 398.807 29.7552 399.131 29.9713L399.807 26.3783C399.482 26.3242 399.131 26.2972 398.78 26.2972ZM409.761 20.597V27.621C408.843 26.8105 407.681 26.2972 406.276 26.2972C402.521 26.2972 400.09 29.2419 400.09 32.9971C400.09 36.7522 402.521 39.7239 406.276 39.7239C407.681 39.7239 408.843 39.2106 409.761 38.4002V39.5078H413.354V20.597H409.761ZM406.681 36.428C404.736 36.428 403.602 34.9422 403.602 32.9971C403.602 31.052 404.736 29.5661 406.681 29.5661C408.627 29.5661 409.761 31.052 409.761 32.9971C409.761 34.9422 408.627 36.428 406.681 36.428ZM417.536 24.6763C418.643 24.6763 419.535 23.7848 419.535 22.6772C419.535 21.5425 418.643 20.651 417.536 20.651C416.401 20.651 415.51 21.5425 415.51 22.6772C415.51 23.7848 416.401 24.6763 417.536 24.6763ZM415.726 39.5078H419.319V26.4863H415.726V39.5078ZM428.437 26.2972C427.221 26.2972 426.195 26.8105 425.411 27.621V26.4863H421.818V39.5078H425.411V32.4297C425.411 30.5116 426.276 29.6472 427.572 29.6472C428.869 29.6472 429.653 30.4036 429.653 32.2947V39.5078H433.246V32.4297C433.246 28.4315 431.409 26.2972 428.437 26.2972ZM444.614 26.4863V27.621C443.723 26.8105 442.534 26.2972 441.156 26.2972C437.401 26.2972 434.862 29.2419 434.862 32.9971C434.862 36.7522 437.401 39.7239 441.156 39.7239C442.534 39.7239 443.696 39.2106 444.614 38.4002C444.587 40.6965 443.371 42.1553 441.264 42.1553C439.724 42.1553 438.725 41.507 438.076 40.7235L435.375 42.6146C436.347 44.0194 438.617 45.6133 441.345 45.6133C446.127 45.6133 448.207 42.1283 448.207 37.6167C448.207 33.4023 448.207 26.4863 448.207 26.4863H444.614ZM441.534 36.428C439.589 36.428 438.455 34.9422 438.455 32.9971C438.455 31.052 439.589 29.5661 441.534 29.5661C443.48 29.5661 444.614 31.052 444.614 32.9971C444.614 34.9422 443.48 36.428 441.534 36.428Z" fill="#2F2F2F"/>
<path d="M104.01 92.5283C104.01 91.7823 103.405 91.1775 102.659 91.1775C101.913 91.1775 101.308 91.7823 101.308 92.5283H104.01ZM101.704 129.954C102.231 130.482 103.087 130.482 103.614 129.954L112.21 121.358C112.738 120.831 112.738 119.975 112.21 119.448C111.683 118.92 110.828 118.92 110.3 119.448L102.659 127.089L95.0178 119.448C94.4903 118.92 93.635 118.92 93.1075 119.448C92.58 119.975 92.58 120.831 93.1075 121.358L101.704 129.954ZM101.308 92.5283V128.999H104.01V92.5283H101.308Z" fill="black"/>
<path d="M384.446 92.5283C384.446 91.7823 383.841 91.1775 383.095 91.1775C382.349 91.1775 381.744 91.7823 381.744 92.5283H384.446ZM382.14 134.007C382.667 134.534 383.523 134.534 384.05 134.007L392.646 125.41C393.174 124.883 393.174 124.028 392.646 123.5C392.119 122.973 391.264 122.973 390.736 123.5L383.095 131.141L375.454 123.5C374.926 122.973 374.071 122.973 373.544 123.5C373.016 124.028 373.016 124.883 373.544 125.41L382.14 134.007ZM381.744 92.5283V133.052H384.446V92.5283H381.744Z" fill="black"/>
<rect x="79.0204" y="274.883" width="47.2771" height="47.2771" rx="23.6386" fill="#FF3737"/>
<path d="M105.037 298.52L112.291 291.282C112.608 290.965 112.787 290.534 112.787 290.085C112.787 289.635 112.608 289.204 112.291 288.887C111.973 288.569 111.542 288.391 111.093 288.391C110.644 288.391 110.213 288.569 109.895 288.887L102.659 296.141L95.4224 288.887C95.1047 288.569 94.6739 288.391 94.2247 288.391C93.7755 288.391 93.3447 288.569 93.0271 288.887C92.7094 289.204 92.531 289.635 92.531 290.085C92.531 290.534 92.7094 290.965 93.0271 291.282L100.28 298.52L93.0271 305.758C92.869 305.914 92.7435 306.101 92.6578 306.307C92.5722 306.512 92.5281 306.733 92.5281 306.955C92.5281 307.178 92.5722 307.399 92.6578 307.604C92.7435 307.81 92.869 307.996 93.0271 308.153C93.1839 308.311 93.3705 308.437 93.576 308.523C93.7816 308.608 94.002 308.652 94.2247 308.652C94.4474 308.652 94.6679 308.608 94.8734 308.523C95.079 308.437 95.2656 308.311 95.4224 308.153L102.659 300.899L109.895 308.153C110.052 308.311 110.239 308.437 110.444 308.523C110.65 308.608 110.87 308.652 111.093 308.652C111.316 308.652 111.536 308.608 111.742 308.523C111.947 308.437 112.134 308.311 112.291 308.153C112.449 307.996 112.574 307.81 112.66 307.604C112.746 307.399 112.79 307.178 112.79 306.955C112.79 306.733 112.746 306.512 112.66 306.307C112.574 306.101 112.449 305.914 112.291 305.758L105.037 298.52Z" fill="white"/>
<rect x="359.457" y="274.883" width="47.2771" height="47.2771" rx="23.6386" fill="#47FF29"/>
<path d="M380.225 302.812L392.662 290.417L394.577 292.323L380.225 306.626L371.614 298.044L373.527 296.138L380.225 302.812Z" fill="white"/>
</svg>
