<svg width="491" height="264" viewBox="0 0 491 264" fill="none" xmlns="http://www.w3.org/2000/svg">
<rect x="11" y="27" width="109.834" height="37.8754" rx="18.9377" fill="#E9E9E9"/>
<path d="M31.0264 51.6045C30.2749 51.6045 29.5744 51.47 28.925 51.2009C28.2848 50.9319 27.7188 50.5561 27.2271 50.0736C26.7447 49.5912 26.3643 49.0252 26.0859 48.3758C25.8169 47.7263 25.6823 47.0166 25.6823 46.2465C25.6823 45.4764 25.8169 44.7667 26.0859 44.1172C26.3643 43.4585 26.7447 42.8925 27.2271 42.4193C27.7096 41.9369 28.2755 41.5658 28.925 41.306C29.5744 41.0369 30.2749 40.9024 31.0264 40.9024C31.7872 40.9024 32.4877 41.0369 33.1279 41.306C33.7773 41.5658 34.3433 41.9369 34.8257 42.4193C35.3175 42.9018 35.6979 43.4677 35.9669 44.1172C36.236 44.7667 36.3705 45.4764 36.3705 46.2465C36.3705 47.0166 36.2314 47.7263 35.953 48.3758C35.684 49.0252 35.3082 49.5912 34.8257 50.0736C34.3433 50.5561 33.7773 50.9319 33.1279 51.2009C32.4784 51.47 31.7779 51.6045 31.0264 51.6045ZM31.0264 50.1015C31.5645 50.1015 32.0563 50.0041 32.5016 49.8092C32.9562 49.6144 33.3506 49.3453 33.6846 49.002C34.0186 48.6495 34.2783 48.2412 34.4639 47.7774C34.6495 47.3042 34.7422 46.7939 34.7422 46.2465C34.7422 45.6991 34.6495 45.1934 34.4639 44.7295C34.2783 44.2657 34.0186 43.8574 33.6846 43.5049C33.3506 43.1523 32.9562 42.8786 32.5016 42.6838C32.0563 42.4889 31.5645 42.3915 31.0264 42.3915C30.4883 42.3915 29.9919 42.4889 29.5373 42.6838C29.092 42.8786 28.7023 43.1523 28.3683 43.5049C28.0343 43.8574 27.7745 44.2657 27.5889 44.7295C27.4127 45.1934 27.3245 45.6991 27.3245 46.2465C27.3245 46.7939 27.4127 47.3042 27.5889 47.7774C27.7745 48.2412 28.0343 48.6495 28.3683 49.002C28.7023 49.3453 29.0966 49.6144 29.5512 49.8092C30.0059 50.0041 30.4976 50.1015 31.0264 50.1015ZM38.0535 51.4375V43.9084H39.5565V45.3836L39.3756 45.1888C39.5612 44.7156 39.858 44.3584 40.2663 44.1172C40.6745 43.8667 41.1477 43.7414 41.6858 43.7414C42.2425 43.7414 42.7342 43.8621 43.161 44.1033C43.5878 44.3445 43.9218 44.6785 44.163 45.1053C44.4042 45.5321 44.5249 46.0238 44.5249 46.5805V51.4375H42.9662V46.998C42.9662 46.6176 42.8966 46.2975 42.7574 46.0377C42.6182 45.7687 42.4188 45.5646 42.159 45.4254C41.9085 45.2769 41.6209 45.2027 41.2961 45.2027C40.9714 45.2027 40.6791 45.2769 40.4194 45.4254C40.1689 45.5646 39.974 45.7687 39.8349 46.0377C39.6957 46.3068 39.6261 46.6269 39.6261 46.998V51.4375H38.0535ZM50.2299 51.6045C49.6454 51.6045 49.1119 51.4839 48.6295 51.2427C48.1563 51.0014 47.7898 50.6535 47.53 50.1989L47.711 49.9066V51.4375H46.2079V40.9024H47.7805V45.4671L47.53 45.1053C47.8084 44.6785 48.1795 44.3445 48.6434 44.1033C49.1073 43.8621 49.6361 43.7414 50.2299 43.7414C50.9443 43.7414 51.5845 43.9131 52.1505 44.2564C52.7257 44.5997 53.1757 45.0682 53.5004 45.662C53.8344 46.2558 54.0014 46.9238 54.0014 47.666C54.0014 48.4083 53.8344 49.0763 53.5004 49.6701C53.1757 50.2638 52.7303 50.737 52.1644 51.0896C51.5984 51.4329 50.9536 51.6045 50.2299 51.6045ZM50.0768 50.1432C50.5222 50.1432 50.9165 50.0365 51.2598 49.8231C51.6031 49.6097 51.8721 49.3175 52.067 48.9464C52.2711 48.566 52.3731 48.1392 52.3731 47.666C52.3731 47.1928 52.2711 46.7707 52.067 46.3996C51.8721 46.0285 51.6031 45.7362 51.2598 45.5228C50.9165 45.3094 50.5222 45.2027 50.0768 45.2027C49.6408 45.2027 49.2465 45.3094 48.8939 45.5228C48.5506 45.7362 48.2769 46.0285 48.0728 46.3996C47.878 46.7707 47.7805 47.1928 47.7805 47.666C47.7805 48.1392 47.878 48.566 48.0728 48.9464C48.2769 49.3175 48.5506 49.6097 48.8939 49.8231C49.2465 50.0365 49.6408 50.1432 50.0768 50.1432ZM59.1635 51.6045C58.4398 51.6045 57.7764 51.4329 57.1734 51.0896C56.5796 50.7463 56.1064 50.2778 55.7538 49.684C55.4013 49.0902 55.225 48.4175 55.225 47.666C55.225 46.9052 55.4013 46.2326 55.7538 45.6481C56.1064 45.0543 56.5796 44.5904 57.1734 44.2564C57.7672 43.9131 58.4305 43.7414 59.1635 43.7414C59.9057 43.7414 60.5691 43.9131 61.1536 44.2564C61.7474 44.5904 62.2159 45.0543 62.5592 45.6481C62.9118 46.2326 63.0881 46.9052 63.0881 47.666C63.0881 48.4268 62.9118 49.1041 62.5592 49.6979C62.2067 50.2917 61.7335 50.7602 61.1397 51.1035C60.5459 51.4375 59.8872 51.6045 59.1635 51.6045ZM59.1635 50.1432C59.6088 50.1432 60.0031 50.0365 60.3464 49.8231C60.6897 49.6097 60.9588 49.3175 61.1536 48.9464C61.3577 48.566 61.4598 48.1392 61.4598 47.666C61.4598 47.1928 61.3577 46.7707 61.1536 46.3996C60.9588 46.0285 60.6897 45.7362 60.3464 45.5228C60.0031 45.3094 59.6088 45.2027 59.1635 45.2027C58.7274 45.2027 58.3331 45.3094 57.9805 45.5228C57.6373 45.7362 57.3636 46.0285 57.1595 46.3996C56.9646 46.7707 56.8672 47.1928 56.8672 47.666C56.8672 48.1392 56.9646 48.566 57.1595 48.9464C57.3636 49.3175 57.6373 49.6097 57.9805 49.8231C58.3331 50.0365 58.7274 50.1432 59.1635 50.1432ZM66.8779 51.6045C66.3676 51.6045 65.9176 51.5164 65.528 51.3401C65.1476 51.1545 64.8507 50.904 64.6373 50.5886C64.4239 50.2638 64.3172 49.8834 64.3172 49.4474C64.3172 49.0392 64.4053 48.6727 64.5816 48.3479C64.7672 48.0232 65.0502 47.7495 65.4306 47.5268C65.8109 47.3042 66.2888 47.1465 66.864 47.0537L69.4804 46.6222V47.8609L67.1702 48.2644C66.7527 48.3387 66.4465 48.4732 66.2517 48.668C66.0568 48.8536 65.9594 49.0948 65.9594 49.3917C65.9594 49.6793 66.0661 49.9159 66.2795 50.1015C66.5022 50.2778 66.7851 50.3659 67.1284 50.3659C67.5552 50.3659 67.9263 50.2731 68.2418 50.0876C68.5665 49.902 68.817 49.6561 68.9933 49.35C69.1696 49.0345 69.2577 48.6866 69.2577 48.3062V46.3717C69.2577 46.0006 69.1185 45.6991 68.8402 45.4671C68.5711 45.2259 68.2093 45.1053 67.7547 45.1053C67.3372 45.1053 66.9707 45.2166 66.6552 45.4393C66.3491 45.6527 66.1218 45.931 65.9733 46.2743L64.6651 45.6202C64.8043 45.2491 65.0316 44.9244 65.3471 44.646C65.6625 44.3584 66.029 44.1358 66.4465 43.978C66.8733 43.8203 67.3233 43.7414 67.7964 43.7414C68.3902 43.7414 68.9144 43.8528 69.369 44.0755C69.8329 44.2981 70.1901 44.6089 70.4406 45.0079C70.7004 45.3976 70.8303 45.8522 70.8303 46.3717V51.4375H69.3273V50.0736L69.6474 50.1154C69.4711 50.4216 69.2438 50.686 68.9655 50.9087C68.6964 51.1313 68.3856 51.303 68.033 51.4236C67.6897 51.5442 67.3047 51.6045 66.8779 51.6045ZM72.6691 51.4375V43.9084H74.1721V45.4254L74.0329 45.2027C74.1999 44.711 74.469 44.3584 74.8401 44.145C75.2112 43.9224 75.6566 43.811 76.1762 43.811H76.6354V45.2445H75.9813C75.4617 45.2445 75.0396 45.4068 74.7149 45.7316C74.3994 46.047 74.2417 46.5016 74.2417 47.0954V51.4375H72.6691ZM81.1905 51.6045C80.4668 51.6045 79.8173 51.4329 79.2421 51.0896C78.6762 50.737 78.2262 50.2638 77.8922 49.6701C77.5674 49.0763 77.4051 48.4083 77.4051 47.666C77.4051 46.9238 77.5721 46.2558 77.9061 45.662C78.2401 45.0682 78.6901 44.5997 79.256 44.2564C79.822 43.9131 80.4622 43.7414 81.1766 43.7414C81.7796 43.7414 82.3131 43.8621 82.777 44.1033C83.2409 44.3445 83.6074 44.6785 83.8764 45.1053L83.6399 45.4671V40.9024H85.1986V51.4375H83.7094V49.9066L83.8904 50.1989C83.6306 50.6535 83.2595 51.0014 82.777 51.2427C82.2946 51.4839 81.7657 51.6045 81.1905 51.6045ZM81.3436 50.1432C81.7796 50.1432 82.1693 50.0365 82.5126 49.8231C82.8651 49.6097 83.1388 49.3175 83.3337 48.9464C83.5378 48.566 83.6399 48.1392 83.6399 47.666C83.6399 47.1928 83.5378 46.7707 83.3337 46.3996C83.1388 46.0285 82.8651 45.7362 82.5126 45.5228C82.1693 45.3094 81.7796 45.2027 81.3436 45.2027C80.9075 45.2027 80.5132 45.3094 80.1606 45.5228C79.8081 45.7362 79.5344 46.0285 79.3395 46.3996C79.1447 46.7707 79.0473 47.1928 79.0473 47.666C79.0473 48.1392 79.1447 48.566 79.3395 48.9464C79.5344 49.3175 79.8034 49.6097 80.1467 49.8231C80.4993 50.0365 80.8982 50.1432 81.3436 50.1432ZM87.0345 51.4375V43.9084H88.6071V51.4375H87.0345ZM87.0345 42.8786V41.0694H88.6071V42.8786H87.0345ZM90.4458 51.4375V43.9084H91.9488V45.3836L91.7679 45.1888C91.9534 44.7156 92.2503 44.3584 92.6586 44.1172C93.0668 43.8667 93.54 43.7414 94.0781 43.7414C94.6348 43.7414 95.1265 43.8621 95.5533 44.1033C95.9801 44.3445 96.3141 44.6785 96.5553 45.1053C96.7965 45.5321 96.9171 46.0238 96.9171 46.5805V51.4375H95.3584V46.998C95.3584 46.6176 95.2889 46.2975 95.1497 46.0377C95.0105 45.7687 94.811 45.5646 94.5513 45.4254C94.3008 45.2769 94.0131 45.2027 93.6884 45.2027C93.3637 45.2027 93.0714 45.2769 92.8116 45.4254C92.5611 45.5646 92.3663 45.7687 92.2271 46.0377C92.088 46.3068 92.0184 46.6269 92.0184 46.998V51.4375H90.4458ZM102.233 54.4992C101.685 54.4992 101.179 54.4111 100.716 54.2348C100.252 54.0585 99.8527 53.8127 99.5187 53.4972C99.1847 53.191 98.9342 52.8292 98.7672 52.4117L100.215 51.8133C100.344 52.1658 100.581 52.4581 100.924 52.69C101.277 52.922 101.708 53.0379 102.219 53.0379C102.618 53.0379 102.975 52.9591 103.29 52.8014C103.606 52.6529 103.856 52.4302 104.042 52.1333C104.227 51.8457 104.32 51.4978 104.32 51.0896V49.3917L104.598 49.7118C104.339 50.1943 103.977 50.5607 103.513 50.8112C103.058 51.0617 102.543 51.187 101.968 51.187C101.272 51.187 100.646 51.0246 100.089 50.6999C99.5326 50.3752 99.0919 49.9298 98.7672 49.3639C98.4518 48.7979 98.294 48.1624 98.294 47.4573C98.294 46.7429 98.4518 46.1073 98.7672 45.5506C99.0919 44.994 99.528 44.5533 100.075 44.2285C100.623 43.9038 101.249 43.7414 101.954 43.7414C102.529 43.7414 103.04 43.8667 103.485 44.1172C103.94 44.3584 104.311 44.711 104.598 45.1749L104.39 45.5646V43.9084H105.879V51.0896C105.879 51.739 105.721 52.3189 105.406 52.8292C105.099 53.3488 104.673 53.757 104.125 54.0539C103.578 54.3508 102.947 54.4992 102.233 54.4992ZM102.149 49.7257C102.567 49.7257 102.938 49.6283 103.262 49.4335C103.587 49.2293 103.842 48.9603 104.028 48.6263C104.223 48.283 104.32 47.898 104.32 47.4712C104.32 47.0444 104.223 46.6594 104.028 46.3161C103.833 45.9728 103.573 45.7037 103.248 45.5089C102.924 45.3048 102.557 45.2027 102.149 45.2027C101.722 45.2027 101.342 45.3048 101.008 45.5089C100.674 45.7037 100.409 45.9728 100.215 46.3161C100.029 46.6501 99.9362 47.0351 99.9362 47.4712C99.9362 47.8887 100.029 48.2691 100.215 48.6124C100.409 48.9557 100.674 49.2293 101.008 49.4335C101.342 49.6283 101.722 49.7257 102.149 49.7257Z" fill="black"/>
<path d="M143.101 45.2417C142.717 45.2417 142.405 45.5532 142.405 45.9375C142.405 46.3218 142.717 46.6333 143.101 46.6333L143.101 45.2417ZM166.556 46.4295C166.828 46.1578 166.828 45.7172 166.556 45.4455L162.128 41.0171C161.856 40.7454 161.415 40.7454 161.143 41.0171C160.872 41.2889 160.872 41.7295 161.143 42.0012L165.08 45.9375L161.143 49.8738C160.872 50.1455 160.872 50.5861 161.143 50.8579C161.415 51.1296 161.856 51.1296 162.128 50.8579L166.556 46.4295ZM143.101 46.6333L166.064 46.6333L166.064 45.2417L143.101 45.2417L143.101 46.6333Z" fill="black"/>
<rect x="188.331" y="27" width="116.834" height="37.8754" rx="18.9377" fill="#E9E9E9"/>
<path d="M208.149 51.6045C207.416 51.6045 206.734 51.47 206.103 51.2009C205.481 50.9319 204.938 50.5607 204.474 50.0876C204.02 49.6051 203.663 49.0392 203.403 48.3897C203.143 47.7402 203.013 47.0258 203.013 46.2465C203.013 45.4764 203.138 44.7667 203.389 44.1172C203.649 43.4585 204.011 42.8925 204.474 42.4193C204.938 41.9369 205.481 41.5658 206.103 41.306C206.724 41.0369 207.406 40.9024 208.149 40.9024C208.881 40.9024 209.536 41.0276 210.111 41.2782C210.695 41.5287 211.187 41.858 211.586 42.2663C211.985 42.6652 212.273 43.1013 212.449 43.5744L210.974 44.2703C210.751 43.7136 210.394 43.2636 209.902 42.9203C209.42 42.5678 208.835 42.3915 208.149 42.3915C207.462 42.3915 206.854 42.5539 206.325 42.8786C205.797 43.2033 205.384 43.6533 205.087 44.2285C204.799 44.8038 204.655 45.4764 204.655 46.2465C204.655 47.0166 204.799 47.6939 205.087 48.2784C205.384 48.8536 205.797 49.3036 206.325 49.6283C206.854 49.9438 207.462 50.1015 208.149 50.1015C208.835 50.1015 209.42 49.9298 209.902 49.5866C210.394 49.2433 210.751 48.7933 210.974 48.2366L212.449 48.9325C212.273 49.3964 211.985 49.8324 211.586 50.2406C211.187 50.6489 210.695 50.9782 210.111 51.2287C209.536 51.4793 208.881 51.6045 208.149 51.6045ZM213.984 51.4375V43.9084H215.488V45.4254L215.348 45.2027C215.515 44.711 215.784 44.3584 216.156 44.145C216.527 43.9224 216.972 43.811 217.492 43.811H217.951V45.2445H217.297C216.777 45.2445 216.355 45.4068 216.03 45.7316C215.715 46.047 215.557 46.5016 215.557 47.0954V51.4375H213.984ZM222.562 51.6045C221.81 51.6045 221.142 51.4329 220.558 51.0896C219.982 50.737 219.532 50.2638 219.208 49.6701C218.883 49.067 218.72 48.3943 218.72 47.6521C218.72 46.8913 218.883 46.2187 219.208 45.6341C219.542 45.0496 219.987 44.5904 220.544 44.2564C221.1 43.9131 221.731 43.7414 222.436 43.7414C223.002 43.7414 223.508 43.8389 223.953 44.0337C224.399 44.2285 224.774 44.4976 225.081 44.8409C225.387 45.1749 225.619 45.5599 225.776 45.996C225.943 46.4321 226.027 46.8959 226.027 47.3877C226.027 47.5083 226.022 47.6335 226.013 47.7634C226.004 47.8933 225.985 48.0139 225.957 48.1253H219.959V46.8728H225.067L224.315 47.4433C224.408 46.9887 224.375 46.5851 224.218 46.2326C224.069 45.8707 223.837 45.5878 223.522 45.3836C223.216 45.1702 222.854 45.0636 222.436 45.0636C222.019 45.0636 221.648 45.1702 221.323 45.3836C220.998 45.5878 220.748 45.8847 220.571 46.2743C220.395 46.6547 220.326 47.1186 220.363 47.666C220.316 48.1763 220.386 48.6216 220.571 49.002C220.766 49.3824 221.035 49.6793 221.379 49.8927C221.731 50.1061 222.13 50.2128 222.575 50.2128C223.03 50.2128 223.415 50.1108 223.731 49.9066C224.055 49.7025 224.31 49.4381 224.496 49.1134L225.776 49.7396C225.628 50.0922 225.396 50.4123 225.081 50.6999C224.774 50.9782 224.403 51.2009 223.967 51.3679C223.54 51.5256 223.072 51.6045 222.562 51.6045ZM229.748 51.6045C229.238 51.6045 228.788 51.5164 228.398 51.3401C228.018 51.1545 227.721 50.904 227.508 50.5886C227.294 50.2638 227.188 49.8834 227.188 49.4474C227.188 49.0392 227.276 48.6727 227.452 48.3479C227.637 48.0232 227.92 47.7495 228.301 47.5268C228.681 47.3042 229.159 47.1465 229.734 47.0537L232.351 46.6222V47.8609L230.04 48.2644C229.623 48.3387 229.317 48.4732 229.122 48.668C228.927 48.8536 228.83 49.0948 228.83 49.3917C228.83 49.6793 228.936 49.9159 229.15 50.1015C229.372 50.2778 229.655 50.3659 229.999 50.3659C230.426 50.3659 230.797 50.2731 231.112 50.0876C231.437 49.902 231.687 49.6561 231.864 49.35C232.04 49.0345 232.128 48.6866 232.128 48.3062V46.3717C232.128 46.0006 231.989 45.6991 231.71 45.4671C231.441 45.2259 231.08 45.1053 230.625 45.1053C230.207 45.1053 229.841 45.2166 229.526 45.4393C229.219 45.6527 228.992 45.931 228.844 46.2743L227.535 45.6202C227.675 45.2491 227.902 44.9244 228.217 44.646C228.533 44.3584 228.899 44.1358 229.317 43.978C229.744 43.8203 230.194 43.7414 230.667 43.7414C231.261 43.7414 231.785 43.8528 232.239 44.0755C232.703 44.2981 233.06 44.6089 233.311 45.0079C233.571 45.3976 233.701 45.8522 233.701 46.3717V51.4375H232.198V50.0736L232.518 50.1154C232.341 50.4216 232.114 50.686 231.836 50.9087C231.567 51.1313 231.256 51.303 230.903 51.4236C230.56 51.5442 230.175 51.6045 229.748 51.6045ZM238.66 51.521C237.871 51.521 237.259 51.2983 236.823 50.853C236.387 50.4076 236.169 49.7814 236.169 48.9742V45.328H234.847V43.9084H235.056C235.408 43.9084 235.682 43.8064 235.877 43.6023C236.071 43.3982 236.169 43.1198 236.169 42.7673V42.1828H237.742V43.9084H239.453V45.328H237.742V48.9046C237.742 49.1644 237.783 49.3871 237.867 49.5726C237.95 49.7489 238.085 49.8881 238.27 49.9901C238.456 50.0829 238.697 50.1293 238.994 50.1293C239.068 50.1293 239.152 50.1247 239.245 50.1154C239.337 50.1061 239.425 50.0968 239.509 50.0876V51.4375C239.379 51.4561 239.235 51.4746 239.078 51.4932C238.92 51.5117 238.781 51.521 238.66 51.521ZM244.54 51.6045C243.816 51.6045 243.153 51.4329 242.55 51.0896C241.956 50.7463 241.483 50.2778 241.13 49.684C240.778 49.0902 240.602 48.4175 240.602 47.666C240.602 46.9052 240.778 46.2326 241.13 45.6481C241.483 45.0543 241.956 44.5904 242.55 44.2564C243.144 43.9131 243.807 43.7414 244.54 43.7414C245.282 43.7414 245.946 43.9131 246.53 44.2564C247.124 44.5904 247.592 45.0543 247.936 45.6481C248.288 46.2326 248.465 46.9052 248.465 47.666C248.465 48.4268 248.288 49.1041 247.936 49.6979C247.583 50.2917 247.11 50.7602 246.516 51.1035C245.922 51.4375 245.264 51.6045 244.54 51.6045ZM244.54 50.1432C244.985 50.1432 245.38 50.0365 245.723 49.8231C246.066 49.6097 246.335 49.3175 246.53 48.9464C246.734 48.566 246.836 48.1392 246.836 47.666C246.836 47.1928 246.734 46.7707 246.53 46.3996C246.335 46.0285 246.066 45.7362 245.723 45.5228C245.38 45.3094 244.985 45.2027 244.54 45.2027C244.104 45.2027 243.71 45.3094 243.357 45.5228C243.014 45.7362 242.74 46.0285 242.536 46.3996C242.341 46.7707 242.244 47.1928 242.244 47.666C242.244 48.1392 242.341 48.566 242.536 48.9464C242.74 49.3175 243.014 49.6097 243.357 49.8231C243.71 50.0365 244.104 50.1432 244.54 50.1432ZM250 51.4375V43.9084H251.503V45.4254L251.364 45.2027C251.531 44.711 251.8 44.3584 252.171 44.145C252.542 43.9224 252.987 43.811 253.507 43.811H253.966V45.2445H253.312C252.793 45.2445 252.37 45.4068 252.046 45.7316C251.73 46.047 251.573 46.5016 251.573 47.0954V51.4375H250ZM257.628 51.4375V41.0694H261.399C262.095 41.0694 262.708 41.1993 263.236 41.4591C263.775 41.7096 264.192 42.0807 264.489 42.5724C264.786 43.0549 264.934 43.6348 264.934 44.312C264.934 44.9801 264.781 45.5553 264.475 46.0377C264.178 46.5202 263.765 46.8913 263.236 47.1511C262.708 47.4109 262.095 47.5408 261.399 47.5408H259.27V51.4375H257.628ZM259.27 46.0795H261.441C261.812 46.0795 262.137 46.0053 262.415 45.8568C262.694 45.7084 262.912 45.5043 263.069 45.2445C263.227 44.9754 263.306 44.66 263.306 44.2981C263.306 43.9363 263.227 43.6255 263.069 43.3657C262.912 43.0966 262.694 42.8925 262.415 42.7533C262.137 42.6049 261.812 42.5307 261.441 42.5307H259.27V46.0795ZM268.237 51.6045C267.727 51.6045 267.277 51.5164 266.887 51.3401C266.507 51.1545 266.21 50.904 265.997 50.5886C265.783 50.2638 265.676 49.8834 265.676 49.4474C265.676 49.0392 265.765 48.6727 265.941 48.3479C266.126 48.0232 266.409 47.7495 266.79 47.5268C267.17 47.3042 267.648 47.1465 268.223 47.0537L270.84 46.6222V47.8609L268.529 48.2644C268.112 48.3387 267.806 48.4732 267.611 48.668C267.416 48.8536 267.319 49.0948 267.319 49.3917C267.319 49.6793 267.425 49.9159 267.639 50.1015C267.861 50.2778 268.144 50.3659 268.488 50.3659C268.914 50.3659 269.286 50.2731 269.601 50.0876C269.926 49.902 270.176 49.6561 270.353 49.35C270.529 49.0345 270.617 48.6866 270.617 48.3062V46.3717C270.617 46.0006 270.478 45.6991 270.199 45.4671C269.93 45.2259 269.569 45.1053 269.114 45.1053C268.696 45.1053 268.33 45.2166 268.015 45.4393C267.708 45.6527 267.481 45.931 267.333 46.2743L266.024 45.6202C266.164 45.2491 266.391 44.9244 266.706 44.646C267.022 44.3584 267.388 44.1358 267.806 43.978C268.233 43.8203 268.683 43.7414 269.156 43.7414C269.749 43.7414 270.274 43.8528 270.728 44.0755C271.192 44.2981 271.549 44.6089 271.8 45.0079C272.06 45.3976 272.19 45.8522 272.19 46.3717V51.4375H270.687V50.0736L271.007 50.1154C270.83 50.4216 270.603 50.686 270.325 50.9087C270.056 51.1313 269.745 51.303 269.392 51.4236C269.049 51.5442 268.664 51.6045 268.237 51.6045ZM277.661 54.4992C277.113 54.4992 276.608 54.4111 276.144 54.2348C275.68 54.0585 275.281 53.8127 274.947 53.4972C274.613 53.191 274.362 52.8292 274.195 52.4117L275.643 51.8133C275.773 52.1658 276.009 52.4581 276.352 52.69C276.705 52.922 277.136 53.0379 277.647 53.0379C278.046 53.0379 278.403 52.9591 278.718 52.8014C279.034 52.6529 279.284 52.4302 279.47 52.1333C279.655 51.8457 279.748 51.4978 279.748 51.0896V49.3917L280.027 49.7118C279.767 50.1943 279.405 50.5607 278.941 50.8112C278.486 51.0617 277.971 51.187 277.396 51.187C276.7 51.187 276.074 51.0246 275.517 50.6999C274.961 50.3752 274.52 49.9298 274.195 49.3639C273.88 48.7979 273.722 48.1624 273.722 47.4573C273.722 46.7429 273.88 46.1073 274.195 45.5506C274.52 44.994 274.956 44.5533 275.504 44.2285C276.051 43.9038 276.677 43.7414 277.382 43.7414C277.958 43.7414 278.468 43.8667 278.913 44.1172C279.368 44.3584 279.739 44.711 280.027 45.1749L279.818 45.5646V43.9084H281.307V51.0896C281.307 51.739 281.149 52.3189 280.834 52.8292C280.528 53.3488 280.101 53.757 279.553 54.0539C279.006 54.3508 278.375 54.4992 277.661 54.4992ZM277.577 49.7257C277.995 49.7257 278.366 49.6283 278.691 49.4335C279.015 49.2293 279.27 48.9603 279.456 48.6263C279.651 48.283 279.748 47.898 279.748 47.4712C279.748 47.0444 279.651 46.6594 279.456 46.3161C279.261 45.9728 279.001 45.7037 278.677 45.5089C278.352 45.3048 277.985 45.2027 277.577 45.2027C277.15 45.2027 276.77 45.3048 276.436 45.5089C276.102 45.7037 275.838 45.9728 275.643 46.3161C275.457 46.6501 275.364 47.0351 275.364 47.4712C275.364 47.8887 275.457 48.2691 275.643 48.6124C275.838 48.9557 276.102 49.2293 276.436 49.4335C276.77 49.6283 277.15 49.7257 277.577 49.7257ZM286.683 51.6045C285.931 51.6045 285.263 51.4329 284.679 51.0896C284.103 50.737 283.653 50.2638 283.329 49.6701C283.004 49.067 282.842 48.3943 282.842 47.6521C282.842 46.8913 283.004 46.2187 283.329 45.6341C283.663 45.0496 284.108 44.5904 284.665 44.2564C285.221 43.9131 285.852 43.7414 286.557 43.7414C287.123 43.7414 287.629 43.8389 288.074 44.0337C288.52 44.2285 288.895 44.4976 289.202 44.8409C289.508 45.1749 289.74 45.5599 289.897 45.996C290.064 46.4321 290.148 46.8959 290.148 47.3877C290.148 47.5083 290.143 47.6335 290.134 47.7634C290.125 47.8933 290.106 48.0139 290.078 48.1253H284.08V46.8728H289.188L288.436 47.4433C288.529 46.9887 288.496 46.5851 288.339 46.2326C288.19 45.8707 287.958 45.5878 287.643 45.3836C287.337 45.1702 286.975 45.0636 286.557 45.0636C286.14 45.0636 285.769 45.1702 285.444 45.3836C285.119 45.5878 284.869 45.8847 284.693 46.2743C284.516 46.6547 284.447 47.1186 284.484 47.666C284.437 48.1763 284.507 48.6216 284.693 49.002C284.887 49.3824 285.156 49.6793 285.5 49.8927C285.852 50.1061 286.251 50.2128 286.697 50.2128C287.151 50.2128 287.536 50.1108 287.852 49.9066C288.176 49.7025 288.432 49.4381 288.617 49.1134L289.897 49.7396C289.749 50.0922 289.517 50.4123 289.202 50.6999C288.895 50.9782 288.524 51.2009 288.088 51.3679C287.661 51.5256 287.193 51.6045 286.683 51.6045Z" fill="black"/>
<path d="M327.432 45.2417C327.047 45.2417 326.736 45.5532 326.736 45.9375C326.736 46.3218 327.047 46.6333 327.432 46.6333L327.432 45.2417ZM350.887 46.4295C351.158 46.1578 351.158 45.7172 350.887 45.4455L346.458 41.0171C346.187 40.7454 345.746 40.7454 345.474 41.0171C345.203 41.2889 345.203 41.7295 345.474 42.0012L349.411 45.9375L345.474 49.8738C345.203 50.1455 345.203 50.5861 345.474 50.8579C345.746 51.1296 346.187 51.1296 346.458 50.8579L350.887 46.4295ZM327.432 46.6333L350.395 46.6333L350.395 45.2417L327.432 45.2417L327.432 46.6333Z" fill="black"/>
<rect x="372.662" y="27" width="107.834" height="37.8754" rx="18.9377" fill="#E9E9E9"/>
<path d="M386.732 51.4375L390.378 41.0694H392.41L396.056 51.4375H394.303L393.509 49.1134H389.292L388.485 51.4375H386.732ZM389.766 47.6521H393.008L391.171 42.2245H391.631L389.766 47.6521ZM397.133 51.4375V43.9084H398.636V45.3836L398.455 45.1888C398.641 44.7156 398.938 44.3584 399.346 44.1172C399.754 43.8667 400.227 43.7414 400.765 43.7414C401.322 43.7414 401.814 43.8621 402.241 44.1033C402.667 44.3445 403.001 44.6785 403.243 45.1053C403.484 45.5321 403.604 46.0238 403.604 46.5805V51.4375H402.046V46.998C402.046 46.6176 401.976 46.2975 401.837 46.0377C401.698 45.7687 401.498 45.5646 401.239 45.4254C400.988 45.2769 400.7 45.2027 400.376 45.2027C400.051 45.2027 399.759 45.2769 399.499 45.4254C399.248 45.5646 399.054 45.7687 398.914 46.0377C398.775 46.3068 398.706 46.6269 398.706 46.998V51.4375H397.133ZM405.287 51.4375V43.9084H406.86V51.4375H405.287ZM405.287 42.8786V41.0694H406.86V42.8786H405.287ZM408.699 51.4375V43.9084H410.202V45.5367L410.007 45.2862C410.165 44.7759 410.452 44.3909 410.87 44.1311C411.287 43.8713 411.765 43.7414 412.303 43.7414C412.906 43.7414 413.44 43.9038 413.904 44.2285C414.377 44.544 414.692 44.9661 414.85 45.495L414.405 45.5367C414.627 44.9337 414.966 44.4837 415.421 44.1868C415.884 43.8899 416.413 43.7414 417.007 43.7414C417.527 43.7414 417.995 43.8621 418.413 44.1033C418.84 44.3445 419.178 44.6785 419.429 45.1053C419.679 45.5321 419.804 46.0192 419.804 46.5666V51.4375H418.232V46.998C418.232 46.6176 418.162 46.2975 418.023 46.0377C417.893 45.7687 417.708 45.5646 417.466 45.4254C417.234 45.2769 416.961 45.2027 416.645 45.2027C416.33 45.2027 416.052 45.2769 415.81 45.4254C415.569 45.5646 415.379 45.7687 415.24 46.0377C415.101 46.3068 415.031 46.6269 415.031 46.998V51.4375H413.472V46.998C413.472 46.6176 413.403 46.2975 413.263 46.0377C413.134 45.7687 412.948 45.5646 412.707 45.4254C412.475 45.2769 412.197 45.2027 411.872 45.2027C411.556 45.2027 411.278 45.2769 411.037 45.4254C410.796 45.5646 410.605 45.7687 410.466 46.0377C410.336 46.3068 410.271 46.6269 410.271 46.998V51.4375H408.699ZM425.023 51.6045C424.271 51.6045 423.603 51.4329 423.018 51.0896C422.443 50.737 421.993 50.2638 421.669 49.6701C421.344 49.067 421.181 48.3943 421.181 47.6521C421.181 46.8913 421.344 46.2187 421.669 45.6341C422.003 45.0496 422.448 44.5904 423.005 44.2564C423.561 43.9131 424.192 43.7414 424.897 43.7414C425.463 43.7414 425.969 43.8389 426.414 44.0337C426.86 44.2285 427.235 44.4976 427.541 44.8409C427.848 45.1749 428.08 45.5599 428.237 45.996C428.404 46.4321 428.488 46.8959 428.488 47.3877C428.488 47.5083 428.483 47.6335 428.474 47.7634C428.465 47.8933 428.446 48.0139 428.418 48.1253H422.42V46.8728H427.528L426.776 47.4433C426.869 46.9887 426.836 46.5851 426.679 46.2326C426.53 45.8707 426.298 45.5878 425.983 45.3836C425.677 45.1702 425.315 45.0636 424.897 45.0636C424.48 45.0636 424.109 45.1702 423.784 45.3836C423.459 45.5878 423.209 45.8847 423.032 46.2743C422.856 46.6547 422.787 47.1186 422.824 47.666C422.777 48.1763 422.847 48.6216 423.032 49.002C423.227 49.3824 423.496 49.6793 423.84 49.8927C424.192 50.1061 424.591 50.2128 425.036 50.2128C425.491 50.2128 425.876 50.1108 426.192 49.9066C426.516 49.7025 426.771 49.4381 426.957 49.1134L428.237 49.7396C428.089 50.0922 427.857 50.4123 427.541 50.6999C427.235 50.9782 426.864 51.2009 426.428 51.3679C426.001 51.5256 425.533 51.6045 425.023 51.6045ZM432.608 51.4375V41.0694H436.38C437.076 41.0694 437.688 41.1993 438.217 41.4591C438.755 41.7096 439.173 42.0807 439.469 42.5724C439.766 43.0549 439.915 43.6348 439.915 44.312C439.915 44.9801 439.762 45.5553 439.456 46.0377C439.159 46.5202 438.746 46.8913 438.217 47.1511C437.688 47.4109 437.076 47.5408 436.38 47.5408H434.251V51.4375H432.608ZM434.251 46.0795H436.422C436.793 46.0795 437.118 46.0053 437.396 45.8568C437.674 45.7084 437.892 45.5043 438.05 45.2445C438.208 44.9754 438.287 44.66 438.287 44.2981C438.287 43.9363 438.208 43.6255 438.05 43.3657C437.892 43.0966 437.674 42.8925 437.396 42.7533C437.118 42.6049 436.793 42.5307 436.422 42.5307H434.251V46.0795ZM443.218 51.6045C442.707 51.6045 442.257 51.5164 441.868 51.3401C441.487 51.1545 441.19 50.904 440.977 50.5886C440.764 50.2638 440.657 49.8834 440.657 49.4474C440.657 49.0392 440.745 48.6727 440.921 48.3479C441.107 48.0232 441.39 47.7495 441.77 47.5268C442.151 47.3042 442.629 47.1465 443.204 47.0537L445.82 46.6222V47.8609L443.51 48.2644C443.092 48.3387 442.786 48.4732 442.591 48.668C442.397 48.8536 442.299 49.0948 442.299 49.3917C442.299 49.6793 442.406 49.9159 442.619 50.1015C442.842 50.2778 443.125 50.3659 443.468 50.3659C443.895 50.3659 444.266 50.2731 444.582 50.0876C444.906 49.902 445.157 49.6561 445.333 49.35C445.509 49.0345 445.597 48.6866 445.597 48.3062V46.3717C445.597 46.0006 445.458 45.6991 445.18 45.4671C444.911 45.2259 444.549 45.1053 444.094 45.1053C443.677 45.1053 443.31 45.2166 442.995 45.4393C442.689 45.6527 442.462 45.931 442.313 46.2743L441.005 45.6202C441.144 45.2491 441.371 44.9244 441.687 44.646C442.002 44.3584 442.369 44.1358 442.786 43.978C443.213 43.8203 443.663 43.7414 444.136 43.7414C444.73 43.7414 445.254 43.8528 445.709 44.0755C446.173 44.2981 446.53 44.6089 446.78 45.0079C447.04 45.3976 447.17 45.8522 447.17 46.3717V51.4375H445.667V50.0736L445.987 50.1154C445.811 50.4216 445.584 50.686 445.305 50.9087C445.036 51.1313 444.725 51.303 444.373 51.4236C444.029 51.5442 443.644 51.6045 443.218 51.6045ZM452.641 54.4992C452.094 54.4992 451.588 54.4111 451.124 54.2348C450.66 54.0585 450.261 53.8127 449.927 53.4972C449.593 53.191 449.343 52.8292 449.176 52.4117L450.623 51.8133C450.753 52.1658 450.99 52.4581 451.333 52.69C451.686 52.922 452.117 53.0379 452.627 53.0379C453.026 53.0379 453.383 52.9591 453.699 52.8014C454.014 52.6529 454.265 52.4302 454.45 52.1333C454.636 51.8457 454.729 51.4978 454.729 51.0896V49.3917L455.007 49.7118C454.747 50.1943 454.385 50.5607 453.922 50.8112C453.467 51.0617 452.952 51.187 452.377 51.187C451.681 51.187 451.055 51.0246 450.498 50.6999C449.941 50.3752 449.501 49.9298 449.176 49.3639C448.86 48.7979 448.703 48.1624 448.703 47.4573C448.703 46.7429 448.86 46.1073 449.176 45.5506C449.501 44.994 449.937 44.5533 450.484 44.2285C451.031 43.9038 451.658 43.7414 452.363 43.7414C452.938 43.7414 453.448 43.8667 453.894 44.1172C454.348 44.3584 454.719 44.711 455.007 45.1749L454.798 45.5646V43.9084H456.287V51.0896C456.287 51.739 456.13 52.3189 455.814 52.8292C455.508 53.3488 455.081 53.757 454.534 54.0539C453.986 54.3508 453.356 54.4992 452.641 54.4992ZM452.558 49.7257C452.975 49.7257 453.346 49.6283 453.671 49.4335C453.996 49.2293 454.251 48.9603 454.436 48.6263C454.631 48.283 454.729 47.898 454.729 47.4712C454.729 47.0444 454.631 46.6594 454.436 46.3161C454.242 45.9728 453.982 45.7037 453.657 45.5089C453.332 45.3048 452.966 45.2027 452.558 45.2027C452.131 45.2027 451.75 45.3048 451.416 45.5089C451.082 45.7037 450.818 45.9728 450.623 46.3161C450.438 46.6501 450.345 47.0351 450.345 47.4712C450.345 47.8887 450.438 48.2691 450.623 48.6124C450.818 48.9557 451.082 49.2293 451.416 49.4335C451.75 49.6283 452.131 49.7257 452.558 49.7257ZM461.663 51.6045C460.912 51.6045 460.244 51.4329 459.659 51.0896C459.084 50.737 458.634 50.2638 458.309 49.6701C457.984 49.067 457.822 48.3943 457.822 47.6521C457.822 46.8913 457.984 46.2187 458.309 45.6341C458.643 45.0496 459.089 44.5904 459.645 44.2564C460.202 43.9131 460.833 43.7414 461.538 43.7414C462.104 43.7414 462.609 43.8389 463.055 44.0337C463.5 44.2285 463.876 44.4976 464.182 44.8409C464.488 45.1749 464.72 45.5599 464.878 45.996C465.045 46.4321 465.128 46.8959 465.128 47.3877C465.128 47.5083 465.124 47.6335 465.115 47.7634C465.105 47.8933 465.087 48.0139 465.059 48.1253H459.061V46.8728H464.168L463.417 47.4433C463.509 46.9887 463.477 46.5851 463.319 46.2326C463.171 45.8707 462.939 45.5878 462.623 45.3836C462.317 45.1702 461.955 45.0636 461.538 45.0636C461.12 45.0636 460.749 45.1702 460.425 45.3836C460.1 45.5878 459.849 45.8847 459.673 46.2743C459.497 46.6547 459.427 47.1186 459.464 47.666C459.418 48.1763 459.487 48.6216 459.673 49.002C459.868 49.3824 460.137 49.6793 460.48 49.8927C460.833 50.1061 461.232 50.2128 461.677 50.2128C462.132 50.2128 462.517 50.1108 462.832 49.9066C463.157 49.7025 463.412 49.4381 463.598 49.1134L464.878 49.7396C464.729 50.0922 464.498 50.4123 464.182 50.6999C463.876 50.9782 463.505 51.2009 463.069 51.3679C462.642 51.5256 462.173 51.6045 461.663 51.6045Z" fill="black"/>
<rect x="136.252" y="130.681" width="68.8338" height="37.8754" rx="18.9377" fill="#E9E9E9"/>
<path d="M151.241 155.118V144.75H152.772L156.668 150.15H155.903L159.73 144.75H161.261V155.118H159.633V146.685L160.245 146.852L156.334 152.196H156.167L152.34 146.852L152.883 146.685V155.118H151.241ZM166.884 155.285C166.16 155.285 165.497 155.114 164.894 154.77C164.3 154.427 163.827 153.958 163.474 153.365C163.121 152.771 162.945 152.098 162.945 151.347C162.945 150.586 163.121 149.913 163.474 149.329C163.827 148.735 164.3 148.271 164.894 147.937C165.487 147.594 166.151 147.422 166.884 147.422C167.626 147.422 168.289 147.594 168.874 147.937C169.468 148.271 169.936 148.735 170.279 149.329C170.632 149.913 170.808 150.586 170.808 151.347C170.808 152.107 170.632 152.785 170.279 153.379C169.927 153.972 169.454 154.441 168.86 154.784C168.266 155.118 167.607 155.285 166.884 155.285ZM166.884 153.824C167.329 153.824 167.723 153.717 168.067 153.504C168.41 153.29 168.679 152.998 168.874 152.627C169.078 152.247 169.18 151.82 169.18 151.347C169.18 150.874 169.078 150.451 168.874 150.08C168.679 149.709 168.41 149.417 168.067 149.203C167.723 148.99 167.329 148.883 166.884 148.883C166.448 148.883 166.053 148.99 165.701 149.203C165.357 149.417 165.084 149.709 164.88 150.08C164.685 150.451 164.587 150.874 164.587 151.347C164.587 151.82 164.685 152.247 164.88 152.627C165.084 152.998 165.357 153.29 165.701 153.504C166.053 153.717 166.448 153.824 166.884 153.824ZM174.393 155.118L171.442 147.589H173.154L175.422 153.726H174.796L177.065 147.589H178.79L175.826 155.118H174.393ZM179.859 155.118V147.589H181.432V155.118H179.859ZM179.859 146.559V144.75H181.432V146.559H179.859ZM186.805 155.285C186.054 155.285 185.386 155.114 184.801 154.77C184.226 154.418 183.776 153.945 183.451 153.351C183.127 152.748 182.964 152.075 182.964 151.333C182.964 150.572 183.127 149.899 183.451 149.315C183.785 148.73 184.231 148.271 184.787 147.937C185.344 147.594 185.975 147.422 186.68 147.422C187.246 147.422 187.752 147.52 188.197 147.714C188.642 147.909 189.018 148.178 189.324 148.522C189.631 148.856 189.862 149.241 190.02 149.677C190.187 150.113 190.271 150.577 190.271 151.068C190.271 151.189 190.266 151.314 190.257 151.444C190.247 151.574 190.229 151.695 190.201 151.806H184.203V150.553H189.31L188.559 151.124C188.652 150.669 188.619 150.266 188.461 149.913C188.313 149.551 188.081 149.268 187.766 149.064C187.459 148.851 187.098 148.744 186.68 148.744C186.263 148.744 185.891 148.851 185.567 149.064C185.242 149.268 184.992 149.565 184.815 149.955C184.639 150.335 184.569 150.799 184.606 151.347C184.56 151.857 184.63 152.302 184.815 152.683C185.01 153.063 185.279 153.36 185.622 153.573C185.975 153.787 186.374 153.893 186.819 153.893C187.274 153.893 187.659 153.791 187.974 153.587C188.299 153.383 188.554 153.119 188.74 152.794L190.02 153.42C189.872 153.773 189.64 154.093 189.324 154.381C189.018 154.659 188.647 154.882 188.211 155.049C187.784 155.206 187.316 155.285 186.805 155.285Z" fill="black"/>
<path d="M250.316 148.922C250.7 148.922 251.012 149.234 251.012 149.618C251.012 150.002 250.7 150.314 250.316 150.314L250.316 148.922ZM226.861 150.11C226.589 149.838 226.589 149.398 226.861 149.126L231.289 144.698C231.561 144.426 232.002 144.426 232.273 144.698C232.545 144.97 232.545 145.41 232.273 145.682L228.337 149.618L232.273 153.554C232.545 153.826 232.545 154.267 232.273 154.539C232.002 154.81 231.561 154.81 231.289 154.539L226.861 150.11ZM250.316 150.314L227.353 150.314L227.353 148.922L250.316 148.922L250.316 150.314Z" fill="black"/>
<rect x="272.583" y="130.681" width="91.8338" height="37.8754" rx="18.9377" fill="#E9E9E9"/>
<path d="M291.204 155.285C290.554 155.285 289.951 155.165 289.395 154.923C288.838 154.673 288.365 154.334 287.975 153.907C287.585 153.481 287.298 152.989 287.112 152.432L288.504 151.848C288.755 152.488 289.121 152.98 289.603 153.323C290.086 153.666 290.643 153.838 291.273 153.838C291.645 153.838 291.969 153.782 292.248 153.671C292.526 153.55 292.739 153.383 292.888 153.17C293.046 152.956 293.124 152.711 293.124 152.432C293.124 152.052 293.018 151.75 292.804 151.528C292.591 151.305 292.275 151.129 291.858 150.999L289.91 150.386C289.13 150.145 288.536 149.779 288.128 149.287C287.72 148.786 287.516 148.201 287.516 147.533C287.516 146.949 287.66 146.439 287.947 146.003C288.235 145.557 288.629 145.209 289.13 144.959C289.641 144.708 290.22 144.583 290.87 144.583C291.492 144.583 292.057 144.694 292.568 144.917C293.078 145.13 293.514 145.427 293.876 145.808C294.247 146.188 294.516 146.629 294.683 147.13L293.319 147.728C293.115 147.181 292.795 146.759 292.359 146.462C291.932 146.165 291.436 146.017 290.87 146.017C290.527 146.017 290.225 146.077 289.965 146.197C289.705 146.309 289.501 146.476 289.353 146.698C289.214 146.912 289.144 147.162 289.144 147.45C289.144 147.784 289.251 148.081 289.464 148.341C289.678 148.6 290.002 148.795 290.438 148.925L292.248 149.496C293.073 149.746 293.695 150.108 294.113 150.581C294.53 151.045 294.739 151.625 294.739 152.321C294.739 152.896 294.586 153.406 294.28 153.852C293.983 154.297 293.57 154.65 293.041 154.909C292.512 155.16 291.9 155.285 291.204 155.285ZM300.006 155.285C299.254 155.285 298.586 155.114 298.002 154.77C297.427 154.418 296.967 153.945 296.624 153.351C296.29 152.757 296.123 152.084 296.123 151.333C296.123 150.591 296.29 149.923 296.624 149.329C296.958 148.735 297.417 148.271 298.002 147.937C298.586 147.594 299.254 147.422 300.006 147.422C300.516 147.422 300.994 147.515 301.439 147.7C301.885 147.877 302.27 148.123 302.594 148.438C302.928 148.753 303.174 149.12 303.332 149.537L301.954 150.178C301.796 149.788 301.541 149.477 301.189 149.245C300.845 149.004 300.451 148.883 300.006 148.883C299.579 148.883 299.194 148.99 298.851 149.203C298.517 149.408 298.252 149.7 298.057 150.08C297.863 150.451 297.765 150.874 297.765 151.347C297.765 151.82 297.863 152.247 298.057 152.627C298.252 152.998 298.517 153.29 298.851 153.504C299.194 153.717 299.579 153.824 300.006 153.824C300.46 153.824 300.855 153.708 301.189 153.476C301.532 153.235 301.787 152.915 301.954 152.516L303.332 153.17C303.183 153.569 302.942 153.931 302.608 154.255C302.284 154.571 301.898 154.821 301.453 155.007C301.008 155.192 300.525 155.285 300.006 155.285ZM304.869 155.118V144.583H306.442V149.064L306.191 148.869C306.377 148.396 306.674 148.039 307.082 147.798C307.49 147.547 307.963 147.422 308.501 147.422C309.058 147.422 309.55 147.543 309.976 147.784C310.403 148.025 310.737 148.359 310.979 148.786C311.22 149.213 311.34 149.7 311.34 150.247V155.118H309.782V150.679C309.782 150.298 309.707 149.978 309.559 149.718C309.42 149.449 309.225 149.245 308.974 149.106C308.724 148.958 308.436 148.883 308.112 148.883C307.796 148.883 307.509 148.958 307.249 149.106C306.998 149.245 306.799 149.449 306.65 149.718C306.511 149.987 306.442 150.308 306.442 150.679V155.118H304.869ZM316.558 155.285C315.807 155.285 315.139 155.114 314.554 154.77C313.979 154.418 313.529 153.945 313.204 153.351C312.88 152.748 312.717 152.075 312.717 151.333C312.717 150.572 312.88 149.899 313.204 149.315C313.538 148.73 313.984 148.271 314.54 147.937C315.097 147.594 315.728 147.422 316.433 147.422C316.999 147.422 317.505 147.52 317.95 147.714C318.395 147.909 318.771 148.178 319.077 148.522C319.383 148.856 319.615 149.241 319.773 149.677C319.94 150.113 320.024 150.577 320.024 151.068C320.024 151.189 320.019 151.314 320.01 151.444C320 151.574 319.982 151.695 319.954 151.806H313.956V150.553H319.063L318.312 151.124C318.405 150.669 318.372 150.266 318.214 149.913C318.066 149.551 317.834 149.268 317.519 149.064C317.212 148.851 316.851 148.744 316.433 148.744C316.016 148.744 315.644 148.851 315.32 149.064C314.995 149.268 314.744 149.565 314.568 149.955C314.392 150.335 314.322 150.799 314.359 151.347C314.313 151.857 314.383 152.302 314.568 152.683C314.763 153.063 315.032 153.36 315.375 153.573C315.728 153.787 316.127 153.893 316.572 153.893C317.027 153.893 317.412 153.791 317.727 153.587C318.052 153.383 318.307 153.119 318.493 152.794L319.773 153.42C319.625 153.773 319.393 154.093 319.077 154.381C318.771 154.659 318.4 154.882 317.964 155.049C317.537 155.206 317.069 155.285 316.558 155.285ZM325.038 155.285C324.314 155.285 323.665 155.114 323.089 154.77C322.523 154.418 322.073 153.945 321.739 153.351C321.415 152.757 321.252 152.089 321.252 151.347C321.252 150.604 321.419 149.936 321.753 149.343C322.087 148.749 322.537 148.28 323.103 147.937C323.669 147.594 324.309 147.422 325.024 147.422C325.627 147.422 326.16 147.543 326.624 147.784C327.088 148.025 327.455 148.359 327.724 148.786L327.487 149.148V144.583H329.046V155.118H327.557V153.587L327.738 153.88C327.478 154.334 327.107 154.682 326.624 154.923C326.142 155.165 325.613 155.285 325.038 155.285ZM325.191 153.824C325.627 153.824 326.016 153.717 326.36 153.504C326.712 153.29 326.986 152.998 327.181 152.627C327.385 152.247 327.487 151.82 327.487 151.347C327.487 150.874 327.385 150.451 327.181 150.08C326.986 149.709 326.712 149.417 326.36 149.203C326.016 148.99 325.627 148.883 325.191 148.883C324.755 148.883 324.36 148.99 324.008 149.203C323.655 149.417 323.382 149.709 323.187 150.08C322.992 150.451 322.894 150.874 322.894 151.347C322.894 151.82 322.992 152.247 323.187 152.627C323.382 152.998 323.651 153.29 323.994 153.504C324.346 153.717 324.745 153.824 325.191 153.824ZM333.568 155.285C333.002 155.285 332.505 155.16 332.079 154.909C331.652 154.65 331.318 154.292 331.076 153.838C330.845 153.374 330.729 152.84 330.729 152.237V147.589H332.301V152.098C332.301 152.441 332.371 152.743 332.51 153.003C332.649 153.263 332.844 153.467 333.094 153.615C333.345 153.754 333.633 153.824 333.957 153.824C334.291 153.824 334.584 153.75 334.834 153.601C335.085 153.453 335.279 153.244 335.419 152.975C335.567 152.706 335.641 152.39 335.641 152.029V147.589H337.2V155.118H335.711V153.643L335.878 153.838C335.702 154.302 335.409 154.659 335.001 154.909C334.593 155.16 334.115 155.285 333.568 155.285ZM339.036 155.118V144.583H340.609V155.118H339.036ZM345.982 155.285C345.231 155.285 344.563 155.114 343.978 154.77C343.403 154.418 342.953 153.945 342.628 153.351C342.304 152.748 342.141 152.075 342.141 151.333C342.141 150.572 342.304 149.899 342.628 149.315C342.962 148.73 343.408 148.271 343.964 147.937C344.521 147.594 345.152 147.422 345.857 147.422C346.423 147.422 346.929 147.52 347.374 147.714C347.819 147.909 348.195 148.178 348.501 148.522C348.807 148.856 349.039 149.241 349.197 149.677C349.364 150.113 349.448 150.577 349.448 151.068C349.448 151.189 349.443 151.314 349.434 151.444C349.424 151.574 349.406 151.695 349.378 151.806H343.38V150.553H348.487L347.736 151.124C347.829 150.669 347.796 150.266 347.638 149.913C347.49 149.551 347.258 149.268 346.943 149.064C346.636 148.851 346.275 148.744 345.857 148.744C345.44 148.744 345.068 148.851 344.744 149.064C344.419 149.268 344.168 149.565 343.992 149.955C343.816 150.335 343.746 150.799 343.783 151.347C343.737 151.857 343.807 152.302 343.992 152.683C344.187 153.063 344.456 153.36 344.799 153.573C345.152 153.787 345.551 153.893 345.996 153.893C346.451 153.893 346.836 153.791 347.151 153.587C347.476 153.383 347.731 153.119 347.917 152.794L349.197 153.42C349.049 153.773 348.817 154.093 348.501 154.381C348.195 154.659 347.824 154.882 347.388 155.049C346.961 155.206 346.493 155.285 345.982 155.285Z" fill="black"/>
<path d="M430.247 149.469V150.165H430.943V149.469H430.247ZM393.571 148.977C393.299 149.248 393.299 149.689 393.571 149.961L397.999 154.389C398.271 154.661 398.712 154.661 398.983 154.389C399.255 154.117 399.255 153.677 398.983 153.405L395.047 149.469L398.983 145.532C399.255 145.261 399.255 144.82 398.983 144.548C398.712 144.277 398.271 144.277 397.999 144.548L393.571 148.977ZM429.551 85.7988V149.469H430.943V85.7988H429.551ZM430.247 148.773H394.063V150.165H430.247V148.773Z" fill="black"/>
<rect x="246" y="201" width="36" height="36" rx="18" fill="#FF3737"/>
<path d="M265.811 218.999L271.334 213.488C271.576 213.246 271.712 212.918 271.712 212.576C271.712 212.234 271.576 211.906 271.334 211.664C271.092 211.422 270.764 211.286 270.422 211.286C270.08 211.286 269.752 211.422 269.51 211.664L264 217.188L258.49 211.664C258.248 211.422 257.92 211.286 257.578 211.286C257.236 211.286 256.908 211.422 256.666 211.664C256.424 211.906 256.288 212.234 256.288 212.576C256.288 212.918 256.424 213.246 256.666 213.488L262.189 218.999L256.666 224.51C256.545 224.63 256.45 224.772 256.385 224.929C256.319 225.085 256.286 225.253 256.286 225.423C256.286 225.592 256.319 225.76 256.385 225.917C256.45 226.073 256.545 226.215 256.666 226.335C256.785 226.455 256.927 226.551 257.084 226.616C257.24 226.681 257.408 226.715 257.578 226.715C257.747 226.715 257.915 226.681 258.072 226.616C258.228 226.551 258.37 226.455 258.49 226.335L264 220.811L269.51 226.335C269.63 226.455 269.772 226.551 269.928 226.616C270.085 226.681 270.253 226.715 270.422 226.715C270.592 226.715 270.76 226.681 270.916 226.616C271.073 226.551 271.215 226.455 271.334 226.335C271.455 226.215 271.55 226.073 271.616 225.917C271.681 225.76 271.714 225.592 271.714 225.423C271.714 225.253 271.681 225.085 271.616 224.929C271.55 224.772 271.455 224.63 271.334 224.51L265.811 218.999Z" fill="white"/>
<rect x="0.25" y="0.25" width="490.5" height="263.5" stroke="black" stroke-width="0.5"/>
</svg>
