<svg width="32" height="33" viewBox="0 0 32 33" fill="none" xmlns="http://www.w3.org/2000/svg">
<path fill-rule="evenodd" clip-rule="evenodd" d="M31.6745 13.2801C31.4656 12.251 31.1495 11.2388 30.7412 10.2718C30.3423 9.32356 29.8437 8.40922 29.2661 7.55509C28.6941 6.70848 28.0374 5.91078 27.3149 5.18834C26.5905 4.46402 25.7946 3.80743 24.946 3.23549C24.0917 2.65603 23.1773 2.16124 22.229 1.75863C21.2618 1.35225 20.2495 1.03431 19.2222 0.827356C18.1685 0.611 17.0847 0.5 16.0009 0.5C14.9153 0.5 13.8315 0.611 12.7778 0.827356C11.7505 1.03431 10.7382 1.35225 9.77104 1.75863C8.82272 2.16124 7.90827 2.65603 7.05216 3.23549C6.20544 3.80743 5.40954 4.46402 4.68513 5.18834C3.96072 5.91078 3.30593 6.70848 2.73393 7.55509C2.15441 8.40922 1.65767 9.32356 1.25689 10.2718C0.848592 11.2388 0.534368 12.251 0.323631 13.2801C0.109132 14.3299 0 15.4154 0 16.4991C0 17.5846 0.109132 18.6701 0.323631 19.7237C0.534368 20.749 0.848592 21.7631 1.25689 22.7282C1.65767 23.6764 2.15441 24.5927 2.73393 25.4487C3.30593 26.2953 3.96072 27.0892 4.68513 27.8135C5.40954 28.5379 6.20544 29.1926 7.05216 29.7645C7.90827 30.344 8.82272 30.8406 9.77104 31.2414C10.7382 31.6496 11.7505 31.9619 12.7778 32.1726C13.8315 32.3909 14.9153 32.5 16.0009 32.5C17.0847 32.5 18.1685 32.3909 19.2222 32.1726C20.2495 31.9619 21.2618 31.6496 22.229 31.2414C23.1773 30.8406 24.0917 30.344 24.946 29.7645C25.7946 29.1926 26.5905 28.5379 27.3149 27.8135C28.0374 27.0892 28.6941 26.2953 29.2661 25.4487C29.8437 24.5927 30.3423 23.6764 30.7412 22.7282C31.1495 21.7631 31.4656 20.749 31.6745 19.7237C31.8909 18.6701 32 17.5846 32 16.4991C32 15.4154 31.8909 14.3299 31.6745 13.2801ZM29.6612 16.3636C29.4636 16.3203 24.8387 15.3251 20.1442 15.9158C20.0463 15.6826 19.9485 15.4474 19.8488 15.2122C19.5628 14.5424 19.258 13.8802 18.94 13.2293C24.3363 11.0262 26.5265 7.85799 26.5528 7.82036C28.4683 10.1495 29.6292 13.122 29.6612 16.3636ZM25.025 6.24566C24.9911 6.29834 23.0456 9.26148 17.8863 11.1936C15.5512 6.90226 12.9848 3.49324 12.7797 3.22232C13.8127 2.9721 14.8908 2.83665 16.0009 2.83665C19.4593 2.83665 22.6166 4.12726 25.025 6.24566ZM12.727 3.23361C12.727 3.23549 12.7251 3.23549 12.7251 3.23549C12.7251 3.23549 12.7082 3.23926 12.6837 3.2449C12.6969 3.24114 12.7119 3.23926 12.727 3.23361ZM10.1699 4.14231C10.3506 4.38688 12.8794 7.81095 15.2445 12.0158C8.68348 13.7598 2.98795 13.6902 2.62668 13.6845C3.51479 9.4515 6.35785 5.94277 10.1699 4.14231ZM2.33504 16.4991C2.33504 16.3542 2.34256 16.2112 2.34633 16.0682C2.58717 16.0739 9.34015 16.2263 16.3754 14.121C16.7667 14.8867 17.1412 15.6656 17.4836 16.4426C17.303 16.4934 17.1242 16.548 16.9455 16.6063C9.57159 18.99 5.83101 25.6236 5.83101 25.6236C5.83101 25.6236 5.83666 25.6293 5.83666 25.6312C3.65967 23.2099 2.33504 20.0097 2.33504 16.4991ZM16.0009 30.1634C12.6931 30.1634 9.66002 28.9875 7.29488 27.0328C7.47551 27.1776 7.60158 27.2717 7.60158 27.2717C7.60158 27.2717 10.2207 21.5599 18.3247 18.736C18.3548 18.7247 18.3849 18.7153 18.4169 18.7059C20.3399 23.7028 21.132 27.8869 21.3352 29.0816C19.6964 29.7777 17.8919 30.1634 16.0009 30.1634ZM23.6364 27.8324C23.4971 27.0083 22.769 22.9973 20.9758 18.0738C25.3881 17.3682 29.2096 18.578 29.4919 18.6701C28.8841 22.4761 26.7034 25.761 23.6364 27.8324Z" fill="#EA4C89"/>
</svg>
