<svg width="34" height="34" viewBox="0 0 34 34" fill="none" xmlns="http://www.w3.org/2000/svg">
<rect width="34" height="34" rx="12" fill="#1E1E1E"/>
<path d="M17 17.3538C17 16.3206 17.4105 15.3297 18.1411 14.5991C18.8717 13.8685 19.8626 13.458 20.8958 13.458C21.9291 13.458 22.92 13.8685 23.6506 14.5991C24.3812 15.3297 24.7917 16.3206 24.7917 17.3538C24.7917 18.3871 24.3812 19.378 23.6506 20.1086C22.92 20.8392 21.9291 21.2497 20.8958 21.2497C19.8626 21.2497 18.8717 20.8392 18.1411 20.1086C17.4105 19.378 17 18.3871 17 17.3538V17.3538Z" fill="#1ABCFE"/>
<path d="M9.2085 25.1458C9.2085 24.1126 9.61895 23.1217 10.3496 22.3911C11.0802 21.6605 12.0711 21.25 13.1043 21.25H17.0002V25.1458C17.0002 26.1791 16.5897 27.17 15.8591 27.9006C15.1285 28.6312 14.1376 29.0417 13.1043 29.0417C12.0711 29.0417 11.0802 28.6312 10.3496 27.9006C9.61895 27.17 9.2085 26.1791 9.2085 25.1458V25.1458Z" fill="#0ACF83"/>
<path d="M17 5.6665V13.4582H20.8958C21.9291 13.4582 22.92 13.0477 23.6506 12.3171C24.3812 11.5865 24.7917 10.5956 24.7917 9.56234C24.7917 8.5291 24.3812 7.53818 23.6506 6.80757C22.92 6.07696 21.9291 5.6665 20.8958 5.6665H17Z" fill="#FF7262"/>
<path d="M9.2085 9.56234C9.2085 10.5956 9.61895 11.5865 10.3496 12.3171C11.0802 13.0477 12.0711 13.4582 13.1043 13.4582H17.0002V5.6665H13.1043C12.0711 5.6665 11.0802 6.07696 10.3496 6.80757C9.61895 7.53818 9.2085 8.5291 9.2085 9.56234V9.56234Z" fill="#F24E1E"/>
<path d="M9.2085 17.3538C9.2085 18.3871 9.61895 19.378 10.3496 20.1086C11.0802 20.8392 12.0711 21.2497 13.1043 21.2497H17.0002V13.458H13.1043C12.0711 13.458 11.0802 13.8685 10.3496 14.5991C9.61895 15.3297 9.2085 16.3206 9.2085 17.3538V17.3538Z" fill="#A259FF"/>
</svg>
