<svg width="29" height="29" viewBox="0 0 29 29" fill="none" xmlns="http://www.w3.org/2000/svg">
<path fill-rule="evenodd" clip-rule="evenodd" d="M7.05406 14.5C7.05406 10.3877 10.3877 7.05406 14.5 7.05406C18.6123 7.05406 21.9459 10.3877 21.9459 14.5C21.9459 18.6123 18.6123 21.9459 14.5 21.9459C10.3877 21.9459 7.05406 18.6123 7.05406 14.5ZM14.5 19.3333C11.8306 19.3333 9.66667 17.1694 9.66667 14.5C9.66667 11.8306 11.8306 9.66667 14.5 9.66667C17.1694 9.66667 19.3333 11.8306 19.3333 14.5C19.3333 17.1694 17.1694 19.3333 14.5 19.3333Z" fill="url(#paint0_linear_196_137)"/>
<path fill-rule="evenodd" clip-rule="evenodd" d="M7.05406 14.5C7.05406 10.3877 10.3877 7.05406 14.5 7.05406C18.6123 7.05406 21.9459 10.3877 21.9459 14.5C21.9459 18.6123 18.6123 21.9459 14.5 21.9459C10.3877 21.9459 7.05406 18.6123 7.05406 14.5ZM14.5 19.3333C11.8306 19.3333 9.66667 17.1694 9.66667 14.5C9.66667 11.8306 11.8306 9.66667 14.5 9.66667C17.1694 9.66667 19.3333 11.8306 19.3333 14.5C19.3333 17.1694 17.1694 19.3333 14.5 19.3333Z" fill="url(#paint1_radial_196_137)"/>
<path d="M22.2401 8.49985C23.2011 8.49985 23.9802 7.72087 23.9802 6.75988C23.9802 5.7989 23.2011 5.01985 22.2401 5.01985C21.2792 5.01985 20.5001 5.7989 20.5001 6.75988C20.5001 7.72087 21.2792 8.49985 22.2401 8.49985Z" fill="url(#paint2_linear_196_137)"/>
<path d="M22.2401 8.49985C23.2011 8.49985 23.9802 7.72087 23.9802 6.75988C23.9802 5.7989 23.2011 5.01985 22.2401 5.01985C21.2792 5.01985 20.5001 5.7989 20.5001 6.75988C20.5001 7.72087 21.2792 8.49985 22.2401 8.49985Z" fill="url(#paint3_radial_196_137)"/>
<path fill-rule="evenodd" clip-rule="evenodd" d="M14.5 0C10.562 0 10.0682 0.0166918 8.52167 0.0872577C6.97831 0.157651 5.92426 0.40279 5.00195 0.76126C4.04845 1.13176 3.23982 1.62756 2.43366 2.43366C1.62756 3.23982 1.13176 4.04845 0.76126 5.00195C0.40279 5.92426 0.157651 6.97831 0.0872577 8.52167C0.0166918 10.0682 0 10.562 0 14.5C0 18.438 0.0166918 18.9318 0.0872577 20.4783C0.157651 22.0217 0.40279 23.0757 0.76126 23.9981C1.13176 24.9516 1.62756 25.7602 2.43366 26.5663C3.23982 27.3724 4.04845 27.8682 5.00195 28.2388C5.92426 28.5972 6.97831 28.8424 8.52167 28.9127C10.0682 28.9833 10.562 29 14.5 29C18.438 29 18.9318 28.9833 20.4783 28.9127C22.0217 28.8424 23.0757 28.5972 23.9981 28.2388C24.9516 27.8682 25.7602 27.3724 26.5663 26.5663C27.3724 25.7602 27.8682 24.9516 28.2388 23.9981C28.5972 23.0757 28.8424 22.0217 28.9127 20.4783C28.9833 18.9318 29 18.438 29 14.5C29 10.562 28.9833 10.0682 28.9127 8.52167C28.8424 6.97831 28.5972 5.92426 28.2388 5.00195C27.8682 4.04845 27.3724 3.23982 26.5663 2.43366C25.7602 1.62756 24.9516 1.13176 23.9981 0.76126C23.0757 0.40279 22.0217 0.157651 20.4783 0.0872577C18.9318 0.0166918 18.438 0 14.5 0ZM14.5 2.61261C18.3717 2.61261 18.8303 2.6274 20.3592 2.69716C21.773 2.76163 22.5407 2.99784 23.0517 3.19642C23.7285 3.45946 24.2115 3.77366 24.7189 4.28109C25.2263 4.78847 25.5405 5.27149 25.8036 5.94832C26.0022 6.45926 26.2384 7.22702 26.3028 8.64076C26.3726 10.1697 26.3874 10.6283 26.3874 14.5C26.3874 18.3717 26.3726 18.8303 26.3028 20.3592C26.2384 21.773 26.0022 22.5407 25.8036 23.0517C25.5405 23.7285 25.2263 24.2115 24.7189 24.7189C24.2115 25.2263 23.7285 25.5405 23.0517 25.8036C22.5407 26.0022 21.773 26.2384 20.3592 26.3028C18.8305 26.3726 18.3719 26.3874 14.5 26.3874C10.6281 26.3874 10.1696 26.3726 8.64076 26.3028C7.22702 26.2384 6.45926 26.0022 5.94832 25.8036C5.2715 25.5405 4.78847 25.2263 4.2811 24.7189C3.77373 24.2115 3.45946 23.7285 3.19642 23.0517C2.99785 22.5407 2.76163 21.773 2.69716 20.3592C2.6274 18.8303 2.61261 18.3717 2.61261 14.5C2.61261 10.6283 2.6274 10.1697 2.69716 8.64076C2.76163 7.22702 2.99785 6.45926 3.19642 5.94832C3.45946 5.27149 3.77367 4.78847 4.2811 4.28109C4.78847 3.77366 5.2715 3.45946 5.94832 3.19642C6.45926 2.99784 7.22702 2.76163 8.64076 2.69716C10.1697 2.6274 10.6283 2.61261 14.5 2.61261Z" fill="url(#paint4_linear_196_137)"/>
<path fill-rule="evenodd" clip-rule="evenodd" d="M14.5 0C10.562 0 10.0682 0.0166918 8.52167 0.0872577C6.97831 0.157651 5.92426 0.40279 5.00195 0.76126C4.04845 1.13176 3.23982 1.62756 2.43366 2.43366C1.62756 3.23982 1.13176 4.04845 0.76126 5.00195C0.40279 5.92426 0.157651 6.97831 0.0872577 8.52167C0.0166918 10.0682 0 10.562 0 14.5C0 18.438 0.0166918 18.9318 0.0872577 20.4783C0.157651 22.0217 0.40279 23.0757 0.76126 23.9981C1.13176 24.9516 1.62756 25.7602 2.43366 26.5663C3.23982 27.3724 4.04845 27.8682 5.00195 28.2388C5.92426 28.5972 6.97831 28.8424 8.52167 28.9127C10.0682 28.9833 10.562 29 14.5 29C18.438 29 18.9318 28.9833 20.4783 28.9127C22.0217 28.8424 23.0757 28.5972 23.9981 28.2388C24.9516 27.8682 25.7602 27.3724 26.5663 26.5663C27.3724 25.7602 27.8682 24.9516 28.2388 23.9981C28.5972 23.0757 28.8424 22.0217 28.9127 20.4783C28.9833 18.9318 29 18.438 29 14.5C29 10.562 28.9833 10.0682 28.9127 8.52167C28.8424 6.97831 28.5972 5.92426 28.2388 5.00195C27.8682 4.04845 27.3724 3.23982 26.5663 2.43366C25.7602 1.62756 24.9516 1.13176 23.9981 0.76126C23.0757 0.40279 22.0217 0.157651 20.4783 0.0872577C18.9318 0.0166918 18.438 0 14.5 0ZM14.5 2.61261C18.3717 2.61261 18.8303 2.6274 20.3592 2.69716C21.773 2.76163 22.5407 2.99784 23.0517 3.19642C23.7285 3.45946 24.2115 3.77366 24.7189 4.28109C25.2263 4.78847 25.5405 5.27149 25.8036 5.94832C26.0022 6.45926 26.2384 7.22702 26.3028 8.64076C26.3726 10.1697 26.3874 10.6283 26.3874 14.5C26.3874 18.3717 26.3726 18.8303 26.3028 20.3592C26.2384 21.773 26.0022 22.5407 25.8036 23.0517C25.5405 23.7285 25.2263 24.2115 24.7189 24.7189C24.2115 25.2263 23.7285 25.5405 23.0517 25.8036C22.5407 26.0022 21.773 26.2384 20.3592 26.3028C18.8305 26.3726 18.3719 26.3874 14.5 26.3874C10.6281 26.3874 10.1696 26.3726 8.64076 26.3028C7.22702 26.2384 6.45926 26.0022 5.94832 25.8036C5.2715 25.5405 4.78847 25.2263 4.2811 24.7189C3.77373 24.2115 3.45946 23.7285 3.19642 23.0517C2.99785 22.5407 2.76163 21.773 2.69716 20.3592C2.6274 18.8303 2.61261 18.3717 2.61261 14.5C2.61261 10.6283 2.6274 10.1697 2.69716 8.64076C2.76163 7.22702 2.99785 6.45926 3.19642 5.94832C3.45946 5.27149 3.77367 4.78847 4.2811 4.28109C4.78847 3.77366 5.2715 3.45946 5.94832 3.19642C6.45926 2.99784 7.22702 2.76163 8.64076 2.69716C10.1697 2.6274 10.6283 2.61261 14.5 2.61261Z" fill="url(#paint5_radial_196_137)"/>
<defs>
<linearGradient id="paint0_linear_196_137" x1="1.69206" y1="1.52461" x2="10.8355" y2="36.8926" gradientUnits="userSpaceOnUse">
<stop stop-color="#4E60D3"/>
<stop offset="0.142763" stop-color="#913BAF"/>
<stop offset="0.761458" stop-color="#D52D88"/>
<stop offset="1" stop-color="#F26D4F"/>
</linearGradient>
<radialGradient id="paint1_radial_196_137" cx="0" cy="0" r="1" gradientUnits="userSpaceOnUse" gradientTransform="translate(8.77956 29) rotate(32.1601) scale(27.0844 19.4918)">
<stop stop-color="#FED276"/>
<stop offset="0.17024" stop-color="#FDBD61" stop-opacity="0.975006"/>
<stop offset="0.454081" stop-color="#F6804D"/>
<stop offset="1" stop-color="#E83D5C" stop-opacity="0.01"/>
</radialGradient>
<linearGradient id="paint2_linear_196_137" x1="1.69206" y1="1.52461" x2="10.8355" y2="36.8926" gradientUnits="userSpaceOnUse">
<stop stop-color="#4E60D3"/>
<stop offset="0.142763" stop-color="#913BAF"/>
<stop offset="0.761458" stop-color="#D52D88"/>
<stop offset="1" stop-color="#F26D4F"/>
</linearGradient>
<radialGradient id="paint3_radial_196_137" cx="0" cy="0" r="1" gradientUnits="userSpaceOnUse" gradientTransform="translate(8.77956 29) rotate(32.1601) scale(27.0844 19.4918)">
<stop stop-color="#FED276"/>
<stop offset="0.17024" stop-color="#FDBD61" stop-opacity="0.975006"/>
<stop offset="0.454081" stop-color="#F6804D"/>
<stop offset="1" stop-color="#E83D5C" stop-opacity="0.01"/>
</radialGradient>
<linearGradient id="paint4_linear_196_137" x1="1.69206" y1="1.52461" x2="10.8355" y2="36.8926" gradientUnits="userSpaceOnUse">
<stop stop-color="#4E60D3"/>
<stop offset="0.142763" stop-color="#913BAF"/>
<stop offset="0.761458" stop-color="#D52D88"/>
<stop offset="1" stop-color="#F26D4F"/>
</linearGradient>
<radialGradient id="paint5_radial_196_137" cx="0" cy="0" r="1" gradientUnits="userSpaceOnUse" gradientTransform="translate(8.77956 29) rotate(32.1601) scale(27.0844 19.4918)">
<stop stop-color="#FED276"/>
<stop offset="0.17024" stop-color="#FDBD61" stop-opacity="0.975006"/>
<stop offset="0.454081" stop-color="#F6804D"/>
<stop offset="1" stop-color="#E83D5C" stop-opacity="0.01"/>
</radialGradient>
</defs>
</svg>
